<?xml version="1.0" encoding="UTF-8" standalone="no"?>
<!-- Created with Inkscape (http://www.inkscape.org/) -->

<svg
   xmlns:dc="http://purl.org/dc/elements/1.1/"
   xmlns:cc="http://creativecommons.org/ns#"
   xmlns:rdf="http://www.w3.org/1999/02/22-rdf-syntax-ns#"
   xmlns:svg="http://www.w3.org/2000/svg"
   xmlns="http://www.w3.org/2000/svg"
   xmlns:sodipodi="http://sodipodi.sourceforge.net/DTD/sodipodi-0.dtd"
   xmlns:inkscape="http://www.inkscape.org/namespaces/inkscape"
   width="79.375mm"
   height="79.375mm"
   viewBox="0 0 79.374997 79.374997"
   version="1.1"
   id="svg8"
   inkscape:version="0.92.4 (unknown)"
   sodipodi:docname="blood.svg">
  <defs
     id="defs2" />
  <sodipodi:namedview
     id="base"
     pagecolor="#ffffff"
     bordercolor="#666666"
     borderopacity="1.0"
     inkscape:pageopacity="0.0"
     inkscape:pageshadow="2"
     inkscape:zoom="0.0875"
     inkscape:cx="-542.299"
     inkscape:cy="-1026.9013"
     inkscape:document-units="mm"
     inkscape:current-layer="layer1"
     showgrid="false"
     fit-margin-top="0"
     fit-margin-left="0"
     fit-margin-right="0"
     fit-margin-bottom="0"
     inkscape:window-width="959"
     inkscape:window-height="1023"
     inkscape:window-x="0"
     inkscape:window-y="0"
     inkscape:window-maximized="0" />
  <metadata
     id="metadata5">
    <rdf:RDF>
      <cc:Work
         rdf:about="">
        <dc:format>image/svg+xml</dc:format>
        <dc:type
           rdf:resource="http://purl.org/dc/dcmitype/StillImage" />
        <dc:title></dc:title>
      </cc:Work>
    </rdf:RDF>
  </metadata>
  <g
     inkscape:label="Layer 1"
     inkscape:groupmode="layer"
     id="layer1"
     transform="translate(44.026667,-55.27667)">
    <path
       style="fill:#000000;stroke-width:0.48106062"
       d="M -44.026667,94.964169 V 55.27667 H -4.3391674 35.348333 V 94.964169 134.65167 H -4.3391674 -44.026667 Z M 3.073508,123.63798 c 7.385621,-2.2987 12.1742,-7.57807 13.498748,-14.88245 0.99085,-5.46409 -0.363067,-9.520849 -5.566537,-16.677725 C 3.5314097,81.797237 -0.20331601,75.46326 -3.1237674,68.114566 l -1.1113621,-2.796591 -1.7935249,4.239772 c -1.9344891,4.572956 -4.3141486,8.938581 -7.1620406,13.139376 -12.073074,17.808127 -12.285006,18.238527 -11.963528,24.293527 0.251136,4.72954 1.832614,8.3621 5.034944,11.56443 2.314375,2.31437 6.626937,4.76051 9.648579,5.47284 3.365801,0.79347 10.39188238,0.59119 13.544208,-0.38977 z"
       id="path881"
       inkscape:connector-curvature="0" />
  </g>
</svg>
