<?xml version="1.0" encoding="UTF-8" standalone="no"?>
<!-- Created with Inkscape (http://www.inkscape.org/) -->

<svg
   xmlns:dc="http://purl.org/dc/elements/1.1/"
   xmlns:cc="http://creativecommons.org/ns#"
   xmlns:rdf="http://www.w3.org/1999/02/22-rdf-syntax-ns#"
   xmlns:svg="http://www.w3.org/2000/svg"
   xmlns="http://www.w3.org/2000/svg"
   xmlns:sodipodi="http://sodipodi.sourceforge.net/DTD/sodipodi-0.dtd"
   xmlns:inkscape="http://www.inkscape.org/namespaces/inkscape"
   width="79.375mm"
   height="79.375mm"
   viewBox="0 0 79.374999 79.374999"
   version="1.1"
   id="svg3615"
   inkscape:version="0.92.4 (unknown)"
   sodipodi:docname="bone_flute.svg">
  <defs
     id="defs3609" />
  <sodipodi:namedview
     id="base"
     pagecolor="#ffffff"
     bordercolor="#666666"
     borderopacity="1.0"
     inkscape:pageopacity="0.0"
     inkscape:pageshadow="2"
     inkscape:zoom="1.979899"
     inkscape:cx="52.847397"
     inkscape:cy="-22.453904"
     inkscape:document-units="mm"
     inkscape:current-layer="layer1"
     showgrid="false"
     fit-margin-top="0"
     fit-margin-left="0"
     fit-margin-right="0"
     fit-margin-bottom="0"
     inkscape:window-width="959"
     inkscape:window-height="1023"
     inkscape:window-x="959"
     inkscape:window-y="0"
     inkscape:window-maximized="0" />
  <metadata
     id="metadata3612">
    <rdf:RDF>
      <cc:Work
         rdf:about="">
        <dc:format>image/svg+xml</dc:format>
        <dc:type
           rdf:resource="http://purl.org/dc/dcmitype/StillImage" />
        <dc:title></dc:title>
      </cc:Work>
    </rdf:RDF>
  </metadata>
  <g
     inkscape:label="Layer 1"
     inkscape:groupmode="layer"
     id="layer1"
     transform="translate(70.604326,-10.038849)">
    <g
       id="Flûte_archéo"
       transform="matrix(0.84710035,0,0,0.84710035,-86.166405,-283.94818)">
      <circle
         stroke-miterlimit="10"
         cx="65.222"
         cy="393.90201"
         r="44.851002"
         id="circle4847"
         style="fill:#f3f3f2;stroke:#fafafa;stroke-width:4;stroke-miterlimit:10" />
      <g
         id="g4849">
        <path
           d="m 81.974,367.645 c -1.034,2.301 -3.155,4.421 -3.487,5.1 -0.331,0.681 -3.655,6.561 -4.099,7.466 -0.442,0.906 -9.625,17.108 -10.279,18.262 -0.653,1.153 -3.226,6.419 -6.387,15.113 -3.161,8.693 -2.743,9.88 -2.612,11.837 0.131,1.957 0.514,4.88 -0.517,6.62 -0.676,1.142 -4.29,1.552 -3.855,0.291 0.435,-1.26 -0.998,0.002 -1.629,-1.118 -0.629,-1.12 -1.146,-1.359 -2.93,-1.599 -1.785,-0.241 -0.996,-1.118 -1.11,-2.366 -0.115,-1.248 -2.684,-2.294 -2.838,-2.719 -0.154,-0.427 0.344,-1.444 0.628,-1.658 0.283,-0.212 3.485,-1.943 5.288,-6.743 5.563,-14.822 8.407,-19.808 9.541,-22.129 1.064,-2.178 12.58,-24.639 15.896,-33.47 0.829,-2.207 1.242,-4.153 1.394,-5.834 0,0 5.391,2.005 8.687,3.406 -0.002,0 -1.877,6.134 -1.691,9.541 z"
           id="path4851"
           inkscape:connector-curvature="0"
           style="fill:#8f8c87" />
        <path
           d="m 73.529,362.61 4.91,1.839 c -10e-4,0 -6.487,6.439 -4.91,-1.839 z"
           id="path4853"
           inkscape:connector-curvature="0"
           style="fill:#ffffff" />
        <ellipse
           transform="matrix(0.9277,0.3734,-0.3734,0.9277,149.2822,4.1753)"
           cx="63.863998"
           cy="387.401"
           rx="1.329"
           ry="1.508"
           id="ellipse4855"
           style="fill:#ffffff" />
        <ellipse
           transform="matrix(0.9277,0.3733,-0.3733,0.9277,151.1737,5.5708)"
           cx="61.202"
           cy="393.14499"
           rx="1.476"
           ry="1.697"
           id="ellipse4857"
           style="fill:#ffffff" />
        <ellipse
           transform="matrix(0.9276,0.3735,-0.3735,0.9276,153.2158,7.1165)"
           cx="58.243999"
           cy="398.92099"
           rx="1.4299999"
           ry="1.612"
           id="ellipse4859"
           style="fill:#ffffff" />
        <ellipse
           transform="matrix(0.9277,0.3733,-0.3733,0.9277,155.4812,8.8407)"
           cx="54.911999"
           cy="405.91199"
           rx="1.0779999"
           ry="1.239"
           id="ellipse4861"
           style="fill:#ffffff" />
        <ellipse
           transform="matrix(0.9277,0.3734,-0.3734,0.9277,157.5561,10.0092)"
           cx="52.941002"
           cy="411.70001"
           rx="1.679"
           ry="1.931"
           id="ellipse4863"
           style="fill:#ffffff" />
        <ellipse
           transform="matrix(0.9277,0.3733,-0.3733,0.9277,159.6094,11.2555)"
           cx="50.741001"
           cy="417.76999"
           rx="1.476"
           ry="1.698"
           id="ellipse4865"
           style="fill:#ffffff" />
      </g>
    </g>
  </g>
</svg>
