<?xml version="1.0" encoding="UTF-8" standalone="no"?>
<!-- Created with Inkscape (http://www.inkscape.org/) -->

<svg
   xmlns:dc="http://purl.org/dc/elements/1.1/"
   xmlns:cc="http://creativecommons.org/ns#"
   xmlns:rdf="http://www.w3.org/1999/02/22-rdf-syntax-ns#"
   xmlns:svg="http://www.w3.org/2000/svg"
   xmlns="http://www.w3.org/2000/svg"
   xmlns:sodipodi="http://sodipodi.sourceforge.net/DTD/sodipodi-0.dtd"
   xmlns:inkscape="http://www.inkscape.org/namespaces/inkscape"
   width="300"
   height="300"
   viewBox="0 0 79.375004 79.375002"
   version="1.1"
   id="svg8"
   inkscape:version="0.92.4 (unknown)"
   sodipodi:docname="flag_Portugal.svg">
  <defs
     id="defs2">
    <clipPath
       clipPathUnits="userSpaceOnUse"
       id="clipPath854">
      <path
         d="M 0,841.89 H 595.28 V 0 H 0 Z"
         id="path856"
         inkscape:connector-curvature="0" />
    </clipPath>
  </defs>
  <sodipodi:namedview
     id="base"
     pagecolor="#ffffff"
     bordercolor="#666666"
     borderopacity="1.0"
     inkscape:pageopacity="0.0"
     inkscape:pageshadow="2"
     inkscape:zoom="0.98994949"
     inkscape:cx="148.82995"
     inkscape:cy="76.546853"
     inkscape:document-units="mm"
     inkscape:current-layer="layer1"
     showgrid="false"
     fit-margin-top="0"
     fit-margin-left="0"
     fit-margin-right="0"
     fit-margin-bottom="0"
     inkscape:window-width="959"
     inkscape:window-height="1023"
     inkscape:window-x="959"
     inkscape:window-y="0"
     inkscape:window-maximized="0"
     units="px" />
  <metadata
     id="metadata5">
    <rdf:RDF>
      <cc:Work
         rdf:about="">
        <dc:format>image/svg+xml</dc:format>
        <dc:type
           rdf:resource="http://purl.org/dc/dcmitype/StillImage" />
        <dc:title></dc:title>
      </cc:Work>
    </rdf:RDF>
  </metadata>
  <g
     inkscape:label="Layer 1"
     inkscape:groupmode="layer"
     id="layer1"
     transform="translate(-37.02123,-33.377804)">
    <g
       id="g963"
       transform="translate(-0.023282,-15.953045)">
      <path
         inkscape:connector-curvature="0"
         id="path860"
         style="fill:#e30613;fill-opacity:1;fill-rule:nonzero;stroke:none;stroke-width:1.87894285"
         d="M 116.41951,112.16939 H 37.044514 V 65.867307 h 79.374996 z" />
      <path
         inkscape:connector-curvature="0"
         id="path862"
         style="fill:#016701;fill-opacity:1;fill-rule:nonzero;stroke:none;stroke-width:1.87894285"
         d="M 64.508981,112.16939 H 37.044514 V 65.867307 h 27.464467 z" />
      <g
         transform="matrix(1.9286843,0,0,-1.8304844,74.368027,89.018374)"
         id="g864">
        <path
           inkscape:connector-curvature="0"
           id="path866"
           style="fill:none;stroke:#ffed00;stroke-width:1;stroke-linecap:butt;stroke-linejoin:miter;stroke-miterlimit:10;stroke-dasharray:none;stroke-opacity:1"
           d="m 0,0 c 0,-2.823 -2.289,-5.112 -5.112,-5.112 -2.825,0 -5.114,2.289 -5.114,5.112 0,2.823 2.289,5.112 5.114,5.112 C -2.289,5.112 0,2.823 0,0 Z" />
      </g>
      <g
         transform="matrix(1.9286843,0,0,-1.8304844,72.582646,83.655568)"
         id="g868">
        <path
           inkscape:connector-curvature="0"
           id="path870"
           style="fill:none;stroke:#ffed00;stroke-width:1;stroke-linecap:butt;stroke-linejoin:round;stroke-miterlimit:10;stroke-dasharray:none;stroke-opacity:1"
           d="M 0,0 H -8.374 L 0.874,-2.223 -9.205,-3.352 0.512,-4.946 -7.801,-6.544" />
      </g>
      <g
         transform="matrix(1.9286843,0,0,-1.8304844,70.746153,88.678821)"
         id="g872">
        <path
           inkscape:connector-curvature="0"
           id="path874"
           style="fill:#e30613;fill-opacity:1;fill-rule:nonzero;stroke:none"
           d="M 0,0 C 0,-2.519 -1.448,-4.56 -3.234,-4.56 -5.021,-4.56 -6.47,-2.519 -6.47,0 V 3.345 H 0 Z" />
      </g>
      <g
         transform="matrix(1.9286843,0,0,-1.8304844,70.746153,88.678821)"
         id="g876">
        <path
           inkscape:connector-curvature="0"
           id="path878"
           style="fill:none;stroke:#ffed00;stroke-width:0.25;stroke-linecap:butt;stroke-linejoin:miter;stroke-miterlimit:10;stroke-dasharray:none;stroke-opacity:1"
           d="M 0,0 C 0,-2.519 -1.448,-4.56 -3.234,-4.56 -5.021,-4.56 -6.47,-2.519 -6.47,0 V 3.345 H 0 Z" />
      </g>
      <g
         transform="matrix(1.9286843,0,0,-1.8304844,68.267599,89.120334)"
         id="g880">
        <path
           inkscape:connector-curvature="0"
           id="path882"
           style="fill:#ffffff;fill-opacity:1;fill-rule:nonzero;stroke:none"
           d="m 0,0 c 0,-1.518 -0.873,-2.748 -1.949,-2.748 -1.077,0 -1.95,1.23 -1.95,2.748 V 2.016 H 0 Z" />
      </g>
      <g
         transform="matrix(1.9286843,0,0,-1.8304844,62.733818,89.349107)"
         id="g884">
        <path
           inkscape:connector-curvature="0"
           id="path886"
           style="fill:#00518d;fill-opacity:1;fill-rule:nonzero;stroke:none"
           d="M 0,0 C 0,-0.27 -0.154,-0.486 -0.346,-0.486 -0.536,-0.486 -0.69,-0.27 -0.69,0 V 0.356 H 0 Z" />
      </g>
      <g
         transform="matrix(1.9286843,0,0,-1.8304844,65.173025,86.746365)"
         id="g888">
        <path
           inkscape:connector-curvature="0"
           id="path890"
           style="fill:#00518d;fill-opacity:1;fill-rule:nonzero;stroke:none"
           d="M 0,0 C 0,-0.269 -0.154,-0.486 -0.345,-0.486 -0.536,-0.486 -0.69,-0.269 -0.69,0 V 0.357 H 0 Z" />
      </g>
      <g
         transform="matrix(1.9286843,0,0,-1.8304844,65.173025,89.349107)"
         id="g892">
        <path
           inkscape:connector-curvature="0"
           id="path894"
           style="fill:#00518d;fill-opacity:1;fill-rule:nonzero;stroke:none"
           d="M 0,0 C 0,-0.27 -0.155,-0.486 -0.346,-0.486 -0.537,-0.486 -0.69,-0.27 -0.69,0 V 0.356 H 0 Z" />
      </g>
      <g
         transform="matrix(1.9286843,0,0,-1.8304844,65.173025,92.207447)"
         id="g896">
        <path
           inkscape:connector-curvature="0"
           id="path898"
           style="fill:#00518d;fill-opacity:1;fill-rule:nonzero;stroke:none"
           d="M 0,0 C 0,-0.27 -0.154,-0.487 -0.345,-0.487 -0.536,-0.487 -0.69,-0.27 -0.69,0 V 0.356 H 0 Z" />
      </g>
      <g
         transform="matrix(1.9286843,0,0,-1.8304844,67.61397,89.349107)"
         id="g900">
        <path
           inkscape:connector-curvature="0"
           id="path902"
           style="fill:#00518d;fill-opacity:1;fill-rule:nonzero;stroke:none"
           d="M 0,0 C 0,-0.27 -0.154,-0.486 -0.345,-0.486 -0.536,-0.486 -0.69,-0.27 -0.69,0 V 0.356 H 0 Z" />
      </g>
      <path
         inkscape:connector-curvature="0"
         id="path904"
         style="fill:#ffed00;fill-opacity:1;fill-rule:nonzero;stroke:none;stroke-width:1.87894285"
         d="m 65.523468,84.726791 h -2.032834 v -1.061676 h 2.032834 z" />
      <path
         inkscape:connector-curvature="0"
         id="path906"
         style="fill:#ffed00;fill-opacity:1;fill-rule:nonzero;stroke:none;stroke-width:1.87894285"
         d="m 60.645826,84.726791 h -2.032835 v -1.061676 h 2.032835 z" />
      <path
         inkscape:connector-curvature="0"
         id="path908"
         style="fill:#ffed00;fill-opacity:1;fill-rule:nonzero;stroke:none;stroke-width:1.87894285"
         d="m 70.401111,84.726791 h -2.032835 v -1.061676 h 2.032835 z" />
      <path
         inkscape:connector-curvature="0"
         id="path910"
         style="fill:#ffed00;fill-opacity:1;fill-rule:nonzero;stroke:none;stroke-width:1.87894285"
         d="M 60.518529,90.176146 H 58.48377 V 89.11447 h 2.034759 z" />
      <g
         transform="matrix(1.9286843,0,0,-1.8304844,62.383566,93.540962)"
         id="g912">
        <path
           inkscape:connector-curvature="0"
           id="path914"
           style="fill:#ffed00;fill-opacity:1;fill-rule:nonzero;stroke:none"
           d="m 0,0 -0.781,-0.705 -0.39,0.429 0.781,0.706 z" />
      </g>
      <path
         inkscape:connector-curvature="0"
         id="path916"
         style="fill:#ffed00;fill-opacity:1;fill-rule:nonzero;stroke:none;stroke-width:1.87894285"
         d="M 68.509072,90.176146 H 70.54383 V 89.11447 h -2.034758 z" />
      <g
         transform="matrix(1.9286843,0,0,-1.8304844,66.644034,93.540962)"
         id="g918">
        <path
           inkscape:connector-curvature="0"
           id="path920"
           style="fill:#ffed00;fill-opacity:1;fill-rule:nonzero;stroke:none"
           d="M 0,0 0.781,-0.705 1.171,-0.276 0.389,0.43 Z" />
      </g>
    </g>
  </g>
</svg>
