<?xml version="1.0" encoding="UTF-8" standalone="no"?>
<!-- Created with Inkscape (http://www.inkscape.org/) -->

<svg
   xmlns:dc="http://purl.org/dc/elements/1.1/"
   xmlns:cc="http://creativecommons.org/ns#"
   xmlns:rdf="http://www.w3.org/1999/02/22-rdf-syntax-ns#"
   xmlns:svg="http://www.w3.org/2000/svg"
   xmlns="http://www.w3.org/2000/svg"
   xmlns:sodipodi="http://sodipodi.sourceforge.net/DTD/sodipodi-0.dtd"
   xmlns:inkscape="http://www.inkscape.org/namespaces/inkscape"
   width="81.38385mm"
   height="79.375mm"
   viewBox="0 0 288.36797 281.25"
   id="svg2"
   version="1.1"
   inkscape:version="0.92.4 (unknown)"
   sodipodi:docname="github_round.svg">
  <defs
     id="defs4" />
  <sodipodi:namedview
     id="base"
     pagecolor="#ffffff"
     bordercolor="#666666"
     borderopacity="1.0"
     inkscape:pageopacity="0.0"
     inkscape:pageshadow="2"
     inkscape:zoom="0.70000001"
     inkscape:cx="11.424224"
     inkscape:cy="14.905851"
     inkscape:document-units="px"
     inkscape:current-layer="g4499"
     showgrid="false"
     inkscape:window-width="1920"
     inkscape:window-height="1023"
     inkscape:window-x="0"
     inkscape:window-y="0"
     inkscape:window-maximized="1"
     fit-margin-top="0"
     fit-margin-left="0"
     fit-margin-right="0"
     fit-margin-bottom="0" />
  <metadata
     id="metadata7">
    <rdf:RDF>
      <cc:Work
         rdf:about="">
        <dc:format>image/svg+xml</dc:format>
        <dc:type
           rdf:resource="http://purl.org/dc/dcmitype/StillImage" />
        <dc:title></dc:title>
      </cc:Work>
    </rdf:RDF>
  </metadata>
  <g
     inkscape:label="Layer 1"
     inkscape:groupmode="layer"
     id="layer1"
     transform="translate(-239.14019,115.64454)">
    <g
       transform="matrix(1.25,0,0,-1.25,-907.97446,384.50217)"
       inkscape:label="ink_ext_XXXXXX"
       id="g4499">
      <path
         d="m 1033.0282,400.11737 c -63.68702,0 -115.33648,-51.64224 -115.33648,-115.35051 0,-50.95539 33.04743,-94.19254 78.88317,-109.45218 5.77111,-1.05428 7.87411,2.50676 7.87411,5.56575 0,2.74029 -0.099,9.99147 -0.1559,19.61451 -32.08423,-6.96777 -38.85376,15.46511 -38.85376,15.46511 -5.24705,13.3265 -12.8097,16.87422 -12.8097,16.87422 -10.4727,7.15171 0.79355,7.01015 0.79355,7.01015 11.57757,-0.81339 17.6672,-11.88905 17.6672,-11.88905 10.28877,-17.62483 27.00003,-12.53352 33.57141,-9.58067 1.0487,7.44929 4.0291,12.53352 7.3218,15.41551 -25.61232,2.91728 -52.5415,12.80956 -52.5415,57.0096 0,12.59714 4.49644,22.88605 11.87488,30.95133 -1.18891,2.91742 -5.148,14.64379 1.13222,30.52665 0,0 9.67986,3.10149 31.7161,-11.81848 9.1982,2.55636 19.0694,3.83085 28.8766,3.88045 9.8002,-0.0425 19.6642,-1.32352 28.8767,-3.88045 22.0221,14.91997 31.6876,11.81848 31.6876,11.81848 6.2951,-15.88286 2.3369,-27.60923 1.1549,-30.52665 7.3926,-8.06528 11.8536,-18.35419 11.8536,-30.95133 0,-44.31326 -26.9717,-54.06383 -52.6618,-56.91763 4.1354,-3.56175 7.8247,-10.60038 7.8247,-21.36344 0,-15.41551 -0.1417,-27.85706 -0.1417,-31.63831 0,-3.08733 2.0818,-6.67742 7.9308,-5.55158 45.8003,15.28798 78.8194,58.4897 78.8194,109.43801 0,63.70827 -51.6495,115.35051 -115.3578,115.35051"
         style="fill:#000000;fill-opacity:1;fill-rule:evenodd;stroke:none;stroke-width:14.17049313"
         id="path4505"
         inkscape:connector-curvature="0" />
    </g>
  </g>
</svg>
