<?xml version="1.0" encoding="UTF-8" standalone="no"?>
<!-- Created with Inkscape (http://www.inkscape.org/) -->

<svg
   xmlns:dc="http://purl.org/dc/elements/1.1/"
   xmlns:cc="http://creativecommons.org/ns#"
   xmlns:rdf="http://www.w3.org/1999/02/22-rdf-syntax-ns#"
   xmlns:svg="http://www.w3.org/2000/svg"
   xmlns="http://www.w3.org/2000/svg"
   xmlns:sodipodi="http://sodipodi.sourceforge.net/DTD/sodipodi-0.dtd"
   xmlns:inkscape="http://www.inkscape.org/namespaces/inkscape"
   width="300"
   height="300"
   viewBox="0 0 79.374994 79.375"
   version="1.1"
   id="svg8"
   inkscape:version="0.92.4 (unknown)"
   sodipodi:docname="hand.svg">
  <defs
     id="defs2" />
  <sodipodi:namedview
     id="base"
     pagecolor="#ffffff"
     bordercolor="#666666"
     borderopacity="1.0"
     inkscape:pageopacity="0.0"
     inkscape:pageshadow="2"
     inkscape:zoom="2.8"
     inkscape:cx="66.57794"
     inkscape:cy="6.3632639"
     inkscape:document-units="mm"
     inkscape:current-layer="layer1"
     showgrid="false"
     fit-margin-top="0"
     fit-margin-left="0"
     fit-margin-right="0"
     fit-margin-bottom="0"
     inkscape:window-width="1920"
     inkscape:window-height="1023"
     inkscape:window-x="0"
     inkscape:window-y="0"
     inkscape:window-maximized="1"
     units="px" />
  <metadata
     id="metadata5">
    <rdf:RDF>
      <cc:Work
         rdf:about="">
        <dc:format>image/svg+xml</dc:format>
        <dc:type
           rdf:resource="http://purl.org/dc/dcmitype/StillImage" />
        <dc:title></dc:title>
      </cc:Work>
    </rdf:RDF>
  </metadata>
  <g
     inkscape:label="Layer 1"
     inkscape:groupmode="layer"
     id="layer1"
     transform="translate(-50.811428,-114.74667)">
    <path
       style="fill:#000000;stroke-width:1.03003991"
       d="M 63.517046,182.87862 52.308848,171.63556 56.59067,166.5214 c 2.437054,-2.9108 4.281822,-6.18939 4.281822,-7.60981 0,-1.37262 0.972078,-6.17526 2.160175,-10.67249 1.615342,-6.11448 2.047219,-10.20364 1.712314,-16.2129 -0.395722,-7.1006 -0.220464,-8.15776 1.505378,-9.08139 5.649191,-3.02339 12.121846,3.0109 12.128959,11.30749 l 0.0038,4.49041 6.292457,-9.64063 c 9.78855,-14.9969 11.963811,-16.62031 16.368425,-12.21569 3.35361,3.35364 2.73745,6.38863 -3.340507,16.45419 -1.478017,2.44769 0.08366,1.19708 4.790407,-3.83619 5.8981,-6.30731 7.50376,-7.46779 10.33236,-7.46779 3.83008,0 6.75846,2.63455 6.75846,6.08031 0,1.40002 -2.33773,4.79489 -5.92273,8.60106 l -5.92273,6.28812 6.09041,-4.30453 c 6.94599,-4.90919 10.97158,-5.51359 13.42194,-2.0152 2.49535,3.56262 1.99173,4.96654 -3.69785,10.30817 -4.35549,4.08916 -4.79012,4.78279 -2.43607,3.88777 5.28031,-2.00758 9.76483,3.04445 6.41708,7.22911 -2.13066,2.66332 -10.2036,8.72249 -17.16543,12.88355 -3.65214,2.18288 -9.15547,6.01755 -12.229605,8.52145 -3.966426,3.2307 -6.823655,4.70477 -9.840367,5.07667 -3.230963,0.39834 -5.36961,1.60445 -8.912602,5.02634 l -4.661571,4.50225 z m 21.913472,-1.09972 c 3.913137,0 8.083477,-1.95139 10.957683,-5.12736 1.119007,-1.23647 6.216609,-4.81895 11.328009,-7.961 15.14361,-9.30906 20.82449,-14.72271 15.44944,-14.72271 -0.79625,0 -4.95557,2.12966 -9.24293,4.7326 -7.74995,4.70508 -11.31121,5.28133 -10.6252,1.71918 0.1901,-0.98717 4.97542,-5.39431 10.63404,-9.79371 7.43838,-5.78314 10.37868,-8.71081 10.61431,-10.56881 0.54334,-4.28412 -2.65983,-3.13267 -13.06367,4.69597 -9.17053,6.90061 -12.327385,8.18696 -13.254942,5.40104 -0.22681,-0.68128 3.809462,-5.72323 8.969512,-11.20439 5.16005,-5.48117 9.21953,-10.45288 9.02108,-11.04825 -0.19847,-0.59536 -1.14052,-1.57431 -2.09346,-2.1754 -1.44083,-0.90888 -3.42851,0.59661 -11.80258,8.93925 -5.538478,5.51768 -10.655611,10.03216 -11.37141,10.03216 -2.933431,0 -2.055779,-3.22292 3.384915,-12.43009 5.956725,-10.08047 6.555935,-12.61497 3.09307,-13.08272 -1.599399,-0.21607 -3.797723,2.41023 -10.008916,11.95735 -11.504897,17.68405 -13.274867,18.49961 -12.882574,5.93599 0.250557,-8.02485 -0.948203,-10.92125 -4.520167,-10.92125 -1.724503,0 -1.935282,0.86457 -1.946186,7.9828 -0.0066,4.39056 -0.696497,10.53218 -1.532832,13.64804 -0.836335,3.11589 -1.526112,7.73353 -1.532836,10.26141 -0.01051,3.99806 -0.570228,5.16478 -4.299901,8.96503 l -4.287677,4.36884 9.180368,8.71894 9.180363,8.71899 3.648572,-3.52093 c 2.632701,-2.54061 4.582795,-3.52097 7.003919,-3.52097 z"
       id="path1014"
       inkscape:connector-curvature="0" />
  </g>
</svg>
