<?xml version="1.0" encoding="UTF-8" standalone="no"?>
<!-- Created with Inkscape (http://www.inkscape.org/) -->

<svg
   xmlns:dc="http://purl.org/dc/elements/1.1/"
   xmlns:cc="http://creativecommons.org/ns#"
   xmlns:rdf="http://www.w3.org/1999/02/22-rdf-syntax-ns#"
   xmlns:svg="http://www.w3.org/2000/svg"
   xmlns="http://www.w3.org/2000/svg"
   xmlns:sodipodi="http://sodipodi.sourceforge.net/DTD/sodipodi-0.dtd"
   xmlns:inkscape="http://www.inkscape.org/namespaces/inkscape"
   width="300"
   height="300"
   viewBox="0 0 79.374994 79.375"
   version="1.1"
   id="svg8"
   inkscape:version="0.92.4 (unknown)"
   sodipodi:docname="horse.svg">
  <defs
     id="defs2" />
  <sodipodi:namedview
     id="base"
     pagecolor="#ffffff"
     bordercolor="#666666"
     borderopacity="1.0"
     inkscape:pageopacity="0.0"
     inkscape:pageshadow="2"
     inkscape:zoom="1.4"
     inkscape:cx="117.19985"
     inkscape:cy="78.169443"
     inkscape:document-units="mm"
     inkscape:current-layer="layer1"
     showgrid="false"
     fit-margin-top="0"
     fit-margin-left="0"
     fit-margin-right="0"
     fit-margin-bottom="0"
     inkscape:window-width="1920"
     inkscape:window-height="1023"
     inkscape:window-x="0"
     inkscape:window-y="0"
     inkscape:window-maximized="1"
     units="px" />
  <metadata
     id="metadata5">
    <rdf:RDF>
      <cc:Work
         rdf:about="">
        <dc:format>image/svg+xml</dc:format>
        <dc:type
           rdf:resource="http://purl.org/dc/dcmitype/StillImage" />
        <dc:title></dc:title>
      </cc:Work>
    </rdf:RDF>
  </metadata>
  <g
     inkscape:label="Layer 1"
     inkscape:groupmode="layer"
     id="layer1"
     transform="translate(-50.811428,-114.74667)">
    <g
       id="g62228"
       transform="matrix(2.6007112,0,0,-2.6007112,73.458422,147.12295)">
      <path
         d="m 0,0 c -0.185,-0.59 -0.534,-1.719 0.397,-2.926 0.141,-0.179 0.758,-1.344 0.979,-1.521 0.222,-0.176 0.84,-1.061 0.884,-1.517 0.044,-0.455 0.192,-1.958 0.073,-2.118 -0.117,-0.163 0.045,-0.737 0.295,-0.795 0.25,-0.06 1.251,-1.914 1.281,-2.239 0,0 -0.191,-0.102 -0.133,-0.516 0,0 0.928,-0.338 1.532,-0.086 0,0 -0.205,0.707 -0.5,0.913 0,0 -1.061,1.589 -0.899,2.03 0,0 1.443,-1.119 1.487,-1.28 0,0 0.236,-0.163 0.177,-0.604 0,0 0.426,-0.045 0.397,-0.455 l 0.002,-0.325 c 0,0 0.94,-0.354 1.456,-0.088 0,0 -0.398,0.986 -0.589,0.986 0,0 -0.265,0.472 -0.25,0.618 0.014,0.149 -0.223,0.237 -0.383,0.323 -0.162,0.089 -1.208,1.121 -1.547,1.356 -0.338,0.236 -0.16,1.09 -0.117,1.192 0.045,0.103 0.088,0.472 0.383,0.883 0.294,0.413 0.427,1.12 0.603,1.326 0.178,0.205 0.205,0.794 0.205,0.794 0,0 2.313,-1.09 3.284,-1.09 0.972,0 2.459,-0.205 2.827,-0.175 0,0 0.662,-0.677 0.81,-0.75 0,0 0.825,-0.962 1.429,-1.173 0,0 0.235,-0.301 -0.311,-0.477 0,0 -1.162,-0.516 -1.632,-0.28 0,0 -0.119,0.101 -0.327,-0.148 L 11.3,-8.201 c 0,0 -0.102,0.487 -0.309,0.458 -0.207,-0.03 -0.546,0.074 -0.546,0.074 0,0 -0.825,-0.856 -0.558,-1.223 h 0.72 c 0,0 0.044,-0.102 0.369,-0.029 0.324,0.074 0.927,-0.03 1.103,-0.161 0.176,-0.134 1.561,0.661 2.055,0.75 0.492,0.088 0.463,0.015 0.595,0.146 0.133,0.134 0.692,0.751 0.31,1.134 -0.384,0.383 -0.648,1.309 -0.648,1.309 0,0 0.633,-0.194 0.913,-0.163 0.279,0.032 1.383,-0.203 1.516,-0.925 0.132,-0.722 -0.102,-1.575 -0.102,-1.575 0,0 -0.34,-0.074 -0.133,-0.429 l -0.178,-0.352 c 0,0 -0.588,0.221 -0.499,-0.103 l -0.427,-0.265 c 0,0 0.043,-1.104 0.352,-1.339 l 0.574,0.604 c 0,0 0.104,-0.045 0.192,0.161 0.088,0.206 0.649,0.913 0.765,0.973 0.118,0.057 0.266,0.162 0.237,0.381 -0.03,0.221 -0.06,2.017 -0.06,2.017 0,0 0.192,0.471 -0.132,0.957 0,0 -0.06,0.309 -0.515,0.545 0,0 -1.723,1.061 -1.915,1.252 0,0 0.383,0.161 0.458,0.677 0,0 0.529,0.809 0.264,2.223 0,0 1.163,2.046 1.384,2.473 0,0 0.155,0.367 0.519,0.294 0.364,-0.073 0.586,-0.367 0.969,-0.397 0,0 0.793,-0.781 1.692,-1.061 0,0 -0.192,-0.264 0.162,-0.455 0,0 0.22,-0.117 0.383,-0.088 0,0 0.22,-0.074 0.22,0.117 0,0 0.588,0.015 0.53,0.486 0,0 0.515,0.264 0.074,0.913 0,0 -0.899,1.678 -1.383,2.267 0,0 -0.016,0.28 -0.281,0.5 -0.266,0.221 -0.426,0.693 -0.648,0.825 0,0 0.353,0.648 0.338,1.266 0,0 -0.176,-0.368 -0.278,-0.383 -0.104,-0.014 -0.309,-0.265 -0.309,-0.265 0,0 0.102,0.368 0,0.486 0,0 -0.015,0.161 0.073,0.309 0,0 -0.25,0.059 -0.354,-0.369 0,0 -0.059,-0.117 -0.191,-0.13 -0.133,-0.016 -0.87,0.543 -1.694,0.499 0,0 0.753,-0.058 0.811,-0.309 0,0 -0.604,-0.06 -0.721,-0.133 0,0 -0.973,1.017 -1.68,-0.014 0,0 -0.411,-0.016 -0.558,-0.176 0,0 0.427,0.133 0.545,-0.016 0,0 -0.281,-0.206 -0.383,-0.295 0,0 -1.149,0.162 -0.885,-0.558 0,0 -0.014,0.72 0.738,0.338 0,0 -0.515,-0.544 -0.943,-0.559 -0.427,-0.016 -0.573,-0.147 -0.573,-0.25 0,0 -0.53,0.014 -1.12,0.117 -0.588,0.104 -1.245,-0.205 -1.359,-0.441 0,0 0.353,0.398 1.124,0.383 0,0 1.001,-0.119 1.149,-0.192 0,0 -0.723,0.118 -1.119,0 -0.397,-0.119 -0.442,0 -0.442,0 0,0 0.015,-0.193 0.707,-0.074 0,0 0.588,0.089 0.794,-0.117 0,0 -0.677,0 -0.898,-0.192 0,0 -0.898,0.059 -0.853,-0.162 0,0 -0.428,0.409 -1.031,-0.029 C 10.048,3.386 9.548,3.681 9.239,2.65 c 0,0 0.34,0.83 0.971,0.75 0.117,-0.014 0.516,0.413 0.795,0.03 0,0 -0.472,-0.073 -0.502,-0.456 0,0 -0.454,-0.058 -0.47,-0.309 0,0 -0.69,0 -0.706,-0.618 0,0 0.161,0.676 0.868,0.441 0,0 0,-0.529 -0.398,-0.5 -0.398,0.03 -1.118,0.235 -1.649,-0.148 0,0 0.766,0.324 1.296,0.029 0,0 -0.619,-0.057 -0.662,-0.352 0,0 0.397,0.441 0.647,0.058 0,0 -0.611,-0.592 -4.403,0.294 C 4.585,1.973 3.034,2.135 1.907,1.634 1.376,1.398 0.935,1.266 0.772,1.03 0.772,1.03 0.39,1 0.214,0.854 c 0,0 -1.029,0.16 -1.561,-0.324 C -1.509,0.383 -1.686,0.428 -1.788,0.383 l 0.19,-0.074 c 0,0 -0.485,-0.149 -1.104,-1.282 0,0 -0.678,-0.117 -0.735,-0.896 0,0 0.147,0.721 0.706,0.75 0,0 -0.685,-1.316 -0.78,-1.807 -0.029,-0.15 -0.308,-1.029 -1.222,-0.769 -0.206,0.059 -0.721,0.206 -0.87,0.22 0,0 -0.013,0.032 -0.042,0.079 -0.085,0.144 -0.301,0.439 -0.633,0.47 0,0 0.602,-0.209 0.544,-0.594 0,0 -1.385,0.93 -2.077,1.017 0,0 0.9,-0.397 1.002,-0.618 0,0 -1.149,0.471 -1.634,0.427 0,0 1.84,-0.382 2.179,-0.913 0,0 -1.104,0.744 -1.87,0.681 0,0 0.53,-0.15 0.5,-0.283 0,0 -0.691,0.206 -1.074,0.133 0,0 0.779,-0.016 0.869,-0.383 0,0 -0.207,0.177 -0.383,0.162 0,0 0,-0.414 0.397,-0.855 l -0.367,0.22 c 0,0 0.47,-0.47 0.853,-0.927 l -0.251,0.104 c 0,0 0.751,-0.708 0.869,-0.988 0.118,-0.278 1.149,-0.852 2.591,-0.013 1.443,0.839 2.238,1.971 2.223,2.133 -0.014,0.164 0.633,0.913 0.692,1.547 0.06,0.634 0.192,1.075 0.31,1.134 0,0 0.176,-0.619 -0.06,-1.34 0,0 0.368,0.854 0.28,1.192 0,0 0.393,-0.222 0.176,-0.352 0,0 0.223,0.278 -0.029,0.633 0,0 -0.176,1.205 0.538,0.809"
         style="fill:#231f20;fill-opacity:1;fill-rule:nonzero;stroke:none"
         id="path62230"
         inkscape:connector-curvature="0" />
    </g>
  </g>
</svg>
