<?xml version="1.0" encoding="UTF-8" standalone="no"?>
<!-- Created with Inkscape (http://www.inkscape.org/) -->

<svg
   xmlns:dc="http://purl.org/dc/elements/1.1/"
   xmlns:cc="http://creativecommons.org/ns#"
   xmlns:rdf="http://www.w3.org/1999/02/22-rdf-syntax-ns#"
   xmlns:svg="http://www.w3.org/2000/svg"
   xmlns="http://www.w3.org/2000/svg"
   xmlns:sodipodi="http://sodipodi.sourceforge.net/DTD/sodipodi-0.dtd"
   xmlns:inkscape="http://www.inkscape.org/namespaces/inkscape"
   width="300"
   height="300"
   viewBox="0 0 79.375 79.375"
   version="1.1"
   id="svg8"
   inkscape:version="0.92.4 (unknown)"
   sodipodi:docname="money.svg">
  <defs
     id="defs2" />
  <sodipodi:namedview
     id="base"
     pagecolor="#ffffff"
     bordercolor="#666666"
     borderopacity="1.0"
     inkscape:pageopacity="0.0"
     inkscape:pageshadow="2"
     inkscape:zoom="0.9899495"
     inkscape:cx="168.45187"
     inkscape:cy="46.376734"
     inkscape:document-units="mm"
     inkscape:current-layer="layer1"
     showgrid="false"
     fit-margin-top="0"
     fit-margin-left="0"
     fit-margin-right="0"
     fit-margin-bottom="0"
     inkscape:window-width="959"
     inkscape:window-height="1023"
     inkscape:window-x="0"
     inkscape:window-y="0"
     inkscape:window-maximized="0"
     units="px" />
  <metadata
     id="metadata5">
    <rdf:RDF>
      <cc:Work
         rdf:about="">
        <dc:format>image/svg+xml</dc:format>
        <dc:type
           rdf:resource="http://purl.org/dc/dcmitype/StillImage" />
        <dc:title></dc:title>
      </cc:Work>
    </rdf:RDF>
  </metadata>
  <g
     inkscape:label="Layer 1"
     inkscape:groupmode="layer"
     id="layer1"
     transform="translate(-81.721712,-49.915053)">
    <g
       id="g846"
       transform="translate(0.15750571,-4.2764642)">
      <g
         id="g4978"
         transform="matrix(13.622032,0,0,13.622032,-61.964632,-2194.2328)">
        <path
           inkscape:connector-curvature="0"
           id="path22238"
           style="fill:#e9e9e9;fill-opacity:1;fill-rule:nonzero;stroke:none;stroke-width:0.35277778"
           d="m 14.452883,170.50083 c -0.694972,-0.1016 -1.175456,-0.74718 -1.073856,-1.44216 0.101953,-0.69461 0.747184,-1.17545 1.442156,-1.0735 0.694619,0.10125 1.175103,0.74683 1.073503,1.4418 -0.1016,0.69462 -0.746831,1.17546 -1.441803,1.07386" />
        <path
           inkscape:connector-curvature="0"
           id="path22242"
           style="fill:none;stroke:#231f20;stroke-width:0.08819444;stroke-linecap:butt;stroke-linejoin:miter;stroke-miterlimit:4;stroke-dasharray:none;stroke-opacity:1"
           d="m 14.452883,170.50083 c -0.694972,-0.1016 -1.175456,-0.74718 -1.073856,-1.44216 0.101953,-0.69461 0.747184,-1.17545 1.442156,-1.0735 0.694619,0.10125 1.175103,0.74683 1.073503,1.4418 -0.1016,0.69462 -0.746831,1.17546 -1.441803,1.07386 z" />
        <path
           inkscape:connector-curvature="0"
           id="path22246"
           style="fill:#e9e9e9;fill-opacity:1;fill-rule:nonzero;stroke:none;stroke-width:0.35277778"
           d="m 14.500791,170.17458 c -0.514703,-0.0755 -0.870656,-0.55351 -0.795161,-1.06786 0.07514,-0.51435 0.553155,-0.8703 1.067505,-0.79481 0.51435,0.0748 0.870303,0.55281 0.795162,1.06716 -0.07514,0.51435 -0.553156,0.87065 -1.067506,0.79551" />
        <path
           inkscape:connector-curvature="0"
           id="path22250"
           style="fill:none;stroke:#231f20;stroke-width:0.05291667;stroke-linecap:butt;stroke-linejoin:miter;stroke-miterlimit:4;stroke-dasharray:none;stroke-opacity:1"
           d="m 14.500791,170.17458 c -0.514703,-0.0755 -0.870656,-0.55351 -0.795161,-1.06786 0.07514,-0.51435 0.553155,-0.8703 1.067505,-0.79481 0.51435,0.0748 0.870303,0.55281 0.795162,1.06716 -0.07514,0.51435 -0.553156,0.87065 -1.067506,0.79551 z" />
        <path
           inkscape:connector-curvature="0"
           id="path22254"
           style="fill:#e9e9e9;fill-opacity:1;fill-rule:nonzero;stroke:none;stroke-width:0.35277778"
           d="m 13.598703,168.09168 c 0.383822,0.58773 0.219075,1.37548 -0.368653,1.75966 -0.587728,0.38417 -1.375833,0.21907 -1.759655,-0.36866 -0.384175,-0.58773 -0.219075,-1.37513 0.368652,-1.7593 0.587728,-0.38453 1.375481,-0.21943 1.759656,0.3683" />
        <path
           inkscape:connector-curvature="0"
           id="path22258"
           style="fill:none;stroke:#231f20;stroke-width:0.08819444;stroke-linecap:butt;stroke-linejoin:miter;stroke-miterlimit:4;stroke-dasharray:none;stroke-opacity:1"
           d="m 13.598703,168.09168 c 0.383822,0.58773 0.219075,1.37548 -0.368653,1.75966 -0.587728,0.38417 -1.375833,0.21907 -1.759655,-0.36866 -0.384175,-0.58773 -0.219075,-1.37513 0.368652,-1.7593 0.587728,-0.38453 1.375481,-0.21943 1.759656,0.3683 z" />
        <path
           inkscape:connector-curvature="0"
           id="path22262"
           style="fill:#e9e9e9;fill-opacity:1;fill-rule:nonzero;stroke:none;stroke-width:0.35277778"
           d="m 13.345126,168.25738 c 0.292806,0.44803 0.166864,1.0481 -0.280811,1.34056 -0.447675,0.2928 -1.048103,0.16686 -1.340556,-0.28082 -0.292452,-0.44767 -0.166511,-1.04775 0.281164,-1.3402 0.447675,-0.2928 1.04775,-0.16757 1.340203,0.28046" />
        <path
           inkscape:connector-curvature="0"
           id="path22266"
           style="fill:none;stroke:#231f20;stroke-width:0.05291667;stroke-linecap:butt;stroke-linejoin:miter;stroke-miterlimit:4;stroke-dasharray:none;stroke-opacity:1"
           d="m 13.345126,168.25738 c 0.292806,0.44803 0.166864,1.0481 -0.280811,1.34056 -0.447675,0.2928 -1.048103,0.16686 -1.340556,-0.28082 -0.292452,-0.44767 -0.166511,-1.04775 0.281164,-1.3402 0.447675,-0.2928 1.04775,-0.16757 1.340203,0.28046 z" />
        <path
           inkscape:connector-curvature="0"
           id="path22270"
           style="fill:#e9e9e9;fill-opacity:1;fill-rule:nonzero;stroke:none;stroke-width:0.35277778"
           d="m 16.061762,167.7468 c -0.424039,0.55986 -1.221669,0.66992 -1.781175,0.24589 -0.559858,-0.42369 -0.669572,-1.22132 -0.245533,-1.78118 0.423686,-0.55915 1.220964,-0.66957 1.780822,-0.24553 0.559858,0.42404 0.669572,1.22131 0.245886,1.78082" />
        <path
           inkscape:connector-curvature="0"
           id="path22274"
           style="fill:none;stroke:#231f20;stroke-width:0.08819444;stroke-linecap:butt;stroke-linejoin:miter;stroke-miterlimit:4;stroke-dasharray:none;stroke-opacity:1"
           d="m 16.061762,167.7468 c -0.424039,0.55986 -1.221669,0.66992 -1.781175,0.24589 -0.559858,-0.42369 -0.669572,-1.22132 -0.245533,-1.78118 0.423686,-0.55915 1.220964,-0.66957 1.780822,-0.24553 0.559858,0.42404 0.669572,1.22131 0.245886,1.78082 z" />
        <path
           inkscape:connector-curvature="0"
           id="path22278"
           style="fill:#e9e9e9;fill-opacity:1;fill-rule:nonzero;stroke:none;stroke-width:0.35277778"
           d="m 15.823707,167.56664 c -0.324556,0.42827 -0.934508,0.51294 -1.362781,0.18838 -0.428625,-0.32455 -0.512233,-0.93486 -0.18803,-1.36313 0.324203,-0.42827 0.934155,-0.51223 1.36278,-0.18768 0.428625,0.32421 0.512587,0.93416 0.188031,1.36243" />
        <path
           inkscape:connector-curvature="0"
           id="path22282"
           style="fill:none;stroke:#231f20;stroke-width:0.05291667;stroke-linecap:butt;stroke-linejoin:miter;stroke-miterlimit:4;stroke-dasharray:none;stroke-opacity:1"
           d="m 15.823707,167.56664 c -0.324556,0.42827 -0.934508,0.51294 -1.362781,0.18838 -0.428625,-0.32455 -0.512233,-0.93486 -0.18803,-1.36313 0.324203,-0.42827 0.934155,-0.51223 1.36278,-0.18768 0.428625,0.32421 0.512587,0.93416 0.188031,1.36243 z" />
        <path
           inkscape:connector-curvature="0"
           id="path22286"
           style="fill:#e9e9e9;fill-opacity:1;fill-rule:nonzero;stroke:none;stroke-width:0.35277778"
           d="m 13.123088,166.69951 c 0,0.70203 -0.569031,1.27141 -1.271411,1.27141 -0.702028,0 -1.271058,-0.56938 -1.271058,-1.27141 0,-0.70203 0.56903,-1.27106 1.271058,-1.27106 0.70238,0 1.271411,0.56903 1.271411,1.27106" />
        <path
           inkscape:connector-curvature="0"
           id="path22290"
           style="fill:none;stroke:#231f20;stroke-width:0.08819444;stroke-linecap:butt;stroke-linejoin:miter;stroke-miterlimit:4;stroke-dasharray:none;stroke-opacity:1"
           d="m 13.123088,166.69951 c 0,0.70203 -0.569031,1.27141 -1.271411,1.27141 -0.702028,0 -1.271058,-0.56938 -1.271058,-1.27141 0,-0.70203 0.56903,-1.27106 1.271058,-1.27106 0.70238,0 1.271411,0.56903 1.271411,1.27106 z" />
        <path
           inkscape:connector-curvature="0"
           id="path22294"
           style="fill:#e9e9e9;fill-opacity:1;fill-rule:nonzero;stroke:none;stroke-width:0.35277778"
           d="m 12.843864,166.69951 c 0,0.54822 -0.444147,0.99236 -0.992011,0.99236 -0.547864,0 -0.992011,-0.44414 -0.992011,-0.99236 0,-0.54786 0.444147,-0.99166 0.992011,-0.99166 0.547864,0 0.992011,0.4438 0.992011,0.99166" />
        <path
           inkscape:connector-curvature="0"
           id="path22298"
           style="fill:none;stroke:#231f20;stroke-width:0.05291667;stroke-linecap:butt;stroke-linejoin:miter;stroke-miterlimit:4;stroke-dasharray:none;stroke-opacity:1"
           d="m 12.843864,166.69951 c 0,0.54822 -0.444147,0.99236 -0.992011,0.99236 -0.547864,0 -0.992011,-0.44414 -0.992011,-0.99236 0,-0.54786 0.444147,-0.99166 0.992011,-0.99166 0.547864,0 0.992011,0.4438 0.992011,0.99166 z" />
      </g>
    </g>
  </g>
</svg>
