<?xml version="1.0" encoding="UTF-8" standalone="no"?>
<!-- Created with Inkscape (http://www.inkscape.org/) -->

<svg
   xmlns:dc="http://purl.org/dc/elements/1.1/"
   xmlns:cc="http://creativecommons.org/ns#"
   xmlns:rdf="http://www.w3.org/1999/02/22-rdf-syntax-ns#"
   xmlns:svg="http://www.w3.org/2000/svg"
   xmlns="http://www.w3.org/2000/svg"
   xmlns:sodipodi="http://sodipodi.sourceforge.net/DTD/sodipodi-0.dtd"
   xmlns:inkscape="http://www.inkscape.org/namespaces/inkscape"
   width="300"
   height="300"
   viewBox="0 0 79.375 79.375"
   version="1.1"
   id="svg8"
   inkscape:version="0.92.4 (unknown)"
   sodipodi:docname="person.svg">
  <defs
     id="defs2" />
  <sodipodi:namedview
     id="base"
     pagecolor="#ffffff"
     bordercolor="#666666"
     borderopacity="1.0"
     inkscape:pageopacity="0.0"
     inkscape:pageshadow="2"
     inkscape:zoom="0.49497475"
     inkscape:cx="143.86774"
     inkscape:cy="-51.858168"
     inkscape:document-units="mm"
     inkscape:current-layer="layer1"
     showgrid="false"
     fit-margin-top="0"
     fit-margin-left="0"
     fit-margin-right="0"
     fit-margin-bottom="0"
     inkscape:window-width="959"
     inkscape:window-height="1023"
     inkscape:window-x="0"
     inkscape:window-y="0"
     inkscape:window-maximized="0"
     units="px" />
  <metadata
     id="metadata5">
    <rdf:RDF>
      <cc:Work
         rdf:about="">
        <dc:format>image/svg+xml</dc:format>
        <dc:type
           rdf:resource="http://purl.org/dc/dcmitype/StillImage" />
        <dc:title></dc:title>
      </cc:Work>
    </rdf:RDF>
  </metadata>
  <g
     inkscape:label="Layer 1"
     inkscape:groupmode="layer"
     id="layer1"
     transform="translate(-81.721712,-49.915053)">
    <path
       style="fill:#000000;fill-opacity:1;fill-rule:nonzero;stroke:none;stroke-width:4.59681606"
       d="m 121.4107,49.915053 c -3.58092,0 -6.47774,2.901467 -6.47774,6.477776 0,3.041022 2.10843,5.570212 4.94248,6.262253 v 2.040292 c -1.16087,0.221516 -2.47464,0.641093 -3.64288,1.184458 -0.66572,0.03909 -1.2947,0.338789 -1.71035,0.88867 l -14.19446,18.8811 c -0.795376,1.067186 -0.511315,2.607763 0.61946,3.467766 1.14002,0.850882 2.70406,0.691911 3.49474,-0.370062 l 10.91519,-14.510983 2.92914,15.958655 c -0.98862,0.213697 -1.83634,0.925154 -2.12784,1.966279 l -7.44737,33.560303 c -0.41828,1.49849 0.46335,3.03763 1.95274,3.46112 1.49856,0.41306 3.04064,-0.46388 3.45435,-1.95273 l 7.28578,-32.826431 7.2925,32.826431 c 0.10294,0.37397 0.27833,0.70364 0.50506,0.99031 0.45332,0.57203 1.11604,0.94991 1.83826,1.04373 0.36121,0.0521 0.7387,0.0261 1.1111,-0.0782 1.49397,-0.41828 2.37106,-1.96719 1.95276,-3.46112 l -7.44738,-33.560306 c -0.28993,-1.046337 -1.15306,-1.765091 -2.14803,-1.972925 l 2.93586,-15.96543 10.92866,14.524405 c 0.79525,1.061973 2.35473,1.220943 3.49474,0.370061 1.13547,-0.860002 1.41686,-2.401232 0.62624,-3.467765 l -14.2012,-18.881101 c -0.4171,-0.552487 -1.04946,-0.845669 -1.71706,-0.88867 -1.16061,-0.540759 -2.47076,-0.955124 -3.62942,-1.177943 v -2.046937 c 2.83159,-0.691911 4.94248,-3.221622 4.94248,-6.262253 0,-3.576309 -2.90143,-6.477776 -6.47775,-6.477776 z"
       id="path22066"
       inkscape:connector-curvature="0" />
  </g>
</svg>
