<?xml version="1.0" encoding="UTF-8" standalone="no"?>
<!-- Created with Inkscape (http://www.inkscape.org/) -->

<svg
   xmlns:dc="http://purl.org/dc/elements/1.1/"
   xmlns:cc="http://creativecommons.org/ns#"
   xmlns:rdf="http://www.w3.org/1999/02/22-rdf-syntax-ns#"
   xmlns:svg="http://www.w3.org/2000/svg"
   xmlns="http://www.w3.org/2000/svg"
   xmlns:sodipodi="http://sodipodi.sourceforge.net/DTD/sodipodi-0.dtd"
   xmlns:inkscape="http://www.inkscape.org/namespaces/inkscape"
   width="79.375mm"
   height="79.375mm"
   viewBox="0 0 281.25 281.24999"
   id="svg6293"
   version="1.1"
   inkscape:version="0.92.4 (unknown)"
   sodipodi:docname="telephone_round.svg">
  <defs
     id="defs6295" />
  <sodipodi:namedview
     id="base"
     pagecolor="#ffffff"
     bordercolor="#666666"
     borderopacity="1.0"
     inkscape:pageopacity="0.0"
     inkscape:pageshadow="2"
     inkscape:zoom="1.4"
     inkscape:cx="75.446458"
     inkscape:cy="85.792753"
     inkscape:document-units="px"
     inkscape:current-layer="g6558-4-8-0-09-3-6"
     showgrid="false"
     fit-margin-top="0"
     fit-margin-left="0"
     fit-margin-right="0"
     fit-margin-bottom="0"
     inkscape:window-width="1920"
     inkscape:window-height="1023"
     inkscape:window-x="0"
     inkscape:window-y="0"
     inkscape:window-maximized="1" />
  <metadata
     id="metadata6298">
    <rdf:RDF>
      <cc:Work
         rdf:about="">
        <dc:format>image/svg+xml</dc:format>
        <dc:type
           rdf:resource="http://purl.org/dc/dcmitype/StillImage" />
        <dc:title></dc:title>
      </cc:Work>
    </rdf:RDF>
  </metadata>
  <g
     inkscape:label="Layer 1"
     inkscape:groupmode="layer"
     id="layer1"
     transform="translate(800.65575,-320.33926)">
    <g
       transform="matrix(14.666931,0,0,14.666939,-3728.0222,-13317.858)"
       id="g6558-4-8-0-09-3-6"
       style="fill:#000000">
      <path
         style="color:#000000;font-style:normal;font-variant:normal;font-weight:normal;font-stretch:normal;font-size:medium;line-height:normal;font-family:sans-serif;text-indent:0;text-align:start;text-decoration:none;text-decoration-line:none;text-decoration-style:solid;text-decoration-color:#000000;letter-spacing:normal;word-spacing:normal;text-transform:none;writing-mode:lr-tb;direction:ltr;baseline-shift:baseline;text-anchor:start;white-space:normal;clip-rule:nonzero;display:inline;overflow:visible;visibility:visible;opacity:1;isolation:auto;mix-blend-mode:normal;color-interpolation:sRGB;color-interpolation-filters:linearRGB;solid-color:#000000;solid-opacity:1;fill:#000000;fill-opacity:1;fill-rule:nonzero;stroke:none;stroke-width:1.5;stroke-linecap:square;stroke-linejoin:bevel;stroke-miterlimit:4;stroke-dasharray:none;stroke-dashoffset:0;stroke-opacity:1;color-rendering:auto;image-rendering:auto;shape-rendering:auto;text-rendering:auto;enable-background:accumulate"
         d="m 209.17747,929.85982 c -5.28657,0 -9.58789,4.30133 -9.5879,9.58789 1e-5,5.28656 4.30133,9.58789 9.5879,9.58789 5.28656,0 9.58789,-4.30133 9.58789,-9.58789 0,-5.28656 -4.30133,-9.58789 -9.58789,-9.58789 z m 0,1.5 c 4.4759,0 8.08789,3.61199 8.08789,8.08789 0,4.4759 -3.61199,8.08789 -8.08789,8.08789 -4.4759,0 -8.08789,-3.61199 -8.0879,-8.08789 1e-5,-4.4759 3.612,-8.08789 8.0879,-8.08789 z"
         id="path6262-3-2-8-8-5-7"
         inkscape:connector-curvature="0" />
      <path
         style="color:#000000;clip-rule:nonzero;display:inline;overflow:visible;visibility:visible;opacity:1;isolation:auto;mix-blend-mode:normal;color-interpolation:sRGB;color-interpolation-filters:linearRGB;solid-color:#000000;solid-opacity:1;fill:#000000;fill-opacity:1;fill-rule:nonzero;stroke:none;stroke-width:0.06674915;stroke-linecap:round;stroke-linejoin:round;stroke-miterlimit:4;stroke-dasharray:none;stroke-dashoffset:0;stroke-opacity:1;color-rendering:auto;image-rendering:auto;shape-rendering:auto;text-rendering:auto;enable-background:accumulate"
         d="m 205.44411,937.19168 c -1.98806,3.44341 -1.84812,7.24613 0.31257,8.4936 0.56576,0.32433 1.23599,0.44952 1.96413,0.36859 0.27361,-0.0271 0.30729,-0.13056 0.34549,-0.39691 l 0.31065,-3.34555 c -4.8e-4,-0.0876 -0.0592,-0.13071 -0.13664,-0.17219 -0.47265,-0.24621 -1.05953,-0.24912 -1.65392,-0.006 -0.32924,-1.16302 -0.0851,-2.6213 0.65353,-3.90361 0.74176,-1.28076 1.88238,-2.22167 3.05439,-2.51791 0.0858,0.62836 0.37554,1.13059 0.81578,1.41879 0.1151,0.0811 0.18276,0.0741 0.2721,0.0151 l 2.79421,-1.97881 c 0.15629,-0.12311 0.16018,-0.22444 0.10976,-0.37392 -0.29426,-0.7008 -0.74827,-1.23998 -1.33009,-1.57684 -2.16068,-1.24748 -5.5239,0.53268 -7.51195,3.97611 z"
         id="path815"
         inkscape:connector-curvature="0"
         sodipodi:nodetypes="ccccccccccccccc" />
    </g>
  </g>
</svg>
