<?xml version="1.0" encoding="UTF-8" standalone="no"?>
<!-- Created with Inkscape (http://www.inkscape.org/) -->

<svg
   xmlns:dc="http://purl.org/dc/elements/1.1/"
   xmlns:cc="http://creativecommons.org/ns#"
   xmlns:rdf="http://www.w3.org/1999/02/22-rdf-syntax-ns#"
   xmlns:svg="http://www.w3.org/2000/svg"
   xmlns="http://www.w3.org/2000/svg"
   xmlns:sodipodi="http://sodipodi.sourceforge.net/DTD/sodipodi-0.dtd"
   xmlns:inkscape="http://www.inkscape.org/namespaces/inkscape"
   width="300"
   height="300"
   viewBox="0 0 79.375 79.375"
   version="1.1"
   id="svg8"
   inkscape:version="0.92.4 (unknown)"
   sodipodi:docname="purse.svg">
  <defs
     id="defs2">
    <clipPath
       clipPathUnits="userSpaceOnUse"
       id="clipPath6042">
      <path
         d="m 62.3145,619.755 h 5.1694 v -7.357 h -5.1694 z"
         id="path6040"
         inkscape:connector-curvature="0" />
    </clipPath>
    <clipPath
       clipPathUnits="userSpaceOnUse"
       id="clipPath6046">
      <path
         d="m 62.3145,619.755 h 5.1694 v -7.357 h -5.1694 z"
         id="path6044"
         inkscape:connector-curvature="0" />
    </clipPath>
    <clipPath
       clipPathUnits="userSpaceOnUse"
       id="clipPath6050">
      <path
         d="m 62.3208,619.678 h 5.1631 v -7.28 h -5.1631 z"
         id="path6048"
         inkscape:connector-curvature="0" />
    </clipPath>
    <clipPath
       clipPathUnits="userSpaceOnUse"
       id="clipPath6054">
      <path
         d="m 62.3174,619.677 h 5.1597 v -7.26 h -5.1597 z"
         id="path6052"
         inkscape:connector-curvature="0" />
    </clipPath>
    <clipPath
       clipPathUnits="userSpaceOnUse"
       id="clipPath6058">
      <path
         d="m 62.3145,619.73 h 5.1264 v -7.224 h -5.1264 z"
         id="path6056"
         inkscape:connector-curvature="0" />
    </clipPath>
    <clipPath
       clipPathUnits="userSpaceOnUse"
       id="clipPath6062">
      <path
         d="m 62.3394,619.755 h 5.102 v -7.117 h -5.102 z"
         id="path6060"
         inkscape:connector-curvature="0" />
    </clipPath>
    <clipPath
       clipPathUnits="userSpaceOnUse"
       id="clipPath5954">
      <path
         d="m 59.7686,621.806 h 7.0942 v -9.829 h -7.0942 z"
         id="path5952"
         inkscape:connector-curvature="0" />
    </clipPath>
    <clipPath
       clipPathUnits="userSpaceOnUse"
       id="clipPath5958">
      <path
         d="m 59.7686,621.806 h 7.0942 v -9.829 h -7.0942 z"
         id="path5956"
         inkscape:connector-curvature="0" />
    </clipPath>
    <clipPath
       clipPathUnits="userSpaceOnUse"
       id="clipPath5962">
      <path
         d="m 59.8159,621.631 h 7.0469 v -9.654 h -7.0469 z"
         id="path5960"
         inkscape:connector-curvature="0" />
    </clipPath>
    <clipPath
       clipPathUnits="userSpaceOnUse"
       id="clipPath5966">
      <path
         d="m 59.8115,621.629 h 7.0464 v -9.623 h -7.0464 z"
         id="path5964"
         inkscape:connector-curvature="0" />
    </clipPath>
    <clipPath
       clipPathUnits="userSpaceOnUse"
       id="clipPath5970">
      <path
         d="m 59.772,621.737 h 7.0581 v -9.558 H 59.772 Z"
         id="path5968"
         inkscape:connector-curvature="0" />
    </clipPath>
    <clipPath
       clipPathUnits="userSpaceOnUse"
       id="clipPath5974">
      <path
         d="m 59.7686,621.806 h 7.0668 v -9.347 h -7.0668 z"
         id="path5972"
         inkscape:connector-curvature="0" />
    </clipPath>
    <clipPath
       clipPathUnits="userSpaceOnUse"
       id="clipPath5866">
      <path
         d="m 59.0522,622.716 h 7.2862 v -10.767 h -7.2862 z"
         id="path5864"
         inkscape:connector-curvature="0" />
    </clipPath>
    <clipPath
       clipPathUnits="userSpaceOnUse"
       id="clipPath5870">
      <path
         d="m 59.0522,622.716 h 7.2862 v -10.767 h -7.2862 z"
         id="path5868"
         inkscape:connector-curvature="0" />
    </clipPath>
    <clipPath
       clipPathUnits="userSpaceOnUse"
       id="clipPath5874">
      <path
         d="m 59.1006,622.548 h 7.2378 v -10.599 h -7.2378 z"
         id="path5872"
         inkscape:connector-curvature="0" />
    </clipPath>
    <clipPath
       clipPathUnits="userSpaceOnUse"
       id="clipPath5878">
      <path
         d="m 59.0957,622.546 h 7.2368 V 611.98 h -7.2368 z"
         id="path5876"
         inkscape:connector-curvature="0" />
    </clipPath>
    <clipPath
       clipPathUnits="userSpaceOnUse"
       id="clipPath5882">
      <path
         d="m 59.0576,622.658 h 7.2432 v -10.491 h -7.2432 z"
         id="path5880"
         inkscape:connector-curvature="0" />
    </clipPath>
    <clipPath
       clipPathUnits="userSpaceOnUse"
       id="clipPath5886">
      <path
         d="m 59.0522,622.716 h 7.253 v -10.253 h -7.253 z"
         id="path5884"
         inkscape:connector-curvature="0" />
    </clipPath>
    <clipPath
       clipPathUnits="userSpaceOnUse"
       id="clipPath5758">
      <path
         d="m 43.8926,624.127 h 3.1108 V 612.47 h -3.1108 z"
         id="path5756"
         inkscape:connector-curvature="0" />
    </clipPath>
    <clipPath
       clipPathUnits="userSpaceOnUse"
       id="clipPath5762">
      <path
         d="m 43.8926,624.127 h 3.1108 V 612.47 h -3.1108 z"
         id="path5760"
         inkscape:connector-curvature="0" />
    </clipPath>
    <clipPath
       clipPathUnits="userSpaceOnUse"
       id="clipPath5766">
      <path
         d="m 43.9287,624.03 h 3.0747 v -11.56 h -3.0747 z"
         id="path5764"
         inkscape:connector-curvature="0" />
    </clipPath>
    <clipPath
       clipPathUnits="userSpaceOnUse"
       id="clipPath5770">
      <path
         d="M 43.9243,624.031 H 46.999 V 612.483 H 43.9243 Z"
         id="path5768"
         inkscape:connector-curvature="0" />
    </clipPath>
    <clipPath
       clipPathUnits="userSpaceOnUse"
       id="clipPath5774">
      <path
         d="m 43.8926,624.1 h 3.0957 v -11.529 h -3.0957 z"
         id="path5772"
         inkscape:connector-curvature="0" />
    </clipPath>
    <clipPath
       clipPathUnits="userSpaceOnUse"
       id="clipPath5778">
      <path
         d="m 43.8931,624.127 h 3.1074 V 612.72 h -3.1074 z"
         id="path5776"
         inkscape:connector-curvature="0" />
    </clipPath>
    <clipPath
       clipPathUnits="userSpaceOnUse"
       id="clipPath5670">
      <path
         d="m 42.5449,625.007 h 3.105 v -12.968 h -3.105 z"
         id="path5668"
         inkscape:connector-curvature="0" />
    </clipPath>
    <clipPath
       clipPathUnits="userSpaceOnUse"
       id="clipPath5674">
      <path
         d="m 42.5449,625.007 h 3.105 v -12.968 h -3.105 z"
         id="path5672"
         inkscape:connector-curvature="0" />
    </clipPath>
    <clipPath
       clipPathUnits="userSpaceOnUse"
       id="clipPath5678">
      <path
         d="m 42.5796,624.903 h 3.0703 v -12.864 h -3.0703 z"
         id="path5676"
         inkscape:connector-curvature="0" />
    </clipPath>
    <clipPath
       clipPathUnits="userSpaceOnUse"
       id="clipPath5682">
      <path
         d="m 42.5757,624.903 h 3.0698 v -12.85 h -3.0698 z"
         id="path5680"
         inkscape:connector-curvature="0" />
    </clipPath>
    <clipPath
       clipPathUnits="userSpaceOnUse"
       id="clipPath5686">
      <path
         d="m 42.5449,624.976 h 3.086 V 612.15 h -3.086 z"
         id="path5684"
         inkscape:connector-curvature="0" />
    </clipPath>
    <clipPath
       clipPathUnits="userSpaceOnUse"
       id="clipPath5690">
      <path
         d="m 42.5449,625.007 h 3.0972 v -12.692 h -3.0972 z"
         id="path5688"
         inkscape:connector-curvature="0" />
    </clipPath>
    <clipPath
       clipPathUnits="userSpaceOnUse"
       id="clipPath5582">
      <path
         d="m 41.7368,625.379 h 3.0698 v -13.341 h -3.0698 z"
         id="path5580"
         inkscape:connector-curvature="0" />
    </clipPath>
    <clipPath
       clipPathUnits="userSpaceOnUse"
       id="clipPath5586">
      <path
         d="m 41.7368,625.379 h 3.0698 v -13.341 h -3.0698 z"
         id="path5584"
         inkscape:connector-curvature="0" />
    </clipPath>
    <clipPath
       clipPathUnits="userSpaceOnUse"
       id="clipPath5590">
      <path
         d="m 41.772,625.274 h 3.0346 V 612.038 H 41.772 Z"
         id="path5588"
         inkscape:connector-curvature="0" />
    </clipPath>
    <clipPath
       clipPathUnits="userSpaceOnUse"
       id="clipPath5594">
      <path
         d="m 41.7681,625.274 h 3.0341 v -13.222 h -3.0341 z"
         id="path5592"
         inkscape:connector-curvature="0" />
    </clipPath>
    <clipPath
       clipPathUnits="userSpaceOnUse"
       id="clipPath5598">
      <path
         d="m 41.7368,625.348 h 3.0493 v -13.195 h -3.0493 z"
         id="path5596"
         inkscape:connector-curvature="0" />
    </clipPath>
    <clipPath
       clipPathUnits="userSpaceOnUse"
       id="clipPath5602">
      <path
         d="m 41.7368,625.379 h 3.0601 v -13.057 h -3.0601 z"
         id="path5600"
         inkscape:connector-curvature="0" />
    </clipPath>
  </defs>
  <sodipodi:namedview
     id="base"
     pagecolor="#ffffff"
     bordercolor="#666666"
     borderopacity="1.0"
     inkscape:pageopacity="0.0"
     inkscape:pageshadow="2"
     inkscape:zoom="0.35"
     inkscape:cx="-36.981176"
     inkscape:cy="48.767825"
     inkscape:document-units="mm"
     inkscape:current-layer="layer1"
     showgrid="false"
     fit-margin-top="0"
     fit-margin-left="0"
     fit-margin-right="0"
     fit-margin-bottom="0"
     inkscape:window-width="959"
     inkscape:window-height="1023"
     inkscape:window-x="0"
     inkscape:window-y="0"
     inkscape:window-maximized="0"
     units="px" />
  <metadata
     id="metadata5">
    <rdf:RDF>
      <cc:Work
         rdf:about="">
        <dc:format>image/svg+xml</dc:format>
        <dc:type
           rdf:resource="http://purl.org/dc/dcmitype/StillImage" />
        <dc:title></dc:title>
      </cc:Work>
    </rdf:RDF>
  </metadata>
  <g
     inkscape:label="Layer 1"
     inkscape:groupmode="layer"
     id="layer1"
     transform="translate(-81.721712,-49.915053)">
    <path
       style="fill:#231f20;fill-opacity:1;fill-rule:nonzero;stroke:none;stroke-width:5.28235149"
       d="m 118.33758,49.915482 c -0.38545,0.0056 -0.80588,0.06342 -1.30769,0.154757 v -0.0077 c -1.52139,0.277012 -2.76127,1.175148 -4.12426,1.957668 -1.28818,0.739696 -2.64764,1.355858 -4.00819,1.578516 -0.21157,-0.175192 -0.5457,-0.503522 -0.87437,-0.843423 -0.32882,-0.3399 -0.66887,-0.707197 -1.05234,-1.02913 -0.38348,-0.320435 -0.77482,-0.820425 -1.81839,-0.642239 -1.92985,0.314446 -3.61038,0.696249 -4.88257,1.199362 -0.003,0.0012 -0.377058,0.205927 -0.379155,0.208921 -0.0022,0.0018 -0.316202,0.431821 -0.31725,0.433318 -0.0012,0.0022 -0.145521,0.499964 -0.147018,0.502958 -2.4e-4,0.0028 0.02172,0.376159 0.02321,0.379154 0.0014,0.0069 0.141029,0.402617 0.147019,0.410104 0.0051,0.0088 0.07863,0.153268 0.116067,0.201183 0.151083,0.190165 0.27384,0.258611 0.386887,0.35594 0.22611,0.194657 0.47033,0.401917 0.81248,0.665452 0.68429,0.525573 1.64673,1.225178 2.60764,2.050522 0.98463,0.84571 1.95955,1.836404 2.73146,2.808829 -0.35416,0.102219 -0.73373,0.164743 -1.04461,0.324988 -2.23679,1.153566 -3.41777,3.185198 -4.99864,4.302228 -2.185423,1.543328 -2.800611,3.477504 -3.451064,4.68138 -0.650393,1.203129 -1.165929,1.980996 -3.984977,2.584432 -0.609725,0.134762 -0.923813,0.0609 -1.013654,0.03095 -0.09044,-0.03594 -0.08139,-0.01651 -0.154757,-0.185708 -0.146741,-0.3399 -0.181449,-1.41424 -0.100591,-2.561217 0.08101,-1.147427 0.289417,-2.316338 -0.116068,-3.55166 -0.202667,-0.617061 -0.744974,-1.339188 -1.52435,-1.586252 -0.779331,-0.247065 -1.537033,-0.09355 -2.344559,0.20892 a 1.3222395,1.3222395 0 1 0 0.928538,2.476103 c 0.358468,-0.134763 0.374921,-0.119313 0.433318,-0.123806 0.06156,0.315345 0.07162,1.264721 -0.0077,2.383249 -0.08445,1.1907 -0.245558,2.49307 0.309513,3.783794 0.27758,0.645212 0.84062,1.296267 1.601728,1.601728 0.761063,0.306959 1.606648,0.307478 2.538005,0.10833 3.345445,-0.716637 4.921711,-2.369613 5.756938,-3.915337 0.835257,-1.545874 1.09181,-2.686229 2.64633,-3.783794 2.15905,-1.524761 3.4053,-3.454687 4.68913,-4.116519 0.36847,-0.1908 0.75201,-0.28236 1.19163,-0.309513 0.0206,0.06845 0.0782,0.150785 0.0928,0.216659 0.12278,0.549531 0.019,1.655434 -0.37915,2.924896 -0.39845,1.26976 -1.02299,2.711433 -1.69459,4.039141 -0.67156,1.328158 -1.37471,2.564137 -1.92672,3.482019 -0.27596,0.459689 -0.53045,0.829497 -0.70414,1.106508 -0.17385,0.277011 -0.21579,0.305567 -0.35594,0.557123 -4.223965,7.465984 -6.167037,9.884461 -7.629493,12.109687 -1.462471,2.225226 -2.352133,4.199012 -4.124258,10.121068 -2.52877,8.456039 -0.302425,16.565439 4.735545,22.455149 5.037946,5.88972 12.879126,9.62585 21.642686,9.62585 8.77438,0 16.89017,-3.83329 22.08374,-9.77287 5.19358,-5.93972 7.42413,-14.1131 4.24033,-22.400985 -5.26544,-13.711169 -2.83861,-9.451567 -13.10013,-22.896205 -0.26009,-0.341398 -0.32249,-0.352989 -0.55712,-0.588075 -0.23464,-0.235085 -0.55031,-0.533979 -0.90533,-0.905324 -0.21458,-0.224449 -0.49985,-0.593184 -0.74283,-0.858898 2.20773,-0.08386 4.32432,-0.80119 6.15156,-2.468365 2.75727,-2.518408 4.96783,-6.112316 7.31224,-7.900313 1.17223,-0.893924 2.26443,-1.335129 3.54393,-1.230313 1.27947,0.110804 2.89843,0.818723 4.96768,2.73145 2.08009,1.922909 2.93333,3.461257 3.18024,4.549838 0.24691,1.087831 -0.003,1.804289 -0.49522,2.491577 -0.98475,1.374277 -3.09513,2.182065 -3.09513,2.182065 a 1.3207198,1.3207198 0 0 0 0.33273,2.584432 v 0.0077 a 1.3207198,1.3207198 0 0 0 0.51069,-0.07738 c 0,0 2.73735,-0.844808 4.39509,-3.157031 0.82819,-1.156111 1.34165,-2.791251 0.92853,-4.61174 -0.41319,-1.82049 -1.64676,-3.741417 -3.9695,-5.888481 -2.3336,-2.156946 -4.47421,-3.257405 -6.53072,-3.435591 -2.05649,-0.178036 -3.88177,0.607759 -5.37778,1.748747 -2.99208,2.281976 -5.17152,5.943692 -7.47473,8.047332 -2.0257,1.847721 -4.07316,2.212964 -6.65453,1.624942 -1.37866,-2.023352 -2.34638,-4.239604 -2.01957,-5.695035 -0.0108,0.04492 0.5794,-0.912489 1.5553,-1.841601 0.97583,-0.92986 2.26324,-2.014175 3.50523,-3.048701 1.24206,-1.034675 2.43906,-2.030822 3.30405,-2.924895 0.43259,-0.446213 0.78612,-0.842524 1.05235,-1.369594 0.13326,-0.263536 0.27846,-0.565442 0.27081,-0.998179 -0.008,-0.432737 -0.26804,-0.990996 -0.61903,-1.284478 -0.88284,-0.732209 -1.89306,-0.845941 -2.92489,-0.967227 -1.03183,-0.119789 -2.1436,-0.168008 -3.18798,-0.2863 -0.63144,-0.07487 -0.98442,0.0422 -1.51661,0.147019 -0.53216,0.104815 -1.13507,0.269352 -1.72553,0.410104 -0.59056,0.134763 -1.17734,0.283322 -1.64043,0.379153 -0.46298,0.08984 -0.89281,0.101094 -0.72735,0.116068 -0.49578,-0.04492 -0.49856,-0.114059 -0.44105,-0.05416 0.0569,0.05989 0.0569,0.05784 -0.0928,-0.294037 -0.14824,-0.35188 -0.6606,-1.05688 -1.36961,-1.284478 -0.3545,-0.113799 -0.70557,-0.160372 -1.09103,-0.154757 z"
       id="path48596"
       inkscape:connector-curvature="0" />
  </g>
</svg>
