<?xml version="1.0" encoding="UTF-8" standalone="no"?>
<!-- Created with Inkscape (http://www.inkscape.org/) -->

<svg
   xmlns:dc="http://purl.org/dc/elements/1.1/"
   xmlns:cc="http://creativecommons.org/ns#"
   xmlns:rdf="http://www.w3.org/1999/02/22-rdf-syntax-ns#"
   xmlns:svg="http://www.w3.org/2000/svg"
   xmlns="http://www.w3.org/2000/svg"
   xmlns:sodipodi="http://sodipodi.sourceforge.net/DTD/sodipodi-0.dtd"
   xmlns:inkscape="http://www.inkscape.org/namespaces/inkscape"
   width="79.375mm"
   height="79.375mm"
   viewBox="0 0 79.374999 79.374999"
   version="1.1"
   id="svg3615"
   inkscape:version="0.92.4 (unknown)"
   sodipodi:docname="sound.svg">
  <defs
     id="defs3609" />
  <sodipodi:namedview
     id="base"
     pagecolor="#ffffff"
     bordercolor="#666666"
     borderopacity="1.0"
     inkscape:pageopacity="0.0"
     inkscape:pageshadow="2"
     inkscape:zoom="0.49497475"
     inkscape:cx="175.91509"
     inkscape:cy="-150.02683"
     inkscape:document-units="mm"
     inkscape:current-layer="layer1"
     showgrid="false"
     fit-margin-top="0"
     fit-margin-left="0"
     fit-margin-right="0"
     fit-margin-bottom="0"
     inkscape:window-width="959"
     inkscape:window-height="1023"
     inkscape:window-x="959"
     inkscape:window-y="0"
     inkscape:window-maximized="0" />
  <metadata
     id="metadata3612">
    <rdf:RDF>
      <cc:Work
         rdf:about="">
        <dc:format>image/svg+xml</dc:format>
        <dc:type
           rdf:resource="http://purl.org/dc/dcmitype/StillImage" />
        <dc:title></dc:title>
      </cc:Work>
    </rdf:RDF>
  </metadata>
  <g
     inkscape:label="Layer 1"
     inkscape:groupmode="layer"
     id="layer1"
     transform="translate(70.604053,-10.03859)">
    <g
       id="Stages_3_"
       transform="matrix(0.84711849,0,0,0.84711849,-443.58864,-135.17192)">
      <g
         id="g5254">
        <circle
           stroke-miterlimit="10"
           cx="487.14801"
           cy="218.267"
           r="44.849998"
           id="circle5256"
           style="fill:#f3f3f2;stroke:#fafafa;stroke-width:4;stroke-miterlimit:10" />
      </g>
      <g
         id="g5258">
        <rect
           x="458.832"
           y="210.14301"
           width="24.49"
           height="16.25"
           id="rect5260"
           style="fill:#8f8c87" />
        <g
           id="g5262">
          <path
             d="m 504.758,237.698 0.604,1.055 c 6.039,-4.189 10.104,-11.938 10.104,-20.793 0,-8.438 -3.691,-15.873 -9.262,-20.178 l -0.605,1.052 c 5.256,4.083 8.738,11.13 8.738,19.126 -10e-4,8.413 -3.857,15.775 -9.579,19.738 z"
             id="path5264"
             inkscape:connector-curvature="0"
             style="fill:#8f8c87" />
        </g>
        <g
           id="g5266">
          <path
             d="m 499.684,233.656 0.676,1.176 c 5.049,-3.282 8.479,-9.625 8.479,-16.899 0,-6.808 -3.006,-12.799 -7.529,-16.229 l -0.676,1.176 c 4.172,3.183 6.943,8.738 6.943,15.053 -10e-4,6.782 -3.194,12.694 -7.893,15.723 z"
             id="path5268"
             inkscape:connector-curvature="0"
             style="fill:#8f8c87" />
        </g>
        <g
           id="g5270">
          <path
             d="m 495.936,229.636 c 3.664,-2.121 6.197,-6.555 6.197,-11.686 0,-4.664 -2.094,-8.751 -5.229,-11.051 l -0.676,1.175 c 2.781,2.051 4.643,5.706 4.643,9.876 0,4.64 -2.303,8.642 -5.613,10.506 z"
             id="path5272"
             inkscape:connector-curvature="0"
             style="fill:#8f8c87" />
        </g>
        <polygon
           points="491.082,202.199 491.082,234.337 463.251,218.268 "
           id="polygon5274"
           style="fill:#8f8c87" />
      </g>
    </g>
  </g>
</svg>
