<?xml version="1.0" encoding="UTF-8" standalone="no"?>
<!-- Created with Inkscape (http://www.inkscape.org/) -->

<svg
   xmlns:dc="http://purl.org/dc/elements/1.1/"
   xmlns:cc="http://creativecommons.org/ns#"
   xmlns:rdf="http://www.w3.org/1999/02/22-rdf-syntax-ns#"
   xmlns:svg="http://www.w3.org/2000/svg"
   xmlns="http://www.w3.org/2000/svg"
   xmlns:sodipodi="http://sodipodi.sourceforge.net/DTD/sodipodi-0.dtd"
   xmlns:inkscape="http://www.inkscape.org/namespaces/inkscape"
   width="79.375mm"
   height="79.375mm"
   viewBox="0 0 79.374999 79.374999"
   version="1.1"
   id="svg3615"
   inkscape:version="0.92.4 (unknown)"
   sodipodi:docname="talk.svg">
  <defs
     id="defs3609" />
  <sodipodi:namedview
     id="base"
     pagecolor="#ffffff"
     bordercolor="#666666"
     borderopacity="1.0"
     inkscape:pageopacity="0.0"
     inkscape:pageshadow="2"
     inkscape:zoom="0.9899495"
     inkscape:cx="150.74819"
     inkscape:cy="-29.656463"
     inkscape:document-units="mm"
     inkscape:current-layer="layer1"
     showgrid="false"
     fit-margin-top="0"
     fit-margin-left="0"
     fit-margin-right="0"
     fit-margin-bottom="0"
     inkscape:window-width="959"
     inkscape:window-height="1023"
     inkscape:window-x="959"
     inkscape:window-y="0"
     inkscape:window-maximized="0" />
  <metadata
     id="metadata3612">
    <rdf:RDF>
      <cc:Work
         rdf:about="">
        <dc:format>image/svg+xml</dc:format>
        <dc:type
           rdf:resource="http://purl.org/dc/dcmitype/StillImage" />
        <dc:title></dc:title>
      </cc:Work>
    </rdf:RDF>
  </metadata>
  <g
     inkscape:label="Layer 1"
     inkscape:groupmode="layer"
     id="layer1"
     transform="translate(70.604069,-10.038589)">
    <g
       id="Conférences"
       transform="matrix(0.84711849,0,0,0.84711849,-317.3824,-339.85354)">
      <circle
         stroke-miterlimit="10"
         cx="338.16501"
         cy="459.888"
         r="44.849998"
         id="circle5102"
         style="fill:#f3f3f2;stroke:#fafafa;stroke-width:4;stroke-miterlimit:10" />
      <path
         d="m 369.213,487.278 c -7.586,8.595 -18.684,14.014 -31.047,14.014 -12.322,0 -23.385,-5.382 -30.97,-13.922 l -0.442,-14.958 28.538,-0.212 0.092,-7.736 h 5.698 v 7.736 h 28.537 z"
         id="path5104"
         inkscape:connector-curvature="0"
         style="fill:#8f8c87" />
      <path
         stroke-miterlimit="10"
         d="m 344.61,454.276 c 0,2.886 -2.586,5.224 -5.774,5.224 h -0.643 c -3.189,0 -5.775,-2.338 -5.775,-5.224 v -12.334 c 0,-2.885 2.586,-5.224 5.775,-5.224 h 0.643 c 3.188,0 5.774,2.339 5.774,5.224 z"
         id="path5106"
         inkscape:connector-curvature="0"
         style="fill:#d0cecc;stroke:#8f8c87;stroke-width:4;stroke-miterlimit:10" />
      <path
         stroke-miterlimit="10"
         d="m 348.895,455.457 c 0,5.432 -4.955,9.833 -10.387,9.833 -5.43,0 -10.385,-4.401 -10.385,-9.833"
         id="path5108"
         inkscape:connector-curvature="0"
         style="fill:none;stroke:#8f8c87;stroke-width:5;stroke-miterlimit:10" />
      <g
         id="g5110">
        <path
           d="m 353.824,429.373 0.816,-0.468 c -3.242,-4.675 -9.242,-7.822 -16.098,-7.822 -6.533,0 -12.289,2.858 -15.623,7.172 l 0.815,0.468 c 3.161,-4.069 8.616,-6.766 14.808,-6.766 6.515,0 12.214,2.985 15.282,7.416 z"
           id="path5112"
           inkscape:connector-curvature="0"
           style="fill:#8f8c87" />
      </g>
      <g
         id="g5114">
        <path
           d="m 350.688,433.302 0.91,-0.523 c -2.541,-3.909 -7.451,-6.564 -13.084,-6.564 -5.27,0 -9.908,2.327 -12.564,5.83 l 0.91,0.523 c 2.465,-3.23 6.767,-5.377 11.654,-5.377 5.252,-10e-4 9.828,2.473 12.174,6.111 z"
           id="path5116"
           inkscape:connector-curvature="0"
           style="fill:#8f8c87" />
      </g>
      <g
         id="g5118">
        <path
           d="m 347.561,436.204 c -1.641,-2.837 -5.074,-4.799 -9.047,-4.799 -3.61,0 -6.774,1.622 -8.555,4.049 l 0.908,0.522 c 1.589,-2.153 4.418,-3.595 7.646,-3.595 3.593,0 6.691,1.783 8.135,4.347 z"
           id="path5120"
           inkscape:connector-curvature="0"
           style="fill:#8f8c87" />
      </g>
    </g>
  </g>
</svg>
