<?xml version="1.0" encoding="UTF-8" standalone="no"?>
<!-- Created with Inkscape (http://www.inkscape.org/) -->

<svg
   xmlns:dc="http://purl.org/dc/elements/1.1/"
   xmlns:cc="http://creativecommons.org/ns#"
   xmlns:rdf="http://www.w3.org/1999/02/22-rdf-syntax-ns#"
   xmlns:svg="http://www.w3.org/2000/svg"
   xmlns="http://www.w3.org/2000/svg"
   xmlns:sodipodi="http://sodipodi.sourceforge.net/DTD/sodipodi-0.dtd"
   xmlns:inkscape="http://www.inkscape.org/namespaces/inkscape"
   width="79.380516mm"
   height="79.375mm"
   viewBox="0 0 79.380516 79.375001"
   version="1.1"
   id="svg8"
   inkscape:version="0.92.4 (unknown)"
   sodipodi:docname="topography_estuary.svg">
  <defs
     id="defs2">
    <clipPath
       clipPathUnits="userSpaceOnUse"
       id="clipPath6042">
      <path
         d="m 62.3145,619.755 h 5.1694 v -7.357 h -5.1694 z"
         id="path6040"
         inkscape:connector-curvature="0" />
    </clipPath>
    <clipPath
       clipPathUnits="userSpaceOnUse"
       id="clipPath6046">
      <path
         d="m 62.3145,619.755 h 5.1694 v -7.357 h -5.1694 z"
         id="path6044"
         inkscape:connector-curvature="0" />
    </clipPath>
    <clipPath
       clipPathUnits="userSpaceOnUse"
       id="clipPath6050">
      <path
         d="m 62.3208,619.678 h 5.1631 v -7.28 h -5.1631 z"
         id="path6048"
         inkscape:connector-curvature="0" />
    </clipPath>
    <clipPath
       clipPathUnits="userSpaceOnUse"
       id="clipPath6054">
      <path
         d="m 62.3174,619.677 h 5.1597 v -7.26 h -5.1597 z"
         id="path6052"
         inkscape:connector-curvature="0" />
    </clipPath>
    <clipPath
       clipPathUnits="userSpaceOnUse"
       id="clipPath6058">
      <path
         d="m 62.3145,619.73 h 5.1264 v -7.224 h -5.1264 z"
         id="path6056"
         inkscape:connector-curvature="0" />
    </clipPath>
    <clipPath
       clipPathUnits="userSpaceOnUse"
       id="clipPath6062">
      <path
         d="m 62.3394,619.755 h 5.102 v -7.117 h -5.102 z"
         id="path6060"
         inkscape:connector-curvature="0" />
    </clipPath>
    <clipPath
       clipPathUnits="userSpaceOnUse"
       id="clipPath5954">
      <path
         d="m 59.7686,621.806 h 7.0942 v -9.829 h -7.0942 z"
         id="path5952"
         inkscape:connector-curvature="0" />
    </clipPath>
    <clipPath
       clipPathUnits="userSpaceOnUse"
       id="clipPath5958">
      <path
         d="m 59.7686,621.806 h 7.0942 v -9.829 h -7.0942 z"
         id="path5956"
         inkscape:connector-curvature="0" />
    </clipPath>
    <clipPath
       clipPathUnits="userSpaceOnUse"
       id="clipPath5962">
      <path
         d="m 59.8159,621.631 h 7.0469 v -9.654 h -7.0469 z"
         id="path5960"
         inkscape:connector-curvature="0" />
    </clipPath>
    <clipPath
       clipPathUnits="userSpaceOnUse"
       id="clipPath5966">
      <path
         d="m 59.8115,621.629 h 7.0464 v -9.623 h -7.0464 z"
         id="path5964"
         inkscape:connector-curvature="0" />
    </clipPath>
    <clipPath
       clipPathUnits="userSpaceOnUse"
       id="clipPath5970">
      <path
         d="m 59.772,621.737 h 7.0581 v -9.558 H 59.772 Z"
         id="path5968"
         inkscape:connector-curvature="0" />
    </clipPath>
    <clipPath
       clipPathUnits="userSpaceOnUse"
       id="clipPath5974">
      <path
         d="m 59.7686,621.806 h 7.0668 v -9.347 h -7.0668 z"
         id="path5972"
         inkscape:connector-curvature="0" />
    </clipPath>
    <clipPath
       clipPathUnits="userSpaceOnUse"
       id="clipPath5866">
      <path
         d="m 59.0522,622.716 h 7.2862 v -10.767 h -7.2862 z"
         id="path5864"
         inkscape:connector-curvature="0" />
    </clipPath>
    <clipPath
       clipPathUnits="userSpaceOnUse"
       id="clipPath5870">
      <path
         d="m 59.0522,622.716 h 7.2862 v -10.767 h -7.2862 z"
         id="path5868"
         inkscape:connector-curvature="0" />
    </clipPath>
    <clipPath
       clipPathUnits="userSpaceOnUse"
       id="clipPath5874">
      <path
         d="m 59.1006,622.548 h 7.2378 v -10.599 h -7.2378 z"
         id="path5872"
         inkscape:connector-curvature="0" />
    </clipPath>
    <clipPath
       clipPathUnits="userSpaceOnUse"
       id="clipPath5878">
      <path
         d="m 59.0957,622.546 h 7.2368 V 611.98 h -7.2368 z"
         id="path5876"
         inkscape:connector-curvature="0" />
    </clipPath>
    <clipPath
       clipPathUnits="userSpaceOnUse"
       id="clipPath5882">
      <path
         d="m 59.0576,622.658 h 7.2432 v -10.491 h -7.2432 z"
         id="path5880"
         inkscape:connector-curvature="0" />
    </clipPath>
    <clipPath
       clipPathUnits="userSpaceOnUse"
       id="clipPath5886">
      <path
         d="m 59.0522,622.716 h 7.253 v -10.253 h -7.253 z"
         id="path5884"
         inkscape:connector-curvature="0" />
    </clipPath>
  </defs>
  <sodipodi:namedview
     id="base"
     pagecolor="#ffffff"
     bordercolor="#666666"
     borderopacity="1.0"
     inkscape:pageopacity="0.0"
     inkscape:pageshadow="2"
     inkscape:zoom="2.8"
     inkscape:cx="132.15263"
     inkscape:cy="107.2178"
     inkscape:document-units="mm"
     inkscape:current-layer="g2282"
     showgrid="false"
     fit-margin-top="0"
     fit-margin-left="0"
     fit-margin-right="0"
     fit-margin-bottom="0"
     inkscape:window-width="1920"
     inkscape:window-height="1023"
     inkscape:window-x="0"
     inkscape:window-y="0"
     inkscape:window-maximized="1" />
  <metadata
     id="metadata5">
    <rdf:RDF>
      <cc:Work
         rdf:about="">
        <dc:format>image/svg+xml</dc:format>
        <dc:type
           rdf:resource="http://purl.org/dc/dcmitype/StillImage" />
        <dc:title></dc:title>
      </cc:Work>
    </rdf:RDF>
  </metadata>
  <g
     inkscape:label="Layer 1"
     inkscape:groupmode="layer"
     id="layer1"
     transform="translate(-81.94135,-49.693808)">
    <g
       id="g2282"
       transform="matrix(15.648908,0,0,15.648908,-1200.3518,-1890.7179)">
      <g
         transform="matrix(0.35277777,0,0,-0.35277777,86.881682,126.53274)"
         id="g5852">
        <path
           inkscape:connector-curvature="0"
           id="path5854"
           style="fill:#ffffff;fill-opacity:1;fill-rule:nonzero;stroke:none"
           d="m 0,0 c 0,-3.764 -3.051,-6.814 -6.814,-6.814 -3.764,0 -6.815,3.05 -6.815,6.814 0,3.764 3.051,6.814 6.815,6.814 C -3.051,6.814 0,3.764 0,0" />
      </g>
      <g
         transform="matrix(0.35277777,0,0,-0.35277777,86.881682,126.53274)"
         id="g5856">
        <path
           inkscape:connector-curvature="0"
           id="path5858"
           style="fill:none;stroke:#231f20;stroke-width:0.75;stroke-linecap:butt;stroke-linejoin:miter;stroke-miterlimit:4;stroke-dasharray:none;stroke-opacity:1"
           d="m 0,0 c 0,-3.764 -3.051,-6.814 -6.814,-6.814 -3.764,0 -6.815,3.05 -6.815,6.814 0,3.764 3.051,6.814 6.815,6.814 C -3.051,6.814 0,3.764 0,0 Z" />
      </g>
      <g
         transform="matrix(0.35277777,0,0,-0.35277777,63.100862,344.85843)"
         id="g5860">
        <g
           id="g5862" />
        <g
           id="g5946">
          <g
             style="opacity:0.80000299"
             id="g5944"
             clip-path="url(#clipPath5866)">
            <g
               id="g5942">
              <g
                 id="g5888" />
              <g
                 id="g5940">
                <g
                   style="opacity:0.80000299"
                   id="g5938"
                   clip-path="url(#clipPath5870)">
                  <g
                     id="g5900">
                    <g
                       id="g5890" />
                    <g
                       id="g5898">
                      <g
                         style="opacity:0.80000299"
                         id="g5896"
                         clip-path="url(#clipPath5874)">
                        <g
                           id="g5894"
                           transform="translate(65.7881,619.5991)">
                          <path
                             inkscape:connector-curvature="0"
                             id="path5892"
                             style="fill:#2e2a2b;fill-opacity:1;fill-rule:nonzero;stroke:none"
                             d="M 0,0 C -0.243,-0.863 -0.446,-1.653 -0.918,-2.463 -0.985,-2.579 -1.066,-2.695 -1.146,-2.81 -1.23,-2.954 -1.47,-3.166 -1.691,-3.2 c -0.487,-0.111 -0.896,0.041 -1.255,0.252 -0.359,0.215 -0.643,0.555 -0.79,0.948 -0.157,0.395 -0.135,0.819 -0.154,1.181 -0.016,0.377 -0.054,0.753 -0.123,1.12 C -4.118,0.855 -4.287,1.483 -4.691,1.723 -4.884,1.824 -5.134,1.769 -5.336,1.608 -5.55,1.465 -5.661,1.189 -5.823,0.974 c -0.488,-0.988 -0.74,-2.254 -0.066,-3.238 0.349,-0.57 0.82,-1.1 1.026,-1.795 0.131,-0.33 0.117,-0.696 0.179,-1.048 -0.03,-0.349 -0.078,-0.699 -0.121,-1.056 -0.108,-0.426 -0.264,-0.796 -0.428,-1.207 -0.074,-0.171 -0.23,-0.401 -0.189,-0.205 0.033,0.2 0.088,0.457 0.149,0.698 0.325,1.072 0.313,2.098 -0.162,3.03 -0.253,0.485 -0.595,0.906 -0.878,1.435 -0.065,0.128 -0.133,0.263 -0.203,0.401 -0.038,0.152 -0.076,0.306 -0.113,0.456 -0.111,0.304 -0.027,0.611 -0.04,0.922 0.057,0.597 0.197,1.126 0.403,1.634 0.092,0.258 0.276,0.496 0.42,0.745 0.203,0.231 0.473,0.45 0.87,0.502 0.463,0.032 0.776,-0.331 0.839,-0.488 0.147,-0.353 0.051,-0.257 0.24,-0.759 0.212,-0.657 0.312,-1.243 0.35,-1.956 0.012,-0.314 0.015,-0.568 0.089,-0.818 0.078,-0.246 0.217,-0.464 0.402,-0.639 0.184,-0.173 0.415,-0.303 0.664,-0.368 0.24,-0.069 0.541,-0.056 0.678,0.066 0.431,0.701 0.832,1.589 1.141,2.378 0.281,0.638 0.487,1.054 0.7,1.615 C 0.271,1.675 0.372,2.184 0.466,2.672 0.484,2.771 0.518,2.845 0.548,2.949 0.568,2.379 0.434,1.559 0.245,0.854 0.215,0.757 0.187,0.72 0.158,0.653 0.083,0.429 0.048,0.217 0,0" />
                        </g>
                      </g>
                    </g>
                  </g>
                  <g
                     id="g5912">
                    <g
                       id="g5902" />
                    <g
                       id="g5910">
                      <g
                         style="opacity:0.80000299"
                         id="g5908"
                         clip-path="url(#clipPath5878)">
                        <g
                           id="g5906"
                           transform="translate(65.7905,619.7739)">
                          <path
                             inkscape:connector-curvature="0"
                             id="path5904"
                             style="fill:#7b7979;fill-opacity:1;fill-rule:nonzero;stroke:none"
                             d="m 0,0 c -0.215,-0.869 -0.431,-1.65 -0.868,-2.467 -0.067,-0.115 -0.147,-0.23 -0.227,-0.345 -0.151,-0.177 -0.165,-0.243 -0.406,-0.423 -0.477,-0.245 -0.897,-0.094 -1.265,0.067 -0.368,0.178 -0.673,0.482 -0.859,0.846 -0.199,0.359 -0.21,0.803 -0.217,1.166 -0.012,0.378 -0.043,0.758 -0.105,1.129 C -4.05,0.537 -4.172,1.155 -4.553,1.505 -4.946,1.854 -5.542,1.469 -5.758,0.974 -6.051,0.506 -6.207,-0.052 -6.31,-0.61 c -0.032,-0.28 -0.024,-0.568 -0.015,-0.85 0.091,-0.269 0.122,-0.558 0.299,-0.804 0.314,-0.584 0.81,-1.09 1.047,-1.757 0.292,-0.646 0.287,-1.386 0.174,-2.077 -0.025,-0.453 -0.24,-0.801 -0.385,-1.217 -0.076,-0.168 -0.273,-0.629 -0.237,-0.43 0.033,0.201 0.088,0.457 0.149,0.698 0.324,1.072 0.311,2.096 -0.165,3.027 -0.254,0.484 -0.596,0.905 -0.879,1.435 -0.065,0.128 -0.133,0.263 -0.202,0.401 -0.038,0.152 -0.076,0.307 -0.113,0.458 -0.111,0.304 -0.025,0.612 -0.039,0.923 0.059,0.597 0.199,1.126 0.405,1.636 0.094,0.257 0.276,0.495 0.423,0.745 0.204,0.231 0.475,0.45 0.874,0.5 0.467,0.028 0.778,-0.336 0.841,-0.494 0.146,-0.354 0.047,-0.251 0.236,-0.754 0.214,-0.658 0.313,-1.243 0.352,-1.956 0.012,-0.314 0.014,-0.569 0.088,-0.818 0.078,-0.245 0.216,-0.463 0.399,-0.638 0.184,-0.173 0.414,-0.303 0.662,-0.368 0.239,-0.069 0.539,-0.057 0.676,0.064 0.428,0.696 0.831,1.586 1.139,2.374 0.282,0.638 0.487,1.054 0.701,1.615 C 0.264,1.499 0.365,2.007 0.458,2.496 0.477,2.593 0.51,2.668 0.541,2.772 0.556,2.203 0.422,1.557 0.24,0.852 0.215,0.755 0.187,0.718 0.158,0.651 0.083,0.427 0.048,0.216 0,0" />
                        </g>
                      </g>
                    </g>
                  </g>
                  <g
                     id="g5924">
                    <g
                       id="g5914" />
                    <g
                       id="g5922">
                      <g
                         style="opacity:0.80000299"
                         id="g5920"
                         clip-path="url(#clipPath5882)">
                        <g
                           id="g5918"
                           transform="translate(65.7832,620.063)">
                          <path
                             inkscape:connector-curvature="0"
                             id="path5916"
                             style="fill:#a7a5a6;fill-opacity:1;fill-rule:nonzero;stroke:none"
                             d="m 0,0 c -0.185,-0.873 -0.418,-1.639 -0.789,-2.473 -0.063,-0.114 -0.144,-0.228 -0.223,-0.342 -0.126,-0.171 -0.223,-0.255 -0.324,-0.395 -0.043,-0.071 -0.109,-0.163 -0.216,-0.232 -0.099,-0.059 -0.202,-0.086 -0.302,-0.101 -0.203,-0.026 -0.393,0.012 -0.573,0.063 -0.356,0.115 -0.675,0.326 -0.896,0.617 -0.498,0.59 -0.338,1.382 -0.442,2.127 -0.068,0.593 -0.164,1.173 -0.421,1.677 C -4.319,1.182 -4.519,1.416 -4.798,1.464 -5.076,1.498 -5.348,1.362 -5.541,1.168 -5.722,0.963 -5.865,0.719 -5.997,0.477 -6.088,0.214 -6.223,-0.038 -6.28,-0.316 -6.402,-0.861 -6.514,-1.463 -6.326,-2.04 c 0.174,-0.669 0.672,-1.158 1.008,-1.744 0.205,-0.273 0.282,-0.617 0.424,-0.932 0.028,-0.339 0.129,-0.689 0.093,-1.035 -0.054,-0.432 -0.101,-1.066 -0.313,-1.458 -0.077,-0.167 -0.316,-0.85 -0.284,-0.65 0.032,0.198 0.086,0.454 0.147,0.692 0.186,0.536 0.146,1.065 0.182,1.561 -0.049,0.246 -0.097,0.49 -0.144,0.73 -0.069,0.238 -0.21,0.458 -0.308,0.695 -0.303,0.471 -0.64,0.882 -0.914,1.447 -0.163,0.252 -0.2,0.592 -0.281,0.894 -0.025,0.308 0.008,0.62 0.018,0.932 0.061,0.288 0.119,0.562 0.18,0.849 0.101,0.264 0.184,0.526 0.294,0.783 0.166,0.244 0.259,0.509 0.502,0.735 0.231,0.209 0.574,0.419 1.011,0.351 0.471,-0.111 0.671,-0.496 0.727,-0.657 0.101,-0.362 -10e-4,-0.189 0.172,-0.703 0.19,-0.668 0.294,-1.255 0.323,-1.971 -0.012,-0.584 0.147,-1.05 0.536,-1.379 0.189,-0.159 0.422,-0.272 0.665,-0.318 0.231,-0.052 0.523,-10e-4 0.579,0.107 0.451,0.787 0.818,1.613 1.127,2.421 0.266,0.643 0.488,1.052 0.688,1.615 C 0.25,1.321 0.347,1.83 0.437,2.317 0.456,2.415 0.489,2.489 0.517,2.595 0.527,2.027 0.409,1.552 0.225,0.851 0.2,0.755 0.174,0.717 0.148,0.65 0.09,0.423 0.044,0.215 0,0" />
                        </g>
                      </g>
                    </g>
                  </g>
                  <g
                     id="g5936">
                    <g
                       id="g5926" />
                    <g
                       id="g5934">
                      <g
                         style="opacity:0.80000299"
                         id="g5932"
                         clip-path="url(#clipPath5886)">
                        <g
                           id="g5930"
                           transform="translate(65.6445,620.1177)">
                          <path
                             inkscape:connector-curvature="0"
                             id="path5928"
                             style="fill:#d3d2d2;fill-opacity:1;fill-rule:nonzero;stroke:none"
                             d="M 0,0 C -0.072,-0.339 -0.104,-0.568 -0.172,-0.841 -0.24,-1.113 -0.293,-1.447 -0.524,-1.952 -0.574,-2.07 -0.638,-2.19 -0.701,-2.31 -0.796,-2.494 -0.907,-2.573 -1.004,-2.713 -1.11,-2.866 -1.214,-3.017 -1.315,-3.164 -1.402,-3.33 -1.544,-3.429 -1.72,-3.446 c -0.341,-0.039 -0.685,0.078 -0.968,0.262 -0.288,0.181 -0.506,0.458 -0.629,0.773 -0.13,0.317 -0.122,0.669 -0.147,1.063 -0.038,0.604 -0.093,1.149 -0.229,1.655 -0.14,0.474 -0.32,1.05 -0.909,1.227 -0.618,0.102 -1.026,-0.4 -1.269,-0.845 -0.261,-0.466 -0.425,-1.004 -0.524,-1.621 -0.063,-0.697 0.02,-1.39 0.4,-1.904 0.314,-0.54 0.746,-0.99 0.972,-1.624 0.235,-0.364 0.311,-1.438 0.177,-1.858 0.039,-0.191 -0.389,-1.509 -0.346,-1.318 0.031,0.197 0.045,0.298 0.106,0.537 l 0.1,0.393 0.022,0.384 c 0.008,0.249 0.032,0.487 0.026,0.72 l -0.141,0.689 c -0.072,0.225 -0.203,0.44 -0.304,0.677 -0.301,0.473 -0.649,0.891 -0.929,1.477 -0.169,0.256 -0.192,0.618 -0.28,0.921 0.01,0.313 0.004,0.634 0.046,0.939 0.068,0.291 0.106,0.578 0.19,0.847 0.106,0.262 0.171,0.528 0.308,0.78 0.164,0.243 0.258,0.512 0.524,0.725 0.235,0.202 0.613,0.401 1.044,0.276 0.456,-0.148 0.613,-0.53 0.671,-0.692 0.093,-0.36 0.105,-0.232 0.258,-0.761 0.167,-0.685 0.181,-1.195 0.206,-1.91 -0.016,-0.573 0.181,-1.037 0.575,-1.349 0.193,-0.151 0.429,-0.257 0.67,-0.294 0.245,-0.036 0.494,-0.003 0.556,0.161 0.457,0.784 0.8,1.622 1.116,2.427 0.261,0.644 0.484,1.053 0.682,1.617 C 0.397,1.324 0.492,1.833 0.581,2.321 0.6,2.418 0.631,2.494 0.66,2.599 0.674,2.03 0.539,1.73 0.371,1.028 0.346,0.932 0.281,0.858 0.256,0.792 0.416,1.335 0.017,-0.006 0,0" />
                        </g>
                      </g>
                    </g>
                  </g>
                </g>
              </g>
            </g>
          </g>
        </g>
      </g>
      <g
         transform="matrix(0.35277777,0,0,-0.35277777,63.100862,344.85843)"
         id="g5948">
        <g
           id="g5950" />
        <g
           id="g6034">
          <g
             style="opacity:0.80000299"
             id="g6032"
             clip-path="url(#clipPath5954)">
            <g
               id="g6030">
              <g
                 id="g5976" />
              <g
                 id="g6028">
                <g
                   style="opacity:0.80000299"
                   id="g6026"
                   clip-path="url(#clipPath5958)">
                  <g
                     id="g5988">
                    <g
                       id="g5978" />
                    <g
                       id="g5986">
                      <g
                         style="opacity:0.80000299"
                         id="g5984"
                         clip-path="url(#clipPath5962)">
                        <g
                           id="g5982"
                           transform="translate(66.3237,618.7915)">
                          <path
                             inkscape:connector-curvature="0"
                             id="path5980"
                             style="fill:#2e2a2b;fill-opacity:1;fill-rule:nonzero;stroke:none"
                             d="m 0,0 c -0.21,-0.84 -0.384,-1.602 -0.858,-2.407 -0.069,-0.114 -0.163,-0.226 -0.261,-0.334 -0.166,-0.159 -0.289,-0.227 -0.459,-0.327 -0.175,-0.118 -0.41,-0.191 -0.64,-0.187 -0.239,0.006 -0.386,0.073 -0.583,0.106 -0.369,0.087 -0.732,0.242 -1.061,0.456 -0.663,0.442 -1.035,1.222 -1.145,1.968 -0.103,0.591 -0.081,1.181 -0.093,1.731 0,0.29 -0.045,0.505 -0.186,0.651 C -5.33,1.725 -5.43,1.743 -5.488,1.688 -5.548,1.649 -5.594,1.559 -5.662,1.435 -5.883,0.951 -6.006,0.396 -6.11,-0.154 c -0.069,-0.231 0.073,-0.464 0.202,-0.718 0.137,-0.246 0.292,-0.491 0.448,-0.74 0.351,-0.566 0.702,-1.126 0.931,-1.767 0.238,-0.65 0.185,-1.405 -0.043,-2.05 -0.146,-0.396 -0.278,-0.726 -0.397,-1.11 -0.066,-0.152 -0.182,-0.395 -0.173,-0.207 0.016,0.185 0.05,0.431 0.094,0.666 0.312,1.045 0.497,1.984 -0.049,2.901 -0.43,0.771 -0.531,0.952 -0.786,1.407 -0.132,0.235 -0.263,0.474 -0.389,0.726 -0.061,0.129 -0.122,0.261 -0.174,0.41 -0.024,0.079 -0.048,0.16 -0.06,0.257 -0.006,0.118 0.005,0.22 0.02,0.275 0.102,0.548 0.198,1.048 0.378,1.554 0.047,0.129 0.098,0.249 0.184,0.392 0.117,0.167 0.285,0.339 0.506,0.35 0.202,0.014 0.436,-0.154 0.527,-0.299 C -4.784,1.768 -4.678,1.571 -4.657,1.398 -4.609,1.061 -4.66,0.791 -4.694,0.633 -4.759,0.32 -4.817,0.428 -4.8,-0.063 c 0.049,-0.635 0.193,-1.177 0.519,-1.714 0.277,-0.457 0.714,-0.756 1.201,-0.913 0.236,-0.105 0.506,-0.114 0.763,-0.169 0.222,-0.021 0.438,0.087 0.62,0.268 0.557,0.612 0.816,1.503 1.142,2.259 0.25,0.627 0.463,1.024 0.667,1.567 0.139,0.382 0.24,0.871 0.341,1.34 C 0.473,2.669 0.507,2.74 0.539,2.84 0.542,2.292 0.418,1.501 0.23,0.824 0.204,0.73 0.177,0.694 0.15,0.63 0.082,0.413 0.05,0.208 0,0" />
                        </g>
                      </g>
                    </g>
                  </g>
                  <g
                     id="g6000">
                    <g
                       id="g5990" />
                    <g
                       id="g5998">
                      <g
                         style="opacity:0.80000299"
                         id="g5996"
                         clip-path="url(#clipPath5966)">
                        <g
                           id="g5994"
                           transform="translate(66.3267,618.9595)">
                          <path
                             inkscape:connector-curvature="0"
                             id="path5992"
                             style="fill:#7b7979;fill-opacity:1;fill-rule:nonzero;stroke:none"
                             d="m 0,0 c -0.199,-0.84 -0.372,-1.599 -0.808,-2.405 -0.061,-0.115 -0.149,-0.227 -0.239,-0.336 -0.148,-0.162 -0.263,-0.236 -0.412,-0.346 -0.155,-0.125 -0.351,-0.23 -0.568,-0.268 -0.23,-0.051 -0.432,0.012 -0.604,0.051 -0.365,0.073 -0.737,0.192 -1.063,0.396 -0.691,0.376 -1.098,1.121 -1.248,1.86 -0.119,0.586 -0.11,1.166 -0.114,1.722 -0.01,0.275 0.003,0.557 -0.127,0.737 -0.065,0.109 -0.119,0.171 -0.215,0.193 -0.1,0 -0.16,-0.087 -0.219,-0.166 -0.258,-0.451 -0.379,-1.01 -0.493,-1.551 -0.215,-0.532 0.233,-0.993 0.505,-1.498 0.35,-0.564 0.713,-1.112 0.966,-1.733 0.127,-0.308 0.229,-0.639 0.238,-0.999 -0.021,-0.344 -0.021,-0.694 -0.133,-1.025 -0.116,-0.433 -0.301,-0.734 -0.413,-1.128 -0.063,-0.154 -0.214,-0.598 -0.201,-0.413 0.016,0.185 0.05,0.43 0.094,0.666 0.313,1.046 0.494,1.981 -0.051,2.898 -0.431,0.771 -0.532,0.951 -0.786,1.406 -0.132,0.235 -0.263,0.474 -0.389,0.726 -0.062,0.13 -0.123,0.263 -0.175,0.412 -0.023,0.081 -0.048,0.16 -0.058,0.259 -0.007,0.122 0.006,0.219 0.02,0.275 0.103,0.548 0.199,1.048 0.379,1.554 0.049,0.13 0.098,0.248 0.187,0.395 0.118,0.17 0.29,0.335 0.511,0.348 0.204,0.009 0.439,-0.161 0.529,-0.307 C -4.78,1.599 -4.675,1.397 -4.655,1.227 -4.608,0.889 -4.658,0.62 -4.693,0.461 -4.758,0.148 -4.815,0.263 -4.798,-0.229 c 0.048,-0.634 0.192,-1.175 0.516,-1.712 0.277,-0.456 0.711,-0.755 1.199,-0.913 0.235,-0.104 0.504,-0.114 0.761,-0.168 0.221,-0.023 0.435,0.085 0.617,0.265 0.558,0.609 0.816,1.5 1.143,2.257 0.25,0.626 0.462,1.022 0.666,1.565 0.14,0.383 0.24,0.872 0.341,1.34 C 0.465,2.499 0.5,2.57 0.531,2.669 0.533,2.122 0.404,1.501 0.223,0.823 0.197,0.73 0.17,0.694 0.144,0.629 0.078,0.412 0.046,0.208 0,0" />
                        </g>
                      </g>
                    </g>
                  </g>
                  <g
                     id="g6012">
                    <g
                       id="g6002" />
                    <g
                       id="g6010">
                      <g
                         style="opacity:0.80000299"
                         id="g6008"
                         clip-path="url(#clipPath5970)">
                        <g
                           id="g6006"
                           transform="translate(66.3159,619.2383)">
                          <path
                             inkscape:connector-curvature="0"
                             id="path6004"
                             style="fill:#a7a5a6;fill-opacity:1;fill-rule:nonzero;stroke:none"
                             d="m 0,0 c -0.185,-0.839 -0.349,-1.595 -0.735,-2.399 -0.054,-0.116 -0.133,-0.228 -0.21,-0.34 -0.13,-0.165 -0.235,-0.242 -0.357,-0.364 -0.256,-0.265 -0.62,-0.495 -1.011,-0.44 -0.349,0.07 -0.687,0.147 -1.007,0.293 -0.654,0.265 -1.147,0.835 -1.382,1.535 -0.188,0.55 -0.211,1.117 -0.221,1.659 C -4.956,0.458 -4.812,1.11 -5.3,1.43 -5.426,1.509 -5.564,1.401 -5.636,1.302 -5.721,1.199 -5.779,1.075 -5.831,0.952 -5.935,0.704 -6.011,0.442 -6.077,0.177 -6.141,-0.09 -6.196,-0.362 -6.241,-0.64 c -0.04,-0.282 0.136,-0.542 0.267,-0.794 0.334,-0.573 0.713,-1.102 1.018,-1.678 0.299,-0.562 0.577,-1.223 0.461,-1.913 -0.003,-0.433 -0.239,-1.012 -0.4,-1.379 -0.072,-0.154 -0.249,-0.809 -0.235,-0.622 0.018,0.186 0.046,0.437 0.1,0.67 0.347,1.053 0.415,1.959 -0.161,2.857 -0.441,0.767 -0.545,0.947 -0.806,1.4 -0.131,0.239 -0.264,0.474 -0.384,0.745 -0.06,0.135 -0.119,0.278 -0.155,0.462 -0.029,0.254 0.026,0.38 0.047,0.516 0.111,0.548 0.21,1.047 0.422,1.563 l 0.1,0.199 c 0.062,0.088 0.128,0.186 0.216,0.25 0.171,0.151 0.42,0.189 0.623,0.078 0.225,-0.129 0.302,-0.293 0.411,-0.438 0.04,-0.086 0.081,-0.196 0.1,-0.281 l 0.034,-0.234 c 0.015,-0.306 -0.022,-0.589 -0.06,-0.739 -0.065,-0.312 -0.115,-0.138 -0.093,-0.626 0.059,-0.626 0.209,-1.161 0.551,-1.669 0.297,-0.423 0.722,-0.716 1.216,-0.848 0.231,-0.074 0.521,-0.118 0.739,-0.136 0.201,-10e-4 0.402,0.122 0.57,0.314 0.52,0.63 0.779,1.512 1.096,2.272 0.246,0.627 0.455,1.024 0.658,1.566 0.137,0.382 0.237,0.871 0.335,1.339 0.02,0.094 0.054,0.165 0.085,0.265 C 0.517,1.951 0.383,1.5 0.212,0.822 0.187,0.729 0.161,0.693 0.136,0.628 0.072,0.411 0.043,0.208 0,0" />
                        </g>
                      </g>
                    </g>
                  </g>
                  <g
                     id="g6024">
                    <g
                       id="g6014" />
                    <g
                       id="g6022">
                      <g
                         style="opacity:0.80000299"
                         id="g6020"
                         clip-path="url(#clipPath5974)">
                        <g
                           id="g6018"
                           transform="translate(66.1768,619.291)">
                          <path
                             inkscape:connector-curvature="0"
                             id="path6016"
                             style="fill:#d3d2d2;fill-opacity:1;fill-rule:nonzero;stroke:none"
                             d="m 0,0 c -0.152,-0.65 -0.093,-0.893 -0.468,-1.896 -0.044,-0.116 -0.111,-0.23 -0.173,-0.346 -0.108,-0.171 -0.198,-0.257 -0.295,-0.39 -0.2,-0.292 -0.439,-0.563 -0.734,-0.722 -0.298,-0.183 -0.628,-0.064 -0.96,0.008 -0.647,0.169 -1.268,0.516 -1.607,1.141 -0.533,0.994 -0.384,1.959 -0.427,2.886 -0.002,0.242 -0.101,0.529 -0.314,0.731 -0.109,0.12 -0.285,0.16 -0.431,0.092 C -5.544,1.433 -5.667,1.276 -5.72,1.164 -5.966,0.691 -6.077,0.172 -6.189,-0.41 c -0.022,-0.161 -0.079,-0.322 -0.034,-0.528 0.041,-0.18 0.119,-0.318 0.191,-0.459 0.149,-0.275 0.311,-0.525 0.47,-0.776 0.312,-0.501 0.64,-0.994 0.882,-1.597 0.076,-0.188 0.204,-0.521 0.231,-0.876 10e-4,-0.353 -0.024,-0.721 -0.104,-0.915 -0.048,-0.146 -0.134,-0.411 -0.245,-0.754 -0.107,-0.312 -0.149,-0.594 -0.147,-0.497 0.021,0.187 0.011,0.293 0.083,0.521 0.338,1.051 0.359,1.837 -0.19,2.74 -0.444,0.77 -0.554,0.962 -0.821,1.425 -0.135,0.246 -0.272,0.488 -0.394,0.767 -0.057,0.144 -0.121,0.286 -0.14,0.502 -0.006,0.135 0.011,0.22 0.026,0.277 0.014,0.073 0.028,0.142 0.042,0.21 0.116,0.549 0.209,1.046 0.443,1.567 0.063,0.254 0.607,0.781 0.996,0.402 0.108,-0.072 0.165,-0.15 0.211,-0.222 0.048,-0.079 0.116,-0.136 0.147,-0.239 0.086,-0.209 0.082,-0.342 0.102,-0.493 0.014,-0.307 -0.027,-0.581 -0.063,-0.734 -0.061,-0.31 -0.027,-0.214 0.006,-0.692 0.075,-0.607 0.122,-1.082 0.486,-1.582 0.306,-0.416 0.74,-0.69 1.232,-0.825 0.231,-0.054 0.534,-0.122 0.729,-0.119 0.2,0.015 0.396,0.158 0.561,0.35 0.509,0.645 0.763,1.525 1.077,2.287 0.245,0.627 0.452,1.025 0.654,1.568 0.136,0.382 0.235,0.871 0.332,1.34 0.01,0.047 0.023,0.088 0.038,0.13 L 0.635,2.432 0.646,2.466 0.652,2.484 C 0.639,2.472 0.687,2.52 0.616,2.433 0.588,2.406 0.512,2.428 0.504,2.451 0.49,2.471 0.49,2.479 0.487,2.485 L 0.484,2.503 V 2.51 2.513 2.514 2.515 h 0.088 c -0.175,0 -0.049,0 -0.088,0 V 2.514 2.512 L 0.483,2.509 V 2.494 C 0.499,2.509 0.441,2.423 0.609,2.425 0.675,2.477 0.646,2.473 0.656,2.479 0.66,2.49 0.658,2.479 0.659,2.477 V 2.452 L 0.658,2.402 C 0.656,2.366 0.655,2.335 0.654,2.308 0.646,2.226 0.64,2.172 0.636,2.13 0.621,2.016 0.598,1.908 0.57,1.796 0.513,1.58 0.422,1.238 0.357,0.993 0.333,0.9 0.27,0.829 0.244,0.766 0.398,1.29 0,0 0,0" />
                        </g>
                      </g>
                    </g>
                  </g>
                </g>
              </g>
            </g>
          </g>
        </g>
      </g>
      <g
         transform="matrix(0.35277777,0,0,-0.35277777,63.100862,344.85843)"
         id="g6036">
        <g
           id="g6038" />
        <g
           id="g6122">
          <g
             style="opacity:0.80000299"
             id="g6120"
             clip-path="url(#clipPath6042)">
            <g
               id="g6118">
              <g
                 id="g6064" />
              <g
                 id="g6116">
                <g
                   style="opacity:0.80000299"
                   id="g6114"
                   clip-path="url(#clipPath6046)">
                  <g
                     id="g6076">
                    <g
                       id="g6066" />
                    <g
                       id="g6074">
                      <g
                         style="opacity:0.80000299"
                         id="g6072"
                         clip-path="url(#clipPath6050)">
                        <g
                           id="g6070"
                           transform="translate(67.2266,618.4219)">
                          <path
                             inkscape:connector-curvature="0"
                             id="path6068"
                             style="fill:#2e2a2b;fill-opacity:1;fill-rule:nonzero;stroke:none"
                             d="m 0,0 c -0.049,-0.383 -0.14,-0.713 -0.25,-1.084 -0.017,-0.053 -0.046,-0.104 -0.075,-0.156 -0.049,-0.076 -0.104,-0.11 -0.143,-0.173 -0.29,-0.568 -0.699,-1.104 -0.976,-1.704 -0.253,-0.443 -0.657,-0.89 -1.215,-0.993 -0.532,-0.139 -1.112,0.151 -1.487,0.149 -0.09,-0.01 -0.134,-0.094 -0.145,-0.176 -0.014,-0.13 -0.03,-0.27 -0.047,-0.416 -0.019,-0.289 -0.075,-0.593 -0.173,-0.891 -0.074,-0.172 -0.147,-0.327 -0.25,-0.487 -0.048,-0.064 -0.15,-0.143 -0.145,-0.052 0.004,0.092 0.02,0.207 0.045,0.312 0.147,0.48 0.103,0.86 0.094,1.362 0.013,0.15 -0.022,0.215 0.084,0.456 0.083,0.2 0.292,0.352 0.515,0.33 0.391,-0.015 0.537,-0.153 0.779,-0.194 0.439,-0.097 0.762,0.015 1.043,0.255 0.083,0.053 0.176,0.115 0.25,0.124 0.14,0.039 0.143,-0.018 0.274,0.144 0.158,0.224 0.205,0.486 0.348,0.74 0.23,0.439 0.516,0.791 0.621,1.291 0.096,0.386 0.2,0.762 0.38,1.089 0.129,0.27 0.286,0.423 0.429,0.647 0.099,0.157 0.16,0.368 0.222,0.573 0.013,0.04 0.042,0.068 0.068,0.11 C 0.285,1.002 0.222,0.65 0.114,0.359 0.098,0.319 0.077,0.306 0.059,0.28 0.019,0.187 0.016,0.094 0,0" />
                        </g>
                      </g>
                    </g>
                  </g>
                  <g
                     id="g6088">
                    <g
                       id="g6078" />
                    <g
                       id="g6086">
                      <g
                         style="opacity:0.80000299"
                         id="g6084"
                         clip-path="url(#clipPath6054)">
                        <g
                           id="g6082"
                           transform="translate(67.2041,618.5029)">
                          <path
                             inkscape:connector-curvature="0"
                             id="path6080"
                             style="fill:#7b7979;fill-opacity:1;fill-rule:nonzero;stroke:none"
                             d="m 0,0 c -0.05,-0.381 -0.128,-0.714 -0.243,-1.083 -0.016,-0.052 -0.046,-0.104 -0.074,-0.154 -0.05,-0.076 -0.104,-0.111 -0.143,-0.174 -0.272,-0.574 -0.693,-1.101 -0.964,-1.701 -0.234,-0.45 -0.618,-0.871 -1.134,-1.021 -0.519,-0.159 -1.053,0.069 -1.504,0.125 -0.252,0.027 -0.234,-0.238 -0.27,-0.529 -0.025,-0.278 -0.057,-0.583 -0.152,-0.881 -0.062,-0.182 -0.143,-0.329 -0.243,-0.49 -0.048,-0.064 -0.164,-0.244 -0.16,-0.153 0.004,0.093 0.02,0.207 0.045,0.312 0.148,0.48 0.102,0.859 0.094,1.362 0.012,0.149 -0.022,0.215 0.085,0.458 0.085,0.2 0.295,0.352 0.52,0.33 0.392,-0.017 0.536,-0.153 0.779,-0.195 0.438,-0.096 0.759,0.016 1.039,0.255 0.083,0.053 0.175,0.115 0.25,0.123 0.139,0.04 0.141,-0.019 0.271,0.143 0.158,0.223 0.205,0.486 0.349,0.739 0.229,0.439 0.515,0.791 0.62,1.291 0.096,0.386 0.2,0.761 0.38,1.088 0.129,0.27 0.286,0.424 0.429,0.647 0.099,0.157 0.16,0.368 0.222,0.572 0.013,0.04 0.042,0.069 0.067,0.11 C 0.301,0.921 0.222,0.648 0.114,0.358 0.098,0.319 0.077,0.306 0.059,0.279 0.019,0.187 0.016,0.093 0,0" />
                        </g>
                      </g>
                    </g>
                  </g>
                  <g
                     id="g6100">
                    <g
                       id="g6090" />
                    <g
                       id="g6098">
                      <g
                         style="opacity:0.80000299"
                         id="g6096"
                         clip-path="url(#clipPath6058)">
                        <g
                           id="g6094"
                           transform="translate(67.1563,618.6392)">
                          <path
                             inkscape:connector-curvature="0"
                             id="path6092"
                             style="fill:#a7a5a6;fill-opacity:1;fill-rule:nonzero;stroke:none"
                             d="m 0,0 c -0.052,-0.379 -0.11,-0.715 -0.231,-1.079 -0.017,-0.052 -0.046,-0.103 -0.075,-0.154 -0.049,-0.076 -0.104,-0.11 -0.143,-0.173 -0.27,-0.573 -0.665,-1.023 -0.941,-1.611 -0.208,-0.46 -0.516,-0.858 -0.943,-1.065 -0.432,-0.222 -0.935,-0.134 -1.428,-0.012 -0.141,0.029 -0.289,0.055 -0.406,0.01 -0.127,-0.054 -0.153,-0.186 -0.166,-0.321 -0.038,-0.278 -0.044,-0.564 -0.109,-0.859 -0.045,-0.186 -0.115,-0.447 -0.225,-0.6 -0.049,-0.063 -0.178,-0.343 -0.175,-0.251 0.004,0.092 0.02,0.206 0.044,0.31 0.145,0.482 0.076,0.842 0.074,1.361 0.004,0.087 0.007,0.15 0.009,0.197 0.042,0.101 0.062,0.227 0.134,0.317 0.119,0.22 0.419,0.245 0.602,0.235 0.333,-0.058 0.504,-0.168 0.732,-0.21 0.431,-0.087 0.723,0.052 0.993,0.292 0.073,0.07 0.171,0.115 0.243,0.131 0.129,0.054 0.119,-0.03 0.245,0.133 0.146,0.23 0.2,0.485 0.341,0.739 0.233,0.435 0.506,0.79 0.612,1.288 0.094,0.385 0.203,0.758 0.376,1.086 0.128,0.27 0.286,0.423 0.428,0.646 C 0.092,0.566 0.148,0.779 0.21,0.981 0.223,1.021 0.252,1.05 0.277,1.091 0.312,0.84 0.221,0.646 0.113,0.357 0.098,0.317 0.076,0.304 0.058,0.278 0.019,0.186 0.015,0.093 0,0" />
                        </g>
                      </g>
                    </g>
                  </g>
                  <g
                     id="g6112">
                    <g
                       id="g6102" />
                    <g
                       id="g6110">
                      <g
                         style="opacity:0.80000299"
                         id="g6108"
                         clip-path="url(#clipPath6062)">
                        <g
                           id="g6106"
                           transform="translate(67.0161,618.687)">
                          <path
                             inkscape:connector-curvature="0"
                             id="path6104"
                             style="fill:#d3d2d2;fill-opacity:1;fill-rule:nonzero;stroke:none"
                             d="m 0,0 c -0.052,-0.291 0.031,-0.416 -0.12,-0.859 -0.016,-0.052 -0.045,-0.103 -0.074,-0.154 -0.049,-0.075 -0.103,-0.11 -0.142,-0.172 -0.158,-0.273 -0.28,-0.548 -0.438,-0.807 -0.168,-0.254 -0.323,-0.513 -0.467,-0.801 -0.414,-0.895 -0.905,-1.439 -1.872,-1.315 -0.283,0.029 -0.511,0.136 -0.828,0.125 -0.168,0.003 -0.32,-0.123 -0.348,-0.286 -0.049,-0.153 -0.042,-0.278 -0.066,-0.426 -0.019,-0.18 -0.02,-0.634 -0.12,-0.801 -0.025,-0.07 -0.209,-0.632 -0.202,-0.544 0.003,0.09 0.002,0.138 0.026,0.241 0.133,0.482 0.069,0.786 0.067,1.307 0.004,0.087 0.007,0.151 0.009,0.199 0.045,0.103 0.061,0.231 0.14,0.321 0.12,0.222 0.439,0.245 0.614,0.227 0.334,-0.062 0.511,-0.172 0.738,-0.211 0.426,-0.077 0.719,0.057 0.984,0.31 0.072,0.071 0.175,0.112 0.243,0.134 0.128,0.055 0.069,0.054 0.191,0.21 0.135,0.233 0.263,0.451 0.388,0.667 0.236,0.434 0.503,0.792 0.61,1.289 0.093,0.386 0.204,0.757 0.374,1.087 0.128,0.269 0.285,0.423 0.428,0.646 C 0.236,0.543 0.29,0.756 0.353,0.958 0.365,0.999 0.395,1.027 0.42,1.068 0.45,0.819 0.346,0.701 0.238,0.413 0.223,0.374 0.167,0.351 0.149,0.324 0.245,0.547 0,0 0,0" />
                        </g>
                      </g>
                    </g>
                  </g>
                </g>
              </g>
            </g>
          </g>
        </g>
      </g>
      <g
         transform="matrix(0.35277777,0,0,-0.35277777,86.881682,126.53274)"
         id="g6124">
        <path
           inkscape:connector-curvature="0"
           id="path6126"
           style="fill:none;stroke:#231f20;stroke-width:0.75;stroke-linecap:butt;stroke-linejoin:miter;stroke-miterlimit:4;stroke-dasharray:none;stroke-opacity:1"
           d="m 0,0 c 0,-3.764 -3.051,-6.814 -6.814,-6.814 -3.764,0 -6.815,3.05 -6.815,6.814 0,3.764 3.051,6.814 6.815,6.814 C -3.051,6.814 0,3.764 0,0 Z" />
      </g>
      <g
         transform="matrix(0.35277777,0,0,-0.35277777,85.910838,126.53274)"
         id="g6128">
        <path
           inkscape:connector-curvature="0"
           id="path6130"
           style="fill:#231f20;fill-opacity:1;fill-rule:nonzero;stroke:none"
           d="m 0,0 c -0.242,-0.82 -0.871,-1.108 -1.135,-1.108 -0.475,0 -0.241,0.632 -0.354,1.459 C -1.553,0.818 -1.996,1.394 -2.077,1.84 -2.261,2.846 -2.701,3.415 -3.113,3.488 -4.94,3.815 -5.596,3 -6.215,0.494 c -0.493,-1.992 1.328,-3.757 1.384,-4.106 0.079,-0.484 0.191,-2.306 -0.773,-3.028 -3.021,0.699 -5.273,3.407 -5.273,6.64 0,3.764 3.051,6.814 6.815,6.814 1.518,0 2.919,-0.496 4.052,-1.335 C 1.666,4.237 0.637,2.153 0,0" />
      </g>
      <g
         transform="matrix(0.35277777,0,0,-0.35277777,85.910838,126.53274)"
         id="g6132">
        <path
           inkscape:connector-curvature="0"
           id="path6134"
           style="fill:none;stroke:#231f20;stroke-width:0.75;stroke-linecap:butt;stroke-linejoin:miter;stroke-miterlimit:4;stroke-dasharray:none;stroke-opacity:1"
           d="m 0,0 c -0.242,-0.82 -0.871,-1.108 -1.135,-1.108 -0.475,0 -0.241,0.632 -0.354,1.459 C -1.553,0.818 -1.996,1.394 -2.077,1.84 -2.261,2.846 -2.701,3.415 -3.113,3.488 -4.94,3.815 -5.596,3 -6.215,0.494 c -0.493,-1.992 1.328,-3.757 1.384,-4.106 0.079,-0.484 0.191,-2.306 -0.773,-3.028 -3.021,0.699 -5.273,3.407 -5.273,6.64 0,3.764 3.051,6.814 6.815,6.814 1.518,0 2.919,-0.496 4.052,-1.335 C 1.666,4.237 0.637,2.153 0,0 Z" />
      </g>
    </g>
  </g>
</svg>
