<?xml version="1.0" encoding="UTF-8" standalone="no"?>
<!-- Created with Inkscape (http://www.inkscape.org/) -->

<svg
   xmlns:dc="http://purl.org/dc/elements/1.1/"
   xmlns:cc="http://creativecommons.org/ns#"
   xmlns:rdf="http://www.w3.org/1999/02/22-rdf-syntax-ns#"
   xmlns:svg="http://www.w3.org/2000/svg"
   xmlns="http://www.w3.org/2000/svg"
   xmlns:sodipodi="http://sodipodi.sourceforge.net/DTD/sodipodi-0.dtd"
   xmlns:inkscape="http://www.inkscape.org/namespaces/inkscape"
   width="79.375mm"
   height="79.369476mm"
   viewBox="0 0 79.375 79.369477"
   version="1.1"
   id="svg8"
   inkscape:version="0.92.4 (unknown)"
   sodipodi:docname="topography_lands.svg">
  <defs
     id="defs2" />
  <sodipodi:namedview
     id="base"
     pagecolor="#ffffff"
     bordercolor="#666666"
     borderopacity="1.0"
     inkscape:pageopacity="0.0"
     inkscape:pageshadow="2"
     inkscape:zoom="0.35"
     inkscape:cx="96.607065"
     inkscape:cy="-237.75618"
     inkscape:document-units="mm"
     inkscape:current-layer="layer1"
     showgrid="false"
     fit-margin-top="0"
     fit-margin-left="0"
     fit-margin-right="0"
     fit-margin-bottom="0"
     inkscape:window-width="959"
     inkscape:window-height="1023"
     inkscape:window-x="0"
     inkscape:window-y="0"
     inkscape:window-maximized="0" />
  <metadata
     id="metadata5">
    <rdf:RDF>
      <cc:Work
         rdf:about="">
        <dc:format>image/svg+xml</dc:format>
        <dc:type
           rdf:resource="http://purl.org/dc/dcmitype/StillImage" />
        <dc:title></dc:title>
      </cc:Work>
    </rdf:RDF>
  </metadata>
  <g
     inkscape:label="Layer 1"
     inkscape:groupmode="layer"
     id="layer1"
     transform="translate(-81.941336,-49.699405)">
    <g
       id="g1653"
       transform="matrix(15.64782,0,0,15.64782,-1225.8939,-1983.627)">
      <g
         transform="matrix(0.35277777,0,0,-0.35277777,88.519689,132.47923)"
         id="g6136">
        <path
           inkscape:connector-curvature="0"
           id="path6138"
           style="fill:#ffffff;fill-opacity:1;fill-rule:nonzero;stroke:none"
           d="m 0,0 c 0,-3.764 -3.051,-6.814 -6.814,-6.814 -3.764,0 -6.815,3.05 -6.815,6.814 0,3.764 3.051,6.814 6.815,6.814 C -3.051,6.814 0,3.764 0,0" />
      </g>
      <g
         transform="matrix(0.35277777,0,0,-0.35277777,88.519689,132.47923)"
         id="g6140">
        <path
           inkscape:connector-curvature="0"
           id="path6142"
           style="fill:none;stroke:#231f20;stroke-width:0.75;stroke-linecap:butt;stroke-linejoin:miter;stroke-miterlimit:4;stroke-dasharray:none;stroke-opacity:1"
           d="m 0,0 c 0,-3.764 -3.051,-6.814 -6.814,-6.814 -3.764,0 -6.815,3.05 -6.815,6.814 0,3.764 3.051,6.814 6.815,6.814 C -3.051,6.814 0,3.764 0,0 Z" />
      </g>
      <g
         transform="matrix(0.35277777,0,0,-0.35277777,87.080496,133.05267)"
         id="g6144">
        <path
           inkscape:connector-curvature="0"
           id="path6146"
           style="fill:#231f20;fill-opacity:1;fill-rule:nonzero;stroke:none"
           d="m 0,0 c 0.692,-0.053 3.783,-0.37 3.783,-0.37 -0.854,-2.79 -3.449,-4.819 -6.518,-4.819 -3.069,0 -5.664,2.028 -6.517,4.818 0,0 3.555,-0.011 4.246,0.054 C -3.997,-0.221 -0.656,0.05 0,0" />
      </g>
      <g
         transform="matrix(0.35277777,0,0,-0.35277777,88.519689,132.47923)"
         id="g6148">
        <path
           inkscape:connector-curvature="0"
           id="path6150"
           style="fill:none;stroke:#231f20;stroke-width:0.75;stroke-linecap:butt;stroke-linejoin:miter;stroke-miterlimit:4;stroke-dasharray:none;stroke-opacity:1"
           d="m 0,0 c 0,-3.764 -3.051,-6.814 -6.814,-6.814 -3.764,0 -6.815,3.05 -6.815,6.814 0,3.764 3.051,6.814 6.815,6.814 C -3.051,6.814 0,3.764 0,0 Z" />
      </g>
    </g>
  </g>
</svg>
