<?xml version="1.0" encoding="UTF-8" standalone="no"?>
<!-- Created with Inkscape (http://www.inkscape.org/) -->

<svg
   xmlns:dc="http://purl.org/dc/elements/1.1/"
   xmlns:cc="http://creativecommons.org/ns#"
   xmlns:rdf="http://www.w3.org/1999/02/22-rdf-syntax-ns#"
   xmlns:svg="http://www.w3.org/2000/svg"
   xmlns="http://www.w3.org/2000/svg"
   xmlns:sodipodi="http://sodipodi.sourceforge.net/DTD/sodipodi-0.dtd"
   xmlns:inkscape="http://www.inkscape.org/namespaces/inkscape"
   width="79.375mm"
   height="79.369476mm"
   viewBox="0 0 79.375 79.369477"
   version="1.1"
   id="svg8"
   inkscape:version="0.92.4 (unknown)"
   sodipodi:docname="topography_hills.svg">
  <defs
     id="defs2" />
  <sodipodi:namedview
     id="base"
     pagecolor="#ffffff"
     bordercolor="#666666"
     borderopacity="1.0"
     inkscape:pageopacity="0.0"
     inkscape:pageshadow="2"
     inkscape:zoom="0.7"
     inkscape:cx="120.3127"
     inkscape:cy="-14.242314"
     inkscape:document-units="mm"
     inkscape:current-layer="layer1"
     showgrid="false"
     fit-margin-top="0"
     fit-margin-left="0"
     fit-margin-right="0"
     fit-margin-bottom="0"
     inkscape:window-width="959"
     inkscape:window-height="1023"
     inkscape:window-x="0"
     inkscape:window-y="0"
     inkscape:window-maximized="0" />
  <metadata
     id="metadata5">
    <rdf:RDF>
      <cc:Work
         rdf:about="">
        <dc:format>image/svg+xml</dc:format>
        <dc:type
           rdf:resource="http://purl.org/dc/dcmitype/StillImage" />
        <dc:title></dc:title>
      </cc:Work>
    </rdf:RDF>
  </metadata>
  <g
     inkscape:label="Layer 1"
     inkscape:groupmode="layer"
     id="layer1"
     transform="translate(-81.94136,-49.6994)">
    <g
       id="g1604"
       transform="matrix(15.64782,0,0,15.64782,-1209.629,-1973.6462)">
      <g
         transform="matrix(0.35277777,0,0,-0.35277777,87.480255,131.84139)"
         id="g6152">
        <path
           inkscape:connector-curvature="0"
           id="path6154"
           style="fill:#ffffff;fill-opacity:1;fill-rule:nonzero;stroke:none"
           d="m 0,0 c 0,-3.764 -3.051,-6.814 -6.814,-6.814 -3.764,0 -6.815,3.05 -6.815,6.814 0,3.764 3.051,6.814 6.815,6.814 C -3.051,6.814 0,3.764 0,0" />
      </g>
      <g
         transform="matrix(0.35277777,0,0,-0.35277777,87.480255,131.84139)"
         id="g6156">
        <path
           inkscape:connector-curvature="0"
           id="path6158"
           style="fill:none;stroke:#231f20;stroke-width:0.75;stroke-linecap:butt;stroke-linejoin:miter;stroke-miterlimit:4;stroke-dasharray:none;stroke-opacity:1"
           d="m 0,0 c 0,-3.764 -3.051,-6.814 -6.814,-6.814 -3.764,0 -6.815,3.05 -6.815,6.814 0,3.764 3.051,6.814 6.815,6.814 C -3.051,6.814 0,3.764 0,0 Z" />
      </g>
      <g
         transform="matrix(0.35277777,0,0,-0.35277777,86.42933,131.45054)"
         id="g6160">
        <path
           inkscape:connector-curvature="0"
           id="path6162"
           style="fill:#231f20;fill-opacity:1;fill-rule:nonzero;stroke:none"
           d="m 0,0 c 0.433,-0.034 1.974,-1.641 2.902,-1.947 -0.063,-0.543 -0.22,-1.157 -0.22,-1.157 -0.853,-2.79 -3.449,-4.818 -6.517,-4.818 -3.069,0 -5.665,2.028 -6.518,4.818 0,0 4.341,1.434 5.307,1.996 0.428,0.25 1.254,-0.702 1.733,-0.513 C -2.129,-1.154 -0.402,0.031 0,0" />
      </g>
      <g
         transform="matrix(0.35277777,0,0,-0.35277777,87.480255,131.84139)"
         id="g6164">
        <path
           inkscape:connector-curvature="0"
           id="path6166"
           style="fill:none;stroke:#231f20;stroke-width:0.75;stroke-linecap:butt;stroke-linejoin:miter;stroke-miterlimit:4;stroke-dasharray:none;stroke-opacity:1"
           d="m 0,0 c 0,-3.764 -3.051,-6.814 -6.814,-6.814 -3.764,0 -6.815,3.05 -6.815,6.814 0,3.764 3.051,6.814 6.815,6.814 C -3.051,6.814 0,3.764 0,0 Z" />
      </g>
    </g>
  </g>
</svg>
