<?xml version="1.0" encoding="UTF-8" standalone="no"?>
<!-- Created with Inkscape (http://www.inkscape.org/) -->

<svg
   xmlns:dc="http://purl.org/dc/elements/1.1/"
   xmlns:cc="http://creativecommons.org/ns#"
   xmlns:rdf="http://www.w3.org/1999/02/22-rdf-syntax-ns#"
   xmlns:svg="http://www.w3.org/2000/svg"
   xmlns="http://www.w3.org/2000/svg"
   xmlns:sodipodi="http://sodipodi.sourceforge.net/DTD/sodipodi-0.dtd"
   xmlns:inkscape="http://www.inkscape.org/namespaces/inkscape"
   width="300"
   height="300"
   viewBox="0 0 79.375 79.375"
   version="1.1"
   id="svg8"
   inkscape:version="0.92.4 (unknown)"
   sodipodi:docname="tree_oak.svg">
  <defs
     id="defs2" />
  <sodipodi:namedview
     id="base"
     pagecolor="#ffffff"
     bordercolor="#666666"
     borderopacity="1.0"
     inkscape:pageopacity="0.0"
     inkscape:pageshadow="2"
     inkscape:zoom="1.979899"
     inkscape:cx="149.46944"
     inkscape:cy="111.54785"
     inkscape:document-units="mm"
     inkscape:current-layer="layer1"
     showgrid="false"
     fit-margin-top="0"
     fit-margin-left="0"
     fit-margin-right="0"
     fit-margin-bottom="0"
     inkscape:window-width="1920"
     inkscape:window-height="1023"
     inkscape:window-x="0"
     inkscape:window-y="0"
     inkscape:window-maximized="1"
     units="px" />
  <metadata
     id="metadata5">
    <rdf:RDF>
      <cc:Work
         rdf:about="">
        <dc:format>image/svg+xml</dc:format>
        <dc:type
           rdf:resource="http://purl.org/dc/dcmitype/StillImage" />
        <dc:title></dc:title>
      </cc:Work>
    </rdf:RDF>
  </metadata>
  <g
     inkscape:label="Layer 1"
     inkscape:groupmode="layer"
     id="layer1"
     transform="translate(-81.721712,-49.915053)">
    <path
       style="color:#000000;clip-rule:nonzero;display:inline;overflow:visible;visibility:visible;opacity:1;isolation:auto;mix-blend-mode:normal;color-interpolation:sRGB;color-interpolation-filters:linearRGB;solid-color:#000000;solid-opacity:1;fill:#000000;fill-opacity:1;fill-rule:nonzero;stroke:none;stroke-width:1.21749067;stroke-linecap:butt;stroke-linejoin:round;stroke-miterlimit:4;stroke-dasharray:none;stroke-dashoffset:0;stroke-opacity:1;color-rendering:auto;image-rendering:auto;shape-rendering:auto;text-rendering:auto;enable-background:accumulate"
       d="m 117.55142,57.308609 c -5.46214,-1.12505 -6.9298,5.461564 -10.92431,7.23762 -4.02587,3.36366 -10.600119,3.028383 -10.699657,9.742721 -3.812203,1.190702 -8.369295,5.011544 -9.229048,8.487709 0.611914,0.544619 0.415552,1.210099 0.898995,1.941083 2.399087,3.627465 3.553784,8.82149 -2.252516,8.173023 -5.784904,1.177277 -4.162728,9.383865 1.481365,8.833575 4.189183,2.18176 8.334767,3.87963 13.330421,3.43707 3.26588,2.57822 5.68232,8.73809 11.3016,5.61764 5.15121,-3.9326 7.37542,4.40202 4.26686,7.7242 -1.36319,1.0594 -2.33835,2.16594 -2.11155,2.51256 0.17084,0.26112 1.2568,-0.0895 2.06934,-0.19397 0.53507,-0.0746 1.43243,0.88482 2.10972,0.42674 0.66936,0.17458 1.69571,-0.0298 2.2915,0.11937 0.6883,0.17159 0.9436,0.67443 1.70052,0.65653 0.73516,-0.0299 0.51866,-1.00121 1.28113,-1.23398 0.44285,-0.13429 1.92887,0.51926 2.26296,0.37004 0.63981,-0.28797 3.26461,0.49389 3.07828,-0.37004 -0.18503,-0.85796 -3.76803,-1.3041 -4.52933,-2.23025 -0.96689,-1.17578 -1.41944,-2.31128 -1.51338,-3.5742 -0.14175,-1.89856 0.0298,-3.81472 2.72091,-5.11972 4.01903,-4.60062 11.1093,-1.17429 16.68837,-2.61328 4.08292,2.08612 4.96102,-4.99483 9.00502,-2.34888 3.86501,0.27604 11.10281,0.38198 8.47392,-5.571828 0.72577,-4.25325 4.85689,-10.602321 -2.29532,-11.518177 -4.13636,1.383185 0.48851,-4.942907 -4.13717,-6.123164 -3.51057,-1.582829 -7.60475,-1.07581 -7.66639,-6.200904 0.70591,-2.879321 -1.36468,-6.038711 -4.14386,-8.220173 -0.16204,-5.354132 -6.22209,-5.171797 -9.965,-5.647929 -1.4648,-5.597196 -7.18869,0.174577 -9.85176,-3.67357 -1.16101,-0.437188 -2.40389,-0.635638 -3.64165,-0.644591 z"
       id="path906"
       inkscape:connector-curvature="0"
       sodipodi:nodetypes="ccccscccccsscsssssssccccccccccc" />
  </g>
</svg>
