<?xml version="1.0" encoding="UTF-8" standalone="no"?>
<!-- Created with Inkscape (http://www.inkscape.org/) -->

<svg
   xmlns:dc="http://purl.org/dc/elements/1.1/"
   xmlns:cc="http://creativecommons.org/ns#"
   xmlns:rdf="http://www.w3.org/1999/02/22-rdf-syntax-ns#"
   xmlns:svg="http://www.w3.org/2000/svg"
   xmlns="http://www.w3.org/2000/svg"
   xmlns:sodipodi="http://sodipodi.sourceforge.net/DTD/sodipodi-0.dtd"
   xmlns:inkscape="http://www.inkscape.org/namespaces/inkscape"
   width="300"
   height="300"
   viewBox="0 0 300 300"
   id="svg2"
   version="1.1"
   inkscape:version="0.92.4 (unknown)"
   sodipodi:docname="wordpress.svg">
  <defs
     id="defs4" />
  <sodipodi:namedview
     id="base"
     pagecolor="#ffffff"
     bordercolor="#666666"
     borderopacity="1.0"
     inkscape:pageopacity="0.0"
     inkscape:pageshadow="2"
     inkscape:zoom="2.8284271"
     inkscape:cx="8.8591694"
     inkscape:cy="8.0161701"
     inkscape:document-units="px"
     inkscape:current-layer="layer1"
     showgrid="false"
     inkscape:window-width="1920"
     inkscape:window-height="1023"
     inkscape:window-x="0"
     inkscape:window-y="0"
     inkscape:window-maximized="1"
     units="px"
     fit-margin-top="0"
     fit-margin-left="0"
     fit-margin-right="0"
     fit-margin-bottom="0" />
  <metadata
     id="metadata7">
    <rdf:RDF>
      <cc:Work
         rdf:about="">
        <dc:format>image/svg+xml</dc:format>
        <dc:type
           rdf:resource="http://purl.org/dc/dcmitype/StillImage" />
        <dc:title></dc:title>
      </cc:Work>
    </rdf:RDF>
  </metadata>
  <g
     inkscape:label="Layer 1"
     inkscape:groupmode="layer"
     id="layer1"
     transform="translate(7.758e-7,-752.36224)">
    <g
       id="g4371"
       transform="matrix(0.90002999,0,0,0.89999999,14.995501,767.36224)" />
    <g
       id="g4373"
       transform="matrix(0.90002999,0,0,0.89999999,14.995501,767.36224)" />
    <g
       id="g4375"
       transform="matrix(0.90002999,0,0,0.89999999,14.995501,767.36224)" />
    <g
       id="g4377"
       transform="matrix(0.90002999,0,0,0.89999999,14.995501,767.36224)" />
    <g
       id="g4379"
       transform="matrix(0.90002999,0,0,0.89999999,14.995501,767.36224)" />
    <g
       id="g4381"
       transform="matrix(0.90002999,0,0,0.89999999,14.995501,767.36224)" />
    <g
       id="g4383"
       transform="matrix(0.90002999,0,0,0.89999999,14.995501,767.36224)" />
    <g
       id="g4385"
       transform="matrix(0.90002999,0,0,0.89999999,14.995501,767.36224)" />
    <g
       id="g4387"
       transform="matrix(0.90002999,0,0,0.89999999,14.995501,767.36224)" />
    <g
       id="g4389"
       transform="matrix(0.90002999,0,0,0.89999999,14.995501,767.36224)" />
    <g
       id="g4391"
       transform="matrix(0.90002999,0,0,0.89999999,14.995501,767.36224)" />
    <g
       id="g4393"
       transform="matrix(0.90002999,0,0,0.89999999,14.995501,767.36224)" />
    <g
       id="g4395"
       transform="matrix(0.90002999,0,0,0.89999999,14.995501,767.36224)" />
    <g
       id="g4397"
       transform="matrix(0.90002999,0,0,0.89999999,14.995501,767.36224)" />
    <g
       id="g4399"
       transform="matrix(0.90002999,0,0,0.89999999,14.995501,767.36224)" />
    <g
       id="g4494"
       transform="matrix(3.1173042,0,0,3.117207,-0.00311808,752.36224)">
      <g
         id="g4454">
        <path
           id="path4456"
           d="M 48.122,0 C 21.587,0 0.001,21.585 0.001,48.118 c 0,26.535 21.587,48.122 48.12,48.122 26.532,0 48.117,-21.587 48.117,-48.122 C 96.239,21.586 74.654,0 48.122,0 Z M 4.857,48.118 c 0,-6.271 1.345,-12.227 3.746,-17.606 L 29.241,87.056 C 14.81,80.042 4.857,65.243 4.857,48.118 Z m 43.265,43.267 c -4.247,0 -8.346,-0.623 -12.222,-1.763 L 48.88,51.903 62.181,88.336 c 0.086,0.215 0.191,0.411 0.308,0.596 -4.497,1.582 -9.329,2.453 -14.367,2.453 z m 5.961,-63.551 c 2.604,-0.137 4.953,-0.412 4.953,-0.412 2.33,-0.276 2.057,-3.701 -0.277,-3.564 0,0 -7.007,0.549 -11.532,0.549 -4.25,0 -11.396,-0.549 -11.396,-0.549 -2.332,-0.137 -2.604,3.427 -0.273,3.564 0,0 2.208,0.275 4.537,0.412 l 6.74,18.469 -9.468,28.395 -15.752,-46.863 c 2.608,-0.136 4.952,-0.412 4.952,-0.412 2.33,-0.275 2.055,-3.702 -0.278,-3.562 0,0 -7.004,0.549 -11.53,0.549 -0.813,0 -1.77,-0.021 -2.784,-0.052 7.734,-11.747 21.033,-19.502 36.147,-19.502 11.265,0 21.519,4.306 29.215,11.357 -0.187,-0.01 -0.368,-0.035 -0.562,-0.035 -4.248,0 -7.264,3.702 -7.264,7.679 0,3.564 2.055,6.582 4.248,10.146 1.647,2.882 3.567,6.585 3.567,11.932 0,3.704 -1.422,8 -3.293,13.986 L 69.718,74.342 Z M 69.871,85.516 83.086,47.308 c 2.471,-6.171 3.29,-11.106 3.29,-15.497 0,-1.591 -0.104,-3.07 -0.292,-4.449 3.38,6.163 5.303,13.236 5.301,20.758 -0.001,15.96 -8.653,29.896 -21.514,37.396 z"
           inkscape:connector-curvature="0" />
      </g>
      <g
         id="g4458" />
      <g
         id="g4460" />
      <g
         id="g4462" />
      <g
         id="g4464" />
      <g
         id="g4466" />
      <g
         id="g4468" />
      <g
         id="g4470" />
      <g
         id="g4472" />
      <g
         id="g4474" />
      <g
         id="g4476" />
      <g
         id="g4478" />
      <g
         id="g4480" />
      <g
         id="g4482" />
      <g
         id="g4484" />
      <g
         id="g4486" />
    </g>
  </g>
</svg>
