<?xml version="1.0" encoding="UTF-8" standalone="no"?>
<!-- Created with Inkscape (http://www.inkscape.org/) -->

<svg
   xmlns:dc="http://purl.org/dc/elements/1.1/"
   xmlns:cc="http://creativecommons.org/ns#"
   xmlns:rdf="http://www.w3.org/1999/02/22-rdf-syntax-ns#"
   xmlns:svg="http://www.w3.org/2000/svg"
   xmlns="http://www.w3.org/2000/svg"
   xmlns:sodipodi="http://sodipodi.sourceforge.net/DTD/sodipodi-0.dtd"
   xmlns:inkscape="http://www.inkscape.org/namespaces/inkscape"
   width="79.375mm"
   height="79.375mm"
   viewBox="0 0 79.374999 79.374999"
   version="1.1"
   id="svg3615"
   inkscape:version="0.92.4 (unknown)"
   sodipodi:docname="working.svg">
  <defs
     id="defs3609" />
  <sodipodi:namedview
     id="base"
     pagecolor="#ffffff"
     bordercolor="#666666"
     borderopacity="1.0"
     inkscape:pageopacity="0.0"
     inkscape:pageshadow="2"
     inkscape:zoom="0.7"
     inkscape:cx="18.110078"
     inkscape:cy="-159.29826"
     inkscape:document-units="mm"
     inkscape:current-layer="layer1"
     showgrid="false"
     fit-margin-top="0"
     fit-margin-left="0"
     fit-margin-right="0"
     fit-margin-bottom="0"
     inkscape:window-width="959"
     inkscape:window-height="1023"
     inkscape:window-x="959"
     inkscape:window-y="0"
     inkscape:window-maximized="0" />
  <metadata
     id="metadata3612">
    <rdf:RDF>
      <cc:Work
         rdf:about="">
        <dc:format>image/svg+xml</dc:format>
        <dc:type
           rdf:resource="http://purl.org/dc/dcmitype/StillImage" />
        <dc:title></dc:title>
      </cc:Work>
    </rdf:RDF>
  </metadata>
  <g
     inkscape:label="Layer 1"
     inkscape:groupmode="layer"
     id="layer1"
     transform="translate(70.604321,-10.038853)">
    <g
       id="Calque_7"
       transform="matrix(0.84710035,0,0,0.84710035,-331.85346,-129.8928)">
      <circle
         stroke-miterlimit="10"
         cx="355.255"
         cy="212.03999"
         r="44.851002"
         id="circle5299"
         style="fill:#f3f3f2;stroke:#fafafa;stroke-width:4;stroke-miterlimit:10" />
      <g
         id="g5301">
        <g
           id="g5303">
          <path
             d="m 368.994,183.647 c -0.327,2.877 -2.921,4.952 -5.804,4.624 -2.886,-0.327 -4.953,-2.93 -4.627,-5.807 0.327,-2.88 2.927,-4.951 5.809,-4.624 2.879,0.327 4.951,2.927 4.622,5.807 z"
             id="path5305"
             inkscape:connector-curvature="0"
             style="fill:#8f8c87" />
          <path
             d="m 363.133,210.748 c -0.164,1.437 -1.396,2.483 -2.764,2.327 v 0 c -1.362,-0.156 -2.335,-1.45 -2.175,-2.887 l -1.291,-18.671 c 0.164,-1.438 4.765,-2.096 6.13,-1.937 v 0 c 1.371,0.151 5.707,1.824 5.542,3.259 z"
             id="path5307"
             inkscape:connector-curvature="0"
             style="fill:#8f8c87" />
          <path
             d="m 364.115,191.169 c -0.079,0.687 -0.695,1.169 -1.378,1.095 v 0 c -0.679,-0.081 -1.17,-0.692 -1.095,-1.373 l 0.235,-2.081 c 0.078,-0.68 0.694,-1.174 1.377,-1.097 v 0 c 0.683,0.078 1.176,0.694 1.096,1.377 z"
             id="path5309"
             inkscape:connector-curvature="0"
             style="fill:#8f8c87" />
          <g
             id="g5311">
            <path
               d="m 377.307,215.247 c -0.673,0.005 -1.336,-0.291 -1.785,-0.854 l -6.843,-8.679 c -0.148,-0.191 -0.268,-0.405 -0.352,-0.632 l -3.936,-10.946 c -0.423,-1.171 0.186,-2.461 1.354,-2.884 1.176,-0.417 2.465,0.189 2.886,1.358 l 3.815,10.599 6.614,8.392 c 0.771,0.974 0.604,2.393 -0.375,3.164 -0.408,0.321 -0.896,0.48 -1.378,0.482 z"
               id="path5313"
               inkscape:connector-curvature="0"
               style="fill:#8f8c87" />
          </g>
          <g
             id="g5315">
            <path
               d="m 348.499,214.579 c -0.147,0 -0.296,-0.01 -0.444,-0.046 -1.221,-0.236 -2.021,-1.417 -1.784,-2.639 l 2.19,-11.283 c 0.08,-0.416 0.278,-0.799 0.569,-1.111 l 7.913,-8.429 c 0.85,-0.911 2.28,-0.954 3.184,-0.101 0.908,0.849 0.955,2.275 0.104,3.182 l -7.469,7.957 -2.066,10.644 c -0.209,1.073 -1.146,1.819 -2.197,1.826 z"
               id="path5317"
               inkscape:connector-curvature="0"
               style="fill:#8f8c87" />
          </g>
          <g
             id="g5319">
            <path
               d="m 373.864,244.165 c -1.141,0.005 -2.206,-0.713 -2.583,-1.856 l -5.063,-15.355 -5.146,-10.21 -3.782,8.496 c -0.063,0.141 -0.139,0.278 -0.223,0.405 l -10.279,15.373 c -0.83,1.245 -2.509,1.576 -3.752,0.743 -1.239,-0.831 -1.572,-2.511 -0.745,-3.752 l 10.15,-15.179 6.008,-13.496 c 0.426,-0.957 1.365,-1.58 2.406,-1.603 1.076,-0.086 2.012,0.557 2.481,1.486 l 7.803,15.481 c 0.057,0.122 0.11,0.243 0.15,0.372 l 5.127,15.547 c 0.47,1.416 -0.303,2.944 -1.722,3.412 -0.273,0.09 -0.555,0.134 -0.83,0.136 z"
               id="path5321"
               inkscape:connector-curvature="0"
               style="fill:#8f8c87" />
          </g>
        </g>
        <g
           id="g5323">
          <path
             d="m 359.254,234.853 c -0.28,1.837 -2.367,3.042 -4.66,2.691 l -21.548,-3.292 c -2.295,-0.351 -3.925,-2.124 -3.646,-3.961 l 1.724,-11.285 c 0.283,-1.836 2.368,-3.042 4.663,-2.692 l 21.548,3.293 c 2.292,0.351 3.925,2.124 3.644,3.961 z"
             id="path5325"
             inkscape:connector-curvature="0"
             style="fill:#8f8c87" />
          <g
             id="g5327">
            <path
               d="m 354.596,220.392 -3.564,-0.546 c 0.34,-2.221 -0.021,-3.804 -0.322,-4.275 l -7.396,-1.131 c -0.428,0.36 -1.244,1.765 -1.584,3.987 l -3.563,-0.546 c 0.693,-4.532 2.965,-7.433 5.471,-7.038 l 7.842,1.197 c 0.829,0.127 2.319,0.73 2.985,3.34 0.36,1.418 0.408,3.198 0.131,5.012 z"
               id="path5329"
               inkscape:connector-curvature="0"
               style="fill:#8f8c87" />
          </g>
        </g>
      </g>
    </g>
  </g>
</svg>
