<?xml version="1.0" encoding="UTF-8" standalone="no"?>
<!-- Created with Inkscape (http://www.inkscape.org/) -->

<svg
   xmlns:dc="http://purl.org/dc/elements/1.1/"
   xmlns:cc="http://creativecommons.org/ns#"
   xmlns:rdf="http://www.w3.org/1999/02/22-rdf-syntax-ns#"
   xmlns:svg="http://www.w3.org/2000/svg"
   xmlns="http://www.w3.org/2000/svg"
   xmlns:sodipodi="http://sodipodi.sourceforge.net/DTD/sodipodi-0.dtd"
   xmlns:inkscape="http://www.inkscape.org/namespaces/inkscape"
   width="300mm"
   height="300mm"
   viewBox="0 0 299.99999 299.99999"
   version="1.1"
   id="svg8"
   inkscape:version="0.92.4 (unknown)"
   sodipodi:docname="blood.svg">
  <defs
     id="defs2" />
  <sodipodi:namedview
     id="base"
     pagecolor="#ffffff"
     bordercolor="#666666"
     borderopacity="1.0"
     inkscape:pageopacity="0.0"
     inkscape:pageshadow="2"
     inkscape:zoom="0.35"
     inkscape:cx="-201.91437"
     inkscape:cy="33.82136"
     inkscape:document-units="mm"
     inkscape:current-layer="layer1"
     showgrid="false"
     fit-margin-top="0"
     fit-margin-left="0"
     fit-margin-right="0"
     fit-margin-bottom="0"
     inkscape:window-width="959"
     inkscape:window-height="1023"
     inkscape:window-x="0"
     inkscape:window-y="0"
     inkscape:window-maximized="0" />
  <metadata
     id="metadata5">
    <rdf:RDF>
      <cc:Work
         rdf:about="">
        <dc:format>image/svg+xml</dc:format>
        <dc:type
           rdf:resource="http://purl.org/dc/dcmitype/StillImage" />
        <dc:title></dc:title>
      </cc:Work>
    </rdf:RDF>
  </metadata>
  <g
     inkscape:label="Layer 1"
     inkscape:groupmode="layer"
     id="layer1"
     transform="translate(44.026667,165.34833)">
    <path
       style="fill:#000000;stroke-width:1.81818187"
       d="m -44.026667,-15.34833 v -150 h 149.999997 150 v 150 150 h -150 -149.999997 z M 133.98973,93.025113 C 161.9039,84.337139 180.00247,64.383596 185.00862,36.776509 188.75358,16.124827 183.6364,0.79218539 163.96975,-26.257421 135.72038,-65.113112 121.6049,-89.052553 110.56696,-116.82714 l -4.20043,-10.56979 -6.778666,16.02433 C 92.276411,-94.088989 83.282424,-77.588989 72.518737,-61.711966 26.888222,5.5943328 26.08722,7.2210329 27.302252,30.106072 c 0.949177,17.875448 6.926414,31.604796 19.029707,43.708089 8.747244,8.747244 25.046693,17.992484 36.467072,20.684753 12.721138,2.998926 39.276399,2.234431 51.190699,-1.473157 z"
       id="path881"
       inkscape:connector-curvature="0" />
  </g>
</svg>
