<?xml version="1.0" encoding="UTF-8" standalone="no"?>
<!-- Created with Inkscape (http://www.inkscape.org/) -->

<svg
   xmlns:dc="http://purl.org/dc/elements/1.1/"
   xmlns:cc="http://creativecommons.org/ns#"
   xmlns:rdf="http://www.w3.org/1999/02/22-rdf-syntax-ns#"
   xmlns:svg="http://www.w3.org/2000/svg"
   xmlns="http://www.w3.org/2000/svg"
   xmlns:sodipodi="http://sodipodi.sourceforge.net/DTD/sodipodi-0.dtd"
   xmlns:inkscape="http://www.inkscape.org/namespaces/inkscape"
   width="13.97mm"
   height="13.97mm"
   viewBox="0 0 13.97 13.97"
   version="1.1"
   id="svg8"
   inkscape:version="0.92.4 (unknown)"
   sodipodi:docname="blood.svg">
  <defs
     id="defs2" />
  <sodipodi:namedview
     id="base"
     pagecolor="#ffffff"
     bordercolor="#666666"
     borderopacity="1.0"
     inkscape:pageopacity="0.0"
     inkscape:pageshadow="2"
     inkscape:zoom="0.35"
     inkscape:cx="50.685716"
     inkscape:cy="-65.028559"
     inkscape:document-units="mm"
     inkscape:current-layer="layer1"
     showgrid="false"
     fit-margin-top="0"
     fit-margin-left="0"
     fit-margin-right="0"
     fit-margin-bottom="0"
     inkscape:window-width="959"
     inkscape:window-height="1023"
     inkscape:window-x="0"
     inkscape:window-y="0"
     inkscape:window-maximized="0" />
  <metadata
     id="metadata5">
    <rdf:RDF>
      <cc:Work
         rdf:about="">
        <dc:format>image/svg+xml</dc:format>
        <dc:type
           rdf:resource="http://purl.org/dc/dcmitype/StillImage" />
        <dc:title></dc:title>
      </cc:Work>
    </rdf:RDF>
  </metadata>
  <g
     inkscape:label="Layer 1"
     inkscape:groupmode="layer"
     id="layer1"
     transform="translate(44.026667,-120.68167)">
    <path
       style="fill:#000000;stroke-width:0.08466667"
       d="m -44.026667,127.66667 v -6.985 h 6.985 6.985 v 6.985 6.985 h -6.985 -6.985 z m 8.28963,5.04659 c 1.29987,-0.40457 2.14266,-1.33374 2.37578,-2.61931 0.17439,-0.96168 -0.0639,-1.67567 -0.97971,-2.93528 -1.315479,-1.80938 -1.97279,-2.92416 -2.48679,-4.21753 l -0.1956,-0.4922 -0.31566,0.7462 c -0.34047,0.80484 -0.75929,1.57319 -1.260519,2.31253 -2.124861,3.13423 -2.162161,3.20998 -2.105581,4.27566 0.0442,0.8324 0.32254,1.47173 0.88615,2.03534 0.40733,0.40733 1.166341,0.83785 1.69815,0.96322 0.592381,0.13965 1.828971,0.10405 2.38378,-0.0686 z"
       id="path881"
       inkscape:connector-curvature="0" />
  </g>
</svg>
