<?xml version="1.0" encoding="UTF-8" standalone="no"?>
<!-- Created with Inkscape (http://www.inkscape.org/) -->

<svg
   xmlns:dc="http://purl.org/dc/elements/1.1/"
   xmlns:cc="http://creativecommons.org/ns#"
   xmlns:rdf="http://www.w3.org/1999/02/22-rdf-syntax-ns#"
   xmlns:svg="http://www.w3.org/2000/svg"
   xmlns="http://www.w3.org/2000/svg"
   xmlns:sodipodi="http://sodipodi.sourceforge.net/DTD/sodipodi-0.dtd"
   xmlns:inkscape="http://www.inkscape.org/namespaces/inkscape"
   width="5.5119324mm"
   height="5.5146232mm"
   viewBox="0 0 5.5119324 5.5146232"
   version="1.1"
   id="svg8"
   inkscape:version="0.92.4 (unknown)"
   sodipodi:docname="hand.svg">
  <defs
     id="defs2" />
  <sodipodi:namedview
     id="base"
     pagecolor="#ffffff"
     bordercolor="#666666"
     borderopacity="1.0"
     inkscape:pageopacity="0.0"
     inkscape:pageshadow="2"
     inkscape:zoom="11.2"
     inkscape:cx="10.64691"
     inkscape:cy="6.8413972"
     inkscape:document-units="mm"
     inkscape:current-layer="layer1"
     showgrid="false"
     fit-margin-top="0"
     fit-margin-left="0"
     fit-margin-right="0"
     fit-margin-bottom="0"
     inkscape:window-width="959"
     inkscape:window-height="1023"
     inkscape:window-x="0"
     inkscape:window-y="0"
     inkscape:window-maximized="0" />
  <metadata
     id="metadata5">
    <rdf:RDF>
      <cc:Work
         rdf:about="">
        <dc:format>image/svg+xml</dc:format>
        <dc:type
           rdf:resource="http://purl.org/dc/dcmitype/StillImage" />
        <dc:title></dc:title>
      </cc:Work>
    </rdf:RDF>
  </metadata>
  <g
     inkscape:label="Layer 1"
     inkscape:groupmode="layer"
     id="layer1"
     transform="translate(-81.721712,-123.77543)">
    <path
       inkscape:connector-curvature="0"
       id="path22370"
       style="fill:none;stroke:#231f20;stroke-width:0.17638889;stroke-linecap:butt;stroke-linejoin:miter;stroke-miterlimit:4;stroke-dasharray:none;stroke-opacity:1"
       d="m 82.839179,124.48504 c -0.06668,0.0148 0.142522,0.90099 -0.06279,1.46861 -0.20567,0.56798 -0.164748,0.98143 -0.164395,1.10173 l -0.583847,0.61383 1.391708,1.38465 0.551039,-0.58031 c 0,0 0.480483,0.0917 0.780345,-0.1958 0.299508,-0.28751 0.679097,-0.55386 0.865716,-0.65616 0.146756,-0.0808 1.533172,-0.85866 1.325739,-1.13136 -0.208139,-0.2734 -0.308328,-0.17957 -1.260122,0.42368 -0.18027,0.11395 -0.440267,0.16122 -0.107597,-0.11959 0.333022,-0.28187 1.119011,-0.87101 1.192388,-0.93098 0.07303,-0.0607 0.259645,-0.23459 0.132292,-0.46778 -0.127705,-0.23354 -0.440972,-0.10548 -0.527755,-0.0321 -0.08643,0.0737 -0.985662,0.73695 -1.052689,0.79022 -0.06632,0.0536 -0.426509,0.18803 -0.02681,-0.20003 0.399697,-0.38805 0.791986,-0.82303 0.885472,-0.91687 0.09349,-0.0931 0.265641,-0.33443 0.07197,-0.50023 -0.194027,-0.16652 -0.347133,-0.14641 -0.46743,-0.0258 -0.119592,0.12065 -1.051631,1.08409 -1.118306,1.15076 -0.06668,0.0667 -0.326319,0.2212 -0.100188,-0.12594 0.225777,-0.34819 0.524933,-0.8763 0.584552,-0.97649 0.06032,-0.0998 0.138995,-0.39405 -0.02752,-0.50729 -0.16757,-0.11289 -0.327731,-0.11254 -0.43427,0.0614 -0.106186,0.17357 -0.811036,1.23014 -0.863953,1.31022 -0.05327,0.0804 -0.46743,0.8008 -0.313619,0.061 0.109008,-0.52282 -0.0032,-1.14794 -0.669925,-0.99942 z" />
  </g>
</svg>
