<?xml version="1.0" encoding="UTF-8" standalone="no"?>
<!-- Created with Inkscape (http://www.inkscape.org/) -->

<svg
   xmlns:dc="http://purl.org/dc/elements/1.1/"
   xmlns:cc="http://creativecommons.org/ns#"
   xmlns:rdf="http://www.w3.org/1999/02/22-rdf-syntax-ns#"
   xmlns:svg="http://www.w3.org/2000/svg"
   xmlns="http://www.w3.org/2000/svg"
   xmlns:sodipodi="http://sodipodi.sourceforge.net/DTD/sodipodi-0.dtd"
   xmlns:inkscape="http://www.inkscape.org/namespaces/inkscape"
   width="300"
   height="300"
   viewBox="0 0 79.375002 79.375"
   version="1.1"
   id="svg8"
   inkscape:version="0.92.4 (unknown)"
   sodipodi:docname="lantern.svg">
  <defs
     id="defs2">
    <clipPath
       clipPathUnits="userSpaceOnUse"
       id="clipPath6042">
      <path
         d="m 62.3145,619.755 h 5.1694 v -7.357 h -5.1694 z"
         id="path6040"
         inkscape:connector-curvature="0" />
    </clipPath>
    <clipPath
       clipPathUnits="userSpaceOnUse"
       id="clipPath6046">
      <path
         d="m 62.3145,619.755 h 5.1694 v -7.357 h -5.1694 z"
         id="path6044"
         inkscape:connector-curvature="0" />
    </clipPath>
    <clipPath
       clipPathUnits="userSpaceOnUse"
       id="clipPath6050">
      <path
         d="m 62.3208,619.678 h 5.1631 v -7.28 h -5.1631 z"
         id="path6048"
         inkscape:connector-curvature="0" />
    </clipPath>
    <clipPath
       clipPathUnits="userSpaceOnUse"
       id="clipPath6054">
      <path
         d="m 62.3174,619.677 h 5.1597 v -7.26 h -5.1597 z"
         id="path6052"
         inkscape:connector-curvature="0" />
    </clipPath>
    <clipPath
       clipPathUnits="userSpaceOnUse"
       id="clipPath6058">
      <path
         d="m 62.3145,619.73 h 5.1264 v -7.224 h -5.1264 z"
         id="path6056"
         inkscape:connector-curvature="0" />
    </clipPath>
    <clipPath
       clipPathUnits="userSpaceOnUse"
       id="clipPath6062">
      <path
         d="m 62.3394,619.755 h 5.102 v -7.117 h -5.102 z"
         id="path6060"
         inkscape:connector-curvature="0" />
    </clipPath>
    <clipPath
       clipPathUnits="userSpaceOnUse"
       id="clipPath5954">
      <path
         d="m 59.7686,621.806 h 7.0942 v -9.829 h -7.0942 z"
         id="path5952"
         inkscape:connector-curvature="0" />
    </clipPath>
    <clipPath
       clipPathUnits="userSpaceOnUse"
       id="clipPath5958">
      <path
         d="m 59.7686,621.806 h 7.0942 v -9.829 h -7.0942 z"
         id="path5956"
         inkscape:connector-curvature="0" />
    </clipPath>
    <clipPath
       clipPathUnits="userSpaceOnUse"
       id="clipPath5962">
      <path
         d="m 59.8159,621.631 h 7.0469 v -9.654 h -7.0469 z"
         id="path5960"
         inkscape:connector-curvature="0" />
    </clipPath>
    <clipPath
       clipPathUnits="userSpaceOnUse"
       id="clipPath5966">
      <path
         d="m 59.8115,621.629 h 7.0464 v -9.623 h -7.0464 z"
         id="path5964"
         inkscape:connector-curvature="0" />
    </clipPath>
    <clipPath
       clipPathUnits="userSpaceOnUse"
       id="clipPath5970">
      <path
         d="m 59.772,621.737 h 7.0581 v -9.558 H 59.772 Z"
         id="path5968"
         inkscape:connector-curvature="0" />
    </clipPath>
    <clipPath
       clipPathUnits="userSpaceOnUse"
       id="clipPath5974">
      <path
         d="m 59.7686,621.806 h 7.0668 v -9.347 h -7.0668 z"
         id="path5972"
         inkscape:connector-curvature="0" />
    </clipPath>
    <clipPath
       clipPathUnits="userSpaceOnUse"
       id="clipPath5866">
      <path
         d="m 59.0522,622.716 h 7.2862 v -10.767 h -7.2862 z"
         id="path5864"
         inkscape:connector-curvature="0" />
    </clipPath>
    <clipPath
       clipPathUnits="userSpaceOnUse"
       id="clipPath5870">
      <path
         d="m 59.0522,622.716 h 7.2862 v -10.767 h -7.2862 z"
         id="path5868"
         inkscape:connector-curvature="0" />
    </clipPath>
    <clipPath
       clipPathUnits="userSpaceOnUse"
       id="clipPath5874">
      <path
         d="m 59.1006,622.548 h 7.2378 v -10.599 h -7.2378 z"
         id="path5872"
         inkscape:connector-curvature="0" />
    </clipPath>
    <clipPath
       clipPathUnits="userSpaceOnUse"
       id="clipPath5878">
      <path
         d="m 59.0957,622.546 h 7.2368 V 611.98 h -7.2368 z"
         id="path5876"
         inkscape:connector-curvature="0" />
    </clipPath>
    <clipPath
       clipPathUnits="userSpaceOnUse"
       id="clipPath5882">
      <path
         d="m 59.0576,622.658 h 7.2432 v -10.491 h -7.2432 z"
         id="path5880"
         inkscape:connector-curvature="0" />
    </clipPath>
    <clipPath
       clipPathUnits="userSpaceOnUse"
       id="clipPath5886">
      <path
         d="m 59.0522,622.716 h 7.253 v -10.253 h -7.253 z"
         id="path5884"
         inkscape:connector-curvature="0" />
    </clipPath>
    <clipPath
       clipPathUnits="userSpaceOnUse"
       id="clipPath5758">
      <path
         d="m 43.8926,624.127 h 3.1108 V 612.47 h -3.1108 z"
         id="path5756"
         inkscape:connector-curvature="0" />
    </clipPath>
    <clipPath
       clipPathUnits="userSpaceOnUse"
       id="clipPath5762">
      <path
         d="m 43.8926,624.127 h 3.1108 V 612.47 h -3.1108 z"
         id="path5760"
         inkscape:connector-curvature="0" />
    </clipPath>
    <clipPath
       clipPathUnits="userSpaceOnUse"
       id="clipPath5766">
      <path
         d="m 43.9287,624.03 h 3.0747 v -11.56 h -3.0747 z"
         id="path5764"
         inkscape:connector-curvature="0" />
    </clipPath>
    <clipPath
       clipPathUnits="userSpaceOnUse"
       id="clipPath5770">
      <path
         d="M 43.9243,624.031 H 46.999 V 612.483 H 43.9243 Z"
         id="path5768"
         inkscape:connector-curvature="0" />
    </clipPath>
    <clipPath
       clipPathUnits="userSpaceOnUse"
       id="clipPath5774">
      <path
         d="m 43.8926,624.1 h 3.0957 v -11.529 h -3.0957 z"
         id="path5772"
         inkscape:connector-curvature="0" />
    </clipPath>
    <clipPath
       clipPathUnits="userSpaceOnUse"
       id="clipPath5778">
      <path
         d="m 43.8931,624.127 h 3.1074 V 612.72 h -3.1074 z"
         id="path5776"
         inkscape:connector-curvature="0" />
    </clipPath>
    <clipPath
       clipPathUnits="userSpaceOnUse"
       id="clipPath5670">
      <path
         d="m 42.5449,625.007 h 3.105 v -12.968 h -3.105 z"
         id="path5668"
         inkscape:connector-curvature="0" />
    </clipPath>
    <clipPath
       clipPathUnits="userSpaceOnUse"
       id="clipPath5674">
      <path
         d="m 42.5449,625.007 h 3.105 v -12.968 h -3.105 z"
         id="path5672"
         inkscape:connector-curvature="0" />
    </clipPath>
    <clipPath
       clipPathUnits="userSpaceOnUse"
       id="clipPath5678">
      <path
         d="m 42.5796,624.903 h 3.0703 v -12.864 h -3.0703 z"
         id="path5676"
         inkscape:connector-curvature="0" />
    </clipPath>
    <clipPath
       clipPathUnits="userSpaceOnUse"
       id="clipPath5682">
      <path
         d="m 42.5757,624.903 h 3.0698 v -12.85 h -3.0698 z"
         id="path5680"
         inkscape:connector-curvature="0" />
    </clipPath>
    <clipPath
       clipPathUnits="userSpaceOnUse"
       id="clipPath5686">
      <path
         d="m 42.5449,624.976 h 3.086 V 612.15 h -3.086 z"
         id="path5684"
         inkscape:connector-curvature="0" />
    </clipPath>
    <clipPath
       clipPathUnits="userSpaceOnUse"
       id="clipPath5690">
      <path
         d="m 42.5449,625.007 h 3.0972 v -12.692 h -3.0972 z"
         id="path5688"
         inkscape:connector-curvature="0" />
    </clipPath>
    <clipPath
       clipPathUnits="userSpaceOnUse"
       id="clipPath5582">
      <path
         d="m 41.7368,625.379 h 3.0698 v -13.341 h -3.0698 z"
         id="path5580"
         inkscape:connector-curvature="0" />
    </clipPath>
    <clipPath
       clipPathUnits="userSpaceOnUse"
       id="clipPath5586">
      <path
         d="m 41.7368,625.379 h 3.0698 v -13.341 h -3.0698 z"
         id="path5584"
         inkscape:connector-curvature="0" />
    </clipPath>
    <clipPath
       clipPathUnits="userSpaceOnUse"
       id="clipPath5590">
      <path
         d="m 41.772,625.274 h 3.0346 V 612.038 H 41.772 Z"
         id="path5588"
         inkscape:connector-curvature="0" />
    </clipPath>
    <clipPath
       clipPathUnits="userSpaceOnUse"
       id="clipPath5594">
      <path
         d="m 41.7681,625.274 h 3.0341 v -13.222 h -3.0341 z"
         id="path5592"
         inkscape:connector-curvature="0" />
    </clipPath>
    <clipPath
       clipPathUnits="userSpaceOnUse"
       id="clipPath5598">
      <path
         d="m 41.7368,625.348 h 3.0493 v -13.195 h -3.0493 z"
         id="path5596"
         inkscape:connector-curvature="0" />
    </clipPath>
    <clipPath
       clipPathUnits="userSpaceOnUse"
       id="clipPath5602">
      <path
         d="m 41.7368,625.379 h 3.0601 v -13.057 h -3.0601 z"
         id="path5600"
         inkscape:connector-curvature="0" />
    </clipPath>
  </defs>
  <sodipodi:namedview
     id="base"
     pagecolor="#ffffff"
     bordercolor="#666666"
     borderopacity="1.0"
     inkscape:pageopacity="0.0"
     inkscape:pageshadow="2"
     inkscape:zoom="1.4"
     inkscape:cx="188.40177"
     inkscape:cy="43.70842"
     inkscape:document-units="mm"
     inkscape:current-layer="g16768"
     showgrid="false"
     fit-margin-top="0"
     fit-margin-left="0"
     fit-margin-right="0"
     fit-margin-bottom="0"
     inkscape:window-width="959"
     inkscape:window-height="1023"
     inkscape:window-x="0"
     inkscape:window-y="0"
     inkscape:window-maximized="0"
     units="px" />
  <metadata
     id="metadata5">
    <rdf:RDF>
      <cc:Work
         rdf:about="">
        <dc:format>image/svg+xml</dc:format>
        <dc:type
           rdf:resource="http://purl.org/dc/dcmitype/StillImage" />
        <dc:title></dc:title>
      </cc:Work>
    </rdf:RDF>
  </metadata>
  <g
     inkscape:label="Layer 1"
     inkscape:groupmode="layer"
     id="layer1"
     transform="translate(-81.721712,-49.915053)">
    <g
       id="g16768"
       transform="translate(-24.968375,-37.176402)">
      <g
         id="g3442"
         transform="matrix(13.379083,0,0,13.379083,-917.18445,-2030.8269)">
        <path
           style="fill:#231f20;fill-opacity:1;fill-rule:nonzero;stroke:none;stroke-width:1.33333325"
           d="m 9.5566406,-0.90625 c -0.778337,0 -1.4179687,0.6391593 -1.4179687,1.41796875 0,0.32036979 0.1115105,0.61336145 0.2929687,0.85156245 -0.085179,0.038048 -0.1654887,0.061733 -0.2539062,0.109375 l 0.3339844,1.3125 -1.2714844,0.578125 c 0,0 -0.8033677,2.3040406 -4.2207032,3.7480469 0,0 0.3873468,0.3344643 0.4433594,0.8066407 0.055937,0.4706645 2.5039718,8.4946772 2.5839844,9.0000002 0.2774173,1.777323 1.8940199,1.994691 3.3886719,3.638672 0,0 0.1690237,0.157858 0.083984,0.333984 -0.3401574,0.706658 0.9080701,0.957063 0.4707032,-0.0078 0,0 -0.052079,-0.161821 0.083985,-0.304687 1.229367,-1.291994 3.519696,-2.207845 3.457031,-3.646484 0,0 2.563662,-9.1876367 2.708984,-9.7089848 0.146646,-0.5199874 0.333196,-0.5187051 0.5625,-0.7480468 0,0 -3.520838,-1.0632853 -4.771484,-3.4179688 v -0.00195 l -1.291016,-0.25 0.208985,-1.3535156 c 0,0 -0.08648,-0.061561 -0.230469,-0.1347657 0.159722,-0.2292283 0.253906,-0.50617122 0.253906,-0.80468745 0,-0.77880945 -0.638608,-1.41796875 -1.4160142,-1.41796875 z m 0,0.671875 c 0.4172977,0 0.7441404,0.32747328 0.7441404,0.74609375 0,0.2456007 -0.119149,0.45275121 -0.296875,0.58984375 C 9.7582634,1.0662158 9.4729997,1.0673993 9.1484375,1.1289062 8.9446019,0.99474012 8.8027344,0.77610812 8.8027344,0.51171875 c 0,-0.41850709 0.3348738,-0.74609375 0.7539062,-0.74609375 z m 0.2207032,7.6503906 c 1.4162232,-0.00248 4.1635752,0.5053671 4.8378902,0.7421875 0.255874,0.090709 -1.000177,6.2921579 -1.9375,7.9374999 -0.126614,0.22148 -2.313465,0.35541 -3.021484,0.376953 -0.2331969,0.0076 -0.7998856,-8.9521676 -0.3945312,-9.0214841 0.1379999,-0.02348 0.3133073,-0.034802 0.515625,-0.035156 z M 6.71875,7.6816406 c 0.1263065,0.00362 0.258319,0.015563 0.3964844,0.039063 0.4039937,0.069165 1.170848,8.5691514 0.9375,8.5624994 -0.7079811,-0.02268 -1.3518637,-0.034 -1.4785156,-0.255859 C 5.6368959,14.380679 4.3575562,8.5099947 4.6015625,8.3886719 5.221079,8.0784672 5.8346045,7.6562773 6.71875,7.6816406 Z"
           transform="matrix(0.26458333,0,0,0.26458333,76.872069,158.54049)"
           id="path31036"
           inkscape:connector-curvature="0"
           sodipodi:nodetypes="sscccccccccccccccccccssssccsssccccssccccs" />
      </g>
    </g>
  </g>
</svg>
