<?xml version="1.0" encoding="UTF-8" standalone="no"?>
<!-- Created with Inkscape (http://www.inkscape.org/) -->

<svg
   xmlns:dc="http://purl.org/dc/elements/1.1/"
   xmlns:cc="http://creativecommons.org/ns#"
   xmlns:rdf="http://www.w3.org/1999/02/22-rdf-syntax-ns#"
   xmlns:svg="http://www.w3.org/2000/svg"
   xmlns="http://www.w3.org/2000/svg"
   xmlns:sodipodi="http://sodipodi.sourceforge.net/DTD/sodipodi-0.dtd"
   xmlns:inkscape="http://www.inkscape.org/namespaces/inkscape"
   width="5.5119324mm"
   height="5.5146232mm"
   viewBox="0 0 5.5119324 5.5146232"
   version="1.1"
   id="svg8"
   inkscape:version="0.92.4 (unknown)"
   sodipodi:docname="location_flag.svg">
  <defs
     id="defs2" />
  <sodipodi:namedview
     id="base"
     pagecolor="#ffffff"
     bordercolor="#666666"
     borderopacity="1.0"
     inkscape:pageopacity="0.0"
     inkscape:pageshadow="2"
     inkscape:zoom="11.2"
     inkscape:cx="10.15636"
     inkscape:cy="-0.41472888"
     inkscape:document-units="mm"
     inkscape:current-layer="layer1"
     showgrid="false"
     fit-margin-top="0"
     fit-margin-left="0"
     fit-margin-right="0"
     fit-margin-bottom="0"
     inkscape:window-width="959"
     inkscape:window-height="1023"
     inkscape:window-x="0"
     inkscape:window-y="0"
     inkscape:window-maximized="0" />
  <metadata
     id="metadata5">
    <rdf:RDF>
      <cc:Work
         rdf:about="">
        <dc:format>image/svg+xml</dc:format>
        <dc:type
           rdf:resource="http://purl.org/dc/dcmitype/StillImage" />
        <dc:title></dc:title>
      </cc:Work>
    </rdf:RDF>
  </metadata>
  <g
     inkscape:label="Layer 1"
     inkscape:groupmode="layer"
     id="layer1"
     transform="translate(-81.721712,-123.77543)">
    <path
       inkscape:connector-curvature="0"
       id="path22830"
       style="fill:#ffffff;fill-opacity:1;fill-rule:nonzero;stroke:none;stroke-width:0.35277778"
       d="m 82.67716,124.78075 h 3.569758" />
    <path
       d="M 86.246918,125.02702 H 82.67716 v -0.49247 h 3.569758 z"
       style="fill:#231f20;fill-opacity:1;fill-rule:nonzero;stroke:none;stroke-width:0.35277778"
       id="path22832"
       inkscape:connector-curvature="0" />
    <path
       inkscape:connector-curvature="0"
       id="path22836"
       style="fill:#ffffff;fill-opacity:1;fill-rule:nonzero;stroke:none;stroke-width:0.35277778"
       d="m 84.462039,123.88706 v 5.32553" />
    <path
       d="m 84.708102,129.21238 h -0.492478 v -5.32553 h 0.492478 z"
       style="fill:#231f20;fill-opacity:1;fill-rule:nonzero;stroke:none;stroke-width:0.35277778"
       id="path22838"
       inkscape:connector-curvature="0" />
    <path
       inkscape:connector-curvature="0"
       id="path22842"
       style="fill:#d3d2d2;fill-opacity:1;fill-rule:nonzero;stroke:none;stroke-width:0.35277778"
       d="m 83.349272,124.78075 h 2.253192 c -0.512234,1.26753 0.612069,1.01388 0,3.23709 -0.429331,-1.71133 -2.379486,-1.57515 -2.253192,-3.23709" />
    <path
       inkscape:connector-curvature="0"
       id="path22846"
       style="fill:#231f20;fill-opacity:1;fill-rule:nonzero;stroke:none;stroke-width:0.35277778"
       d="m 83.507599,124.9449 c 0.0049,0.6791 0.425097,0.98672 0.947208,1.36948 0.39617,0.29034 0.832556,0.61031 1.110545,1.14194 0.144639,-0.7881 0.0064,-1.14194 -0.118534,-1.46014 -0.113594,-0.28893 -0.221191,-0.56409 -0.0762,-1.05128 z m 2.087386,3.71863 -0.151694,-0.60572 c -0.188031,-0.74965 -0.693561,-1.12007 -1.182159,-1.47849 -0.56515,-0.41381 -1.148997,-0.84173 -1.075619,-1.81081 l 0.01164,-0.15205 h 2.648657 l -0.09102,0.22578 c -0.20708,0.51259 -0.121355,0.73131 -0.0025,1.03435 0.159456,0.4071 0.358422,0.91369 0.0085,2.18475 z" />
  </g>
</svg>
