<?xml version="1.0" encoding="UTF-8" standalone="no"?>
<!-- Created with Inkscape (http://www.inkscape.org/) -->

<svg
   xmlns:dc="http://purl.org/dc/elements/1.1/"
   xmlns:cc="http://creativecommons.org/ns#"
   xmlns:rdf="http://www.w3.org/1999/02/22-rdf-syntax-ns#"
   xmlns:svg="http://www.w3.org/2000/svg"
   xmlns="http://www.w3.org/2000/svg"
   xmlns:sodipodi="http://sodipodi.sourceforge.net/DTD/sodipodi-0.dtd"
   xmlns:inkscape="http://www.inkscape.org/namespaces/inkscape"
   width="5.5119324mm"
   height="5.5146232mm"
   viewBox="0 0 5.5119324 5.5146232"
   version="1.1"
   id="svg8"
   inkscape:version="0.92.4 (unknown)"
   sodipodi:docname="oven_large.svg">
  <defs
     id="defs2">
    <clipPath
       clipPathUnits="userSpaceOnUse"
       id="clipPath6042">
      <path
         d="m 62.3145,619.755 h 5.1694 v -7.357 h -5.1694 z"
         id="path6040"
         inkscape:connector-curvature="0" />
    </clipPath>
    <clipPath
       clipPathUnits="userSpaceOnUse"
       id="clipPath6046">
      <path
         d="m 62.3145,619.755 h 5.1694 v -7.357 h -5.1694 z"
         id="path6044"
         inkscape:connector-curvature="0" />
    </clipPath>
    <clipPath
       clipPathUnits="userSpaceOnUse"
       id="clipPath6050">
      <path
         d="m 62.3208,619.678 h 5.1631 v -7.28 h -5.1631 z"
         id="path6048"
         inkscape:connector-curvature="0" />
    </clipPath>
    <clipPath
       clipPathUnits="userSpaceOnUse"
       id="clipPath6054">
      <path
         d="m 62.3174,619.677 h 5.1597 v -7.26 h -5.1597 z"
         id="path6052"
         inkscape:connector-curvature="0" />
    </clipPath>
    <clipPath
       clipPathUnits="userSpaceOnUse"
       id="clipPath6058">
      <path
         d="m 62.3145,619.73 h 5.1264 v -7.224 h -5.1264 z"
         id="path6056"
         inkscape:connector-curvature="0" />
    </clipPath>
    <clipPath
       clipPathUnits="userSpaceOnUse"
       id="clipPath6062">
      <path
         d="m 62.3394,619.755 h 5.102 v -7.117 h -5.102 z"
         id="path6060"
         inkscape:connector-curvature="0" />
    </clipPath>
    <clipPath
       clipPathUnits="userSpaceOnUse"
       id="clipPath5954">
      <path
         d="m 59.7686,621.806 h 7.0942 v -9.829 h -7.0942 z"
         id="path5952"
         inkscape:connector-curvature="0" />
    </clipPath>
    <clipPath
       clipPathUnits="userSpaceOnUse"
       id="clipPath5958">
      <path
         d="m 59.7686,621.806 h 7.0942 v -9.829 h -7.0942 z"
         id="path5956"
         inkscape:connector-curvature="0" />
    </clipPath>
    <clipPath
       clipPathUnits="userSpaceOnUse"
       id="clipPath5962">
      <path
         d="m 59.8159,621.631 h 7.0469 v -9.654 h -7.0469 z"
         id="path5960"
         inkscape:connector-curvature="0" />
    </clipPath>
    <clipPath
       clipPathUnits="userSpaceOnUse"
       id="clipPath5966">
      <path
         d="m 59.8115,621.629 h 7.0464 v -9.623 h -7.0464 z"
         id="path5964"
         inkscape:connector-curvature="0" />
    </clipPath>
    <clipPath
       clipPathUnits="userSpaceOnUse"
       id="clipPath5970">
      <path
         d="m 59.772,621.737 h 7.0581 v -9.558 H 59.772 Z"
         id="path5968"
         inkscape:connector-curvature="0" />
    </clipPath>
    <clipPath
       clipPathUnits="userSpaceOnUse"
       id="clipPath5974">
      <path
         d="m 59.7686,621.806 h 7.0668 v -9.347 h -7.0668 z"
         id="path5972"
         inkscape:connector-curvature="0" />
    </clipPath>
    <clipPath
       clipPathUnits="userSpaceOnUse"
       id="clipPath5866">
      <path
         d="m 59.0522,622.716 h 7.2862 v -10.767 h -7.2862 z"
         id="path5864"
         inkscape:connector-curvature="0" />
    </clipPath>
    <clipPath
       clipPathUnits="userSpaceOnUse"
       id="clipPath5870">
      <path
         d="m 59.0522,622.716 h 7.2862 v -10.767 h -7.2862 z"
         id="path5868"
         inkscape:connector-curvature="0" />
    </clipPath>
    <clipPath
       clipPathUnits="userSpaceOnUse"
       id="clipPath5874">
      <path
         d="m 59.1006,622.548 h 7.2378 v -10.599 h -7.2378 z"
         id="path5872"
         inkscape:connector-curvature="0" />
    </clipPath>
    <clipPath
       clipPathUnits="userSpaceOnUse"
       id="clipPath5878">
      <path
         d="m 59.0957,622.546 h 7.2368 V 611.98 h -7.2368 z"
         id="path5876"
         inkscape:connector-curvature="0" />
    </clipPath>
    <clipPath
       clipPathUnits="userSpaceOnUse"
       id="clipPath5882">
      <path
         d="m 59.0576,622.658 h 7.2432 v -10.491 h -7.2432 z"
         id="path5880"
         inkscape:connector-curvature="0" />
    </clipPath>
    <clipPath
       clipPathUnits="userSpaceOnUse"
       id="clipPath5886">
      <path
         d="m 59.0522,622.716 h 7.253 v -10.253 h -7.253 z"
         id="path5884"
         inkscape:connector-curvature="0" />
    </clipPath>
    <clipPath
       clipPathUnits="userSpaceOnUse"
       id="clipPath5758">
      <path
         d="m 43.8926,624.127 h 3.1108 V 612.47 h -3.1108 z"
         id="path5756"
         inkscape:connector-curvature="0" />
    </clipPath>
    <clipPath
       clipPathUnits="userSpaceOnUse"
       id="clipPath5762">
      <path
         d="m 43.8926,624.127 h 3.1108 V 612.47 h -3.1108 z"
         id="path5760"
         inkscape:connector-curvature="0" />
    </clipPath>
    <clipPath
       clipPathUnits="userSpaceOnUse"
       id="clipPath5766">
      <path
         d="m 43.9287,624.03 h 3.0747 v -11.56 h -3.0747 z"
         id="path5764"
         inkscape:connector-curvature="0" />
    </clipPath>
    <clipPath
       clipPathUnits="userSpaceOnUse"
       id="clipPath5770">
      <path
         d="M 43.9243,624.031 H 46.999 V 612.483 H 43.9243 Z"
         id="path5768"
         inkscape:connector-curvature="0" />
    </clipPath>
    <clipPath
       clipPathUnits="userSpaceOnUse"
       id="clipPath5774">
      <path
         d="m 43.8926,624.1 h 3.0957 v -11.529 h -3.0957 z"
         id="path5772"
         inkscape:connector-curvature="0" />
    </clipPath>
    <clipPath
       clipPathUnits="userSpaceOnUse"
       id="clipPath5778">
      <path
         d="m 43.8931,624.127 h 3.1074 V 612.72 h -3.1074 z"
         id="path5776"
         inkscape:connector-curvature="0" />
    </clipPath>
    <clipPath
       clipPathUnits="userSpaceOnUse"
       id="clipPath5670">
      <path
         d="m 42.5449,625.007 h 3.105 v -12.968 h -3.105 z"
         id="path5668"
         inkscape:connector-curvature="0" />
    </clipPath>
    <clipPath
       clipPathUnits="userSpaceOnUse"
       id="clipPath5674">
      <path
         d="m 42.5449,625.007 h 3.105 v -12.968 h -3.105 z"
         id="path5672"
         inkscape:connector-curvature="0" />
    </clipPath>
    <clipPath
       clipPathUnits="userSpaceOnUse"
       id="clipPath5678">
      <path
         d="m 42.5796,624.903 h 3.0703 v -12.864 h -3.0703 z"
         id="path5676"
         inkscape:connector-curvature="0" />
    </clipPath>
    <clipPath
       clipPathUnits="userSpaceOnUse"
       id="clipPath5682">
      <path
         d="m 42.5757,624.903 h 3.0698 v -12.85 h -3.0698 z"
         id="path5680"
         inkscape:connector-curvature="0" />
    </clipPath>
    <clipPath
       clipPathUnits="userSpaceOnUse"
       id="clipPath5686">
      <path
         d="m 42.5449,624.976 h 3.086 V 612.15 h -3.086 z"
         id="path5684"
         inkscape:connector-curvature="0" />
    </clipPath>
    <clipPath
       clipPathUnits="userSpaceOnUse"
       id="clipPath5690">
      <path
         d="m 42.5449,625.007 h 3.0972 v -12.692 h -3.0972 z"
         id="path5688"
         inkscape:connector-curvature="0" />
    </clipPath>
    <clipPath
       clipPathUnits="userSpaceOnUse"
       id="clipPath5582">
      <path
         d="m 41.7368,625.379 h 3.0698 v -13.341 h -3.0698 z"
         id="path5580"
         inkscape:connector-curvature="0" />
    </clipPath>
    <clipPath
       clipPathUnits="userSpaceOnUse"
       id="clipPath5586">
      <path
         d="m 41.7368,625.379 h 3.0698 v -13.341 h -3.0698 z"
         id="path5584"
         inkscape:connector-curvature="0" />
    </clipPath>
    <clipPath
       clipPathUnits="userSpaceOnUse"
       id="clipPath5590">
      <path
         d="m 41.772,625.274 h 3.0346 V 612.038 H 41.772 Z"
         id="path5588"
         inkscape:connector-curvature="0" />
    </clipPath>
    <clipPath
       clipPathUnits="userSpaceOnUse"
       id="clipPath5594">
      <path
         d="m 41.7681,625.274 h 3.0341 v -13.222 h -3.0341 z"
         id="path5592"
         inkscape:connector-curvature="0" />
    </clipPath>
    <clipPath
       clipPathUnits="userSpaceOnUse"
       id="clipPath5598">
      <path
         d="m 41.7368,625.348 h 3.0493 v -13.195 h -3.0493 z"
         id="path5596"
         inkscape:connector-curvature="0" />
    </clipPath>
    <clipPath
       clipPathUnits="userSpaceOnUse"
       id="clipPath5602">
      <path
         d="m 41.7368,625.379 h 3.0601 v -13.057 h -3.0601 z"
         id="path5600"
         inkscape:connector-curvature="0" />
    </clipPath>
    <clipPath
       clipPathUnits="userSpaceOnUse"
       id="clipPath21616">
      <path
         d="m 74.2773,261.091 h 3.6387 v -9.258 h -3.6387 z"
         id="path21614"
         inkscape:connector-curvature="0" />
    </clipPath>
    <clipPath
       clipPathUnits="userSpaceOnUse"
       id="clipPath21620">
      <path
         d="m 74.2773,261.091 h 3.6387 v -9.258 h -3.6387 z"
         id="path21618"
         inkscape:connector-curvature="0" />
    </clipPath>
    <clipPath
       clipPathUnits="userSpaceOnUse"
       id="clipPath21312">
      <path
         d="m 74.957,255.9 h 2.8501 v -3.843 H 74.957 Z"
         id="path21310"
         inkscape:connector-curvature="0" />
    </clipPath>
    <clipPath
       clipPathUnits="userSpaceOnUse"
       id="clipPath21316">
      <path
         d="m 74.957,255.9 h 2.8501 v -3.843 H 74.957 Z"
         id="path21314"
         inkscape:connector-curvature="0" />
    </clipPath>
    <clipPath
       clipPathUnits="userSpaceOnUse"
       id="clipPath21008">
      <path
         d="m 77.3525,257.184 h 3.1573 v -5.51 h -3.1573 z"
         id="path21006"
         inkscape:connector-curvature="0" />
    </clipPath>
    <clipPath
       clipPathUnits="userSpaceOnUse"
       id="clipPath21012">
      <path
         d="m 77.3525,257.184 h 3.1573 v -5.51 h -3.1573 z"
         id="path21010"
         inkscape:connector-curvature="0" />
    </clipPath>
    <clipPath
       clipPathUnits="userSpaceOnUse"
       id="clipPath20704">
      <path
         d="m 76.9756,259.93 h 3.3657 v -7.945 h -3.3657 z"
         id="path20702"
         inkscape:connector-curvature="0" />
    </clipPath>
    <clipPath
       clipPathUnits="userSpaceOnUse"
       id="clipPath20708">
      <path
         d="m 76.9756,259.93 h 3.3657 v -7.945 h -3.3657 z"
         id="path20706"
         inkscape:connector-curvature="0" />
    </clipPath>
  </defs>
  <sodipodi:namedview
     id="base"
     pagecolor="#ffffff"
     bordercolor="#666666"
     borderopacity="1.0"
     inkscape:pageopacity="0.0"
     inkscape:pageshadow="2"
     inkscape:zoom="11.2"
     inkscape:cx="8.7438717"
     inkscape:cy="11.244658"
     inkscape:document-units="mm"
     inkscape:current-layer="g8437"
     showgrid="false"
     fit-margin-top="0"
     fit-margin-left="0"
     fit-margin-right="0"
     fit-margin-bottom="0"
     inkscape:window-width="959"
     inkscape:window-height="1023"
     inkscape:window-x="0"
     inkscape:window-y="0"
     inkscape:window-maximized="0" />
  <metadata
     id="metadata5">
    <rdf:RDF>
      <cc:Work
         rdf:about="">
        <dc:format>image/svg+xml</dc:format>
        <dc:type
           rdf:resource="http://purl.org/dc/dcmitype/StillImage" />
        <dc:title></dc:title>
      </cc:Work>
    </rdf:RDF>
  </metadata>
  <g
     inkscape:label="Layer 1"
     inkscape:groupmode="layer"
     id="layer1"
     transform="translate(-81.721712,-123.77543)">
    <g
       transform="translate(-54.451345,-17.125458)"
       id="g29064">
      <g
         id="g8437"
         transform="translate(0.60135644,-0.76839989)">
        <g
           id="g8553"
           transform="translate(-0.61158549,0.3787005)">
          <g
             transform="translate(-0.07087054,0.02362351)"
             id="g8535">
            <g
               id="g8508">
              <path
                 sodipodi:nodetypes="csccscsccscscscscsscssccc"
                 inkscape:connector-curvature="0"
                 id="path53438-5-7"
                 d="m 141.13629,141.87587 c -0.35661,0 -0.65629,0.26544 -0.65629,0.60151 0,0.0256 0.005,0.0497 0.009,0.0744 -0.0558,0.0178 -0.1086,0.0392 -0.15502,0.0661 -0.12356,0.0716 -0.21705,0.18079 -0.21705,0.31626 0,0.12182 0.0774,0.22207 0.18242,0.29352 -0.009,0.0298 -0.016,0.0606 -0.016,0.093 0,0.0765 0.0289,0.14624 0.0749,0.20309 -0.0187,0.0194 -0.0376,0.0388 -0.0537,0.061 -0.0904,0.12399 -0.14263,0.28838 -0.14263,0.4687 0,0.18033 0.0523,0.34472 0.14263,0.46871 0.0904,0.12399 0.22314,0.20877 0.37465,0.20877 0.15138,0 0.28476,-0.0848 0.37517,-0.20877 0.0904,-0.12397 0.14263,-0.28835 0.14263,-0.46871 0,-0.0902 -0.0129,-0.17665 -0.0372,-0.25579 0.0289,0.004 0.0583,0.008 0.0884,0.008 0.2009,0 0.37832,-0.0954 0.49661,-0.24133 0.0621,0.0197 0.12759,0.032 0.19637,0.032 0.32575,0 0.60151,-0.23843 0.60151,-0.54467 0,-0.19413 -0.11079,-0.36155 -0.27491,-0.45837 v -5.2e-4 c 0,-0.30263 -0.24497,-0.55087 -0.54519,-0.55087 -0.041,0 -0.0805,0.006 -0.11885,0.0145 -0.11999,-0.11148 -0.28615,-0.18035 -0.46716,-0.18035 z"
                 style="fill:#231f20;fill-opacity:1;fill-rule:nonzero;stroke:none;stroke-width:0.35277778" />
              <path
                 sodipodi:nodetypes="ccccccccc"
                 d="m 141.38661,144.30224 -0.35278,0.11747 v 2.1456 h -0.88194 v -2.18228 l -0.35278,-0.0808 v -0.22119 h 1.5875 z"
                 style="fill:#ffffff;stroke:#231f20;stroke-width:0.17638889;stroke-linecap:butt;stroke-linejoin:miter;stroke-miterlimit:4;stroke-dasharray:none;stroke-opacity:1"
                 id="path53474-4-8"
                 inkscape:connector-curvature="0" />
            </g>
            <g
               id="g8516">
              <path
                 sodipodi:nodetypes="csccscsccscscscscsscssccc"
                 inkscape:connector-curvature="0"
                 id="path53438-5"
                 d="m 136.90293,141.87587 c -0.35661,0 -0.65629,0.26544 -0.65629,0.60151 0,0.0256 0.005,0.0497 0.009,0.0744 -0.0558,0.0178 -0.1086,0.0392 -0.15502,0.0661 -0.12356,0.0716 -0.21705,0.18079 -0.21705,0.31626 0,0.12182 0.0774,0.22207 0.18242,0.29352 -0.009,0.0298 -0.016,0.0606 -0.016,0.093 0,0.0765 0.0289,0.14624 0.0749,0.20309 -0.0187,0.0194 -0.0376,0.0388 -0.0537,0.061 -0.0904,0.12399 -0.14263,0.28838 -0.14263,0.4687 0,0.18033 0.0523,0.34472 0.14263,0.46871 0.0904,0.12399 0.22314,0.20877 0.37465,0.20877 0.15138,0 0.28476,-0.0848 0.37517,-0.20877 0.0904,-0.12397 0.14263,-0.28835 0.14263,-0.46871 0,-0.0902 -0.0129,-0.17665 -0.0372,-0.25579 0.0289,0.004 0.0583,0.008 0.0884,0.008 0.2009,0 0.37832,-0.0954 0.49661,-0.24133 0.0621,0.0197 0.12759,0.032 0.19637,0.032 0.32575,0 0.60151,-0.23843 0.60151,-0.54467 0,-0.19413 -0.11079,-0.36155 -0.27491,-0.45837 v -5.2e-4 c 0,-0.30263 -0.24497,-0.55087 -0.54519,-0.55087 -0.041,0 -0.0805,0.006 -0.11885,0.0145 -0.11999,-0.11148 -0.28615,-0.18035 -0.46716,-0.18035 z"
                 style="fill:#231f20;fill-opacity:1;fill-rule:nonzero;stroke:none;stroke-width:0.35277778" />
              <path
                 sodipodi:nodetypes="ccccccccc"
                 d="m 137.15325,144.30224 -0.35278,0.11747 v 2.1456 h -0.88194 v -2.18228 l -0.35278,-0.0808 v -0.22119 h 1.5875 z"
                 style="fill:#ffffff;stroke:#231f20;stroke-width:0.17638889;stroke-linecap:butt;stroke-linejoin:miter;stroke-miterlimit:4;stroke-dasharray:none;stroke-opacity:1"
                 id="path53474-4"
                 inkscape:connector-curvature="0" />
            </g>
            <g
               id="g8522"
               transform="translate(0.065405)">
              <g
                 id="g8512">
                <path
                   style="fill:#231f20;fill-opacity:1;fill-rule:nonzero;stroke:none;stroke-width:0.35277778"
                   d="m 138.9542,140.9336 c -0.35661,0 -0.65629,0.26544 -0.65629,0.60151 0,0.0256 0.005,0.0497 0.009,0.0744 -0.0558,0.0178 -0.1086,0.0392 -0.15502,0.0661 -0.12356,0.0716 -0.21705,0.18079 -0.21705,0.31626 0,0.12182 0.0774,0.22207 0.18242,0.29352 -0.009,0.0298 -0.016,0.0606 -0.016,0.093 0,0.0765 0.0289,0.14624 0.0749,0.20309 -0.0187,0.0194 -0.0376,0.0388 -0.0537,0.061 -0.0904,0.12399 -0.14263,0.28838 -0.14263,0.4687 0,0.18033 0.0523,0.34472 0.14263,0.46871 0.0904,0.12399 0.22314,0.20877 0.37465,0.20877 0.15138,0 0.28476,-0.0848 0.37517,-0.20877 0.0904,-0.12397 0.14263,-0.28835 0.14263,-0.46871 0,-0.0902 -0.0129,-0.17665 -0.0372,-0.25579 0.0289,0.004 0.0583,0.008 0.0884,0.008 0.2009,0 0.37832,-0.0954 0.49661,-0.24133 0.0621,0.0197 0.12759,0.032 0.19637,0.032 0.32575,0 0.60152,-0.23843 0.60152,-0.54467 0,-0.19413 -0.1108,-0.36155 -0.27492,-0.45837 v -5.2e-4 c 0,-0.30263 -0.24497,-0.55087 -0.54519,-0.55087 -0.041,0 -0.0805,0.006 -0.11885,0.0145 -0.11999,-0.11148 -0.28615,-0.18035 -0.46716,-0.18035 z"
                   id="path53438"
                   inkscape:connector-curvature="0" />
                <path
                   inkscape:connector-curvature="0"
                   id="path53470"
                   style="fill:#ffffff;fill-opacity:1;fill-rule:nonzero;stroke:none;stroke-width:0.35277778"
                   d="m 139.20452,143.35997 -0.35278,0.11747 v 3.20393 h -0.88194 v -3.24061 l -0.35278,-0.0808 v -0.22119 h 1.5875 z" />
              </g>
              <path
                 d="m 139.20452,143.35997 -0.35278,0.11747 v 3.20393 h -0.88194 v -3.24061 l -0.35278,-0.0808 v -0.22119 h 1.5875 z"
                 style="fill:none;stroke:#231f20;stroke-width:0.17638889;stroke-linecap:butt;stroke-linejoin:miter;stroke-miterlimit:4;stroke-dasharray:none;stroke-opacity:1"
                 id="path53474"
                 inkscape:connector-curvature="0" />
            </g>
          </g>
          <path
             d="m 141.34909,147.05038 h -5.82083 c 0,0 0.36724,-2.27789 2.91041,-2.29023 2.44017,-0.012 2.91042,2.29023 2.91042,2.29023"
             style="fill:#ffffff;fill-opacity:1;fill-rule:nonzero;stroke:none;stroke-width:0.35277778"
             id="path53478"
             inkscape:connector-curvature="0" />
          <path
             d="m 141.34909,147.05038 h -5.82083 c 0,0 0.36724,-2.27789 2.91041,-2.29023 2.44017,-0.012 2.91042,2.29023 2.91042,2.29023 z"
             style="fill:none;stroke:#231f20;stroke-width:0.17638889;stroke-linecap:butt;stroke-linejoin:miter;stroke-miterlimit:4;stroke-dasharray:none;stroke-opacity:1"
             id="path53482"
             inkscape:connector-curvature="0" />
          <path
             d="m 139.24724,147.05038 h -1.61713 c 0,0 0.1023,-1.37442 0.80856,-1.38218 0.67804,-0.007 0.80857,1.38218 0.80857,1.38218"
             style="fill:#231f20;fill-opacity:1;fill-rule:nonzero;stroke:none;stroke-width:0.35277778"
             id="path53486"
             inkscape:connector-curvature="0" />
          <path
             d="m 139.24724,147.05038 h -1.61713 c 0,0 0.1023,-1.37442 0.80856,-1.38218 0.67804,-0.007 0.80857,1.38218 0.80857,1.38218 z"
             style="fill:none;stroke:#231f20;stroke-width:0.17638889;stroke-linecap:butt;stroke-linejoin:miter;stroke-miterlimit:4;stroke-dasharray:none;stroke-opacity:1"
             id="path53490"
             inkscape:connector-curvature="0" />
        </g>
      </g>
    </g>
  </g>
</svg>
