<?xml version="1.0" encoding="UTF-8" standalone="no"?>
<!-- Created with Inkscape (http://www.inkscape.org/) -->

<svg
   xmlns:dc="http://purl.org/dc/elements/1.1/"
   xmlns:cc="http://creativecommons.org/ns#"
   xmlns:rdf="http://www.w3.org/1999/02/22-rdf-syntax-ns#"
   xmlns:svg="http://www.w3.org/2000/svg"
   xmlns="http://www.w3.org/2000/svg"
   xmlns:sodipodi="http://sodipodi.sourceforge.net/DTD/sodipodi-0.dtd"
   xmlns:inkscape="http://www.inkscape.org/namespaces/inkscape"
   width="5.5119324mm"
   height="5.5146232mm"
   viewBox="0 0 5.5119324 5.5146232"
   version="1.1"
   id="svg8"
   inkscape:version="0.92.4 (unknown)"
   sodipodi:docname="people.svg">
  <defs
     id="defs2" />
  <sodipodi:namedview
     id="base"
     pagecolor="#ffffff"
     bordercolor="#666666"
     borderopacity="1.0"
     inkscape:pageopacity="0.0"
     inkscape:pageshadow="2"
     inkscape:zoom="11.2"
     inkscape:cx="10.15636"
     inkscape:cy="-0.41472888"
     inkscape:document-units="mm"
     inkscape:current-layer="layer1"
     showgrid="false"
     fit-margin-top="0"
     fit-margin-left="0"
     fit-margin-right="0"
     fit-margin-bottom="0"
     inkscape:window-width="959"
     inkscape:window-height="1023"
     inkscape:window-x="0"
     inkscape:window-y="0"
     inkscape:window-maximized="0" />
  <metadata
     id="metadata5">
    <rdf:RDF>
      <cc:Work
         rdf:about="">
        <dc:format>image/svg+xml</dc:format>
        <dc:type
           rdf:resource="http://purl.org/dc/dcmitype/StillImage" />
        <dc:title></dc:title>
      </cc:Work>
    </rdf:RDF>
  </metadata>
  <g
     inkscape:label="Layer 1"
     inkscape:groupmode="layer"
     id="layer1"
     transform="translate(-81.721712,-123.77543)">
    <path
       style="fill:#000000;fill-opacity:1;fill-rule:nonzero;stroke:none;stroke-width:0.35277778"
       d="m 84.477792,123.48697 c -0.274814,0 -0.497127,0.22267 -0.497127,0.49713 0,0.23338 0.161809,0.42748 0.379305,0.48059 v 0.15658 c -0.08909,0.017 -0.189914,0.0492 -0.279569,0.0909 -0.05109,0.003 -0.09936,0.026 -0.131259,0.0682 l -1.089339,1.44901 c -0.06104,0.0819 -0.03924,0.20013 0.04754,0.26613 0.08749,0.0653 0.20752,0.0531 0.2682,-0.0284 l 0.837675,-1.11363 0.224793,1.22473 c -0.07587,0.0164 -0.140927,0.071 -0.163298,0.1509 l -0.571541,2.57555 c -0.0321,0.115 0.03556,0.23312 0.149861,0.26562 0.115006,0.0317 0.233351,-0.0356 0.265101,-0.14986 l 0.559139,-2.51923 0.559655,2.51923 c 0.0079,0.0287 0.02136,0.054 0.03876,0.076 0.03479,0.0439 0.08565,0.0729 0.141076,0.0801 0.02772,0.004 0.05669,0.002 0.08527,-0.006 0.114653,-0.0321 0.181964,-0.15097 0.149862,-0.26562 l -0.571541,-2.57555 c -0.02225,-0.0803 -0.08849,-0.13546 -0.164848,-0.15141 l 0.225309,-1.22525 0.838709,1.11466 c 0.06103,0.0815 0.180711,0.0937 0.2682,0.0284 0.08714,-0.066 0.108735,-0.18428 0.04806,-0.26613 l -1.089856,-1.44901 c -0.03201,-0.0424 -0.08054,-0.0649 -0.131774,-0.0682 -0.08907,-0.0415 -0.189616,-0.0733 -0.278536,-0.0904 v -0.15709 c 0.217307,-0.0531 0.379305,-0.24724 0.379305,-0.48059 0,-0.27446 -0.222667,-0.49713 -0.497128,-0.49713 z"
       id="path22066"
       inkscape:connector-curvature="0" />
    <path
       style="fill:#000000;fill-opacity:1;fill-rule:nonzero;stroke:none;stroke-width:0.35277778"
       d="m 82.890291,124.01614 c -0.274814,0 -0.497127,0.22267 -0.497127,0.49713 0,0.23338 0.161809,0.42748 0.379305,0.48059 v 0.15658 c -0.08909,0.017 -0.189914,0.0492 -0.279569,0.0909 -0.05109,0.003 -0.09936,0.026 -0.131259,0.0682 l -1.089339,1.44901 c -0.06104,0.0819 -0.03924,0.20013 0.04754,0.26613 0.08749,0.0653 0.20752,0.0531 0.2682,-0.0284 l 0.837675,-1.11363 0.224793,1.22473 c -0.07587,0.0164 -0.140927,0.071 -0.163298,0.1509 l -0.571541,2.57555 c -0.0321,0.115 0.03556,0.23312 0.149861,0.26562 0.115006,0.0317 0.233351,-0.0356 0.265101,-0.14986 l 0.559139,-2.51923 0.559655,2.51923 c 0.0079,0.0287 0.02136,0.054 0.03876,0.076 0.03479,0.0439 0.08565,0.0729 0.141076,0.0801 0.02772,0.004 0.05669,0.002 0.08527,-0.006 0.114653,-0.0321 0.181964,-0.15097 0.149862,-0.26562 l -0.571541,-2.57555 c -0.02225,-0.0803 -0.08849,-0.13546 -0.164848,-0.15141 l 0.225309,-1.22525 0.838709,1.11466 c 0.06103,0.0815 0.180711,0.0937 0.2682,0.0284 0.08714,-0.066 0.108735,-0.18428 0.04806,-0.26613 l -1.089856,-1.44901 c -0.03201,-0.0424 -0.08054,-0.0649 -0.131774,-0.0682 -0.08907,-0.0415 -0.189616,-0.0733 -0.278536,-0.0904 v -0.15709 c 0.217307,-0.0531 0.379305,-0.24724 0.379305,-0.48059 0,-0.27446 -0.222667,-0.49713 -0.497128,-0.49713 z"
       id="path22066-3"
       inkscape:connector-curvature="0" />
    <path
       style="fill:#000000;fill-opacity:1;fill-rule:nonzero;stroke:none;stroke-width:0.35277778"
       d="m 86.065293,124.01614 c -0.274814,0 -0.497127,0.22267 -0.497127,0.49713 0,0.23338 0.161809,0.42748 0.379305,0.48059 v 0.15658 c -0.08909,0.017 -0.189914,0.0492 -0.279569,0.0909 -0.05109,0.003 -0.09936,0.026 -0.131259,0.0682 l -1.089339,1.44901 c -0.06104,0.0819 -0.03924,0.20013 0.04754,0.26613 0.08749,0.0653 0.20752,0.0531 0.2682,-0.0284 l 0.837675,-1.11363 0.224793,1.22473 c -0.07587,0.0164 -0.140927,0.071 -0.163298,0.1509 l -0.571541,2.57555 c -0.0321,0.115 0.03556,0.23312 0.149861,0.26562 0.115006,0.0317 0.233351,-0.0356 0.265101,-0.14986 l 0.559139,-2.51923 0.559655,2.51923 c 0.0079,0.0287 0.02136,0.054 0.03876,0.076 0.03479,0.0439 0.08565,0.0729 0.141076,0.0801 0.02772,0.004 0.05669,0.002 0.08527,-0.006 0.114653,-0.0321 0.181964,-0.15097 0.149862,-0.26562 l -0.571541,-2.57555 c -0.02225,-0.0803 -0.08849,-0.13546 -0.164848,-0.15141 l 0.225309,-1.22525 0.838709,1.11466 c 0.06103,0.0815 0.180711,0.0937 0.2682,0.0284 0.08714,-0.066 0.108735,-0.18428 0.04806,-0.26613 l -1.089856,-1.44901 c -0.03201,-0.0424 -0.08054,-0.0649 -0.131774,-0.0682 -0.08907,-0.0415 -0.189616,-0.0733 -0.278536,-0.0904 v -0.15709 c 0.217307,-0.0531 0.379305,-0.24724 0.379305,-0.48059 0,-0.27446 -0.222667,-0.49713 -0.497128,-0.49713 z"
       id="path22066-3-1"
       inkscape:connector-curvature="0" />
  </g>
</svg>
