<?xml version="1.0" encoding="UTF-8" standalone="no"?>
<!-- Created with Inkscape (http://www.inkscape.org/) -->

<svg
   xmlns:dc="http://purl.org/dc/elements/1.1/"
   xmlns:cc="http://creativecommons.org/ns#"
   xmlns:rdf="http://www.w3.org/1999/02/22-rdf-syntax-ns#"
   xmlns:svg="http://www.w3.org/2000/svg"
   xmlns="http://www.w3.org/2000/svg"
   xmlns:sodipodi="http://sodipodi.sourceforge.net/DTD/sodipodi-0.dtd"
   xmlns:inkscape="http://www.inkscape.org/namespaces/inkscape"
   width="5.5119324mm"
   height="5.5146232mm"
   viewBox="0 0 5.5119324 5.5146232"
   version="1.1"
   id="svg8"
   inkscape:version="0.92.4 (unknown)"
   sodipodi:docname="purse.svg">
  <defs
     id="defs2">
    <clipPath
       clipPathUnits="userSpaceOnUse"
       id="clipPath6042">
      <path
         d="m 62.3145,619.755 h 5.1694 v -7.357 h -5.1694 z"
         id="path6040"
         inkscape:connector-curvature="0" />
    </clipPath>
    <clipPath
       clipPathUnits="userSpaceOnUse"
       id="clipPath6046">
      <path
         d="m 62.3145,619.755 h 5.1694 v -7.357 h -5.1694 z"
         id="path6044"
         inkscape:connector-curvature="0" />
    </clipPath>
    <clipPath
       clipPathUnits="userSpaceOnUse"
       id="clipPath6050">
      <path
         d="m 62.3208,619.678 h 5.1631 v -7.28 h -5.1631 z"
         id="path6048"
         inkscape:connector-curvature="0" />
    </clipPath>
    <clipPath
       clipPathUnits="userSpaceOnUse"
       id="clipPath6054">
      <path
         d="m 62.3174,619.677 h 5.1597 v -7.26 h -5.1597 z"
         id="path6052"
         inkscape:connector-curvature="0" />
    </clipPath>
    <clipPath
       clipPathUnits="userSpaceOnUse"
       id="clipPath6058">
      <path
         d="m 62.3145,619.73 h 5.1264 v -7.224 h -5.1264 z"
         id="path6056"
         inkscape:connector-curvature="0" />
    </clipPath>
    <clipPath
       clipPathUnits="userSpaceOnUse"
       id="clipPath6062">
      <path
         d="m 62.3394,619.755 h 5.102 v -7.117 h -5.102 z"
         id="path6060"
         inkscape:connector-curvature="0" />
    </clipPath>
    <clipPath
       clipPathUnits="userSpaceOnUse"
       id="clipPath5954">
      <path
         d="m 59.7686,621.806 h 7.0942 v -9.829 h -7.0942 z"
         id="path5952"
         inkscape:connector-curvature="0" />
    </clipPath>
    <clipPath
       clipPathUnits="userSpaceOnUse"
       id="clipPath5958">
      <path
         d="m 59.7686,621.806 h 7.0942 v -9.829 h -7.0942 z"
         id="path5956"
         inkscape:connector-curvature="0" />
    </clipPath>
    <clipPath
       clipPathUnits="userSpaceOnUse"
       id="clipPath5962">
      <path
         d="m 59.8159,621.631 h 7.0469 v -9.654 h -7.0469 z"
         id="path5960"
         inkscape:connector-curvature="0" />
    </clipPath>
    <clipPath
       clipPathUnits="userSpaceOnUse"
       id="clipPath5966">
      <path
         d="m 59.8115,621.629 h 7.0464 v -9.623 h -7.0464 z"
         id="path5964"
         inkscape:connector-curvature="0" />
    </clipPath>
    <clipPath
       clipPathUnits="userSpaceOnUse"
       id="clipPath5970">
      <path
         d="m 59.772,621.737 h 7.0581 v -9.558 H 59.772 Z"
         id="path5968"
         inkscape:connector-curvature="0" />
    </clipPath>
    <clipPath
       clipPathUnits="userSpaceOnUse"
       id="clipPath5974">
      <path
         d="m 59.7686,621.806 h 7.0668 v -9.347 h -7.0668 z"
         id="path5972"
         inkscape:connector-curvature="0" />
    </clipPath>
    <clipPath
       clipPathUnits="userSpaceOnUse"
       id="clipPath5866">
      <path
         d="m 59.0522,622.716 h 7.2862 v -10.767 h -7.2862 z"
         id="path5864"
         inkscape:connector-curvature="0" />
    </clipPath>
    <clipPath
       clipPathUnits="userSpaceOnUse"
       id="clipPath5870">
      <path
         d="m 59.0522,622.716 h 7.2862 v -10.767 h -7.2862 z"
         id="path5868"
         inkscape:connector-curvature="0" />
    </clipPath>
    <clipPath
       clipPathUnits="userSpaceOnUse"
       id="clipPath5874">
      <path
         d="m 59.1006,622.548 h 7.2378 v -10.599 h -7.2378 z"
         id="path5872"
         inkscape:connector-curvature="0" />
    </clipPath>
    <clipPath
       clipPathUnits="userSpaceOnUse"
       id="clipPath5878">
      <path
         d="m 59.0957,622.546 h 7.2368 V 611.98 h -7.2368 z"
         id="path5876"
         inkscape:connector-curvature="0" />
    </clipPath>
    <clipPath
       clipPathUnits="userSpaceOnUse"
       id="clipPath5882">
      <path
         d="m 59.0576,622.658 h 7.2432 v -10.491 h -7.2432 z"
         id="path5880"
         inkscape:connector-curvature="0" />
    </clipPath>
    <clipPath
       clipPathUnits="userSpaceOnUse"
       id="clipPath5886">
      <path
         d="m 59.0522,622.716 h 7.253 v -10.253 h -7.253 z"
         id="path5884"
         inkscape:connector-curvature="0" />
    </clipPath>
    <clipPath
       clipPathUnits="userSpaceOnUse"
       id="clipPath5758">
      <path
         d="m 43.8926,624.127 h 3.1108 V 612.47 h -3.1108 z"
         id="path5756"
         inkscape:connector-curvature="0" />
    </clipPath>
    <clipPath
       clipPathUnits="userSpaceOnUse"
       id="clipPath5762">
      <path
         d="m 43.8926,624.127 h 3.1108 V 612.47 h -3.1108 z"
         id="path5760"
         inkscape:connector-curvature="0" />
    </clipPath>
    <clipPath
       clipPathUnits="userSpaceOnUse"
       id="clipPath5766">
      <path
         d="m 43.9287,624.03 h 3.0747 v -11.56 h -3.0747 z"
         id="path5764"
         inkscape:connector-curvature="0" />
    </clipPath>
    <clipPath
       clipPathUnits="userSpaceOnUse"
       id="clipPath5770">
      <path
         d="M 43.9243,624.031 H 46.999 V 612.483 H 43.9243 Z"
         id="path5768"
         inkscape:connector-curvature="0" />
    </clipPath>
    <clipPath
       clipPathUnits="userSpaceOnUse"
       id="clipPath5774">
      <path
         d="m 43.8926,624.1 h 3.0957 v -11.529 h -3.0957 z"
         id="path5772"
         inkscape:connector-curvature="0" />
    </clipPath>
    <clipPath
       clipPathUnits="userSpaceOnUse"
       id="clipPath5778">
      <path
         d="m 43.8931,624.127 h 3.1074 V 612.72 h -3.1074 z"
         id="path5776"
         inkscape:connector-curvature="0" />
    </clipPath>
    <clipPath
       clipPathUnits="userSpaceOnUse"
       id="clipPath5670">
      <path
         d="m 42.5449,625.007 h 3.105 v -12.968 h -3.105 z"
         id="path5668"
         inkscape:connector-curvature="0" />
    </clipPath>
    <clipPath
       clipPathUnits="userSpaceOnUse"
       id="clipPath5674">
      <path
         d="m 42.5449,625.007 h 3.105 v -12.968 h -3.105 z"
         id="path5672"
         inkscape:connector-curvature="0" />
    </clipPath>
    <clipPath
       clipPathUnits="userSpaceOnUse"
       id="clipPath5678">
      <path
         d="m 42.5796,624.903 h 3.0703 v -12.864 h -3.0703 z"
         id="path5676"
         inkscape:connector-curvature="0" />
    </clipPath>
    <clipPath
       clipPathUnits="userSpaceOnUse"
       id="clipPath5682">
      <path
         d="m 42.5757,624.903 h 3.0698 v -12.85 h -3.0698 z"
         id="path5680"
         inkscape:connector-curvature="0" />
    </clipPath>
    <clipPath
       clipPathUnits="userSpaceOnUse"
       id="clipPath5686">
      <path
         d="m 42.5449,624.976 h 3.086 V 612.15 h -3.086 z"
         id="path5684"
         inkscape:connector-curvature="0" />
    </clipPath>
    <clipPath
       clipPathUnits="userSpaceOnUse"
       id="clipPath5690">
      <path
         d="m 42.5449,625.007 h 3.0972 v -12.692 h -3.0972 z"
         id="path5688"
         inkscape:connector-curvature="0" />
    </clipPath>
    <clipPath
       clipPathUnits="userSpaceOnUse"
       id="clipPath5582">
      <path
         d="m 41.7368,625.379 h 3.0698 v -13.341 h -3.0698 z"
         id="path5580"
         inkscape:connector-curvature="0" />
    </clipPath>
    <clipPath
       clipPathUnits="userSpaceOnUse"
       id="clipPath5586">
      <path
         d="m 41.7368,625.379 h 3.0698 v -13.341 h -3.0698 z"
         id="path5584"
         inkscape:connector-curvature="0" />
    </clipPath>
    <clipPath
       clipPathUnits="userSpaceOnUse"
       id="clipPath5590">
      <path
         d="m 41.772,625.274 h 3.0346 V 612.038 H 41.772 Z"
         id="path5588"
         inkscape:connector-curvature="0" />
    </clipPath>
    <clipPath
       clipPathUnits="userSpaceOnUse"
       id="clipPath5594">
      <path
         d="m 41.7681,625.274 h 3.0341 v -13.222 h -3.0341 z"
         id="path5592"
         inkscape:connector-curvature="0" />
    </clipPath>
    <clipPath
       clipPathUnits="userSpaceOnUse"
       id="clipPath5598">
      <path
         d="m 41.7368,625.348 h 3.0493 v -13.195 h -3.0493 z"
         id="path5596"
         inkscape:connector-curvature="0" />
    </clipPath>
    <clipPath
       clipPathUnits="userSpaceOnUse"
       id="clipPath5602">
      <path
         d="m 41.7368,625.379 h 3.0601 v -13.057 h -3.0601 z"
         id="path5600"
         inkscape:connector-curvature="0" />
    </clipPath>
  </defs>
  <sodipodi:namedview
     id="base"
     pagecolor="#ffffff"
     bordercolor="#666666"
     borderopacity="1.0"
     inkscape:pageopacity="0.0"
     inkscape:pageshadow="2"
     inkscape:zoom="11.2"
     inkscape:cx="5.1080629"
     inkscape:cy="11.773827"
     inkscape:document-units="mm"
     inkscape:current-layer="layer1"
     showgrid="false"
     fit-margin-top="0"
     fit-margin-left="0"
     fit-margin-right="0"
     fit-margin-bottom="0"
     inkscape:window-width="959"
     inkscape:window-height="1023"
     inkscape:window-x="0"
     inkscape:window-y="0"
     inkscape:window-maximized="0" />
  <metadata
     id="metadata5">
    <rdf:RDF>
      <cc:Work
         rdf:about="">
        <dc:format>image/svg+xml</dc:format>
        <dc:type
           rdf:resource="http://purl.org/dc/dcmitype/StillImage" />
        <dc:title></dc:title>
      </cc:Work>
    </rdf:RDF>
  </metadata>
  <g
     inkscape:label="Layer 1"
     inkscape:groupmode="layer"
     id="layer1"
     transform="translate(-81.721712,-123.77543)">
    <path
       style="fill:#231f20;fill-opacity:1;fill-rule:nonzero;stroke:none;stroke-width:1.33333337"
       d="M 9.4726562 0.56054688 C 9.3753637 0.5619642 9.2692414 0.57655426 9.1425781 0.59960938 L 9.1425781 0.59765625 C 8.7585592 0.66757751 8.4455978 0.89427876 8.1015625 1.0917969 C 7.7764097 1.2785055 7.433263 1.4340328 7.0898438 1.4902344 C 7.036439 1.4460139 6.9521013 1.363139 6.8691406 1.2773438 C 6.7861422 1.1915485 6.7003093 1.098838 6.6035156 1.0175781 C 6.5067219 0.93669624 6.4079416 0.81049237 6.1445312 0.85546875 C 5.6574144 0.93483883 5.2332256 1.031211 4.9121094 1.1582031 C 4.9113195 1.1585055 4.8169354 1.2101816 4.8164062 1.2109375 C 4.815862 1.211391 4.7365927 1.3199345 4.7363281 1.3203125 C 4.7360295 1.3208794 4.6995967 1.4465097 4.6992188 1.4472656 C 4.6991583 1.4479837 4.7047002 1.5422128 4.7050781 1.5429688 C 4.7054334 1.5447073 4.7406757 1.6445946 4.7421875 1.6464844 C 4.7434725 1.6487143 4.7620356 1.6851711 4.7714844 1.6972656 C 4.8096198 1.7452656 4.8406052 1.7625424 4.8691406 1.7871094 C 4.9262115 1.8362432 4.9878565 1.8885584 5.0742188 1.9550781 C 5.2469432 2.0877395 5.4898745 2.2643287 5.7324219 2.4726562 C 5.980956 2.6861242 6.2270349 2.9361882 6.421875 3.1816406 C 6.332482 3.2074421 6.2366724 3.2232238 6.1582031 3.2636719 C 5.5936097 3.5548467 5.2955156 4.0676566 4.8964844 4.3496094 C 4.3448548 4.7391653 4.1895733 5.227376 4.0253906 5.53125 C 3.8612231 5.834935 3.7310953 6.0312788 3.0195312 6.1835938 C 2.8656289 6.2176095 2.786349 6.1989653 2.7636719 6.1914062 C 2.7408435 6.1823354 2.7431291 6.1872399 2.7246094 6.1445312 C 2.68757 6.058736 2.6788093 5.7875587 2.6992188 5.4980469 C 2.719666 5.2084217 2.7722715 4.9133735 2.6699219 4.6015625 C 2.618766 4.4458082 2.4818807 4.2635341 2.2851562 4.2011719 C 2.0884432 4.1388097 1.8971893 4.1775598 1.6933594 4.2539062 A 0.33375012 0.33375012 0 1 0 1.9277344 4.8789062 C 2.0182163 4.8448905 2.0223692 4.8487901 2.0371094 4.8476562 C 2.052647 4.9272531 2.0551877 5.166888 2.0351562 5.4492188 C 2.0138397 5.7497668 1.9731742 6.0785016 2.1132812 6.4042969 C 2.1833461 6.5671567 2.3254647 6.7314914 2.5175781 6.8085938 C 2.7096802 6.8860741 2.9231165 6.8862052 3.1582031 6.8359375 C 4.0026365 6.6550493 4.4005061 6.2378169 4.6113281 5.8476562 C 4.8221577 5.4574578 4.8869139 5.1696175 5.2792969 4.8925781 C 5.824267 4.5077088 6.1388339 4.0205707 6.4628906 3.8535156 C 6.5558963 3.8053554 6.6527081 3.7822444 6.7636719 3.7753906 C 6.7688616 3.792669 6.7834079 3.8134507 6.7871094 3.8300781 C 6.8181015 3.9687868 6.7919039 4.247931 6.6914062 4.5683594 C 6.590833 4.8888633 6.4331912 5.2527599 6.2636719 5.5878906 C 6.0941601 5.9231347 5.9166798 6.2351118 5.7773438 6.4667969 C 5.7076871 6.5828284 5.6434519 6.6761725 5.5996094 6.7460938 C 5.5557291 6.816015 5.545142 6.8232227 5.5097656 6.8867188 C 4.4435836 8.771229 3.9531271 9.3816838 3.5839844 9.9433594 C 3.2148379 10.505035 2.9902758 11.003244 2.5429688 12.498047 C 1.9046746 14.632459 2.4666327 16.679376 3.7382812 18.166016 C 5.0099222 19.652655 6.9891353 20.595703 9.2011719 20.595703 C 11.415937 20.595703 13.464469 19.628131 14.775391 18.128906 C 16.086316 16.629643 16.649337 14.566578 15.845703 12.474609 C 14.51664 9.0137338 15.129203 10.088912 12.539062 6.6953125 C 12.473412 6.6091393 12.457663 6.6062136 12.398438 6.546875 C 12.339212 6.4875364 12.259534 6.4120917 12.169922 6.3183594 C 12.115758 6.2617057 12.043754 6.1686323 11.982422 6.1015625 C 12.539682 6.0803945 13.073938 5.899332 13.535156 5.4785156 C 14.231126 4.8428369 14.789099 3.9356884 15.380859 3.484375 C 15.676743 3.2587372 15.95243 3.1473714 16.275391 3.1738281 C 16.598347 3.2017966 17.006996 3.3804844 17.529297 3.8632812 C 18.054341 4.3486482 18.269707 4.7369471 18.332031 5.0117188 C 18.394356 5.2863014 18.331302 5.4671447 18.207031 5.640625 C 17.958467 5.98751 17.425781 6.1914062 17.425781 6.1914062 A 0.33336665 0.33336665 0 0 0 17.509766 6.84375 L 17.509766 6.8457031 A 0.33336665 0.33336665 0 0 0 17.638672 6.8261719 C 17.638672 6.8261719 18.329612 6.6129315 18.748047 6.0292969 C 18.957093 5.7374796 19.086699 5.3247493 18.982422 4.8652344 C 18.878126 4.4057194 18.566757 3.9208527 17.980469 3.3789062 C 17.391437 2.8344653 16.851119 2.5566951 16.332031 2.5117188 C 15.812947 2.4667802 15.352222 2.665125 14.974609 2.953125 C 14.219373 3.529125 13.669254 4.4533892 13.087891 4.984375 C 12.57658 5.4507635 12.059773 5.5429556 11.408203 5.3945312 C 11.060212 4.8838111 10.815946 4.3244006 10.898438 3.9570312 C 10.89572 3.9683698 11.044685 3.7267072 11.291016 3.4921875 C 11.537327 3.2574788 11.862285 2.9837838 12.175781 2.7226562 C 12.489293 2.4614909 12.79143 2.2100506 13.009766 1.984375 C 13.118956 1.8717451 13.208191 1.7717112 13.275391 1.6386719 C 13.309028 1.5721522 13.345678 1.4959471 13.34375 1.3867188 C 13.34183 1.2774904 13.276092 1.1365787 13.1875 1.0625 C 12.964659 0.8776811 12.709666 0.84897355 12.449219 0.81835938 C 12.188772 0.78812315 11.908146 0.77595202 11.644531 0.74609375 C 11.485149 0.72719611 11.396051 0.75674643 11.261719 0.78320312 C 11.127394 0.80965982 10.975214 0.85119119 10.826172 0.88671875 C 10.677107 0.9207345 10.528995 0.9582329 10.412109 0.98242188 C 10.295246 1.005099 10.186752 1.0079392 10.228516 1.0117188 C 10.103375 1.0003802 10.102674 0.98292876 10.117188 0.99804688 C 10.13155 1.013165 10.131545 1.012647 10.09375 0.92382812 C 10.056333 0.83500923 9.9270075 0.65705819 9.7480469 0.59960938 C 9.6585666 0.57088497 9.5699488 0.55912955 9.4726562 0.56054688 z "
       transform="matrix(0.26458333,0,0,0.26458333,81.721712,123.77543)"
       id="path48596" />
  </g>
</svg>
