<?xml version="1.0" encoding="UTF-8" standalone="no"?>
<!-- Created with Inkscape (http://www.inkscape.org/) -->

<svg
   xmlns:dc="http://purl.org/dc/elements/1.1/"
   xmlns:cc="http://creativecommons.org/ns#"
   xmlns:rdf="http://www.w3.org/1999/02/22-rdf-syntax-ns#"
   xmlns:svg="http://www.w3.org/2000/svg"
   xmlns="http://www.w3.org/2000/svg"
   xmlns:sodipodi="http://sodipodi.sourceforge.net/DTD/sodipodi-0.dtd"
   xmlns:inkscape="http://www.inkscape.org/namespaces/inkscape"
   width="5.5119324mm"
   height="5.5146232mm"
   viewBox="0 0 5.5119324 5.5146232"
   version="1.1"
   id="svg8"
   inkscape:version="0.92.4 (unknown)"
   sodipodi:docname="sickle.svg">
  <defs
     id="defs2" />
  <sodipodi:namedview
     id="base"
     pagecolor="#ffffff"
     bordercolor="#666666"
     borderopacity="1.0"
     inkscape:pageopacity="0.0"
     inkscape:pageshadow="2"
     inkscape:zoom="11.2"
     inkscape:cx="10.64691"
     inkscape:cy="6.8413972"
     inkscape:document-units="mm"
     inkscape:current-layer="layer1"
     showgrid="false"
     fit-margin-top="0"
     fit-margin-left="0"
     fit-margin-right="0"
     fit-margin-bottom="0"
     inkscape:window-width="959"
     inkscape:window-height="1023"
     inkscape:window-x="0"
     inkscape:window-y="0"
     inkscape:window-maximized="0" />
  <metadata
     id="metadata5">
    <rdf:RDF>
      <cc:Work
         rdf:about="">
        <dc:format>image/svg+xml</dc:format>
        <dc:type
           rdf:resource="http://purl.org/dc/dcmitype/StillImage" />
        <dc:title></dc:title>
      </cc:Work>
    </rdf:RDF>
  </metadata>
  <g
     inkscape:label="Layer 1"
     inkscape:groupmode="layer"
     id="layer1"
     transform="translate(-81.721712,-123.77543)">
    <g
       id="g1261"
       transform="translate(-0.76393714,-2.7809346)">
      <path
         style="fill:#231f20;fill-opacity:1;fill-rule:nonzero;stroke:none;stroke-width:1.33333337"
         d="M 12.328125 -0.49609375 C 11.286656 -0.46928199 10.254781 -0.22871021 9.3007812 0.21679688 C 9.3007812 0.21679688 13.859675 0.83612601 15.902344 2.9667969 C 18.930342 6.1294677 17.693328 14.774656 7.3613281 11.222656 C 7.3613281 11.222656 6.0247081 12.564494 6.203125 12.941406 L 0.78320312 19.875 L 2.578125 21.273438 L 7.9941406 14.341797 C 8.2145605 14.338033 8.6718498 13.648692 8.75 13.693359 C 11.935333 15.521328 16.062119 14.812005 18.439453 11.861328 C 21.070121 8.5933218 20.548537 3.8103899 17.283203 1.1796875 C 15.823205 0.007207185 14.063906 -0.54078002 12.328125 -0.49609375 z "
         transform="matrix(0.26458333,0,0,0.26458333,82.485649,126.55636)"
         id="path22374" />
    </g>
  </g>
</svg>
