<?xml version="1.0" encoding="UTF-8" standalone="no"?>
<!-- Created with Inkscape (http://www.inkscape.org/) -->

<svg
   xmlns:dc="http://purl.org/dc/elements/1.1/"
   xmlns:cc="http://creativecommons.org/ns#"
   xmlns:rdf="http://www.w3.org/1999/02/22-rdf-syntax-ns#"
   xmlns:svg="http://www.w3.org/2000/svg"
   xmlns="http://www.w3.org/2000/svg"
   xmlns:sodipodi="http://sodipodi.sourceforge.net/DTD/sodipodi-0.dtd"
   xmlns:inkscape="http://www.inkscape.org/namespaces/inkscape"
   width="79.375mm"
   height="79.372841mm"
   viewBox="0 0 79.375 79.372841"
   version="1.1"
   id="svg8"
   inkscape:version="0.92.4 (unknown)"
   sodipodi:docname="topography_shore.svg">
  <defs
     id="defs2">
    <clipPath
       clipPathUnits="userSpaceOnUse"
       id="clipPath6042">
      <path
         d="m 62.3145,619.755 h 5.1694 v -7.357 h -5.1694 z"
         id="path6040"
         inkscape:connector-curvature="0" />
    </clipPath>
    <clipPath
       clipPathUnits="userSpaceOnUse"
       id="clipPath6046">
      <path
         d="m 62.3145,619.755 h 5.1694 v -7.357 h -5.1694 z"
         id="path6044"
         inkscape:connector-curvature="0" />
    </clipPath>
    <clipPath
       clipPathUnits="userSpaceOnUse"
       id="clipPath6050">
      <path
         d="m 62.3208,619.678 h 5.1631 v -7.28 h -5.1631 z"
         id="path6048"
         inkscape:connector-curvature="0" />
    </clipPath>
    <clipPath
       clipPathUnits="userSpaceOnUse"
       id="clipPath6054">
      <path
         d="m 62.3174,619.677 h 5.1597 v -7.26 h -5.1597 z"
         id="path6052"
         inkscape:connector-curvature="0" />
    </clipPath>
    <clipPath
       clipPathUnits="userSpaceOnUse"
       id="clipPath6058">
      <path
         d="m 62.3145,619.73 h 5.1264 v -7.224 h -5.1264 z"
         id="path6056"
         inkscape:connector-curvature="0" />
    </clipPath>
    <clipPath
       clipPathUnits="userSpaceOnUse"
       id="clipPath6062">
      <path
         d="m 62.3394,619.755 h 5.102 v -7.117 h -5.102 z"
         id="path6060"
         inkscape:connector-curvature="0" />
    </clipPath>
    <clipPath
       clipPathUnits="userSpaceOnUse"
       id="clipPath5954">
      <path
         d="m 59.7686,621.806 h 7.0942 v -9.829 h -7.0942 z"
         id="path5952"
         inkscape:connector-curvature="0" />
    </clipPath>
    <clipPath
       clipPathUnits="userSpaceOnUse"
       id="clipPath5958">
      <path
         d="m 59.7686,621.806 h 7.0942 v -9.829 h -7.0942 z"
         id="path5956"
         inkscape:connector-curvature="0" />
    </clipPath>
    <clipPath
       clipPathUnits="userSpaceOnUse"
       id="clipPath5962">
      <path
         d="m 59.8159,621.631 h 7.0469 v -9.654 h -7.0469 z"
         id="path5960"
         inkscape:connector-curvature="0" />
    </clipPath>
    <clipPath
       clipPathUnits="userSpaceOnUse"
       id="clipPath5966">
      <path
         d="m 59.8115,621.629 h 7.0464 v -9.623 h -7.0464 z"
         id="path5964"
         inkscape:connector-curvature="0" />
    </clipPath>
    <clipPath
       clipPathUnits="userSpaceOnUse"
       id="clipPath5970">
      <path
         d="m 59.772,621.737 h 7.0581 v -9.558 H 59.772 Z"
         id="path5968"
         inkscape:connector-curvature="0" />
    </clipPath>
    <clipPath
       clipPathUnits="userSpaceOnUse"
       id="clipPath5974">
      <path
         d="m 59.7686,621.806 h 7.0668 v -9.347 h -7.0668 z"
         id="path5972"
         inkscape:connector-curvature="0" />
    </clipPath>
    <clipPath
       clipPathUnits="userSpaceOnUse"
       id="clipPath5866">
      <path
         d="m 59.0522,622.716 h 7.2862 v -10.767 h -7.2862 z"
         id="path5864"
         inkscape:connector-curvature="0" />
    </clipPath>
    <clipPath
       clipPathUnits="userSpaceOnUse"
       id="clipPath5870">
      <path
         d="m 59.0522,622.716 h 7.2862 v -10.767 h -7.2862 z"
         id="path5868"
         inkscape:connector-curvature="0" />
    </clipPath>
    <clipPath
       clipPathUnits="userSpaceOnUse"
       id="clipPath5874">
      <path
         d="m 59.1006,622.548 h 7.2378 v -10.599 h -7.2378 z"
         id="path5872"
         inkscape:connector-curvature="0" />
    </clipPath>
    <clipPath
       clipPathUnits="userSpaceOnUse"
       id="clipPath5878">
      <path
         d="m 59.0957,622.546 h 7.2368 V 611.98 h -7.2368 z"
         id="path5876"
         inkscape:connector-curvature="0" />
    </clipPath>
    <clipPath
       clipPathUnits="userSpaceOnUse"
       id="clipPath5882">
      <path
         d="m 59.0576,622.658 h 7.2432 v -10.491 h -7.2432 z"
         id="path5880"
         inkscape:connector-curvature="0" />
    </clipPath>
    <clipPath
       clipPathUnits="userSpaceOnUse"
       id="clipPath5886">
      <path
         d="m 59.0522,622.716 h 7.253 v -10.253 h -7.253 z"
         id="path5884"
         inkscape:connector-curvature="0" />
    </clipPath>
    <clipPath
       clipPathUnits="userSpaceOnUse"
       id="clipPath5758">
      <path
         d="m 43.8926,624.127 h 3.1108 V 612.47 h -3.1108 z"
         id="path5756"
         inkscape:connector-curvature="0" />
    </clipPath>
    <clipPath
       clipPathUnits="userSpaceOnUse"
       id="clipPath5762">
      <path
         d="m 43.8926,624.127 h 3.1108 V 612.47 h -3.1108 z"
         id="path5760"
         inkscape:connector-curvature="0" />
    </clipPath>
    <clipPath
       clipPathUnits="userSpaceOnUse"
       id="clipPath5766">
      <path
         d="m 43.9287,624.03 h 3.0747 v -11.56 h -3.0747 z"
         id="path5764"
         inkscape:connector-curvature="0" />
    </clipPath>
    <clipPath
       clipPathUnits="userSpaceOnUse"
       id="clipPath5770">
      <path
         d="M 43.9243,624.031 H 46.999 V 612.483 H 43.9243 Z"
         id="path5768"
         inkscape:connector-curvature="0" />
    </clipPath>
    <clipPath
       clipPathUnits="userSpaceOnUse"
       id="clipPath5774">
      <path
         d="m 43.8926,624.1 h 3.0957 v -11.529 h -3.0957 z"
         id="path5772"
         inkscape:connector-curvature="0" />
    </clipPath>
    <clipPath
       clipPathUnits="userSpaceOnUse"
       id="clipPath5778">
      <path
         d="m 43.8931,624.127 h 3.1074 V 612.72 h -3.1074 z"
         id="path5776"
         inkscape:connector-curvature="0" />
    </clipPath>
    <clipPath
       clipPathUnits="userSpaceOnUse"
       id="clipPath5670">
      <path
         d="m 42.5449,625.007 h 3.105 v -12.968 h -3.105 z"
         id="path5668"
         inkscape:connector-curvature="0" />
    </clipPath>
    <clipPath
       clipPathUnits="userSpaceOnUse"
       id="clipPath5674">
      <path
         d="m 42.5449,625.007 h 3.105 v -12.968 h -3.105 z"
         id="path5672"
         inkscape:connector-curvature="0" />
    </clipPath>
    <clipPath
       clipPathUnits="userSpaceOnUse"
       id="clipPath5678">
      <path
         d="m 42.5796,624.903 h 3.0703 v -12.864 h -3.0703 z"
         id="path5676"
         inkscape:connector-curvature="0" />
    </clipPath>
    <clipPath
       clipPathUnits="userSpaceOnUse"
       id="clipPath5682">
      <path
         d="m 42.5757,624.903 h 3.0698 v -12.85 h -3.0698 z"
         id="path5680"
         inkscape:connector-curvature="0" />
    </clipPath>
    <clipPath
       clipPathUnits="userSpaceOnUse"
       id="clipPath5686">
      <path
         d="m 42.5449,624.976 h 3.086 V 612.15 h -3.086 z"
         id="path5684"
         inkscape:connector-curvature="0" />
    </clipPath>
    <clipPath
       clipPathUnits="userSpaceOnUse"
       id="clipPath5690">
      <path
         d="m 42.5449,625.007 h 3.0972 v -12.692 h -3.0972 z"
         id="path5688"
         inkscape:connector-curvature="0" />
    </clipPath>
    <clipPath
       clipPathUnits="userSpaceOnUse"
       id="clipPath5582">
      <path
         d="m 41.7368,625.379 h 3.0698 v -13.341 h -3.0698 z"
         id="path5580"
         inkscape:connector-curvature="0" />
    </clipPath>
    <clipPath
       clipPathUnits="userSpaceOnUse"
       id="clipPath5586">
      <path
         d="m 41.7368,625.379 h 3.0698 v -13.341 h -3.0698 z"
         id="path5584"
         inkscape:connector-curvature="0" />
    </clipPath>
    <clipPath
       clipPathUnits="userSpaceOnUse"
       id="clipPath5590">
      <path
         d="m 41.772,625.274 h 3.0346 V 612.038 H 41.772 Z"
         id="path5588"
         inkscape:connector-curvature="0" />
    </clipPath>
    <clipPath
       clipPathUnits="userSpaceOnUse"
       id="clipPath5594">
      <path
         d="m 41.7681,625.274 h 3.0341 v -13.222 h -3.0341 z"
         id="path5592"
         inkscape:connector-curvature="0" />
    </clipPath>
    <clipPath
       clipPathUnits="userSpaceOnUse"
       id="clipPath5598">
      <path
         d="m 41.7368,625.348 h 3.0493 v -13.195 h -3.0493 z"
         id="path5596"
         inkscape:connector-curvature="0" />
    </clipPath>
    <clipPath
       clipPathUnits="userSpaceOnUse"
       id="clipPath5602">
      <path
         d="m 41.7368,625.379 h 3.0601 v -13.057 h -3.0601 z"
         id="path5600"
         inkscape:connector-curvature="0" />
    </clipPath>
  </defs>
  <sodipodi:namedview
     id="base"
     pagecolor="#ffffff"
     bordercolor="#666666"
     borderopacity="1.0"
     inkscape:pageopacity="0.0"
     inkscape:pageshadow="2"
     inkscape:zoom="0.49497475"
     inkscape:cx="105.67028"
     inkscape:cy="-80.223157"
     inkscape:document-units="mm"
     inkscape:current-layer="layer1"
     showgrid="false"
     fit-margin-top="0"
     fit-margin-left="0"
     fit-margin-right="0"
     fit-margin-bottom="0"
     inkscape:window-width="959"
     inkscape:window-height="1023"
     inkscape:window-x="0"
     inkscape:window-y="0"
     inkscape:window-maximized="0" />
  <metadata
     id="metadata5">
    <rdf:RDF>
      <cc:Work
         rdf:about="">
        <dc:format>image/svg+xml</dc:format>
        <dc:type
           rdf:resource="http://purl.org/dc/dcmitype/StillImage" />
        <dc:title></dc:title>
      </cc:Work>
    </rdf:RDF>
  </metadata>
  <g
     inkscape:label="Layer 1"
     inkscape:groupmode="layer"
     id="layer1"
     transform="translate(-81.941294,-49.696101)">
    <g
       id="g2697"
       transform="matrix(15.647495,0,0,15.647495,-1185.2046,-1995.0447)">
      <g
         transform="matrix(0.35277777,0,0,-0.35277777,85.921156,133.21172)"
         id="g5568">
        <path
           inkscape:connector-curvature="0"
           id="path5570"
           style="fill:#ffffff;fill-opacity:1;fill-rule:nonzero;stroke:none"
           d="m 0,0 c 0,-3.764 -3.051,-6.814 -6.814,-6.814 -3.764,0 -6.815,3.05 -6.815,6.814 0,3.764 3.051,6.814 6.815,6.814 C -3.051,6.814 0,3.764 0,0" />
      </g>
      <g
         transform="matrix(0.35277777,0,0,-0.35277777,85.921156,133.21172)"
         id="g5572">
        <path
           inkscape:connector-curvature="0"
           id="path5574"
           style="fill:none;stroke:#231f20;stroke-width:0.75;stroke-linecap:butt;stroke-linejoin:miter;stroke-miterlimit:4;stroke-dasharray:none;stroke-opacity:1"
           d="m 0,0 c 0,-3.764 -3.051,-6.814 -6.814,-6.814 -3.764,0 -6.815,3.05 -6.815,6.814 0,3.764 3.051,6.814 6.815,6.814 C -3.051,6.814 0,3.764 0,0 Z" />
      </g>
      <g
         transform="matrix(0.35277777,0,0,-0.35277777,68.392158,351.53741)"
         id="g5576">
        <g
           id="g5578" />
        <g
           id="g5662">
          <g
             style="opacity:0.80000299"
             id="g5660"
             clip-path="url(#clipPath5582)">
            <g
               id="g5658">
              <g
                 id="g5604" />
              <g
                 id="g5656">
                <g
                   style="opacity:0.80000299"
                   id="g5654"
                   clip-path="url(#clipPath5586)">
                  <g
                     id="g5616">
                    <g
                       id="g5606" />
                    <g
                       id="g5614">
                      <g
                         style="opacity:0.80000299"
                         id="g5612"
                         clip-path="url(#clipPath5590)">
                        <g
                           id="g5610"
                           transform="translate(44.2515,623.6602)">
                          <path
                             inkscape:connector-curvature="0"
                             id="path5608"
                             style="fill:#2e2a2b;fill-opacity:1;fill-rule:nonzero;stroke:none"
                             d="m 0,0 c -0.141,-0.49 -0.229,-0.935 -0.358,-1.429 -0.019,-0.07 -0.051,-0.14 -0.082,-0.211 -0.055,-0.106 -0.113,-0.161 -0.156,-0.249 -0.35,-0.776 -0.56,-1.636 -0.77,-2.491 -0.115,-0.681 -0.248,-1.335 -0.381,-1.992 -0.119,-0.659 -0.166,-1.332 -0.229,-2.026 -0.099,-0.788 0.023,-1.543 0.039,-2.32 0.005,-0.243 0.005,-0.466 -0.02,-0.713 -0.02,-0.103 -0.069,-0.264 -0.109,-0.154 -0.036,0.11 -0.07,0.256 -0.093,0.398 -0.097,0.645 -0.212,1.196 -0.302,1.873 -0.083,0.7 0.137,1.308 0.203,1.977 0.052,0.657 0.104,1.213 0.204,1.841 0.033,0.165 0.097,0.329 0.154,0.411 0.103,0.173 0.139,0.097 0.195,0.391 0.052,0.387 0.096,0.721 0.192,1.12 0.163,0.602 0.242,0.891 0.523,1.928 0.127,0.531 0.235,1.073 0.483,1.527 C -0.315,0.249 -0.129,0.46 0.07,0.75 0.209,0.954 0.321,1.229 0.451,1.483 0.478,1.533 0.516,1.565 0.555,1.614 0.504,1.29 0.356,0.843 0.184,0.468 0.161,0.416 0.137,0.399 0.113,0.365 0.055,0.244 0.034,0.122 0,0" />
                        </g>
                      </g>
                    </g>
                  </g>
                  <g
                     id="g5628">
                    <g
                       id="g5618" />
                    <g
                       id="g5626">
                      <g
                         style="opacity:0.80000299"
                         id="g5624"
                         clip-path="url(#clipPath5594)">
                        <g
                           id="g5622"
                           transform="translate(44.2437,623.7651)">
                          <path
                             inkscape:connector-curvature="0"
                             id="path5620"
                             style="fill:#7b7979;fill-opacity:1;fill-rule:nonzero;stroke:none"
                             d="M 0,0 C -0.124,-0.488 -0.284,-1.119 -0.363,-1.43 -0.382,-1.5 -0.414,-1.57 -0.446,-1.641 -0.5,-1.748 -0.558,-1.802 -0.601,-1.891 -0.962,-2.664 -1.164,-3.528 -1.377,-4.383 -1.511,-5.082 -1.63,-5.7 -1.757,-6.361 -1.891,-7.01 -1.921,-7.677 -1.988,-8.372 c -0.097,-0.789 -0.002,-1.545 0.025,-2.323 0.005,-0.244 0.005,-0.466 -0.02,-0.714 -0.018,-0.103 -0.043,-0.389 -0.08,-0.279 -0.036,0.11 -0.07,0.256 -0.092,0.398 -0.097,0.646 -0.212,1.196 -0.303,1.873 -0.082,0.7 0.137,1.309 0.204,1.978 0.052,0.658 0.104,1.213 0.204,1.841 0.033,0.165 0.097,0.328 0.154,0.411 0.103,0.173 0.139,0.093 0.194,0.388 0.053,0.386 0.096,0.72 0.192,1.12 0.164,0.602 0.242,0.89 0.524,1.928 0.126,0.532 0.235,1.073 0.483,1.527 0.191,0.368 0.377,0.579 0.576,0.87 C 0.213,0.85 0.325,1.125 0.454,1.378 0.481,1.428 0.52,1.46 0.559,1.509 0.506,1.186 0.364,0.841 0.184,0.468 0.161,0.417 0.137,0.399 0.113,0.365 0.055,0.244 0.034,0.122 0,0" />
                        </g>
                      </g>
                    </g>
                  </g>
                  <g
                     id="g5640">
                    <g
                       id="g5630" />
                    <g
                       id="g5638">
                      <g
                         style="opacity:0.80000299"
                         id="g5636"
                         clip-path="url(#clipPath5598)">
                        <g
                           id="g5634"
                           transform="translate(44.2197,623.9424)">
                          <path
                             inkscape:connector-curvature="0"
                             id="path5632"
                             style="fill:#a7a5a6;fill-opacity:1;fill-rule:nonzero;stroke:none"
                             d="m 0,0 c -0.126,-0.487 -0.29,-1.119 -0.371,-1.431 -0.02,-0.071 -0.051,-0.141 -0.083,-0.212 -0.054,-0.107 -0.112,-0.161 -0.155,-0.25 -0.359,-0.775 -0.595,-1.531 -0.801,-2.392 -0.262,-1.361 -0.542,-2.502 -0.614,-3.906 -0.03,-0.397 -0.057,-0.784 -0.07,-1.169 0.02,-0.383 0.04,-0.788 0.059,-1.163 0.006,-0.246 0.035,-0.595 0.01,-0.843 -0.017,-0.104 -0.016,-0.515 -0.051,-0.405 -0.036,0.11 -0.07,0.257 -0.092,0.399 -0.098,0.647 -0.213,1.199 -0.303,1.877 -0.063,0.701 0.142,1.31 0.213,1.98 0.051,0.659 0.12,1.213 0.213,1.843 0.033,0.166 0.097,0.328 0.153,0.411 0.103,0.173 0.126,0.059 0.182,0.354 0.051,0.386 0.103,0.72 0.196,1.12 0.165,0.603 0.243,0.891 0.527,1.93 0.125,0.533 0.239,1.073 0.487,1.528 0.192,0.369 0.375,0.581 0.579,0.87 0.14,0.204 0.25,0.48 0.383,0.733 C 0.489,1.325 0.528,1.356 0.566,1.405 0.514,1.081 0.37,0.843 0.19,0.467 0.166,0.416 0.14,0.399 0.115,0.366 0.054,0.245 0.034,0.122 0,0" />
                        </g>
                      </g>
                    </g>
                  </g>
                  <g
                     id="g5652">
                    <g
                       id="g5642" />
                    <g
                       id="g5650">
                      <g
                         style="opacity:0.80000299"
                         id="g5648"
                         clip-path="url(#clipPath5602)">
                        <g
                           id="g5646"
                           transform="translate(44.085,624.0039)">
                          <path
                             inkscape:connector-curvature="0"
                             id="path5644"
                             style="fill:#d3d2d2;fill-opacity:1;fill-rule:nonzero;stroke:none"
                             d="m 0,0 c -0.105,-0.39 -0.068,-0.541 -0.253,-1.145 -0.019,-0.07 -0.051,-0.141 -0.083,-0.212 -0.054,-0.107 -0.112,-0.162 -0.156,-0.25 -0.355,-0.779 -0.628,-1.526 -0.82,-2.395 -0.179,-0.673 -0.266,-1.221 -0.379,-1.766 -0.101,-0.547 -0.243,-1.09 -0.276,-1.798 -0.045,-0.798 -0.146,-1.425 -0.108,-2.216 0.005,-0.248 0.093,-0.856 0.068,-1.105 -0.018,-0.104 0.072,-0.896 0.036,-0.784 -0.036,0.11 -0.057,0.167 -0.079,0.309 -0.097,0.648 -0.196,1.128 -0.286,1.806 -0.063,0.7 0.145,1.346 0.216,2.015 0.05,0.659 0.125,1.212 0.216,1.842 0.033,0.166 0.097,0.329 0.154,0.412 0.103,0.173 0.046,0.122 0.102,0.417 0.056,0.389 0.182,0.655 0.274,1.056 0.165,0.603 0.244,0.891 0.529,1.929 0.123,0.533 0.241,1.073 0.488,1.528 0.193,0.368 0.375,0.581 0.58,0.869 0.141,0.203 0.25,0.481 0.385,0.733 0.026,0.05 0.065,0.082 0.104,0.13 C 0.66,1.05 0.514,0.919 0.336,0.542 0.311,0.491 0.248,0.463 0.223,0.429 0.372,0.722 0,0 0,0" />
                        </g>
                      </g>
                    </g>
                  </g>
                </g>
              </g>
            </g>
          </g>
        </g>
      </g>
      <g
         transform="matrix(0.35277777,0,0,-0.35277777,68.392158,351.53741)"
         id="g5664">
        <g
           id="g5666" />
        <g
           id="g5750">
          <g
             style="opacity:0.80000299"
             id="g5748"
             clip-path="url(#clipPath5670)">
            <g
               id="g5746">
              <g
                 id="g5692" />
              <g
                 id="g5744">
                <g
                   style="opacity:0.80000299"
                   id="g5742"
                   clip-path="url(#clipPath5674)">
                  <g
                     id="g5704">
                    <g
                       id="g5694" />
                    <g
                       id="g5702">
                      <g
                         style="opacity:0.80000299"
                         id="g5700"
                         clip-path="url(#clipPath5678)">
                        <g
                           id="g5698"
                           transform="translate(45.0776,623.3428)">
                          <path
                             inkscape:connector-curvature="0"
                             id="path5696"
                             style="fill:#2e2a2b;fill-opacity:1;fill-rule:nonzero;stroke:none"
                             d="m 0,0 c -0.148,-0.474 -0.236,-0.908 -0.368,-1.386 -0.02,-0.069 -0.052,-0.136 -0.085,-0.205 -0.054,-0.102 -0.113,-0.154 -0.156,-0.24 -0.348,-0.751 -0.572,-1.586 -0.775,-2.418 -0.117,-0.663 -0.252,-1.299 -0.387,-1.938 -0.108,-0.644 -0.163,-1.297 -0.224,-1.975 -0.101,-0.767 0.031,-1.504 0.042,-2.261 0.005,-0.237 0.005,-0.453 -0.021,-0.695 -0.02,-0.1 -0.069,-0.257 -0.109,-0.15 -0.036,0.107 -0.07,0.25 -0.092,0.388 -0.096,0.63 -0.211,1.166 -0.301,1.826 -0.093,0.683 0.135,1.276 0.199,1.928 0.054,0.641 0.095,1.185 0.202,1.796 0.034,0.161 0.098,0.319 0.155,0.399 0.103,0.168 0.14,0.094 0.196,0.38 0.054,0.376 0.089,0.704 0.192,1.092 0.165,0.583 0.242,0.853 0.532,1.875 0.131,0.515 0.24,1.044 0.493,1.481 0.195,0.355 0.384,0.556 0.584,0.835 0.142,0.195 0.257,0.46 0.39,0.704 C 0.494,1.484 0.533,1.514 0.572,1.56 0.518,1.245 0.363,0.813 0.188,0.452 0.165,0.402 0.141,0.386 0.116,0.353 0.057,0.236 0.035,0.118 0,0" />
                        </g>
                      </g>
                    </g>
                  </g>
                  <g
                     id="g5716">
                    <g
                       id="g5706" />
                    <g
                       id="g5714">
                      <g
                         style="opacity:0.80000299"
                         id="g5712"
                         clip-path="url(#clipPath5682)">
                        <g
                           id="g5710"
                           transform="translate(45.0708,623.4453)">
                          <path
                             inkscape:connector-curvature="0"
                             id="path5708"
                             style="fill:#7b7979;fill-opacity:1;fill-rule:nonzero;stroke:none"
                             d="m 0,0 c -0.145,-0.477 -0.243,-0.907 -0.374,-1.387 -0.02,-0.069 -0.052,-0.136 -0.084,-0.205 -0.054,-0.102 -0.113,-0.154 -0.156,-0.24 -0.362,-0.748 -0.57,-1.588 -0.787,-2.418 -0.135,-0.682 -0.253,-1.283 -0.38,-1.926 -0.124,-0.634 -0.162,-1.282 -0.227,-1.96 -0.099,-0.769 0.006,-1.506 0.029,-2.264 0.004,-0.238 0.004,-0.455 -0.021,-0.697 -0.019,-0.1 -0.043,-0.378 -0.081,-0.271 -0.035,0.107 -0.069,0.249 -0.091,0.388 -0.097,0.629 -0.212,1.165 -0.302,1.826 -0.092,0.683 0.135,1.276 0.2,1.928 0.054,0.642 0.095,1.184 0.202,1.796 0.034,0.161 0.098,0.32 0.155,0.4 0.103,0.168 0.139,0.089 0.195,0.376 0.054,0.377 0.089,0.704 0.192,1.091 0.165,0.584 0.242,0.854 0.531,1.876 0.133,0.516 0.241,1.044 0.495,1.481 C -0.31,0.15 -0.121,0.351 0.08,0.63 0.221,0.825 0.337,1.09 0.469,1.334 0.496,1.382 0.535,1.412 0.575,1.458 0.519,1.144 0.371,0.812 0.188,0.453 0.165,0.402 0.141,0.387 0.117,0.354 0.057,0.237 0.035,0.118 0,0" />
                        </g>
                      </g>
                    </g>
                  </g>
                  <g
                     id="g5728">
                    <g
                       id="g5718" />
                    <g
                       id="g5726">
                      <g
                         style="opacity:0.80000299"
                         id="g5724"
                         clip-path="url(#clipPath5686)">
                        <g
                           id="g5722"
                           transform="translate(45.0493,623.6196)">
                          <path
                             inkscape:connector-curvature="0"
                             id="path5720"
                             style="fill:#a7a5a6;fill-opacity:1;fill-rule:nonzero;stroke:none"
                             d="m 0,0 c -0.13,-0.473 -0.3,-1.089 -0.383,-1.389 -0.02,-0.069 -0.052,-0.137 -0.084,-0.205 -0.055,-0.103 -0.114,-0.155 -0.157,-0.24 -0.366,-0.749 -0.597,-1.486 -0.811,-2.322 -0.262,-1.325 -0.54,-2.436 -0.612,-3.805 -0.027,-0.387 -0.062,-0.764 -0.065,-1.14 0.019,-0.373 0.039,-0.768 0.058,-1.134 0.005,-0.239 0.034,-0.579 0.009,-0.821 -0.018,-0.101 -0.016,-0.502 -0.051,-0.395 -0.036,0.107 -0.07,0.251 -0.092,0.389 -0.097,0.631 -0.212,1.168 -0.302,1.831 -0.072,0.683 0.141,1.277 0.21,1.93 0.052,0.642 0.111,1.184 0.211,1.798 0.034,0.161 0.098,0.319 0.154,0.399 0.104,0.168 0.126,0.057 0.182,0.343 0.054,0.378 0.097,0.704 0.197,1.093 0.166,0.584 0.244,0.854 0.536,1.876 0.13,0.518 0.244,1.046 0.497,1.483 0.196,0.356 0.382,0.559 0.587,0.836 C 0.227,0.722 0.34,0.989 0.476,1.232 0.503,1.28 0.542,1.31 0.582,1.356 0.523,1.041 0.378,0.812 0.194,0.451 0.168,0.402 0.143,0.387 0.118,0.354 0.057,0.238 0.035,0.118 0,0" />
                        </g>
                      </g>
                    </g>
                  </g>
                  <g
                     id="g5740">
                    <g
                       id="g5730" />
                    <g
                       id="g5738">
                      <g
                         style="opacity:0.80000299"
                         id="g5736"
                         clip-path="url(#clipPath5690)">
                        <g
                           id="g5734"
                           transform="translate(44.915,623.6836)">
                          <path
                             inkscape:connector-curvature="0"
                             id="path5732"
                             style="fill:#d3d2d2;fill-opacity:1;fill-rule:nonzero;stroke:none"
                             d="m 0,0 c -0.108,-0.379 -0.076,-0.526 -0.262,-1.113 -0.02,-0.069 -0.053,-0.137 -0.085,-0.205 -0.055,-0.103 -0.113,-0.156 -0.157,-0.242 -0.362,-0.751 -0.633,-1.479 -0.831,-2.323 -0.185,-0.655 -0.262,-1.191 -0.381,-1.72 -0.107,-0.532 -0.239,-1.063 -0.273,-1.752 -0.043,-0.779 -0.152,-1.39 -0.105,-2.161 0.005,-0.241 0.092,-0.835 0.067,-1.077 -0.018,-0.102 0.071,-0.873 0.036,-0.765 -0.036,0.108 -0.057,0.163 -0.079,0.302 -0.097,0.632 -0.196,1.099 -0.285,1.761 -0.073,0.683 0.144,1.312 0.213,1.965 0.051,0.643 0.116,1.183 0.213,1.797 0.034,0.161 0.098,0.32 0.155,0.4 0.104,0.168 0.047,0.119 0.103,0.406 0.054,0.379 0.179,0.639 0.275,1.028 0.167,0.583 0.244,0.854 0.537,1.876 0.129,0.518 0.247,1.045 0.499,1.483 0.197,0.355 0.381,0.558 0.588,0.834 C 0.372,0.688 0.483,0.957 0.621,1.199 0.648,1.247 0.687,1.277 0.727,1.323 0.67,1.007 0.523,0.883 0.341,0.521 0.315,0.471 0.252,0.446 0.227,0.414 0.305,0.553 0.245,0.452 0.166,0.314 0.091,0.173 0,0 0,0" />
                        </g>
                      </g>
                    </g>
                  </g>
                </g>
              </g>
            </g>
          </g>
        </g>
      </g>
      <g
         transform="matrix(0.35277777,0,0,-0.35277777,68.392158,351.53741)"
         id="g5752">
        <g
           id="g5754" />
        <g
           id="g5838">
          <g
             style="opacity:0.80000299"
             id="g5836"
             clip-path="url(#clipPath5758)">
            <g
               id="g5834">
              <g
                 id="g5780" />
              <g
                 id="g5832">
                <g
                   style="opacity:0.80000299"
                   id="g5830"
                   clip-path="url(#clipPath5762)">
                  <g
                     id="g5792">
                    <g
                       id="g5782" />
                    <g
                       id="g5790">
                      <g
                         style="opacity:0.80000299"
                         id="g5788"
                         clip-path="url(#clipPath5766)">
                        <g
                           id="g5786"
                           transform="translate(46.3896,622.6602)">
                          <path
                             inkscape:connector-curvature="0"
                             id="path5784"
                             style="fill:#2e2a2b;fill-opacity:1;fill-rule:nonzero;stroke:none"
                             d="m 0,0 c -0.162,-0.418 -0.241,-0.815 -0.386,-1.238 -0.021,-0.061 -0.053,-0.12 -0.087,-0.18 -0.056,-0.09 -0.114,-0.133 -0.159,-0.207 -0.318,-0.674 -0.596,-1.41 -0.755,-2.171 -0.132,-0.611 -0.248,-1.153 -0.376,-1.751 -0.076,-0.586 -0.151,-1.176 -0.203,-1.791 -0.061,-0.697 0.046,-1.366 0.064,-2.052 0.005,-0.215 0.005,-0.411 -0.021,-0.631 -0.019,-0.091 -0.07,-0.233 -0.109,-0.136 -0.036,0.096 -0.07,0.226 -0.092,0.351 -0.097,0.571 -0.211,1.057 -0.301,1.657 -0.126,0.623 0.115,1.161 0.174,1.753 0.068,0.581 0.056,1.083 0.174,1.636 0.034,0.146 0.098,0.289 0.155,0.36 0.103,0.15 0.14,0.082 0.196,0.34 0.067,0.338 0.059,0.648 0.175,0.994 0.195,0.585 0.355,1.102 0.535,1.691 0.142,0.463 0.258,0.943 0.513,1.327 0.202,0.31 0.399,0.475 0.598,0.714 C 0.242,0.83 0.367,1.061 0.505,1.27 0.534,1.311 0.573,1.333 0.614,1.37 0.548,1.086 0.375,0.712 0.198,0.395 0.173,0.352 0.149,0.34 0.125,0.312 0.063,0.211 0.038,0.104 0,0" />
                        </g>
                      </g>
                    </g>
                  </g>
                  <g
                     id="g5804">
                    <g
                       id="g5794" />
                    <g
                       id="g5802">
                      <g
                         style="opacity:0.80000299"
                         id="g5800"
                         clip-path="url(#clipPath5770)">
                        <g
                           id="g5798"
                           transform="translate(46.3862,622.7544)">
                          <path
                             inkscape:connector-curvature="0"
                             id="path5796"
                             style="fill:#7b7979;fill-opacity:1;fill-rule:nonzero;stroke:none"
                             d="m 0,0 c -0.162,-0.42 -0.251,-0.812 -0.393,-1.239 -0.021,-0.061 -0.053,-0.12 -0.086,-0.18 -0.056,-0.09 -0.115,-0.133 -0.16,-0.208 -0.334,-0.669 -0.593,-1.413 -0.77,-2.17 -0.116,-0.6 -0.247,-1.168 -0.378,-1.739 -0.073,-0.581 -0.144,-1.164 -0.196,-1.78 -0.087,-0.697 0.038,-1.368 0.051,-2.055 0.005,-0.216 0.004,-0.412 -0.021,-0.632 -0.018,-0.091 -0.043,-0.344 -0.08,-0.247 -0.036,0.097 -0.07,0.227 -0.092,0.352 -0.097,0.57 -0.211,1.057 -0.301,1.657 -0.126,0.623 0.116,1.161 0.174,1.754 0.068,0.58 0.057,1.082 0.175,1.635 0.034,0.146 0.098,0.29 0.155,0.361 0.103,0.15 0.138,0.077 0.194,0.337 0.068,0.338 0.06,0.647 0.176,0.993 0.195,0.585 0.355,1.103 0.535,1.692 0.142,0.463 0.258,0.943 0.513,1.327 0.202,0.31 0.399,0.475 0.598,0.714 0.147,0.164 0.271,0.395 0.41,0.605 C 0.533,1.217 0.572,1.24 0.613,1.276 0.546,0.995 0.384,0.709 0.198,0.396 0.174,0.353 0.149,0.341 0.125,0.313 0.063,0.211 0.038,0.105 0,0" />
                        </g>
                      </g>
                    </g>
                  </g>
                  <g
                     id="g5816">
                    <g
                       id="g5806" />
                    <g
                       id="g5814">
                      <g
                         style="opacity:0.80000299"
                         id="g5812"
                         clip-path="url(#clipPath5774)">
                        <g
                           id="g5810"
                           transform="translate(46.3696,622.9165)">
                          <path
                             inkscape:connector-curvature="0"
                             id="path5808"
                             style="fill:#a7a5a6;fill-opacity:1;fill-rule:nonzero;stroke:none"
                             d="m 0,0 c -0.158,-0.425 -0.266,-0.811 -0.403,-1.242 -0.021,-0.061 -0.055,-0.12 -0.088,-0.18 -0.055,-0.09 -0.114,-0.133 -0.159,-0.208 -0.363,-0.662 -0.593,-1.327 -0.814,-2.078 -0.132,-0.63 -0.243,-1.159 -0.358,-1.709 -0.117,-0.555 -0.141,-1.127 -0.205,-1.744 -0.092,-0.7 -0.02,-1.372 0.016,-2.064 0.005,-0.217 0.033,-0.525 0.009,-0.746 -0.018,-0.091 -0.016,-0.455 -0.052,-0.358 -0.036,0.097 -0.07,0.227 -0.092,0.352 -0.097,0.573 -0.211,1.061 -0.301,1.662 -0.113,0.624 0.126,1.162 0.184,1.756 0.061,0.582 0.068,1.083 0.183,1.638 0.035,0.146 0.099,0.289 0.156,0.36 0.103,0.15 0.125,0.048 0.181,0.308 0.064,0.339 0.065,0.647 0.18,0.994 0.165,0.517 0.232,0.727 0.541,1.694 0.144,0.463 0.255,0.946 0.517,1.328 0.204,0.311 0.397,0.478 0.602,0.715 C 0.245,0.642 0.367,0.875 0.51,1.083 0.539,1.124 0.578,1.146 0.619,1.184 0.546,0.902 0.398,0.707 0.202,0.396 0.174,0.354 0.15,0.342 0.126,0.314 0.064,0.212 0.038,0.105 0,0" />
                        </g>
                      </g>
                    </g>
                  </g>
                  <g
                     id="g5828">
                    <g
                       id="g5818" />
                    <g
                       id="g5826">
                      <g
                         style="opacity:0.80000299"
                         id="g5824"
                         clip-path="url(#clipPath5778)">
                        <g
                           id="g5822"
                           transform="translate(46.2402,622.9883)">
                          <path
                             inkscape:connector-curvature="0"
                             id="path5820"
                             style="fill:#d3d2d2;fill-opacity:1;fill-rule:nonzero;stroke:none"
                             d="m 0,0 c -0.114,-0.34 -0.101,-0.472 -0.281,-1.001 -0.021,-0.061 -0.054,-0.121 -0.088,-0.182 -0.056,-0.089 -0.115,-0.133 -0.16,-0.208 -0.378,-0.66 -0.622,-1.323 -0.839,-2.08 -0.165,-0.595 -0.242,-1.082 -0.363,-1.56 -0.054,-0.247 -0.107,-0.489 -0.162,-0.74 -0.024,-0.252 -0.051,-0.514 -0.084,-0.853 -0.044,-0.707 -0.148,-1.261 -0.08,-1.962 0.005,-0.22 0.093,-0.758 0.067,-0.978 -0.017,-0.093 0.072,-0.792 0.036,-0.695 -0.036,0.098 -0.056,0.148 -0.079,0.274 -0.097,0.573 -0.195,0.997 -0.285,1.598 -0.113,0.624 0.129,1.194 0.188,1.788 0.058,0.583 0.071,1.082 0.186,1.637 0.034,0.147 0.098,0.289 0.155,0.361 0.103,0.15 0.047,0.107 0.103,0.368 0.061,0.342 0.145,0.585 0.258,0.932 0.166,0.517 0.233,0.727 0.543,1.694 0.145,0.462 0.253,0.947 0.519,1.327 0.205,0.311 0.395,0.479 0.603,0.714 C 0.386,0.597 0.506,0.832 0.651,1.038 0.681,1.079 0.72,1.101 0.76,1.139 0.689,0.856 0.543,0.759 0.349,0.446 0.321,0.403 0.259,0.387 0.232,0.36 0.39,0.604 0,0 0,0" />
                        </g>
                      </g>
                    </g>
                  </g>
                </g>
              </g>
            </g>
          </g>
        </g>
      </g>
      <g
         transform="matrix(0.35277777,0,0,-0.35277777,85.921156,133.21172)"
         id="g5840">
        <path
           inkscape:connector-curvature="0"
           id="path5842"
           style="fill:none;stroke:#231f20;stroke-width:0.75;stroke-linecap:butt;stroke-linejoin:miter;stroke-miterlimit:4;stroke-dasharray:none;stroke-opacity:1"
           d="m 0,0 c 0,-3.764 -3.051,-6.814 -6.814,-6.814 -3.764,0 -6.815,3.05 -6.815,6.814 0,3.764 3.051,6.814 6.815,6.814 C -3.051,6.814 0,3.764 0,0 Z" />
      </g>
      <g
         transform="matrix(0.35277777,0,0,-0.35277777,82.948898,135.5482)"
         id="g5844">
        <path
           inkscape:connector-curvature="0"
           id="path5846"
           style="fill:#231f20;fill-opacity:1;fill-rule:nonzero;stroke:none"
           d="m 0,0 c -2.986,0.724 -5.204,3.415 -5.204,6.623 0,3.764 3.051,6.815 6.815,6.815 0.221,0 0.439,-0.011 0.654,-0.032 C 2.509,13.383 1.109,9.403 0.467,6.719 -0.102,4.34 0,0 0,0" />
      </g>
      <g
         transform="matrix(0.35277777,0,0,-0.35277777,82.948898,135.5482)"
         id="g5848">
        <path
           inkscape:connector-curvature="0"
           id="path5850"
           style="fill:none;stroke:#231f20;stroke-width:0.75;stroke-linecap:butt;stroke-linejoin:miter;stroke-miterlimit:4;stroke-dasharray:none;stroke-opacity:1"
           d="m 0,0 c -2.986,0.724 -5.204,3.415 -5.204,6.623 0,3.764 3.051,6.815 6.815,6.815 0.221,0 0.439,-0.011 0.654,-0.032 C 2.509,13.383 1.109,9.403 0.467,6.719 -0.102,4.34 0,0 0,0 Z" />
      </g>
    </g>
  </g>
</svg>
