<?xml version="1.0" encoding="UTF-8" standalone="no"?>
<!-- Created with Inkscape (http://www.inkscape.org/) -->

<svg
   xmlns:dc="http://purl.org/dc/elements/1.1/"
   xmlns:cc="http://creativecommons.org/ns#"
   xmlns:rdf="http://www.w3.org/1999/02/22-rdf-syntax-ns#"
   xmlns:svg="http://www.w3.org/2000/svg"
   xmlns="http://www.w3.org/2000/svg"
   xmlns:sodipodi="http://sodipodi.sourceforge.net/DTD/sodipodi-0.dtd"
   xmlns:inkscape="http://www.inkscape.org/namespaces/inkscape"
   width="79.375mm"
   height="79.369484mm"
   viewBox="0 0 79.375 79.369484"
   version="1.1"
   id="svg8"
   inkscape:version="0.92.4 (unknown)"
   sodipodi:docname="topography_mountain.svg">
  <defs
     id="defs2" />
  <sodipodi:namedview
     id="base"
     pagecolor="#ffffff"
     bordercolor="#666666"
     borderopacity="1.0"
     inkscape:pageopacity="0.0"
     inkscape:pageshadow="2"
     inkscape:zoom="0.35"
     inkscape:cx="205.90104"
     inkscape:cy="237.95232"
     inkscape:document-units="mm"
     inkscape:current-layer="layer1"
     showgrid="false"
     fit-margin-top="0"
     fit-margin-left="0"
     fit-margin-right="0"
     fit-margin-bottom="0"
     inkscape:window-width="959"
     inkscape:window-height="1023"
     inkscape:window-x="0"
     inkscape:window-y="0"
     inkscape:window-maximized="0" />
  <metadata
     id="metadata5">
    <rdf:RDF>
      <cc:Work
         rdf:about="">
        <dc:format>image/svg+xml</dc:format>
        <dc:type
           rdf:resource="http://purl.org/dc/dcmitype/StillImage" />
        <dc:title></dc:title>
      </cc:Work>
    </rdf:RDF>
  </metadata>
  <g
     inkscape:label="Layer 1"
     inkscape:groupmode="layer"
     id="layer1"
     transform="translate(-82.067486,-49.763609)">
    <g
       id="g6168"
       transform="matrix(5.5202031,0,0,-5.5202031,159.37241,89.448349)">
      <path
         d="m 0,0 c 0,-3.764 -3.051,-6.814 -6.814,-6.814 -3.764,0 -6.815,3.05 -6.815,6.814 0,3.764 3.051,6.814 6.815,6.814 C -3.051,6.814 0,3.764 0,0"
         style="fill:#ffffff;fill-opacity:1;fill-rule:nonzero;stroke:none"
         id="path6170"
         inkscape:connector-curvature="0" />
    </g>
    <g
       id="g6172"
       transform="matrix(5.5202031,0,0,-5.5202031,159.37241,89.448349)">
      <path
         d="m 0,0 c 0,-3.764 -3.051,-6.814 -6.814,-6.814 -3.764,0 -6.815,3.05 -6.815,6.814 0,3.764 3.051,6.814 6.815,6.814 C -3.051,6.814 0,3.764 0,0 Z"
         style="fill:none;stroke:#231f20;stroke-width:0.75;stroke-linecap:butt;stroke-linejoin:miter;stroke-miterlimit:4;stroke-dasharray:none;stroke-opacity:1"
         id="path6174"
         inkscape:connector-curvature="0" />
    </g>
    <g
       id="g6176"
       transform="matrix(5.5202031,0,0,-5.5202031,130.669,73.537333)">
      <path
         d="M 0,0 C 0.26,0.015 0.491,-0.653 0.909,-0.504 1.412,-0.326 1.611,-0.11 1.611,-0.11 2.559,-0.864 4.105,-2.422 5.2,-2.691 5.2,-3.229 5.123,-3.722 5.123,-3.722 5.06,-4.264 4.902,-4.878 4.902,-4.878 4.049,-7.668 1.454,-9.697 -1.615,-9.697 c -2.546,0 -4.766,1.396 -5.935,3.464 0,0 2.739,4.342 3.01,5.98 0,0 0.505,-0.595 0.739,-0.595 0.496,0 1.78,3.069 1.989,3.775 0,0 0.399,-1.009 0.937,-1.447 0,0 0.67,-1.492 0.875,-1.48"
         style="fill:#231f20;fill-opacity:1;fill-rule:nonzero;stroke:none"
         id="path6178"
         inkscape:connector-curvature="0" />
    </g>
  </g>
</svg>
