<?xml version="1.0" encoding="UTF-8" standalone="no"?>
<!-- Created with Inkscape (http://www.inkscape.org/) -->

<svg
   xmlns:dc="http://purl.org/dc/elements/1.1/"
   xmlns:cc="http://creativecommons.org/ns#"
   xmlns:rdf="http://www.w3.org/1999/02/22-rdf-syntax-ns#"
   xmlns:svg="http://www.w3.org/2000/svg"
   xmlns="http://www.w3.org/2000/svg"
   xmlns:sodipodi="http://sodipodi.sourceforge.net/DTD/sodipodi-0.dtd"
   xmlns:inkscape="http://www.inkscape.org/namespaces/inkscape"
   width="5.5119324mm"
   height="5.5146232mm"
   viewBox="0 0 5.5119324 5.5146232"
   version="1.1"
   id="svg8"
   inkscape:version="0.92.4 (unknown)"
   sodipodi:docname="tree_oak.svg">
  <defs
     id="defs2" />
  <sodipodi:namedview
     id="base"
     pagecolor="#ffffff"
     bordercolor="#666666"
     borderopacity="1.0"
     inkscape:pageopacity="0.0"
     inkscape:pageshadow="2"
     inkscape:zoom="11.2"
     inkscape:cx="2.6111953"
     inkscape:cy="8.2699686"
     inkscape:document-units="mm"
     inkscape:current-layer="layer1"
     showgrid="false"
     fit-margin-top="0"
     fit-margin-left="0"
     fit-margin-right="0"
     fit-margin-bottom="0"
     inkscape:window-width="1920"
     inkscape:window-height="1023"
     inkscape:window-x="0"
     inkscape:window-y="0"
     inkscape:window-maximized="1" />
  <metadata
     id="metadata5">
    <rdf:RDF>
      <cc:Work
         rdf:about="">
        <dc:format>image/svg+xml</dc:format>
        <dc:type
           rdf:resource="http://purl.org/dc/dcmitype/StillImage" />
        <dc:title></dc:title>
      </cc:Work>
    </rdf:RDF>
  </metadata>
  <g
     inkscape:label="Layer 1"
     inkscape:groupmode="layer"
     id="layer1"
     transform="translate(-81.721712,-123.77543)">
    <path
       style="color:#000000;clip-rule:nonzero;display:inline;overflow:visible;visibility:visible;opacity:1;isolation:auto;mix-blend-mode:normal;color-interpolation:sRGB;color-interpolation-filters:linearRGB;solid-color:#000000;solid-opacity:1;fill:#000000;fill-opacity:1;fill-rule:nonzero;stroke:none;stroke-width:0.08159533;stroke-linecap:butt;stroke-linejoin:round;stroke-miterlimit:4;stroke-dasharray:none;stroke-dashoffset:0;stroke-opacity:1;color-rendering:auto;image-rendering:auto;shape-rendering:auto;text-rendering:auto;enable-background:accumulate"
       d="m 84.261414,124.29612 c -0.366068,-0.0754 -0.46443,0.36603 -0.732139,0.48506 -0.269811,0.22543 -0.710412,0.20296 -0.717083,0.65295 -0.255491,0.0798 -0.560904,0.33587 -0.618524,0.56884 0.04101,0.0365 0.02785,0.0811 0.06025,0.13009 0.160785,0.24311 0.238172,0.59121 -0.150962,0.54775 -0.3877,0.0789 -0.278983,0.6289 0.09928,0.59202 0.280756,0.14622 0.55859,0.26001 0.893395,0.23035 0.218877,0.17279 0.380825,0.58562 0.757425,0.37649 0.34523,-0.26356 0.494295,0.29502 0.285962,0.51767 -0.09136,0.071 -0.156715,0.14516 -0.141515,0.16839 0.01145,0.0175 0.08423,-0.006 0.138686,-0.013 0.03586,-0.005 0.096,0.0593 0.141392,0.0286 0.04486,0.0117 0.113645,-0.002 0.153574,0.008 0.04613,0.0115 0.06324,0.0452 0.113968,0.044 0.04927,-0.002 0.03476,-0.0671 0.08586,-0.0827 0.02968,-0.009 0.129272,0.0348 0.151662,0.0248 0.04288,-0.0193 0.218792,0.0331 0.206304,-0.0248 -0.0124,-0.0575 -0.25253,-0.0874 -0.303552,-0.14947 -0.0648,-0.0788 -0.09513,-0.1549 -0.101426,-0.23954 -0.0095,-0.12724 0.002,-0.25566 0.182354,-0.34312 0.269352,-0.30833 0.744537,-0.0787 1.118442,-0.17514 0.273634,0.13981 0.332484,-0.33475 0.60351,-0.15742 0.25903,0.0185 0.744102,0.0256 0.567916,-0.37342 0.04864,-0.28505 0.325505,-0.71056 -0.153831,-0.77194 -0.277216,0.0927 0.03274,-0.33127 -0.27727,-0.41037 -0.235276,-0.10608 -0.509665,-0.0721 -0.513796,-0.41558 0.04731,-0.19297 -0.09146,-0.40471 -0.277718,-0.55091 -0.01086,-0.35883 -0.417,-0.34661 -0.667847,-0.37852 -0.09817,-0.37512 -0.481781,0.0117 -0.660258,-0.2462 -0.07781,-0.0293 -0.161107,-0.0426 -0.244061,-0.0432 z"
       id="path906"
       inkscape:connector-curvature="0"
       sodipodi:nodetypes="ccccscccccsscsssssssccccccccccc" />
  </g>
</svg>
