<?xml version="1.0" encoding="UTF-8" standalone="no"?>
<!-- Created with Inkscape (http://www.inkscape.org/) -->

<svg
   xmlns:dc="http://purl.org/dc/elements/1.1/"
   xmlns:cc="http://creativecommons.org/ns#"
   xmlns:rdf="http://www.w3.org/1999/02/22-rdf-syntax-ns#"
   xmlns:svg="http://www.w3.org/2000/svg"
   xmlns="http://www.w3.org/2000/svg"
   xmlns:sodipodi="http://sodipodi.sourceforge.net/DTD/sodipodi-0.dtd"
   xmlns:inkscape="http://www.inkscape.org/namespaces/inkscape"
   width="300"
   height="300"
   viewBox="0 0 79.375 79.375"
   version="1.1"
   id="svg8"
   inkscape:version="0.92.4 (unknown)"
   sodipodi:docname="water_fountain.svg">
  <defs
     id="defs2">
    <clipPath
       clipPathUnits="userSpaceOnUse"
       id="clipPath6042">
      <path
         d="m 62.3145,619.755 h 5.1694 v -7.357 h -5.1694 z"
         id="path6040"
         inkscape:connector-curvature="0" />
    </clipPath>
    <clipPath
       clipPathUnits="userSpaceOnUse"
       id="clipPath6046">
      <path
         d="m 62.3145,619.755 h 5.1694 v -7.357 h -5.1694 z"
         id="path6044"
         inkscape:connector-curvature="0" />
    </clipPath>
    <clipPath
       clipPathUnits="userSpaceOnUse"
       id="clipPath6050">
      <path
         d="m 62.3208,619.678 h 5.1631 v -7.28 h -5.1631 z"
         id="path6048"
         inkscape:connector-curvature="0" />
    </clipPath>
    <clipPath
       clipPathUnits="userSpaceOnUse"
       id="clipPath6054">
      <path
         d="m 62.3174,619.677 h 5.1597 v -7.26 h -5.1597 z"
         id="path6052"
         inkscape:connector-curvature="0" />
    </clipPath>
    <clipPath
       clipPathUnits="userSpaceOnUse"
       id="clipPath6058">
      <path
         d="m 62.3145,619.73 h 5.1264 v -7.224 h -5.1264 z"
         id="path6056"
         inkscape:connector-curvature="0" />
    </clipPath>
    <clipPath
       clipPathUnits="userSpaceOnUse"
       id="clipPath6062">
      <path
         d="m 62.3394,619.755 h 5.102 v -7.117 h -5.102 z"
         id="path6060"
         inkscape:connector-curvature="0" />
    </clipPath>
    <clipPath
       clipPathUnits="userSpaceOnUse"
       id="clipPath5954">
      <path
         d="m 59.7686,621.806 h 7.0942 v -9.829 h -7.0942 z"
         id="path5952"
         inkscape:connector-curvature="0" />
    </clipPath>
    <clipPath
       clipPathUnits="userSpaceOnUse"
       id="clipPath5958">
      <path
         d="m 59.7686,621.806 h 7.0942 v -9.829 h -7.0942 z"
         id="path5956"
         inkscape:connector-curvature="0" />
    </clipPath>
    <clipPath
       clipPathUnits="userSpaceOnUse"
       id="clipPath5962">
      <path
         d="m 59.8159,621.631 h 7.0469 v -9.654 h -7.0469 z"
         id="path5960"
         inkscape:connector-curvature="0" />
    </clipPath>
    <clipPath
       clipPathUnits="userSpaceOnUse"
       id="clipPath5966">
      <path
         d="m 59.8115,621.629 h 7.0464 v -9.623 h -7.0464 z"
         id="path5964"
         inkscape:connector-curvature="0" />
    </clipPath>
    <clipPath
       clipPathUnits="userSpaceOnUse"
       id="clipPath5970">
      <path
         d="m 59.772,621.737 h 7.0581 v -9.558 H 59.772 Z"
         id="path5968"
         inkscape:connector-curvature="0" />
    </clipPath>
    <clipPath
       clipPathUnits="userSpaceOnUse"
       id="clipPath5974">
      <path
         d="m 59.7686,621.806 h 7.0668 v -9.347 h -7.0668 z"
         id="path5972"
         inkscape:connector-curvature="0" />
    </clipPath>
    <clipPath
       clipPathUnits="userSpaceOnUse"
       id="clipPath5866">
      <path
         d="m 59.0522,622.716 h 7.2862 v -10.767 h -7.2862 z"
         id="path5864"
         inkscape:connector-curvature="0" />
    </clipPath>
    <clipPath
       clipPathUnits="userSpaceOnUse"
       id="clipPath5870">
      <path
         d="m 59.0522,622.716 h 7.2862 v -10.767 h -7.2862 z"
         id="path5868"
         inkscape:connector-curvature="0" />
    </clipPath>
    <clipPath
       clipPathUnits="userSpaceOnUse"
       id="clipPath5874">
      <path
         d="m 59.1006,622.548 h 7.2378 v -10.599 h -7.2378 z"
         id="path5872"
         inkscape:connector-curvature="0" />
    </clipPath>
    <clipPath
       clipPathUnits="userSpaceOnUse"
       id="clipPath5878">
      <path
         d="m 59.0957,622.546 h 7.2368 V 611.98 h -7.2368 z"
         id="path5876"
         inkscape:connector-curvature="0" />
    </clipPath>
    <clipPath
       clipPathUnits="userSpaceOnUse"
       id="clipPath5882">
      <path
         d="m 59.0576,622.658 h 7.2432 v -10.491 h -7.2432 z"
         id="path5880"
         inkscape:connector-curvature="0" />
    </clipPath>
    <clipPath
       clipPathUnits="userSpaceOnUse"
       id="clipPath5886">
      <path
         d="m 59.0522,622.716 h 7.253 v -10.253 h -7.253 z"
         id="path5884"
         inkscape:connector-curvature="0" />
    </clipPath>
    <clipPath
       clipPathUnits="userSpaceOnUse"
       id="clipPath5758">
      <path
         d="m 43.8926,624.127 h 3.1108 V 612.47 h -3.1108 z"
         id="path5756"
         inkscape:connector-curvature="0" />
    </clipPath>
    <clipPath
       clipPathUnits="userSpaceOnUse"
       id="clipPath5762">
      <path
         d="m 43.8926,624.127 h 3.1108 V 612.47 h -3.1108 z"
         id="path5760"
         inkscape:connector-curvature="0" />
    </clipPath>
    <clipPath
       clipPathUnits="userSpaceOnUse"
       id="clipPath5766">
      <path
         d="m 43.9287,624.03 h 3.0747 v -11.56 h -3.0747 z"
         id="path5764"
         inkscape:connector-curvature="0" />
    </clipPath>
    <clipPath
       clipPathUnits="userSpaceOnUse"
       id="clipPath5770">
      <path
         d="M 43.9243,624.031 H 46.999 V 612.483 H 43.9243 Z"
         id="path5768"
         inkscape:connector-curvature="0" />
    </clipPath>
    <clipPath
       clipPathUnits="userSpaceOnUse"
       id="clipPath5774">
      <path
         d="m 43.8926,624.1 h 3.0957 v -11.529 h -3.0957 z"
         id="path5772"
         inkscape:connector-curvature="0" />
    </clipPath>
    <clipPath
       clipPathUnits="userSpaceOnUse"
       id="clipPath5778">
      <path
         d="m 43.8931,624.127 h 3.1074 V 612.72 h -3.1074 z"
         id="path5776"
         inkscape:connector-curvature="0" />
    </clipPath>
    <clipPath
       clipPathUnits="userSpaceOnUse"
       id="clipPath5670">
      <path
         d="m 42.5449,625.007 h 3.105 v -12.968 h -3.105 z"
         id="path5668"
         inkscape:connector-curvature="0" />
    </clipPath>
    <clipPath
       clipPathUnits="userSpaceOnUse"
       id="clipPath5674">
      <path
         d="m 42.5449,625.007 h 3.105 v -12.968 h -3.105 z"
         id="path5672"
         inkscape:connector-curvature="0" />
    </clipPath>
    <clipPath
       clipPathUnits="userSpaceOnUse"
       id="clipPath5678">
      <path
         d="m 42.5796,624.903 h 3.0703 v -12.864 h -3.0703 z"
         id="path5676"
         inkscape:connector-curvature="0" />
    </clipPath>
    <clipPath
       clipPathUnits="userSpaceOnUse"
       id="clipPath5682">
      <path
         d="m 42.5757,624.903 h 3.0698 v -12.85 h -3.0698 z"
         id="path5680"
         inkscape:connector-curvature="0" />
    </clipPath>
    <clipPath
       clipPathUnits="userSpaceOnUse"
       id="clipPath5686">
      <path
         d="m 42.5449,624.976 h 3.086 V 612.15 h -3.086 z"
         id="path5684"
         inkscape:connector-curvature="0" />
    </clipPath>
    <clipPath
       clipPathUnits="userSpaceOnUse"
       id="clipPath5690">
      <path
         d="m 42.5449,625.007 h 3.0972 v -12.692 h -3.0972 z"
         id="path5688"
         inkscape:connector-curvature="0" />
    </clipPath>
    <clipPath
       clipPathUnits="userSpaceOnUse"
       id="clipPath5582">
      <path
         d="m 41.7368,625.379 h 3.0698 v -13.341 h -3.0698 z"
         id="path5580"
         inkscape:connector-curvature="0" />
    </clipPath>
    <clipPath
       clipPathUnits="userSpaceOnUse"
       id="clipPath5586">
      <path
         d="m 41.7368,625.379 h 3.0698 v -13.341 h -3.0698 z"
         id="path5584"
         inkscape:connector-curvature="0" />
    </clipPath>
    <clipPath
       clipPathUnits="userSpaceOnUse"
       id="clipPath5590">
      <path
         d="m 41.772,625.274 h 3.0346 V 612.038 H 41.772 Z"
         id="path5588"
         inkscape:connector-curvature="0" />
    </clipPath>
    <clipPath
       clipPathUnits="userSpaceOnUse"
       id="clipPath5594">
      <path
         d="m 41.7681,625.274 h 3.0341 v -13.222 h -3.0341 z"
         id="path5592"
         inkscape:connector-curvature="0" />
    </clipPath>
    <clipPath
       clipPathUnits="userSpaceOnUse"
       id="clipPath5598">
      <path
         d="m 41.7368,625.348 h 3.0493 v -13.195 h -3.0493 z"
         id="path5596"
         inkscape:connector-curvature="0" />
    </clipPath>
    <clipPath
       clipPathUnits="userSpaceOnUse"
       id="clipPath5602">
      <path
         d="m 41.7368,625.379 h 3.0601 v -13.057 h -3.0601 z"
         id="path5600"
         inkscape:connector-curvature="0" />
    </clipPath>
    <clipPath
       clipPathUnits="userSpaceOnUse"
       id="clipPath21616">
      <path
         d="m 74.2773,261.091 h 3.6387 v -9.258 h -3.6387 z"
         id="path21614"
         inkscape:connector-curvature="0" />
    </clipPath>
    <clipPath
       clipPathUnits="userSpaceOnUse"
       id="clipPath21620">
      <path
         d="m 74.2773,261.091 h 3.6387 v -9.258 h -3.6387 z"
         id="path21618"
         inkscape:connector-curvature="0" />
    </clipPath>
    <clipPath
       clipPathUnits="userSpaceOnUse"
       id="clipPath21312">
      <path
         d="m 74.957,255.9 h 2.8501 v -3.843 H 74.957 Z"
         id="path21310"
         inkscape:connector-curvature="0" />
    </clipPath>
    <clipPath
       clipPathUnits="userSpaceOnUse"
       id="clipPath21316">
      <path
         d="m 74.957,255.9 h 2.8501 v -3.843 H 74.957 Z"
         id="path21314"
         inkscape:connector-curvature="0" />
    </clipPath>
    <clipPath
       clipPathUnits="userSpaceOnUse"
       id="clipPath21008">
      <path
         d="m 77.3525,257.184 h 3.1573 v -5.51 h -3.1573 z"
         id="path21006"
         inkscape:connector-curvature="0" />
    </clipPath>
    <clipPath
       clipPathUnits="userSpaceOnUse"
       id="clipPath21012">
      <path
         d="m 77.3525,257.184 h 3.1573 v -5.51 h -3.1573 z"
         id="path21010"
         inkscape:connector-curvature="0" />
    </clipPath>
    <clipPath
       clipPathUnits="userSpaceOnUse"
       id="clipPath20704">
      <path
         d="m 76.9756,259.93 h 3.3657 v -7.945 h -3.3657 z"
         id="path20702"
         inkscape:connector-curvature="0" />
    </clipPath>
    <clipPath
       clipPathUnits="userSpaceOnUse"
       id="clipPath20708">
      <path
         d="m 76.9756,259.93 h 3.3657 v -7.945 h -3.3657 z"
         id="path20706"
         inkscape:connector-curvature="0" />
    </clipPath>
  </defs>
  <sodipodi:namedview
     id="base"
     pagecolor="#ffffff"
     bordercolor="#666666"
     borderopacity="1.0"
     inkscape:pageopacity="0.0"
     inkscape:pageshadow="2"
     inkscape:zoom="0.7"
     inkscape:cx="141.50915"
     inkscape:cy="1.2302018"
     inkscape:document-units="mm"
     inkscape:current-layer="layer1"
     showgrid="false"
     fit-margin-top="0"
     fit-margin-left="0"
     fit-margin-right="0"
     fit-margin-bottom="0"
     inkscape:window-width="959"
     inkscape:window-height="1023"
     inkscape:window-x="0"
     inkscape:window-y="0"
     inkscape:window-maximized="0"
     units="px" />
  <metadata
     id="metadata5">
    <rdf:RDF>
      <cc:Work
         rdf:about="">
        <dc:format>image/svg+xml</dc:format>
        <dc:type
           rdf:resource="http://purl.org/dc/dcmitype/StillImage" />
        <dc:title></dc:title>
      </cc:Work>
    </rdf:RDF>
  </metadata>
  <g
     inkscape:label="Layer 1"
     inkscape:groupmode="layer"
     id="layer1"
     transform="translate(-81.721712,-49.915053)">
    <g
       id="g8153"
       transform="matrix(11.536621,0,0,11.536621,-850.27197,-1359.3393)">
      <path
         inkscape:connector-curvature="0"
         id="path8145"
         d="m 84.175384,126.87351 c -0.01174,-0.0306 0.02033,-0.0447 0.03779,-0.0167 0.0064,0.0103 0.0058,0.015 -0.003,0.0205 -0.01644,0.0105 -0.02991,0.009 -0.03484,-0.004 z m -0.02775,-0.0538 c -0.0129,-0.0129 0.0045,-0.0701 0.02128,-0.0701 0.0049,0 0.01292,0.009 0.01789,0.0198 0.0079,0.0173 0.0069,0.0221 -0.0076,0.0376 -0.01748,0.0186 -0.02331,0.0209 -0.03156,0.0127 z m -0.257393,-0.0281 c -0.0045,-0.0116 0.01628,-0.057 0.02609,-0.057 0.01132,0 0.03101,0.0273 0.03101,0.043 0,0.0239 -0.04874,0.0358 -0.05711,0.014 z m 0.408493,-0.026 c -0.01475,-0.0129 -0.038,-0.0238 -0.0578,-0.0272 -0.01948,-0.003 -0.0407,-0.0131 -0.05152,-0.024 -0.01668,-0.0167 -0.01812,-0.0232 -0.01547,-0.0701 0.0016,-0.0284 0.0045,-0.0532 0.0065,-0.0551 0.002,-0.002 0.02888,0.005 0.05986,0.014 0.03098,0.01 0.09249,0.0241 0.136686,0.0322 0.08991,0.0165 0.120331,0.0328 0.110595,0.0591 -0.0079,0.0214 -0.02042,0.0281 -0.03302,0.0176 -0.01252,-0.0104 -0.05089,0.007 -0.07684,0.0347 -0.0091,0.01 -0.02177,0.0177 -0.02817,0.0177 -0.0064,0 -0.01163,0.005 -0.01163,0.0113 0,0.0168 -0.01167,0.0137 -0.03917,-0.0103 z m -0.316334,-0.0435 c -0.01565,-0.0157 0.0063,-0.0589 0.02609,-0.0513 0.01752,0.007 0.02992,0.0374 0.01939,0.0479 -0.0092,0.009 -0.03754,0.0114 -0.04548,0.003 z m -0.132618,-0.0173 c -0.0097,-0.006 -0.0093,-0.0103 0.0033,-0.0316 l 0.01447,-0.0245 -0.02123,0.0167 c -0.025,0.0197 -0.04546,0.0106 -0.03704,-0.0163 0.0073,-0.0235 0.01937,-0.0279 0.03977,-0.0145 0.01685,0.011 0.01896,0.0109 0.02799,-10e-4 0.0084,-0.0114 0.0071,-0.0165 -0.0088,-0.0354 -0.01019,-0.0121 -0.01853,-0.0314 -0.01853,-0.0428 0,-0.0115 -0.0055,-0.0318 -0.01217,-0.0452 -0.01124,-0.0225 -0.01123,-0.0253 1.42e-4,-0.0367 0.0095,-0.009 0.01532,-0.0104 0.02531,-0.004 0.01721,0.0108 0.02126,0.0329 0.006,0.0329 -0.0065,0 -0.01182,0.005 -0.01182,0.0113 0,0.0119 0.01038,0.0135 0.03155,0.005 0.01192,-0.005 0.01195,-0.007 4.43e-4,-0.0305 -0.01092,-0.0225 -0.01142,-0.0384 -0.0044,-0.13895 0.0044,-0.0624 0.0076,-0.1283 0.0071,-0.14638 -8.67e-4,-0.0324 -0.0014,-0.033 -0.03685,-0.0444 l -0.03595,-0.0115 0.02046,-0.0214 c 0.024,-0.0251 0.03267,-0.0268 0.03267,-0.007 0,0.008 0.0035,0.0168 0.0078,0.0194 0.0051,0.003 0.0061,-0.002 0.0029,-0.0146 -0.0041,-0.0162 -0.0023,-0.0194 0.01063,-0.0194 0.01172,0 0.01639,-0.006 0.01917,-0.0244 0.0066,-0.044 0.03618,-0.25656 0.03993,-0.2873 0.0029,-0.024 4.56e-4,-0.0329 -0.01212,-0.0444 -0.01853,-0.0168 -0.02033,-0.0364 -0.0045,-0.0495 0.0062,-0.005 0.01126,-0.014 0.01126,-0.0197 0,-0.006 -0.0051,-0.0104 -0.01126,-0.0104 -0.01609,0 -0.01392,-0.013 0.0037,-0.0225 0.0083,-0.005 0.01514,-0.0155 0.01529,-0.0247 1.42e-4,-0.009 0.0051,-0.0251 0.011,-0.0354 0.0059,-0.0103 0.01059,-0.0323 0.01041,-0.0488 -1.7e-4,-0.0165 -0.0021,-0.0258 -0.0041,-0.0207 -0.0021,0.005 -0.0086,0.009 -0.01443,0.009 -0.0059,0 -0.0098,0.004 -0.0088,0.008 0.0031,0.0136 -0.02074,0.0244 -0.04202,0.019 -0.02602,-0.007 -0.02608,-0.0288 -1.42e-4,-0.0492 l 0.01979,-0.0156 h -0.01935 c -0.02734,0 -0.03243,-0.0136 -0.0085,-0.0227 0.01429,-0.005 0.02314,-0.005 0.03049,9.1e-4 0.01223,0.0101 0.01408,-0.001 0.0021,-0.0135 -0.0048,-0.005 -0.0071,-0.0274 -0.0056,-0.0541 0.0022,-0.0391 7.31e-4,-0.0459 -0.01011,-0.0459 -0.02778,3e-5 -0.0198,-0.0256 0.0081,-0.0261 0.006,-1.2e-4 0.01502,-0.0158 0.02105,-0.0365 0.0091,-0.031 0.01223,-0.0349 0.02195,-0.0268 0.02017,0.0168 0.03141,0.0473 0.04063,0.11029 0.0063,0.0432 0.01214,0.0617 0.01942,0.0617 0.0057,0 0.0104,-0.005 0.0104,-0.0105 0,-0.0209 -0.02399,-0.13623 -0.02986,-0.14353 -0.0033,-0.004 -0.006,-0.0163 -0.0059,-0.0271 5.7e-5,-0.0108 -0.0094,-0.0359 -0.02109,-0.0558 l -0.0212,-0.0362 -0.0058,0.0218 c -0.01025,0.0383 -0.05757,0.0617 -0.07982,0.0394 -0.01934,-0.0193 -0.0031,-0.12618 0.01917,-0.12618 0.0059,0 -0.0034,-0.0118 -0.02068,-0.0263 -0.0173,-0.0145 -0.0358,-0.0263 -0.0411,-0.0263 -0.0053,0 -0.01405,-0.005 -0.01944,-0.0118 -0.0106,-0.0128 -0.05205,-0.0353 -0.08198,-0.0446 -0.01795,-0.006 -0.01775,-0.005 0.0056,0.0218 0.01332,0.0152 0.02423,0.0309 0.02423,0.0348 0,0.004 0.0051,0.007 0.01126,0.007 0.01498,0 0.01441,0.0122 -8.68e-4,0.0181 -0.01001,0.004 -0.01044,0.007 -0.0025,0.0162 0.008,0.01 0.0072,0.014 -0.0048,0.0257 -0.0079,0.008 -0.02367,0.0164 -0.03499,0.0192 -0.02672,0.007 -0.03354,-0.01 -0.01732,-0.0409 0.0082,-0.0158 0.0092,-0.0232 0.0032,-0.0232 -0.0048,0 -0.03061,-0.0138 -0.0573,-0.0306 -0.05317,-0.0336 -0.09816,-0.0518 -0.128659,-0.0522 -0.02105,-2.5e-4 -0.02126,6e-5 0.01907,-0.0282 0.01146,-0.008 -0.0015,-0.009 -0.07633,-0.006 -0.108399,0.005 -0.189292,0.0231 -0.280204,0.0641 -0.09891,0.0446 -0.147183,0.0392 -0.222168,-0.0245 l -0.0292,-0.0248 0.05549,-0.0249 c 0.08254,-0.037 0.240518,-0.0879 0.327253,-0.1054 0.255292,-0.0516 0.469643,-0.009 0.616731,0.12364 l 0.03863,0.0347 0.01616,-0.0151 c 0.0135,-0.0126 0.01525,-0.0198 0.01062,-0.0437 -0.0031,-0.0157 -0.005,-0.0865 -0.0044,-0.15728 9.58e-4,-0.10953 -5.94e-4,-0.1293 -0.01041,-0.13307 -0.01476,-0.006 -0.01492,-0.0303 -2.84e-4,-0.0425 0.01232,-0.0102 0.01379,-0.0338 0.0065,-0.10385 -0.0026,-0.0253 -0.0079,-0.0441 -0.01159,-0.0418 -0.0111,0.007 -0.02866,-0.0126 -0.02866,-0.0318 0,-0.01 0.0068,-0.022 0.01502,-0.0271 0.01841,-0.0115 0.01853,-0.0277 0.0012,-0.16219 -0.0071,-0.055 -0.01024,-0.10174 -0.007,-0.10375 0.01056,-0.007 0.03185,0.004 0.04265,0.0215 0.008,0.0128 0.01109,0.0565 0.01286,0.18132 0.0013,0.0905 0.0042,0.16633 0.0065,0.16861 0.0023,0.002 0.0081,2.3e-4 0.01287,-0.005 0.0066,-0.007 0.0065,-0.0409 -5.93e-4,-0.1422 -0.0051,-0.0734 -0.01131,-0.18672 -0.01376,-0.25178 -0.0025,-0.0651 -0.0073,-0.11829 -0.01081,-0.11829 -0.0035,0 -0.0064,0.006 -0.0064,0.0136 0,0.007 -0.0044,0.0196 -0.0098,0.027 -0.008,0.011 -0.01125,0.0116 -0.018,0.003 -0.01152,-0.0141 -0.03148,-0.1397 -0.03504,-0.22036 -0.0023,-0.0531 -0.0054,-0.0681 -0.0145,-0.0699 -0.0063,-0.001 -0.01327,-0.007 -0.01539,-0.0124 -0.0048,-0.0124 0.01871,-0.0579 0.02838,-0.055 0.0039,9.1e-4 0.01116,-0.0141 0.01621,-0.0339 0.0087,-0.0343 0.0083,-0.0369 -0.0093,-0.0545 -0.01947,-0.0195 -0.04388,-0.0698 -0.03713,-0.0765 0.0099,-0.01 0.04163,0.0223 0.04622,0.0468 0.0058,0.031 0.01603,0.0342 0.02281,0.007 0.007,-0.0278 0.01231,-0.0174 0.02244,0.0438 l 0.009,0.0542 8.21e-4,-0.0413 c 4.57e-4,-0.0227 -0.0066,-0.0897 -0.01567,-0.14884 l -0.01651,-0.10753 -0.01374,0.0268 c -0.01583,0.0308 -0.03924,0.0359 -0.0462,0.01 -0.01219,-0.0455 0.0027,-0.22798 0.01954,-0.23921 0.0038,-0.003 -7.3e-4,-0.0429 -0.01044,-0.0926 -0.0094,-0.0485 -0.01782,-0.0853 -0.0186,-0.0819 -7.76e-4,0.004 -0.0036,0.0159 -0.0062,0.0276 -0.0031,0.014 -0.0083,0.02 -0.01506,0.0174 -0.0057,-0.002 -0.01229,9.1e-4 -0.01467,0.007 -0.0085,0.0223 -0.03714,0.008 -0.04929,-0.024 l -0.01145,-0.0305 -0.02552,0.0173 c -0.02974,0.0202 -0.05103,0.0219 -0.07391,0.006 -0.01015,-0.007 -0.02359,-0.01 -0.03527,-0.007 -0.01851,0.005 -0.01865,0.005 -0.0069,0.0279 0.0108,0.0209 0.01292,0.022 0.02128,0.0105 0.0051,-0.007 0.01333,-0.0127 0.01827,-0.0127 0.01184,0 0.03947,0.063 0.03395,0.0774 -0.0024,0.006 -6.85e-4,0.0135 0.0037,0.0162 0.01294,0.008 0.0092,0.0254 -0.0073,0.0343 -0.01808,0.01 -0.04478,0.003 -0.04478,-0.0111 0,-0.005 -0.0051,-0.0119 -0.01138,-0.0143 -0.0063,-0.002 -0.01462,-0.0129 -0.01859,-0.0233 -0.004,-0.0105 -0.01068,-0.019 -0.01491,-0.019 -0.0042,0 -0.0077,-0.005 -0.0077,-0.0113 0,-0.006 -0.0068,-0.018 -0.01502,-0.0263 -0.0083,-0.008 -0.01502,-0.0216 -0.01502,-0.0296 0,-0.008 -0.0034,-0.0167 -0.0075,-0.0192 -0.01328,-0.008 -0.008,-0.032 0.01238,-0.0563 0.01982,-0.0236 0.02831,-0.0249 0.06578,-0.0105 0.0073,0.003 0.01197,4.6e-4 0.01197,-0.006 9e-6,-0.014 0.04312,-0.10407 0.04978,-0.10407 0.003,0 0.01179,0.006 0.01966,0.013 0.01381,0.0125 0.01412,0.0122 0.0089,-0.009 -0.01362,-0.0568 -0.04319,-0.15471 -0.06075,-0.20121 -0.02825,-0.0748 -0.06618,-0.12558 -0.129368,-0.17316 l -0.0554,-0.0417 -0.07979,0.003 c -0.09143,0.003 -0.165648,0.0185 -0.216923,0.0448 -0.05004,0.0257 -0.20174,0.1834 -0.330303,0.34343 -0.05852,0.0728 -0.122849,0.14933 -0.142954,0.16997 -0.03352,0.0344 -0.08165,0.067 -0.08862,0.0601 -0.0016,-0.002 0.0038,-0.0204 0.01196,-0.0419 0.01686,-0.0444 0.01848,-0.0678 0.0065,-0.094 -0.0064,-0.014 -0.0059,-0.0232 0.0019,-0.0391 0.01862,-0.038 0.03078,-0.0392 0.07636,-0.008 0.03055,0.0211 0.04555,0.0271 0.05772,0.0232 0.01648,-0.005 0.04463,-0.0557 0.04494,-0.0806 8.5e-5,-0.007 0.02259,-0.0409 0.05,-0.0751 l 0.04984,-0.0622 -0.05923,0.0568 c -0.07181,0.0688 -0.105257,0.0944 -0.132266,0.10114 -0.01758,0.005 -0.02177,0.002 -0.02969,-0.0163 -0.0051,-0.0118 -0.0098,-0.0225 -0.0106,-0.0237 -7.76e-4,-10e-4 -0.02775,0.0149 -0.05996,0.036 -0.06647,0.0434 -0.08262,0.0452 -0.08095,0.009 0.0013,-0.0286 0.05389,-0.0975 0.152376,-0.19965 0.19698,-0.20436 0.423716,-0.34143 0.646648,-0.39092 0.04469,-0.01 0.06399,-0.0109 0.09179,-0.005 0.05822,0.0131 0.128654,0.0423 0.180333,0.075 0.05509,0.0348 0.145958,0.12644 0.186713,0.18832 0.08952,0.1359 0.152901,0.31541 0.186967,0.5295 0.0085,0.0537 0.02192,0.13143 0.02971,0.17274 0.04857,0.25733 0.105329,0.80656 0.105329,1.01929 0,0.0376 0.0043,0.06 0.01577,0.0825 0.019,0.0372 0.02032,0.077 0.0032,0.0959 -0.01152,0.0127 -0.01189,0.0306 -0.0045,0.21547 0.0087,0.21624 0.01547,0.31308 0.02155,0.307 0.0021,-0.002 0.0095,-0.0377 0.01653,-0.0791 0.01059,-0.0627 0.01106,-0.0775 0.0028,-0.0884 -0.01076,-0.0142 -0.01377,-0.0392 -0.0047,-0.0394 0.0174,-3.6e-4 0.02624,-0.0188 0.03488,-0.0727 0.008,-0.0498 0.0079,-0.0614 -3.61e-4,-0.0669 -0.0055,-0.004 -0.01087,-0.0147 -0.01193,-0.0244 -0.0017,-0.0155 0.0045,-0.0228 0.03067,-0.0362 0.0014,-9.1e-4 0.01031,-0.0379 0.01979,-0.0826 0.02126,-0.10035 0.03443,-0.14514 0.04268,-0.14514 0.01175,0 0.0064,0.0977 -0.0085,0.15604 -0.01551,0.0606 -0.03936,0.19032 -0.03567,0.194 0.01121,0.0112 0.0235,-0.0292 0.04257,-0.14004 0.01943,-0.11291 0.05569,-0.27738 0.07196,-0.32642 0.0027,-0.008 -0.0024,-0.004 -0.01147,0.009 -0.0193,0.0286 -0.03752,0.032 -0.03752,0.007 0,-0.0262 0.028,-0.17629 0.04082,-0.21882 0.01009,-0.0335 0.01004,-0.0386 -5.48e-4,-0.0503 -0.01079,-0.0119 -0.01017,-0.0146 0.0074,-0.0322 0.01057,-0.0106 0.02359,-0.0193 0.02894,-0.0194 0.0054,-9e-5 0.01861,-0.0128 0.02947,-0.0282 0.01716,-0.0243 0.01846,-0.03 0.0099,-0.043 -0.01399,-0.0214 -0.0201,-0.0656 -0.0109,-0.0789 0.0067,-0.01 0.0101,-0.009 0.02338,0.007 0.01215,0.0145 0.01456,0.0248 0.01102,0.0469 -0.005,0.0315 -0.0011,0.0345 0.02002,0.0154 0.01382,-0.0125 0.01412,-0.0122 0.0089,0.009 -0.003,0.0123 -0.01,0.0375 -0.01551,0.0561 -0.01489,0.0499 -0.0123,0.0534 0.0083,0.0113 0.01871,-0.0382 0.01905,-0.0349 0.0042,0.0405 -0.0044,0.0223 -0.0063,0.0423 -0.0041,0.0444 0.0021,0.002 0.0039,0.002 0.0039,-4.5e-4 0,-0.002 0.01521,-0.071 0.0338,-0.15242 0.01859,-0.0814 0.0338,-0.1496 0.0338,-0.15162 0,-0.002 -0.0083,0.002 -0.01851,0.008 -0.01018,0.007 -0.02413,0.0121 -0.031,0.0121 -0.01039,0 -0.01167,-0.005 -0.0076,-0.0304 0.0077,-0.0484 0.03189,-0.0915 0.0769,-0.13724 0.04341,-0.0441 0.112646,-0.16648 0.09897,-0.17493 -0.0039,-0.002 -0.0051,-0.009 -0.0027,-0.0157 0.0024,-0.006 -0.0082,-3.5e-4 -0.02353,0.0131 -0.01648,0.0145 -0.02908,0.0209 -0.0308,0.0158 -0.0016,-0.005 0.0075,-0.031 0.02029,-0.0583 0.01276,-0.0273 0.02319,-0.0509 0.02319,-0.0525 0,-0.002 -0.01198,-0.003 -0.02663,-0.003 -0.02609,0 -0.0635,-0.0263 -0.0635,-0.0446 0,-0.004 -0.0099,-0.0128 -0.02198,-0.019 -0.02163,-0.0112 -0.02223,-0.011 -0.03823,0.0149 -0.0143,0.0231 -0.03539,0.0411 -0.04821,0.0411 -0.0091,0 -0.0037,-0.0287 0.0071,-0.0376 0.0063,-0.005 0.01057,-0.0191 0.0096,-0.0316 -0.0011,-0.0145 0.0028,-0.0247 0.01122,-0.0294 0.0071,-0.004 0.01291,-0.0134 0.01291,-0.0209 0,-0.0199 0.01561,-0.0299 0.05469,-0.0353 l 0.0344,-0.005 0.0051,0.0272 0.0051,0.0272 0.02099,-0.0149 c 0.0209,-0.0149 0.0619,-0.0193 0.09566,-0.0102 0.01156,0.003 0.0169,0.0102 0.0169,0.0225 0,0.017 0.0024,0.016 0.04314,-0.0172 0.06672,-0.0543 0.114762,-0.0738 0.182179,-0.0739 0.04815,-3e-5 0.06203,0.003 0.0956,0.0217 0.0216,0.012 0.04477,0.0278 0.0515,0.0353 0.01116,0.0123 0.0097,0.0122 -0.01645,-9.2e-4 -0.06558,-0.0335 -0.149131,-0.0143 -0.240054,0.0549 -0.04153,0.0316 -0.128259,0.10884 -0.09883,0.088 0.0073,-0.005 0.0153,-0.007 0.01771,-0.005 0.0024,0.002 0.02172,-0.008 0.0429,-0.0221 0.07565,-0.052 0.14665,-0.0735 0.203332,-0.0615 0.04014,0.009 0.118743,0.0446 0.14201,0.0651 0.01295,0.0114 0.01342,0.011 0.0086,-0.008 -0.008,-0.032 0.0061,-0.0246 0.05032,0.0265 0.0618,0.0714 0.08484,0.10272 0.123304,0.16767 0.02952,0.0498 0.08575,0.16846 0.08575,0.18088 0,0.0129 -0.04747,-0.0337 -0.05659,-0.0555 -0.01476,-0.0353 -0.01963,-0.0288 -0.0099,0.0132 0.01137,0.049 0.0034,0.14604 -0.01635,0.19813 -0.01097,0.029 -0.0288,0.0563 -0.05148,0.0789 l -0.03469,0.0345 -0.0049,-0.0676 c -0.0148,-0.20437 -0.111167,-0.39354 -0.229997,-0.45148 -0.01713,-0.008 -0.04982,-0.0146 -0.08431,-0.0162 -0.08919,-0.004 -0.09817,0.003 -0.161825,0.12968 -0.05975,0.11871 -0.101031,0.23622 -0.172841,0.49194 -0.02726,0.0971 -0.0609,0.21199 -0.07476,0.25537 -0.03408,0.10664 -0.0592,0.2031 -0.08215,0.31544 -0.01055,0.0516 -0.0208,0.10101 -0.02279,0.10972 -0.0031,0.0133 -7.31e-4,0.0153 0.0143,0.0124 0.01285,-0.002 0.019,4.5e-4 0.02175,0.0104 0.01752,0.0633 0.0098,0.0997 -0.01446,0.0679 -0.0078,-0.0102 -0.01787,-0.0248 -0.02238,-0.0323 -0.01456,-0.0244 -0.04325,0.23695 -0.05263,0.47965 -0.0045,0.11612 -0.0037,0.13332 0.0062,0.13332 0.007,0 0.0176,-0.0172 0.0278,-0.0451 0.01511,-0.0415 0.01547,-0.0462 0.0044,-0.0572 -0.01619,-0.0162 -0.01079,-0.0286 0.01375,-0.0314 0.01567,-0.002 0.02442,-0.0107 0.03898,-0.0394 0.01032,-0.0204 0.0199,-0.0371 0.02127,-0.0371 0.0014,0 -0.005,0.0262 -0.0141,0.0582 -0.0091,0.032 -0.01855,0.0709 -0.02094,0.0864 -0.0039,0.0254 -0.003,0.0275 0.0092,0.0209 0.0089,-0.005 0.01671,-0.0235 0.02279,-0.0545 0.01589,-0.0809 0.05781,-0.21749 0.08952,-0.29163 0.02146,-0.0502 0.0255,-0.0644 0.01377,-0.0486 -0.0091,0.0124 -0.02337,0.0293 -0.03163,0.0376 l -0.01502,0.0151 -0.0026,-0.0182 c -0.0041,-0.0288 0.02071,-0.12057 0.04454,-0.16512 0.01744,-0.0326 0.01994,-0.0428 0.01266,-0.0516 -0.0073,-0.009 -0.0057,-0.0136 0.0084,-0.0251 0.0096,-0.008 0.02312,-0.0142 0.03001,-0.0142 0.02687,0 0.0459,-0.0221 0.0459,-0.0532 0,-0.0397 0.02043,-0.0899 0.03028,-0.0743 0.01155,0.0183 0.0083,0.0453 -0.0088,0.073 l -0.0161,0.0261 0.0243,-0.0126 c 0.01337,-0.007 0.02591,-0.0109 0.02787,-0.009 0.002,0.002 -0.0052,0.0216 -0.01602,0.0437 l -0.01958,0.0402 0.01904,-0.0225 c 0.01047,-0.0124 0.01906,-0.0207 0.01908,-0.0185 2.3e-5,0.002 -0.01188,0.0322 -0.02644,0.0668 -0.01456,0.0346 -0.02526,0.064 -0.02377,0.0655 0.0015,0.001 0.02028,-0.0269 0.04174,-0.063 0.09512,-0.16018 0.147192,-0.19929 0.260114,-0.19535 0.07646,0.003 0.117979,0.0221 0.179423,0.084 0.02491,0.0251 0.03771,0.0348 0.02846,0.0216 -0.0093,-0.0132 -0.0347,-0.0403 -0.05655,-0.0601 -0.04461,-0.0405 -0.08956,-0.1145 -0.08605,-0.14167 l 0.0023,-0.0179 0.04131,0.0207 0.04131,0.0207 0.01292,-0.0288 c 0.0096,-0.0214 0.02132,-0.0325 0.04553,-0.0432 0.01793,-0.008 0.03812,-0.0205 0.04485,-0.0279 0.01146,-0.0127 0.01079,-0.0144 -0.01045,-0.0266 l -0.02269,-0.013 0.0049,0.0225 c 0.0027,0.0124 0.0021,0.0225 -0.0013,0.0225 -0.02342,-1.7e-4 -0.06992,-0.0197 -0.08885,-0.0374 -0.01239,-0.0115 -0.03013,-0.0233 -0.03941,-0.0261 -0.01723,-0.005 -0.02979,-0.0344 -0.02094,-0.0487 0.0062,-0.0101 0.03169,-0.0103 0.03785,-3.7e-4 0.0029,0.005 0.009,0.003 0.016,-0.004 0.01982,-0.0198 0.0404,-0.0116 0.06548,0.026 0.0095,0.0143 0.01236,0.0156 0.01236,0.006 0,-0.0203 0.02492,-0.0153 0.04886,0.01 0.01269,0.0132 0.02656,0.021 0.03355,0.0188 0.0067,-0.002 0.02243,0.006 0.0361,0.0183 0.02108,0.0193 0.02419,0.0269 0.02419,0.0597 0,0.0371 -3.97e-4,0.0377 -0.02629,0.0426 -0.024,0.005 -0.02629,0.007 -0.02629,0.0308 0,0.0142 -0.0037,0.0407 -0.0083,0.0588 -0.0078,0.0309 -0.0094,0.0324 -0.02678,0.0258 -0.01017,-0.004 -0.01989,-0.007 -0.0216,-0.007 -0.0017,0 0.01023,0.0206 0.02653,0.0459 0.04304,0.0666 0.0747,0.15812 0.08546,0.24707 l 0.0041,0.0338 -0.01082,-0.029 c -0.01943,-0.052 -0.07953,-0.13997 -0.110459,-0.16163 l -0.0165,-0.0115 0.01705,0.024 c 0.022,0.0309 0.07974,0.15367 0.0921,0.19583 0.0065,0.0221 0.0152,0.0348 0.02694,0.0393 0.01776,0.007 0.02255,0.0179 0.0108,0.0251 -0.0036,0.002 0.0099,0.0572 0.03003,0.12224 0.04326,0.13968 0.07144,0.26227 0.07823,0.34025 l 0.0049,0.0563 -0.01906,-0.0271 c -0.01048,-0.0149 -0.02747,-0.0555 -0.03776,-0.0901 l -0.0187,-0.063 -5.02e-4,0.0493 c -7.3e-4,0.0693 -0.01733,0.11855 -0.05397,0.16018 -0.03061,0.0348 -0.08618,0.0702 -0.09551,0.0609 -0.0026,-0.003 -0.0073,-0.0764 -0.01029,-0.16388 -0.01129,-0.32709 -0.02919,-0.45059 -0.07988,-0.55101 -0.02768,-0.0548 -0.08908,-0.1237 -0.133493,-0.14973 -0.04197,-0.0246 -0.06122,-0.0205 -0.129681,0.0276 -0.135858,0.0954 -0.214911,0.25879 -0.278921,0.57648 -0.04185,0.2077 -0.05075,0.3535 -0.03798,0.62238 0.0053,0.11082 0.01131,0.30118 0.01344,0.42305 0.0039,0.22143 0.0039,0.22157 -0.01274,0.23651 l -0.01661,0.015 -0.01334,-0.0165 c -0.01514,-0.0187 -0.02996,-0.1053 -0.03095,-0.18086 -6.39e-4,-0.0491 -0.01136,-0.13894 -0.01336,-0.11198 -0.0016,0.0222 -0.02312,0.0578 -0.03485,0.0578 -0.01098,0 -0.01539,0.0125 -0.02088,0.0589 -0.0019,0.0163 5.48e-4,0.0265 0.0071,0.029 0.0141,0.005 0.01253,0.0149 -0.0032,0.019 -0.008,0.002 -0.01801,0.0184 -0.02539,0.0415 -0.01198,0.0375 -0.01192,0.0382 0.0038,0.0424 0.0088,0.002 0.0179,0.005 0.02021,0.005 0.0023,6e-5 0.0085,-0.0168 0.01383,-0.0374 0.0053,-0.0206 0.01256,-0.0393 0.01615,-0.0416 0.0036,-0.002 0.01372,0.01 0.02249,0.0272 0.01833,0.0359 0.01563,0.0691 -0.0081,0.0992 -0.0082,0.0104 -0.01482,0.0257 -0.01482,0.0341 0,0.008 -0.0075,0.0205 -0.01669,0.027 -0.01921,0.0135 -0.07481,0.0155 -0.09709,0.004 -0.01192,-0.006 -0.0183,-0.005 -0.02989,0.005 -0.01311,0.0119 -0.01861,0.0123 -0.04994,0.004 -0.01936,-0.005 -0.04543,-0.0172 -0.05794,-0.0267 l -0.02273,-0.0173 -0.02054,0.0224 c -0.01532,0.0167 -0.02532,0.0215 -0.03937,0.0188 -0.01244,-0.002 -0.01883,-2.3e-4 -0.01883,0.006 0,0.0159 -0.02892,0.0283 -0.04154,0.0178 -0.0084,-0.007 -0.01441,-0.005 -0.02933,0.0126 -0.01033,0.0117 -0.0189,0.0254 -0.01903,0.0303 -5.48e-4,0.0205 -0.02086,0.0176 -0.07746,-0.0111 -0.0032,-0.002 -0.0049,10e-4 -0.0037,0.007 0.0012,0.006 -0.0026,0.009 -0.0092,0.007 -0.0062,-0.002 -0.01887,-0.003 -0.02817,-0.003 -0.01174,3.3e-4 -0.0169,-0.004 -0.0169,-0.0137 0,-0.008 -0.0034,-0.0142 -0.0075,-0.0142 -0.0042,0 -0.0075,0.0115 -0.0075,0.0255 0,0.0198 -0.0059,0.0307 -0.02655,0.0488 -0.02901,0.0255 -0.03197,0.0264 -0.04849,0.016 z m 0.345419,-0.32828 c 0,-0.013 -0.0031,-0.0158 -0.01314,-0.0121 -0.02729,0.0101 -0.02855,0.0322 -0.0017,0.0302 0.0101,-9.1e-4 0.01487,-0.007 0.01487,-0.0181 z m -0.05682,-0.002 c 0.005,-0.008 -0.01681,-0.0176 -0.0266,-0.0115 -0.0038,0.002 -0.005,0.007 -0.0026,0.0113 0.0055,0.009 0.02379,0.009 0.02923,2.6e-4 z m 0.341785,-0.27396 c -0.007,-0.007 -0.0081,-0.004 -0.0044,0.0103 0.0026,0.0103 0.0052,0.0239 0.0059,0.03 6.84e-4,0.006 0.0027,10e-4 0.0044,-0.0103 0.0018,-0.0119 -8.67e-4,-0.0254 -0.0059,-0.03 z M 84.488066,126 c 0,-0.0205 -0.0025,-0.025 -0.01188,-0.0214 -0.0065,0.002 -0.0133,0.005 -0.01502,0.005 -0.0017,0 -0.0031,0.0157 -0.0031,0.035 0,0.0345 1.98e-4,0.0348 0.01502,0.0214 0.0095,-0.009 0.01502,-0.0231 0.01502,-0.0395 z m -0.01586,-0.14125 c 0.0053,0.003 0.0083,-0.002 0.0083,-0.0141 0,-0.0155 -0.0037,-0.0192 -0.01878,-0.0192 -0.02015,0 -0.02107,0.002 -0.01388,0.0288 0.0032,0.0117 0.0066,0.0145 0.01032,0.008 0.0031,-0.005 0.0094,-0.007 0.01398,-0.004 z m 0.07902,-0.51021 c 0.02124,-0.16187 0.0069,-0.13331 -0.01889,0.0376 -0.01745,0.1157 -0.02283,0.31972 -0.0105,0.39806 0.0059,0.0375 0.008,0.0121 0.01233,-0.15021 0.0029,-0.1074 0.01056,-0.23584 0.01706,-0.28541 z m -0.07067,0.35764 c 0,-0.069 -0.0013,-0.0774 -0.01017,-0.0645 -0.0056,0.008 -0.01246,0.0378 -0.01525,0.0657 -0.0028,0.028 -0.0071,0.0611 -0.0096,0.0735 -0.0044,0.0221 -0.0041,0.0224 0.01525,0.0136 0.01954,-0.009 0.01977,-0.01 0.01977,-0.0883 z m -0.495191,-0.23715 c 0.0038,0.002 0.007,-0.008 0.007,-0.0228 v -0.0272 l -0.01823,0.0211 c -0.01002,0.0116 -0.01509,0.0222 -0.01126,0.0236 0.0038,0.001 0.0075,0.0115 0.0081,0.0226 l 0.0011,0.02 0.0031,-0.0208 c 0.0017,-0.0114 0.0063,-0.0189 0.01014,-0.0164 z m 0.497151,0.0166 c 0.0055,-0.0146 -0.0028,-0.0585 -0.01031,-0.0539 -0.0087,0.005 -0.0087,0.0633 2.8e-5,0.0633 0.0037,0 0.0083,-0.004 0.01027,-0.009 z m -0.192916,-0.0864 c -0.0091,-0.009 -0.01338,0.006 -0.0075,0.026 l 0.0061,0.021 0.0029,-0.0214 c 0.0016,-0.0117 9.13e-4,-0.0233 -0.0015,-0.0257 z m -0.147023,-0.0304 c 0,-0.008 -0.0065,-0.0164 -0.01502,-0.0186 -0.01654,-0.005 -0.01711,-0.003 -0.01039,0.0309 0.0039,0.0197 0.0062,0.0216 0.01502,0.0127 0.0057,-0.006 0.01039,-0.017 0.01039,-0.0251 z m 0.20325,-0.18731 c -2.56e-4,-0.20818 0.01013,-0.38189 0.03379,-0.56518 0.0029,-0.0227 0.0035,-0.0396 0.0013,-0.0376 -0.0067,0.006 -0.04186,0.23795 -0.05127,0.33798 -0.01138,0.12091 -0.0014,0.48819 0.01328,0.48819 0.0017,0 0.003,-0.10055 0.0029,-0.22344 z m 0.145993,0.18213 c 0,-0.0117 -0.0042,-0.0227 -0.0094,-0.0244 -0.0064,-0.002 -0.0094,0.006 -0.0094,0.0244 0,0.0187 0.003,0.0265 0.0094,0.0244 0.0052,-0.002 0.0094,-0.0127 0.0094,-0.0244 z m -0.206543,-0.12167 c 0,-0.12105 -0.01208,-0.12865 -0.01969,-0.0124 -0.005,0.077 -9.59e-4,0.1153 0.01233,0.1153 0.0045,0 0.0074,-0.0406 0.0074,-0.10289 z m 0.216518,0.0469 c 0.0033,-0.0278 -0.0048,-0.0585 -0.01395,-0.0528 -0.01136,0.007 -0.0093,0.0807 0.0021,0.0769 0.0052,-0.002 0.0105,-0.0125 0.01185,-0.0241 z m -0.376253,0.0123 c 0.0073,-0.005 0.0068,-0.0265 -0.0025,-0.10315 -0.01372,-0.11364 -0.01633,-0.12497 -0.02498,-0.10855 -0.0065,0.0123 0.0065,0.21788 0.01375,0.21769 0.0025,-5e-5 0.0086,-0.003 0.01372,-0.006 z m 0.02876,-0.28407 c -0.01871,-0.14402 -0.03875,-0.3041 -0.04453,-0.35574 -0.0058,-0.0516 -0.0109,-0.0785 -0.01138,-0.0597 -0.0015,0.0581 0.01416,0.23137 0.03015,0.33384 0.0084,0.0537 0.01986,0.13569 0.02553,0.18219 0.0057,0.0465 0.01385,0.10373 0.01818,0.12718 0.0043,0.0235 0.0081,0.0446 0.0085,0.0469 3.26e-4,0.002 0.0022,4.2e-4 0.0041,-0.004 0.0019,-0.005 -0.01181,-0.12636 -0.03052,-0.27038 z m 0.413849,0.19066 c -0.0021,-0.005 -0.0038,-9.1e-4 -0.0038,0.009 0,0.0103 0.0017,0.0146 0.0038,0.009 0.0021,-0.005 0.0021,-0.0136 0,-0.0188 z m -0.560762,-0.18213 c 0,-0.006 -0.0033,-0.0113 -0.0073,-0.0113 -0.004,0 -0.0053,0.005 -0.003,0.0113 0.0024,0.006 0.0057,0.0113 0.0073,0.0113 0.0016,0 0.003,-0.005 0.003,-0.0113 z m 0.284655,-0.0695 c -4.12e-4,-0.0155 -0.0035,-0.0366 -0.0068,-0.0469 -0.0045,-0.014 -0.0062,-0.007 -0.0068,0.0282 -4.29e-4,0.0268 0.0025,0.0469 0.0068,0.0469 0.0042,0 0.0072,-0.0127 0.0068,-0.0282 z m -0.207631,-0.057 c 0.0053,0.003 0.0064,3.9e-4 0.0031,-0.008 -0.0028,-0.007 -0.005,-0.0266 -0.005,-0.043 0,-0.018 -0.003,-0.028 -0.0075,-0.0252 -0.0041,0.003 -0.0075,-0.001 -0.0075,-0.008 0,-0.007 -0.0018,-0.0111 -0.0041,-0.009 -0.0022,0.002 -0.0017,0.0273 0.0012,0.0557 0.0029,0.0284 0.0067,0.0474 0.0085,0.0422 0.0017,-0.005 0.0068,-0.007 0.0113,-0.005 z m 0.208132,-0.0464 c 0.0034,0.002 0.0075,-0.01 0.0091,-0.0267 0.0016,-0.0168 5.6e-5,-0.0324 -0.0035,-0.0345 -0.01022,-0.006 -0.0122,-4.5e-4 -0.01601,0.0468 -0.002,0.0246 -0.0018,0.037 2.95e-4,0.0277 0.0021,-0.009 0.0067,-0.0153 0.01008,-0.0132 z m -0.223297,-0.12772 c -0.0068,-0.0326 -0.0243,-0.0448 -0.0243,-0.017 0,0.0156 0.02238,0.0536 0.02816,0.0478 0.0012,-0.001 -5.48e-4,-0.0151 -0.0038,-0.0308 z m 0.2428,-0.008 c 0.0027,-0.0182 0.003,-0.0382 5.93e-4,-0.0444 -0.0078,-0.0204 -0.01985,-0.012 -0.01985,0.014 0,0.014 -0.0021,0.036 -0.0047,0.049 -0.0039,0.0195 -0.0026,0.0228 0.0072,0.019 0.0071,-0.003 0.01387,-0.0179 0.01683,-0.0376 z m -0.252085,-0.0994 c 0,-0.0327 -0.01563,-0.0709 -0.02513,-0.0614 -0.0021,0.002 -0.0019,0.0249 4.29e-4,0.0507 0.0029,0.0324 0.0074,0.0469 0.01447,0.0469 0.0072,0 0.01022,-0.0107 0.01022,-0.0361 z m -0.195469,-1.81095 c -0.02338,-0.0733 -0.03523,-0.0974 -0.02706,-0.055 0.0022,0.0114 0.0078,0.0401 0.01241,0.0639 0.0046,0.0238 0.01147,0.0414 0.01517,0.0391 0.0037,-0.002 0.0089,0.005 0.01162,0.0153 0.0027,0.0107 0.0065,0.0178 0.0084,0.0159 0.002,-0.002 -0.0073,-0.0376 -0.02058,-0.0792 z m -0.05304,-0.14137 c -0.0082,-0.0196 -0.03277,-0.0695 -0.05467,-0.11078 -0.0497,-0.0937 -0.09858,-0.13907 -0.149612,-0.13875 l -0.03164,2e-4 0.04468,0.0242 c 0.06905,0.0374 0.119471,0.0941 0.163382,0.18381 0.04013,0.082 0.05228,0.1 0.02786,0.0413 z m 0.680656,3.99424 c -0.0085,-0.0138 0.0056,-0.0721 0.022,-0.0906 0.0091,-0.0103 0.02417,-0.0298 0.03342,-0.0433 0.0092,-0.0135 0.01993,-0.0226 0.02374,-0.0202 0.01922,0.0119 -0.003,0.11292 -0.03146,0.14324 -0.01718,0.0183 -0.0399,0.0235 -0.04769,0.0108 z m -0.689811,-1.0497 c -0.01598,-0.004 -0.01405,-0.0273 0.0026,-0.0305 0.0062,-0.001 0.01802,0.003 0.0262,0.009 0.01285,0.01 0.01334,0.0124 0.0036,0.0189 -0.0062,0.004 -0.01296,0.007 -0.01502,0.007 -0.0021,-4.2e-4 -0.0099,-0.002 -0.01733,-0.004 z m 1.638284,-0.0905 c -0.03112,-0.0325 -0.04372,-0.0546 -0.04372,-0.0765 0,-0.0139 0.0045,-0.0155 0.04445,-0.0155 0.02445,0 0.05026,-0.002 0.05736,-0.005 0.01153,-0.005 0.01235,-9.2e-4 0.0076,0.0319 -0.0078,0.054 -0.02047,0.0932 -0.03023,0.0932 -0.0047,0 -0.02067,-0.0127 -0.03548,-0.0282 z m -1.680179,-0.0763 c -0.0084,-0.005 -0.0075,-0.008 0.0046,-0.0146 0.01614,-0.009 0.06537,9.1e-4 0.07361,0.0142 0.0056,0.009 -0.06383,0.009 -0.07817,4.2e-4 z m 0.13724,-0.16992 c -0.01387,-0.0212 -0.01131,-0.0288 0.0073,-0.0217 0.0068,0.003 0.01234,0.0128 0.01234,0.0227 0,0.0229 -0.0041,0.0226 -0.01962,-9.1e-4 z m -0.246877,-0.0247 c -0.0021,-0.002 -0.0039,-0.0123 -0.0039,-0.0226 0,-0.0103 -0.002,-0.0168 -0.0043,-0.0145 -0.0024,0.002 -0.0142,0.001 -0.02629,-0.002 -0.01305,-0.004 -0.02197,-0.004 -0.02197,9.1e-4 0,0.004 -0.0034,0.007 -0.0075,0.007 -0.01278,0 -0.0083,-0.0346 0.0062,-0.0477 0.02083,-0.0189 0.03121,-0.015 0.03246,0.012 0.0011,0.0227 0.0013,0.023 0.0042,0.004 0.0036,-0.0237 0.01715,-0.0282 0.01715,-0.006 0,0.008 0.0034,0.015 0.0075,0.015 0.01137,0 0.009,-0.0221 -0.0037,-0.0349 -0.01284,-0.0128 -0.01454,-0.0387 -0.0037,-0.0553 0.0066,-0.01 0.0083,-0.01 0.01512,0 0.0042,0.006 0.0066,0.0202 0.0052,0.0312 -0.0025,0.0193 -0.002,0.0195 0.01504,0.008 0.0236,-0.0155 0.02972,-0.007 0.01324,0.0181 -0.0134,0.0204 -0.01995,0.0701 -0.0093,0.0701 0.0031,0 0.0057,-0.006 0.0059,-0.0131 1.42e-4,-0.007 0.0047,-0.019 0.01017,-0.0262 0.0094,-0.0124 0.01057,-0.0124 0.02229,4.6e-4 0.01855,0.0205 0.0158,0.0337 -0.0059,0.0283 -0.01491,-0.004 -0.01869,-0.001 -0.02065,0.0123 -0.0018,0.0126 -0.0076,0.0171 -0.02293,0.0177 -0.01129,4.2e-4 -0.02227,-9.1e-4 -0.02441,-0.003 z m -0.206673,-0.009 c 0,-0.0212 0.01783,-0.0368 0.06,-0.0525 0.03821,-0.0143 0.0448,-0.0194 0.04097,-0.0314 -0.0051,-0.0162 0.0081,-0.0362 0.02388,-0.0362 0.0063,0 0.01035,0.008 0.01035,0.0209 0,0.0155 -0.0084,0.0279 -0.03192,0.0475 -0.0553,0.046 -0.103271,0.0701 -0.103271,0.0517 z m -0.423414,-0.0848 c -0.01491,-0.0109 -0.02391,-0.0639 -0.01347,-0.0794 0.0053,-0.008 0.01047,-0.008 0.02235,-0.002 0.04516,0.0242 0.139808,0.003 0.293063,-0.0644 0.05092,-0.0225 0.09993,-0.0398 0.108904,-0.0385 0.01257,0.002 0.0068,0.007 -0.02499,0.0217 -0.02272,0.0106 -0.08525,0.0446 -0.138946,0.0756 -0.102832,0.0593 -0.18579,0.0964 -0.215777,0.0964 -0.0099,0 -0.02388,-0.004 -0.03114,-0.01 z m 2.647646,-0.12366 c -0.02775,-0.0524 -0.05144,-0.19715 -0.03226,-0.19715 0.01777,0 0.06444,0.14952 0.05776,0.18508 -0.0052,0.0277 -0.01479,0.0323 -0.0255,0.0121 z m -2.19303,-0.0448 c -0.0079,-0.0147 5.02e-4,-0.0322 0.01536,-0.0322 0.008,0 0.0075,0.0236 -8.22e-4,0.0367 -0.0053,0.008 -0.0081,0.008 -0.01456,-0.005 z m 2.061969,-0.18261 c -0.0343,-0.027 -0.03284,-0.0675 0.0028,-0.0788 0.01384,-0.005 0.01436,-0.006 0.0047,-0.0174 -0.01838,-0.0209 -0.02183,-0.0435 -0.0087,-0.0567 0.02859,-0.0286 0.07716,-0.001 0.06847,0.0384 -0.0025,0.0115 -0.0066,0.0279 -0.009,0.0365 -0.004,0.014 -0.0019,0.0153 0.01918,0.0122 0.0223,-0.003 0.02353,-0.002 0.02121,0.0181 -0.0022,0.0192 -0.005,0.0214 -0.02582,0.0194 -0.01988,-0.002 -0.02477,0.001 -0.03283,0.0206 -0.01119,0.027 -0.01456,0.0277 -0.03999,0.008 z m -0.08783,-0.18558 c -0.01944,-0.007 -0.03755,-0.0263 -0.03755,-0.0404 0,-0.0317 0.05226,-0.0562 0.07423,-0.0348 0.0055,0.005 0.0041,-0.002 -0.0035,-0.0184 -0.01268,-0.0269 -0.02567,-0.0316 -0.02567,-0.009 0,0.0146 -0.01998,0.0134 -0.0576,-0.004 -0.053,-0.0241 -0.06366,-0.0682 -0.02444,-0.1012 0.02768,-0.0233 0.0541,-0.0249 0.07453,-0.005 0.0083,0.008 0.02153,0.015 0.0295,0.015 0.0173,0 0.04873,0.0614 0.06122,0.11963 0.01124,0.0524 0.007,0.0585 -0.02302,0.0333 -0.0191,-0.016 -0.02429,-0.018 -0.02037,-0.008 0.0029,0.008 0.0053,0.0164 0.0053,0.0197 0,0.003 0.01043,0.008 0.02318,0.0106 0.0377,0.008 0.0224,0.0234 -0.02379,0.0246 -0.02238,4.6e-4 -0.04576,-4.5e-4 -0.05196,-0.003 z m -0.608362,-0.16188 c -0.01143,-0.006 -0.01967,-0.0171 -0.02107,-0.0291 -0.0027,-0.0235 0.02041,-0.0442 0.07122,-0.0636 0.02941,-0.0112 0.04018,-0.0119 0.07607,-0.005 0.02299,0.005 0.04452,0.0115 0.04783,0.0148 0.01084,0.0108 -0.03008,0.0598 -0.06348,0.076 -0.0367,0.0177 -0.08243,0.0203 -0.110563,0.006 z m -1.026386,-0.1826 c -0.01116,-0.017 -0.0116,-0.024 -0.0035,-0.0545 0.0051,-0.0192 0.01206,-0.0377 0.01543,-0.0411 0.0079,-0.008 0.03663,0.0384 0.04274,0.069 0.0088,0.044 -0.03066,0.0632 -0.05468,0.0266 z m 0.437813,-0.31148 c -0.02418,-0.019 -0.02534,-0.0398 -0.0031,-0.0554 0.0092,-0.006 0.0187,-0.0117 0.02115,-0.0117 0.0091,0 0.03846,0.0612 0.03442,0.0717 -0.006,0.0156 -0.0294,0.0135 -0.05247,-0.005 z m -0.468757,-0.1163 c -0.01796,-0.0126 -0.02178,-0.0399 -0.0089,-0.0639 0.0075,-0.014 0.0087,-0.0138 0.03731,0.005 0.03554,0.0235 0.04523,0.0463 0.02577,0.0605 -0.0179,0.0131 -0.03371,0.0126 -0.05414,-0.002 z m 1.668097,-0.0352 c -0.04726,-0.0446 -0.05608,-0.0615 -0.04606,-0.088 0.0095,-0.0253 0.0886,-0.10725 0.09235,-0.0957 0.01334,0.0409 0.02173,0.12802 0.01951,0.20256 -9.12e-4,0.031 -0.01846,0.0259 -0.0658,-0.0188 z m -0.9521,-0.51137 c -0.0076,-0.006 -0.01203,-0.0148 -0.01,-0.0206 0.0021,-0.006 7.31e-4,-0.0165 -0.003,-0.0237 -0.01424,-0.0277 0.0209,-0.0589 0.0785,-0.0697 l 0.02788,-0.005 -0.0048,0.0252 c -0.0026,0.0139 -0.01024,0.035 -0.01688,0.0468 -0.0066,0.0119 -0.01648,0.0296 -0.02187,0.0394 -0.01097,0.0199 -0.02932,0.0228 -0.04989,0.008 z m 1.05675,-0.0651 c -0.0093,-0.0145 -0.01688,-0.0288 -0.0169,-0.0318 -1.5e-5,-0.003 -0.01266,-0.0108 -0.02809,-0.0173 -0.05733,-0.024 -0.0875,-0.0755 -0.08319,-0.14212 0.0046,-0.0714 0.03814,-0.0615 0.09695,0.0284 0.03362,0.0515 0.05357,0.11393 0.05038,0.15776 l -0.0023,0.0313 z m -0.372221,-0.10289 c -0.01773,-0.005 -0.01268,-0.0183 0.01186,-0.0321 0.02431,-0.0137 0.03314,-0.006 0.02186,0.0185 -0.0087,0.0192 -0.01003,0.0197 -0.03372,0.0136 z m 0.12453,-0.12221 c -0.01332,-0.003 -0.03315,-0.0116 -0.04407,-0.0188 -0.01712,-0.0112 -0.01933,-0.0169 -0.01608,-0.0412 0.0037,-0.0276 0.0031,-0.0285 -0.03209,-0.0433 -0.03693,-0.0156 -0.05537,-0.0361 -0.06395,-0.071 -0.0071,-0.0287 0.01417,-0.0388 0.04907,-0.0232 0.0144,0.006 0.03312,0.011 0.04161,0.0102 0.01906,-0.002 0.04429,0.0246 0.03833,0.0402 -0.0025,0.006 0.0033,0.0204 0.01308,0.0318 l 0.01747,0.0203 0.0088,-0.0165 c 0.01316,-0.0246 0.04278,-0.0216 0.05691,0.006 0.01843,0.0357 0.01512,0.0454 -0.01534,0.0454 -0.022,0 -0.02609,0.002 -0.02289,0.0131 0.01731,0.0583 0.0171,0.0586 -0.03087,0.0472 z m -0.593736,-0.0119 c -0.02034,-0.0142 -0.02126,-0.033 -0.0028,-0.0568 0.0076,-0.01 0.01256,-0.0218 0.01091,-0.0265 -0.0046,-0.0133 0.111782,-0.097 0.160569,-0.11539 0.08951,-0.0338 0.179734,-0.0269 0.201627,0.0155 0.01117,0.0216 0.01085,0.023 -0.0093,0.0409 -0.04818,0.0426 -0.119011,0.0645 -0.152287,0.047 -0.04485,-0.0236 -0.01736,-0.0508 0.05135,-0.0508 0.03246,0 0.03613,-0.002 0.04392,-0.0226 0.01059,-0.0281 0.0083,-0.0281 -0.0653,-9.1e-4 -0.05463,0.0201 -0.05664,0.0218 -0.06664,0.0541 -0.0222,0.0717 -0.03703,0.0961 -0.06802,0.11191 -0.03571,0.0182 -0.08091,0.0198 -0.104005,0.004 z m -1.110823,-0.12538 c -0.0075,-0.009 -0.01876,-0.0169 -0.02496,-0.0169 -0.0062,0 -0.01735,-0.0125 -0.02479,-0.0277 -0.01539,-0.0315 -0.03924,-0.13986 -0.0323,-0.1468 0.0074,-0.007 0.04038,0.0278 0.05658,0.0605 0.01462,0.0296 0.01518,0.0299 0.02169,0.0123 0.0054,-0.0145 0.0034,-0.0206 -0.01015,-0.0313 -0.0093,-0.007 -0.01879,-0.021 -0.02117,-0.0305 -0.0028,-0.0113 -0.01287,-0.0198 -0.02901,-0.0245 -0.03001,-0.009 -0.02891,-0.0223 0.0018,-0.0222 0.01229,2e-5 0.02234,-0.003 0.02234,-0.007 0,-0.01 0.05111,1.1e-4 0.07215,0.0139 0.02195,0.0144 0.02343,0.0417 0.0032,0.06 -0.0145,0.0131 -0.01431,0.0136 0.01235,0.0317 0.03879,0.0263 0.05442,0.0477 0.0547,0.075 3.55e-4,0.0339 -0.0062,0.0466 -0.03033,0.0591 -0.03038,0.0157 -0.05636,0.0136 -0.07215,-0.006 z m -0.332892,-0.11915 c 0,-0.0262 0.03482,-0.0663 0.08004,-0.0923 0.06347,-0.0365 0.08088,-0.034 0.0471,0.007 -0.05332,0.0644 -0.127146,0.11404 -0.127146,0.0855 z m 0.21268,-0.10617 c -0.0033,-0.005 -0.0098,-0.0195 -0.01445,-0.0319 -0.0046,-0.0124 -0.01085,-0.0282 -0.01379,-0.0351 -0.0064,-0.0152 0.02699,-0.0403 0.04458,-0.0336 0.01289,0.005 0.01485,0.0293 0.004,0.0495 -0.0058,0.0109 -0.0042,0.0145 0.0082,0.0178 0.01529,0.004 0.01532,0.005 0.0017,0.0231 -0.01572,0.0216 -0.02167,0.0236 -0.03028,0.0101 z"
         style="fill:#999999;stroke-width:0.00751064" />
      <path
         inkscape:connector-curvature="0"
         id="path21914"
         style="fill:#ffffff;fill-opacity:1;fill-rule:nonzero;stroke:#231f20;stroke-width:0.17638889;stroke-linecap:butt;stroke-linejoin:miter;stroke-miterlimit:4;stroke-dasharray:none;stroke-opacity:1"
         d="m 84.633439,127.94405 h -0.896761 v -1.14653 h 0.896761 z" />
      <path
         inkscape:connector-curvature="0"
         id="path21916"
         style="fill:#ffffff;fill-opacity:1;fill-rule:nonzero;stroke:#231f20;stroke-width:0.17638889;stroke-linecap:butt;stroke-linejoin:miter;stroke-miterlimit:4;stroke-dasharray:none;stroke-opacity:1"
         d="M 84.986216,126.82715 H 83.3839 v -0.38241 h 1.602316 z" />
      <path
         inkscape:connector-curvature="0"
         id="path21918"
         style="fill:#ffffff;fill-opacity:1;fill-rule:nonzero;stroke:#231f20;stroke-width:0.17638889;stroke-linecap:butt;stroke-linejoin:miter;stroke-miterlimit:4;stroke-dasharray:none;stroke-opacity:1"
         d="m 86.04455,129.00238 h -3.718984 v -1.14653 h 3.718984 z" />
      <g
         transform="matrix(0.35277777,0,0,-0.35277777,81.161047,129.00612)"
         id="g21920">
        <path
           inkscape:connector-curvature="0"
           id="path21922"
           style="fill:none;stroke:#231f20;stroke-width:0.5;stroke-linecap:butt;stroke-linejoin:miter;stroke-miterlimit:4;stroke-dasharray:none;stroke-opacity:1"
           d="M 0,0 H 17.375" />
      </g>
    </g>
  </g>
</svg>
