<?xml version="1.0" encoding="UTF-8" standalone="no"?>
<!-- Created with Inkscape (http://www.inkscape.org/) -->

<svg
   xmlns:dc="http://purl.org/dc/elements/1.1/"
   xmlns:cc="http://creativecommons.org/ns#"
   xmlns:rdf="http://www.w3.org/1999/02/22-rdf-syntax-ns#"
   xmlns:svg="http://www.w3.org/2000/svg"
   xmlns="http://www.w3.org/2000/svg"
   xmlns:sodipodi="http://sodipodi.sourceforge.net/DTD/sodipodi-0.dtd"
   xmlns:inkscape="http://www.inkscape.org/namespaces/inkscape"
   width="15.159921mm"
   height="9.4817848mm"
   viewBox="0 0 15.159921 9.4817848"
   version="1.1"
   id="svg8"
   inkscape:version="0.92.4 (unknown)"
   sodipodi:docname="flag_Portugal.svg">
  <defs
     id="defs2">
    <clipPath
       clipPathUnits="userSpaceOnUse"
       id="clipPath854">
      <path
         d="M 0,841.89 H 595.28 V 0 H 0 Z"
         id="path856"
         inkscape:connector-curvature="0" />
    </clipPath>
  </defs>
  <sodipodi:namedview
     id="base"
     pagecolor="#ffffff"
     bordercolor="#666666"
     borderopacity="1.0"
     inkscape:pageopacity="0.0"
     inkscape:pageshadow="2"
     inkscape:zoom="0.35"
     inkscape:cx="-9.9227591"
     inkscape:cy="-239.22451"
     inkscape:document-units="mm"
     inkscape:current-layer="layer1"
     showgrid="false"
     fit-margin-top="0"
     fit-margin-left="0"
     fit-margin-right="0"
     fit-margin-bottom="0"
     inkscape:window-width="959"
     inkscape:window-height="1023"
     inkscape:window-x="960"
     inkscape:window-y="0"
     inkscape:window-maximized="0" />
  <metadata
     id="metadata5">
    <rdf:RDF>
      <cc:Work
         rdf:about="">
        <dc:format>image/svg+xml</dc:format>
        <dc:type
           rdf:resource="http://purl.org/dc/dcmitype/StillImage" />
        <dc:title></dc:title>
      </cc:Work>
    </rdf:RDF>
  </metadata>
  <g
     inkscape:label="Layer 1"
     inkscape:groupmode="layer"
     id="layer1"
     transform="translate(-37.02123,-103.27102)">
    <g
       transform="matrix(0.35277777,0,0,-0.35277777,-97.580069,125.04543)"
       id="g850">
      <g
         id="g852"
         clip-path="url(#clipPath854)">
        <path
           d="m 424.454,34.774 h -41.286 v 25.129 h 41.286 z"
           style="fill:#70706f;fill-opacity:1;fill-rule:nonzero;stroke:none"
           id="path858"
           inkscape:connector-curvature="0" />
        <path
           d="m 422.768,36.499 h -41.155 v 25.295 h 41.155 z"
           style="fill:#e30613;fill-opacity:1;fill-rule:nonzero;stroke:none"
           id="path860"
           inkscape:connector-curvature="0" />
        <path
           d="m 395.853,36.499 h -14.24 v 25.295 h 14.24 z"
           style="fill:#009640;fill-opacity:1;fill-rule:nonzero;stroke:none"
           id="path862"
           inkscape:connector-curvature="0" />
        <g
           id="g864"
           transform="translate(400.9648,49.1465)">
          <path
             d="m 0,0 c 0,-2.823 -2.289,-5.112 -5.112,-5.112 -2.825,0 -5.114,2.289 -5.114,5.112 0,2.823 2.289,5.112 5.114,5.112 C -2.289,5.112 0,2.823 0,0 Z"
             style="fill:none;stroke:#ffed00;stroke-width:1;stroke-linecap:butt;stroke-linejoin:miter;stroke-miterlimit:10;stroke-dasharray:none;stroke-opacity:1"
             id="path866"
             inkscape:connector-curvature="0" />
        </g>
        <g
           id="g868"
           transform="translate(400.0391,52.0762)">
          <path
             d="M 0,0 H -8.374 L 0.874,-2.223 -9.205,-3.352 0.512,-4.946 -7.801,-6.544"
             style="fill:none;stroke:#ffed00;stroke-width:1;stroke-linecap:butt;stroke-linejoin:round;stroke-miterlimit:10;stroke-dasharray:none;stroke-opacity:1"
             id="path870"
             inkscape:connector-curvature="0" />
        </g>
        <g
           id="g872"
           transform="translate(399.0869,49.332)">
          <path
             d="M 0,0 C 0,-2.519 -1.448,-4.56 -3.234,-4.56 -5.021,-4.56 -6.47,-2.519 -6.47,0 V 3.345 H 0 Z"
             style="fill:#e30613;fill-opacity:1;fill-rule:nonzero;stroke:none"
             id="path874"
             inkscape:connector-curvature="0" />
        </g>
        <g
           id="g876"
           transform="translate(399.0869,49.332)">
          <path
             d="M 0,0 C 0,-2.519 -1.448,-4.56 -3.234,-4.56 -5.021,-4.56 -6.47,-2.519 -6.47,0 V 3.345 H 0 Z"
             style="fill:none;stroke:#ffed00;stroke-width:0.25;stroke-linecap:butt;stroke-linejoin:miter;stroke-miterlimit:10;stroke-dasharray:none;stroke-opacity:1"
             id="path878"
             inkscape:connector-curvature="0" />
        </g>
        <g
           id="g880"
           transform="translate(397.8018,49.0908)">
          <path
             d="m 0,0 c 0,-1.518 -0.873,-2.748 -1.949,-2.748 -1.077,0 -1.95,1.23 -1.95,2.748 V 2.016 H 0 Z"
             style="fill:#ffffff;fill-opacity:1;fill-rule:nonzero;stroke:none"
             id="path882"
             inkscape:connector-curvature="0" />
        </g>
        <g
           id="g884"
           transform="translate(394.9326,48.9658)">
          <path
             d="M 0,0 C 0,-0.27 -0.154,-0.486 -0.346,-0.486 -0.536,-0.486 -0.69,-0.27 -0.69,0 V 0.356 H 0 Z"
             style="fill:#00518d;fill-opacity:1;fill-rule:nonzero;stroke:none"
             id="path886"
             inkscape:connector-curvature="0" />
        </g>
        <g
           id="g888"
           transform="translate(396.1973,50.3877)">
          <path
             d="M 0,0 C 0,-0.269 -0.154,-0.486 -0.345,-0.486 -0.536,-0.486 -0.69,-0.269 -0.69,0 V 0.357 H 0 Z"
             style="fill:#00518d;fill-opacity:1;fill-rule:nonzero;stroke:none"
             id="path890"
             inkscape:connector-curvature="0" />
        </g>
        <g
           id="g892"
           transform="translate(396.1973,48.9658)">
          <path
             d="M 0,0 C 0,-0.27 -0.155,-0.486 -0.346,-0.486 -0.537,-0.486 -0.69,-0.27 -0.69,0 V 0.356 H 0 Z"
             style="fill:#00518d;fill-opacity:1;fill-rule:nonzero;stroke:none"
             id="path894"
             inkscape:connector-curvature="0" />
        </g>
        <g
           id="g896"
           transform="translate(396.1973,47.4043)">
          <path
             d="M 0,0 C 0,-0.27 -0.154,-0.487 -0.345,-0.487 -0.536,-0.487 -0.69,-0.27 -0.69,0 V 0.356 H 0 Z"
             style="fill:#00518d;fill-opacity:1;fill-rule:nonzero;stroke:none"
             id="path898"
             inkscape:connector-curvature="0" />
        </g>
        <g
           id="g900"
           transform="translate(397.4629,48.9658)">
          <path
             d="M 0,0 C 0,-0.27 -0.154,-0.486 -0.345,-0.486 -0.536,-0.486 -0.69,-0.27 -0.69,0 V 0.356 H 0 Z"
             style="fill:#00518d;fill-opacity:1;fill-rule:nonzero;stroke:none"
             id="path902"
             inkscape:connector-curvature="0" />
        </g>
        <path
           d="m 396.379,51.491 h -1.054 v 0.58 h 1.054 z"
           style="fill:#ffed00;fill-opacity:1;fill-rule:nonzero;stroke:none"
           id="path904"
           inkscape:connector-curvature="0" />
        <path
           d="m 393.85,51.491 h -1.054 v 0.58 h 1.054 z"
           style="fill:#ffed00;fill-opacity:1;fill-rule:nonzero;stroke:none"
           id="path906"
           inkscape:connector-curvature="0" />
        <path
           d="m 398.908,51.491 h -1.054 v 0.58 h 1.054 z"
           style="fill:#ffed00;fill-opacity:1;fill-rule:nonzero;stroke:none"
           id="path908"
           inkscape:connector-curvature="0" />
        <path
           d="m 393.784,48.514 h -1.055 v 0.58 h 1.055 z"
           style="fill:#ffed00;fill-opacity:1;fill-rule:nonzero;stroke:none"
           id="path910"
           inkscape:connector-curvature="0" />
        <g
           id="g912"
           transform="translate(394.751,46.6758)">
          <path
             d="m 0,0 -0.781,-0.705 -0.39,0.429 0.781,0.706 z"
             style="fill:#ffed00;fill-opacity:1;fill-rule:nonzero;stroke:none"
             id="path914"
             inkscape:connector-curvature="0" />
        </g>
        <path
           d="m 397.927,48.514 h 1.055 v 0.58 h -1.055 z"
           style="fill:#ffed00;fill-opacity:1;fill-rule:nonzero;stroke:none"
           id="path916"
           inkscape:connector-curvature="0" />
        <g
           id="g918"
           transform="translate(396.96,46.6758)">
          <path
             d="M 0,0 0.781,-0.705 1.171,-0.276 0.389,0.43 Z"
             style="fill:#ffed00;fill-opacity:1;fill-rule:nonzero;stroke:none"
             id="path920"
             inkscape:connector-curvature="0" />
        </g>
      </g>
    </g>
  </g>
</svg>
