<?xml version="1.0" encoding="UTF-8" standalone="no"?>
<!-- Created with Inkscape (http://www.inkscape.org/) -->

<svg
   xmlns:dc="http://purl.org/dc/elements/1.1/"
   xmlns:cc="http://creativecommons.org/ns#"
   xmlns:rdf="http://www.w3.org/1999/02/22-rdf-syntax-ns#"
   xmlns:svg="http://www.w3.org/2000/svg"
   xmlns="http://www.w3.org/2000/svg"
   xmlns:sodipodi="http://sodipodi.sourceforge.net/DTD/sodipodi-0.dtd"
   xmlns:inkscape="http://www.inkscape.org/namespaces/inkscape"
   width="5.5119324mm"
   height="5.5146232mm"
   viewBox="0 0 5.5119324 5.5146232"
   version="1.1"
   id="svg8"
   inkscape:version="0.92.4 (unknown)"
   sodipodi:docname="animal_cow.svg">
  <defs
     id="defs2">
    <clipPath
       clipPathUnits="userSpaceOnUse"
       id="clipPath6042">
      <path
         d="m 62.3145,619.755 h 5.1694 v -7.357 h -5.1694 z"
         id="path6040"
         inkscape:connector-curvature="0" />
    </clipPath>
    <clipPath
       clipPathUnits="userSpaceOnUse"
       id="clipPath6046">
      <path
         d="m 62.3145,619.755 h 5.1694 v -7.357 h -5.1694 z"
         id="path6044"
         inkscape:connector-curvature="0" />
    </clipPath>
    <clipPath
       clipPathUnits="userSpaceOnUse"
       id="clipPath6050">
      <path
         d="m 62.3208,619.678 h 5.1631 v -7.28 h -5.1631 z"
         id="path6048"
         inkscape:connector-curvature="0" />
    </clipPath>
    <clipPath
       clipPathUnits="userSpaceOnUse"
       id="clipPath6054">
      <path
         d="m 62.3174,619.677 h 5.1597 v -7.26 h -5.1597 z"
         id="path6052"
         inkscape:connector-curvature="0" />
    </clipPath>
    <clipPath
       clipPathUnits="userSpaceOnUse"
       id="clipPath6058">
      <path
         d="m 62.3145,619.73 h 5.1264 v -7.224 h -5.1264 z"
         id="path6056"
         inkscape:connector-curvature="0" />
    </clipPath>
    <clipPath
       clipPathUnits="userSpaceOnUse"
       id="clipPath6062">
      <path
         d="m 62.3394,619.755 h 5.102 v -7.117 h -5.102 z"
         id="path6060"
         inkscape:connector-curvature="0" />
    </clipPath>
    <clipPath
       clipPathUnits="userSpaceOnUse"
       id="clipPath5954">
      <path
         d="m 59.7686,621.806 h 7.0942 v -9.829 h -7.0942 z"
         id="path5952"
         inkscape:connector-curvature="0" />
    </clipPath>
    <clipPath
       clipPathUnits="userSpaceOnUse"
       id="clipPath5958">
      <path
         d="m 59.7686,621.806 h 7.0942 v -9.829 h -7.0942 z"
         id="path5956"
         inkscape:connector-curvature="0" />
    </clipPath>
    <clipPath
       clipPathUnits="userSpaceOnUse"
       id="clipPath5962">
      <path
         d="m 59.8159,621.631 h 7.0469 v -9.654 h -7.0469 z"
         id="path5960"
         inkscape:connector-curvature="0" />
    </clipPath>
    <clipPath
       clipPathUnits="userSpaceOnUse"
       id="clipPath5966">
      <path
         d="m 59.8115,621.629 h 7.0464 v -9.623 h -7.0464 z"
         id="path5964"
         inkscape:connector-curvature="0" />
    </clipPath>
    <clipPath
       clipPathUnits="userSpaceOnUse"
       id="clipPath5970">
      <path
         d="m 59.772,621.737 h 7.0581 v -9.558 H 59.772 Z"
         id="path5968"
         inkscape:connector-curvature="0" />
    </clipPath>
    <clipPath
       clipPathUnits="userSpaceOnUse"
       id="clipPath5974">
      <path
         d="m 59.7686,621.806 h 7.0668 v -9.347 h -7.0668 z"
         id="path5972"
         inkscape:connector-curvature="0" />
    </clipPath>
    <clipPath
       clipPathUnits="userSpaceOnUse"
       id="clipPath5866">
      <path
         d="m 59.0522,622.716 h 7.2862 v -10.767 h -7.2862 z"
         id="path5864"
         inkscape:connector-curvature="0" />
    </clipPath>
    <clipPath
       clipPathUnits="userSpaceOnUse"
       id="clipPath5870">
      <path
         d="m 59.0522,622.716 h 7.2862 v -10.767 h -7.2862 z"
         id="path5868"
         inkscape:connector-curvature="0" />
    </clipPath>
    <clipPath
       clipPathUnits="userSpaceOnUse"
       id="clipPath5874">
      <path
         d="m 59.1006,622.548 h 7.2378 v -10.599 h -7.2378 z"
         id="path5872"
         inkscape:connector-curvature="0" />
    </clipPath>
    <clipPath
       clipPathUnits="userSpaceOnUse"
       id="clipPath5878">
      <path
         d="m 59.0957,622.546 h 7.2368 V 611.98 h -7.2368 z"
         id="path5876"
         inkscape:connector-curvature="0" />
    </clipPath>
    <clipPath
       clipPathUnits="userSpaceOnUse"
       id="clipPath5882">
      <path
         d="m 59.0576,622.658 h 7.2432 v -10.491 h -7.2432 z"
         id="path5880"
         inkscape:connector-curvature="0" />
    </clipPath>
    <clipPath
       clipPathUnits="userSpaceOnUse"
       id="clipPath5886">
      <path
         d="m 59.0522,622.716 h 7.253 v -10.253 h -7.253 z"
         id="path5884"
         inkscape:connector-curvature="0" />
    </clipPath>
    <clipPath
       clipPathUnits="userSpaceOnUse"
       id="clipPath5758">
      <path
         d="m 43.8926,624.127 h 3.1108 V 612.47 h -3.1108 z"
         id="path5756"
         inkscape:connector-curvature="0" />
    </clipPath>
    <clipPath
       clipPathUnits="userSpaceOnUse"
       id="clipPath5762">
      <path
         d="m 43.8926,624.127 h 3.1108 V 612.47 h -3.1108 z"
         id="path5760"
         inkscape:connector-curvature="0" />
    </clipPath>
    <clipPath
       clipPathUnits="userSpaceOnUse"
       id="clipPath5766">
      <path
         d="m 43.9287,624.03 h 3.0747 v -11.56 h -3.0747 z"
         id="path5764"
         inkscape:connector-curvature="0" />
    </clipPath>
    <clipPath
       clipPathUnits="userSpaceOnUse"
       id="clipPath5770">
      <path
         d="M 43.9243,624.031 H 46.999 V 612.483 H 43.9243 Z"
         id="path5768"
         inkscape:connector-curvature="0" />
    </clipPath>
    <clipPath
       clipPathUnits="userSpaceOnUse"
       id="clipPath5774">
      <path
         d="m 43.8926,624.1 h 3.0957 v -11.529 h -3.0957 z"
         id="path5772"
         inkscape:connector-curvature="0" />
    </clipPath>
    <clipPath
       clipPathUnits="userSpaceOnUse"
       id="clipPath5778">
      <path
         d="m 43.8931,624.127 h 3.1074 V 612.72 h -3.1074 z"
         id="path5776"
         inkscape:connector-curvature="0" />
    </clipPath>
    <clipPath
       clipPathUnits="userSpaceOnUse"
       id="clipPath5670">
      <path
         d="m 42.5449,625.007 h 3.105 v -12.968 h -3.105 z"
         id="path5668"
         inkscape:connector-curvature="0" />
    </clipPath>
    <clipPath
       clipPathUnits="userSpaceOnUse"
       id="clipPath5674">
      <path
         d="m 42.5449,625.007 h 3.105 v -12.968 h -3.105 z"
         id="path5672"
         inkscape:connector-curvature="0" />
    </clipPath>
    <clipPath
       clipPathUnits="userSpaceOnUse"
       id="clipPath5678">
      <path
         d="m 42.5796,624.903 h 3.0703 v -12.864 h -3.0703 z"
         id="path5676"
         inkscape:connector-curvature="0" />
    </clipPath>
    <clipPath
       clipPathUnits="userSpaceOnUse"
       id="clipPath5682">
      <path
         d="m 42.5757,624.903 h 3.0698 v -12.85 h -3.0698 z"
         id="path5680"
         inkscape:connector-curvature="0" />
    </clipPath>
    <clipPath
       clipPathUnits="userSpaceOnUse"
       id="clipPath5686">
      <path
         d="m 42.5449,624.976 h 3.086 V 612.15 h -3.086 z"
         id="path5684"
         inkscape:connector-curvature="0" />
    </clipPath>
    <clipPath
       clipPathUnits="userSpaceOnUse"
       id="clipPath5690">
      <path
         d="m 42.5449,625.007 h 3.0972 v -12.692 h -3.0972 z"
         id="path5688"
         inkscape:connector-curvature="0" />
    </clipPath>
    <clipPath
       clipPathUnits="userSpaceOnUse"
       id="clipPath5582">
      <path
         d="m 41.7368,625.379 h 3.0698 v -13.341 h -3.0698 z"
         id="path5580"
         inkscape:connector-curvature="0" />
    </clipPath>
    <clipPath
       clipPathUnits="userSpaceOnUse"
       id="clipPath5586">
      <path
         d="m 41.7368,625.379 h 3.0698 v -13.341 h -3.0698 z"
         id="path5584"
         inkscape:connector-curvature="0" />
    </clipPath>
    <clipPath
       clipPathUnits="userSpaceOnUse"
       id="clipPath5590">
      <path
         d="m 41.772,625.274 h 3.0346 V 612.038 H 41.772 Z"
         id="path5588"
         inkscape:connector-curvature="0" />
    </clipPath>
    <clipPath
       clipPathUnits="userSpaceOnUse"
       id="clipPath5594">
      <path
         d="m 41.7681,625.274 h 3.0341 v -13.222 h -3.0341 z"
         id="path5592"
         inkscape:connector-curvature="0" />
    </clipPath>
    <clipPath
       clipPathUnits="userSpaceOnUse"
       id="clipPath5598">
      <path
         d="m 41.7368,625.348 h 3.0493 v -13.195 h -3.0493 z"
         id="path5596"
         inkscape:connector-curvature="0" />
    </clipPath>
    <clipPath
       clipPathUnits="userSpaceOnUse"
       id="clipPath5602">
      <path
         d="m 41.7368,625.379 h 3.0601 v -13.057 h -3.0601 z"
         id="path5600"
         inkscape:connector-curvature="0" />
    </clipPath>
    <clipPath
       clipPathUnits="userSpaceOnUse"
       id="clipPath21616">
      <path
         d="m 74.2773,261.091 h 3.6387 v -9.258 h -3.6387 z"
         id="path21614"
         inkscape:connector-curvature="0" />
    </clipPath>
    <clipPath
       clipPathUnits="userSpaceOnUse"
       id="clipPath21620">
      <path
         d="m 74.2773,261.091 h 3.6387 v -9.258 h -3.6387 z"
         id="path21618"
         inkscape:connector-curvature="0" />
    </clipPath>
    <clipPath
       clipPathUnits="userSpaceOnUse"
       id="clipPath21312">
      <path
         d="m 74.957,255.9 h 2.8501 v -3.843 H 74.957 Z"
         id="path21310"
         inkscape:connector-curvature="0" />
    </clipPath>
    <clipPath
       clipPathUnits="userSpaceOnUse"
       id="clipPath21316">
      <path
         d="m 74.957,255.9 h 2.8501 v -3.843 H 74.957 Z"
         id="path21314"
         inkscape:connector-curvature="0" />
    </clipPath>
    <clipPath
       clipPathUnits="userSpaceOnUse"
       id="clipPath21008">
      <path
         d="m 77.3525,257.184 h 3.1573 v -5.51 h -3.1573 z"
         id="path21006"
         inkscape:connector-curvature="0" />
    </clipPath>
    <clipPath
       clipPathUnits="userSpaceOnUse"
       id="clipPath21012">
      <path
         d="m 77.3525,257.184 h 3.1573 v -5.51 h -3.1573 z"
         id="path21010"
         inkscape:connector-curvature="0" />
    </clipPath>
    <clipPath
       clipPathUnits="userSpaceOnUse"
       id="clipPath20704">
      <path
         d="m 76.9756,259.93 h 3.3657 v -7.945 h -3.3657 z"
         id="path20702"
         inkscape:connector-curvature="0" />
    </clipPath>
    <clipPath
       clipPathUnits="userSpaceOnUse"
       id="clipPath20708">
      <path
         d="m 76.9756,259.93 h 3.3657 v -7.945 h -3.3657 z"
         id="path20706"
         inkscape:connector-curvature="0" />
    </clipPath>
  </defs>
  <sodipodi:namedview
     id="base"
     pagecolor="#ffffff"
     bordercolor="#666666"
     borderopacity="1.0"
     inkscape:pageopacity="0.0"
     inkscape:pageshadow="2"
     inkscape:zoom="5.6"
     inkscape:cx="-2.8741012"
     inkscape:cy="-6.7911783"
     inkscape:document-units="mm"
     inkscape:current-layer="layer1"
     showgrid="false"
     fit-margin-top="0"
     fit-margin-left="0"
     fit-margin-right="0"
     fit-margin-bottom="0"
     inkscape:window-width="959"
     inkscape:window-height="1023"
     inkscape:window-x="0"
     inkscape:window-y="0"
     inkscape:window-maximized="0" />
  <metadata
     id="metadata5">
    <rdf:RDF>
      <cc:Work
         rdf:about="">
        <dc:format>image/svg+xml</dc:format>
        <dc:type
           rdf:resource="http://purl.org/dc/dcmitype/StillImage" />
        <dc:title></dc:title>
      </cc:Work>
    </rdf:RDF>
  </metadata>
  <g
     inkscape:label="Layer 1"
     inkscape:groupmode="layer"
     id="layer1"
     transform="translate(-81.721712,-123.77543)">
    <path
       inkscape:connector-curvature="0"
       id="path58410"
       style="fill:#231f20;fill-opacity:1;fill-rule:nonzero;stroke:none;stroke-width:0.27818927"
       d="m 81.66172,124.94228 c 0.300168,-0.0685 0.188056,0 0.569457,0 h 1.364788 c 0.694646,0 1.414873,-0.18137 1.582904,-0.16858 0.169139,0.0122 0.24425,-0.089 0.589202,-8.6e-4 0.343564,0.0885 0.537461,0.007 0.537461,0.007 0,0 0.02554,-0.31352 0.475705,-0.0876 0,0 0.231451,-0.13186 0.525502,-0.0812 0.294324,0.0495 0.337994,-0.0501 0.337994,-0.0501 0,0 0,0.11879 -0.256213,0.1313 -0.256213,0.0126 -0.250644,0.059 -0.250644,0.059 l 0.04392,0.0409 c 0,0 0.288482,0.006 0.369163,-0.0938 0,0 -0.06175,0.16247 -0.256774,0.1939 0,0 0.106827,0.10043 0.0634,0.18806 0,0 0.313245,0.42535 0.349694,0.58197 0.03753,0.15607 -0.08736,0.20058 -0.106267,0.20058 0,0 -0.03335,0.0982 -0.139381,0.0587 -0.105154,-0.0406 -0.156616,0.0233 -0.318801,-0.0309 -0.161348,-0.0537 -0.147716,0.0442 -0.47181,0.0309 -0.05394,-0.003 -0.08457,0.10516 -0.199743,0.16831 -0.114334,0.0637 -0.220325,0.25148 -0.227559,0.51465 -0.0071,0.26288 -0.139093,0.21782 -0.245912,0.41283 -0.06593,0.1199 -0.366104,0.1199 -0.366104,0.1199 0,0 -0.03645,0.18639 -0.127405,0.32687 0,0 0,0.1416 -0.01894,0.17304 -0.01838,0.0315 0.05733,0.0389 0.02532,0.18471 -0.0094,0.0439 0.03477,0.12185 0.06569,0.15022 0.03145,0.0278 -0.0081,0.0398 0.07539,0.10933 0.01838,0.0156 -0.0063,0.0504 -0.0063,0.0504 0,0 0.06593,0.0528 0.06869,0.20252 0,0 0.05094,0.0532 -0.325483,0.0195 l -0.05283,-0.0406 c 0,0 -0.02507,-0.0125 0.04369,-0.1505 0.02506,-0.0501 -0.047,-0.0406 -0.04369,-0.025 0.003,0.0153 -0.06261,-0.047 -0.05978,-0.1099 0.003,-0.0623 -0.05536,-0.33132 -0.0217,-0.42562 0.03447,-0.0932 -0.112384,-0.15913 -0.156339,-0.37166 0,0 -0.05204,0.2793 -0.131306,0.37527 -0.047,0.0562 0.106267,0.31296 0.08123,0.4095 0,0 0.08207,0.12241 0.0787,0.18527 0,0 -0.131301,0.0812 -0.326031,-0.009 0,0 -0.02506,-0.0752 -0.0063,-0.12212 0,0 -0.09514,-0.0195 0.0091,-0.43816 0.0097,-0.0375 -0.212818,-0.40031 -0.15662,-0.64456 0,0 -0.02783,-0.0776 -0.625095,-0.0937 -0.350793,-0.009 -0.141318,0.0748 -0.497957,0.0375 -0.356639,-0.0375 -0.563055,-0.15356 -1.091616,-0.0815 0,0 -0.274569,0.39531 -0.353852,0.50325 -0.03455,0.0476 0.0217,0.35107 0.01562,0.47013 -0.0063,0.11852 0.199742,0.27514 0.215877,0.33495 0.01531,0.0587 0.194177,0.21809 0.191119,0.28069 0,0 -0.241192,0.13853 -0.488225,0.0156 0,0 -0.03145,-0.0899 -0.0063,-0.17526 0.02476,-0.0843 -0.03753,-0.002 -0.03753,-0.002 0,0 0.01255,-0.30323 -0.08763,-0.42536 l -0.0063,0.0587 c 0,0 -0.146603,-0.36526 -0.196399,-0.39976 0,0 -0.06955,0.33772 0.118506,0.52857 l -0.003,0.0378 0.112393,0.18389 c 0,0 -0.181387,0.15049 -0.381674,-0.0245 -0.200299,-0.17498 0,0.0126 0,0.0126 0,0 -0.0091,-0.13464 0.01859,-0.16914 0,0 0.0063,-0.059 -0.06206,-0.0342 -0.06868,0.025 0.07452,-0.23451 0.01497,-0.37305 l -0.03391,0.0131 -0.0094,-0.0818 c 0,0 -0.05622,0.006 -0.05954,-0.0526 -0.003,-0.0603 -0.01165,0.0568 -0.149939,-0.19779 -0.03809,-0.0685 0.403369,-0.32994 0.126573,-1.278 -0.27708,-0.94835 0.292378,-1.1314 0.292378,-1.1314" />
  </g>
</svg>
