<?xml version="1.0" encoding="UTF-8" standalone="no"?>
<!-- Created with Inkscape (http://www.inkscape.org/) -->

<svg
   xmlns:dc="http://purl.org/dc/elements/1.1/"
   xmlns:cc="http://creativecommons.org/ns#"
   xmlns:rdf="http://www.w3.org/1999/02/22-rdf-syntax-ns#"
   xmlns:svg="http://www.w3.org/2000/svg"
   xmlns="http://www.w3.org/2000/svg"
   xmlns:sodipodi="http://sodipodi.sourceforge.net/DTD/sodipodi-0.dtd"
   xmlns:inkscape="http://www.inkscape.org/namespaces/inkscape"
   width="300"
   height="300"
   viewBox="0 0 79.375 79.375"
   version="1.1"
   id="svg8"
   inkscape:version="0.92.4 (unknown)"
   sodipodi:docname="animal_pig.svg">
  <defs
     id="defs2">
    <clipPath
       clipPathUnits="userSpaceOnUse"
       id="clipPath6042">
      <path
         d="m 62.3145,619.755 h 5.1694 v -7.357 h -5.1694 z"
         id="path6040"
         inkscape:connector-curvature="0" />
    </clipPath>
    <clipPath
       clipPathUnits="userSpaceOnUse"
       id="clipPath6046">
      <path
         d="m 62.3145,619.755 h 5.1694 v -7.357 h -5.1694 z"
         id="path6044"
         inkscape:connector-curvature="0" />
    </clipPath>
    <clipPath
       clipPathUnits="userSpaceOnUse"
       id="clipPath6050">
      <path
         d="m 62.3208,619.678 h 5.1631 v -7.28 h -5.1631 z"
         id="path6048"
         inkscape:connector-curvature="0" />
    </clipPath>
    <clipPath
       clipPathUnits="userSpaceOnUse"
       id="clipPath6054">
      <path
         d="m 62.3174,619.677 h 5.1597 v -7.26 h -5.1597 z"
         id="path6052"
         inkscape:connector-curvature="0" />
    </clipPath>
    <clipPath
       clipPathUnits="userSpaceOnUse"
       id="clipPath6058">
      <path
         d="m 62.3145,619.73 h 5.1264 v -7.224 h -5.1264 z"
         id="path6056"
         inkscape:connector-curvature="0" />
    </clipPath>
    <clipPath
       clipPathUnits="userSpaceOnUse"
       id="clipPath6062">
      <path
         d="m 62.3394,619.755 h 5.102 v -7.117 h -5.102 z"
         id="path6060"
         inkscape:connector-curvature="0" />
    </clipPath>
    <clipPath
       clipPathUnits="userSpaceOnUse"
       id="clipPath5954">
      <path
         d="m 59.7686,621.806 h 7.0942 v -9.829 h -7.0942 z"
         id="path5952"
         inkscape:connector-curvature="0" />
    </clipPath>
    <clipPath
       clipPathUnits="userSpaceOnUse"
       id="clipPath5958">
      <path
         d="m 59.7686,621.806 h 7.0942 v -9.829 h -7.0942 z"
         id="path5956"
         inkscape:connector-curvature="0" />
    </clipPath>
    <clipPath
       clipPathUnits="userSpaceOnUse"
       id="clipPath5962">
      <path
         d="m 59.8159,621.631 h 7.0469 v -9.654 h -7.0469 z"
         id="path5960"
         inkscape:connector-curvature="0" />
    </clipPath>
    <clipPath
       clipPathUnits="userSpaceOnUse"
       id="clipPath5966">
      <path
         d="m 59.8115,621.629 h 7.0464 v -9.623 h -7.0464 z"
         id="path5964"
         inkscape:connector-curvature="0" />
    </clipPath>
    <clipPath
       clipPathUnits="userSpaceOnUse"
       id="clipPath5970">
      <path
         d="m 59.772,621.737 h 7.0581 v -9.558 H 59.772 Z"
         id="path5968"
         inkscape:connector-curvature="0" />
    </clipPath>
    <clipPath
       clipPathUnits="userSpaceOnUse"
       id="clipPath5974">
      <path
         d="m 59.7686,621.806 h 7.0668 v -9.347 h -7.0668 z"
         id="path5972"
         inkscape:connector-curvature="0" />
    </clipPath>
    <clipPath
       clipPathUnits="userSpaceOnUse"
       id="clipPath5866">
      <path
         d="m 59.0522,622.716 h 7.2862 v -10.767 h -7.2862 z"
         id="path5864"
         inkscape:connector-curvature="0" />
    </clipPath>
    <clipPath
       clipPathUnits="userSpaceOnUse"
       id="clipPath5870">
      <path
         d="m 59.0522,622.716 h 7.2862 v -10.767 h -7.2862 z"
         id="path5868"
         inkscape:connector-curvature="0" />
    </clipPath>
    <clipPath
       clipPathUnits="userSpaceOnUse"
       id="clipPath5874">
      <path
         d="m 59.1006,622.548 h 7.2378 v -10.599 h -7.2378 z"
         id="path5872"
         inkscape:connector-curvature="0" />
    </clipPath>
    <clipPath
       clipPathUnits="userSpaceOnUse"
       id="clipPath5878">
      <path
         d="m 59.0957,622.546 h 7.2368 V 611.98 h -7.2368 z"
         id="path5876"
         inkscape:connector-curvature="0" />
    </clipPath>
    <clipPath
       clipPathUnits="userSpaceOnUse"
       id="clipPath5882">
      <path
         d="m 59.0576,622.658 h 7.2432 v -10.491 h -7.2432 z"
         id="path5880"
         inkscape:connector-curvature="0" />
    </clipPath>
    <clipPath
       clipPathUnits="userSpaceOnUse"
       id="clipPath5886">
      <path
         d="m 59.0522,622.716 h 7.253 v -10.253 h -7.253 z"
         id="path5884"
         inkscape:connector-curvature="0" />
    </clipPath>
    <clipPath
       clipPathUnits="userSpaceOnUse"
       id="clipPath5758">
      <path
         d="m 43.8926,624.127 h 3.1108 V 612.47 h -3.1108 z"
         id="path5756"
         inkscape:connector-curvature="0" />
    </clipPath>
    <clipPath
       clipPathUnits="userSpaceOnUse"
       id="clipPath5762">
      <path
         d="m 43.8926,624.127 h 3.1108 V 612.47 h -3.1108 z"
         id="path5760"
         inkscape:connector-curvature="0" />
    </clipPath>
    <clipPath
       clipPathUnits="userSpaceOnUse"
       id="clipPath5766">
      <path
         d="m 43.9287,624.03 h 3.0747 v -11.56 h -3.0747 z"
         id="path5764"
         inkscape:connector-curvature="0" />
    </clipPath>
    <clipPath
       clipPathUnits="userSpaceOnUse"
       id="clipPath5770">
      <path
         d="M 43.9243,624.031 H 46.999 V 612.483 H 43.9243 Z"
         id="path5768"
         inkscape:connector-curvature="0" />
    </clipPath>
    <clipPath
       clipPathUnits="userSpaceOnUse"
       id="clipPath5774">
      <path
         d="m 43.8926,624.1 h 3.0957 v -11.529 h -3.0957 z"
         id="path5772"
         inkscape:connector-curvature="0" />
    </clipPath>
    <clipPath
       clipPathUnits="userSpaceOnUse"
       id="clipPath5778">
      <path
         d="m 43.8931,624.127 h 3.1074 V 612.72 h -3.1074 z"
         id="path5776"
         inkscape:connector-curvature="0" />
    </clipPath>
    <clipPath
       clipPathUnits="userSpaceOnUse"
       id="clipPath5670">
      <path
         d="m 42.5449,625.007 h 3.105 v -12.968 h -3.105 z"
         id="path5668"
         inkscape:connector-curvature="0" />
    </clipPath>
    <clipPath
       clipPathUnits="userSpaceOnUse"
       id="clipPath5674">
      <path
         d="m 42.5449,625.007 h 3.105 v -12.968 h -3.105 z"
         id="path5672"
         inkscape:connector-curvature="0" />
    </clipPath>
    <clipPath
       clipPathUnits="userSpaceOnUse"
       id="clipPath5678">
      <path
         d="m 42.5796,624.903 h 3.0703 v -12.864 h -3.0703 z"
         id="path5676"
         inkscape:connector-curvature="0" />
    </clipPath>
    <clipPath
       clipPathUnits="userSpaceOnUse"
       id="clipPath5682">
      <path
         d="m 42.5757,624.903 h 3.0698 v -12.85 h -3.0698 z"
         id="path5680"
         inkscape:connector-curvature="0" />
    </clipPath>
    <clipPath
       clipPathUnits="userSpaceOnUse"
       id="clipPath5686">
      <path
         d="m 42.5449,624.976 h 3.086 V 612.15 h -3.086 z"
         id="path5684"
         inkscape:connector-curvature="0" />
    </clipPath>
    <clipPath
       clipPathUnits="userSpaceOnUse"
       id="clipPath5690">
      <path
         d="m 42.5449,625.007 h 3.0972 v -12.692 h -3.0972 z"
         id="path5688"
         inkscape:connector-curvature="0" />
    </clipPath>
    <clipPath
       clipPathUnits="userSpaceOnUse"
       id="clipPath5582">
      <path
         d="m 41.7368,625.379 h 3.0698 v -13.341 h -3.0698 z"
         id="path5580"
         inkscape:connector-curvature="0" />
    </clipPath>
    <clipPath
       clipPathUnits="userSpaceOnUse"
       id="clipPath5586">
      <path
         d="m 41.7368,625.379 h 3.0698 v -13.341 h -3.0698 z"
         id="path5584"
         inkscape:connector-curvature="0" />
    </clipPath>
    <clipPath
       clipPathUnits="userSpaceOnUse"
       id="clipPath5590">
      <path
         d="m 41.772,625.274 h 3.0346 V 612.038 H 41.772 Z"
         id="path5588"
         inkscape:connector-curvature="0" />
    </clipPath>
    <clipPath
       clipPathUnits="userSpaceOnUse"
       id="clipPath5594">
      <path
         d="m 41.7681,625.274 h 3.0341 v -13.222 h -3.0341 z"
         id="path5592"
         inkscape:connector-curvature="0" />
    </clipPath>
    <clipPath
       clipPathUnits="userSpaceOnUse"
       id="clipPath5598">
      <path
         d="m 41.7368,625.348 h 3.0493 v -13.195 h -3.0493 z"
         id="path5596"
         inkscape:connector-curvature="0" />
    </clipPath>
    <clipPath
       clipPathUnits="userSpaceOnUse"
       id="clipPath5602">
      <path
         d="m 41.7368,625.379 h 3.0601 v -13.057 h -3.0601 z"
         id="path5600"
         inkscape:connector-curvature="0" />
    </clipPath>
    <clipPath
       clipPathUnits="userSpaceOnUse"
       id="clipPath21616">
      <path
         d="m 74.2773,261.091 h 3.6387 v -9.258 h -3.6387 z"
         id="path21614"
         inkscape:connector-curvature="0" />
    </clipPath>
    <clipPath
       clipPathUnits="userSpaceOnUse"
       id="clipPath21620">
      <path
         d="m 74.2773,261.091 h 3.6387 v -9.258 h -3.6387 z"
         id="path21618"
         inkscape:connector-curvature="0" />
    </clipPath>
    <clipPath
       clipPathUnits="userSpaceOnUse"
       id="clipPath21312">
      <path
         d="m 74.957,255.9 h 2.8501 v -3.843 H 74.957 Z"
         id="path21310"
         inkscape:connector-curvature="0" />
    </clipPath>
    <clipPath
       clipPathUnits="userSpaceOnUse"
       id="clipPath21316">
      <path
         d="m 74.957,255.9 h 2.8501 v -3.843 H 74.957 Z"
         id="path21314"
         inkscape:connector-curvature="0" />
    </clipPath>
    <clipPath
       clipPathUnits="userSpaceOnUse"
       id="clipPath21008">
      <path
         d="m 77.3525,257.184 h 3.1573 v -5.51 h -3.1573 z"
         id="path21006"
         inkscape:connector-curvature="0" />
    </clipPath>
    <clipPath
       clipPathUnits="userSpaceOnUse"
       id="clipPath21012">
      <path
         d="m 77.3525,257.184 h 3.1573 v -5.51 h -3.1573 z"
         id="path21010"
         inkscape:connector-curvature="0" />
    </clipPath>
    <clipPath
       clipPathUnits="userSpaceOnUse"
       id="clipPath20704">
      <path
         d="m 76.9756,259.93 h 3.3657 v -7.945 h -3.3657 z"
         id="path20702"
         inkscape:connector-curvature="0" />
    </clipPath>
    <clipPath
       clipPathUnits="userSpaceOnUse"
       id="clipPath20708">
      <path
         d="m 76.9756,259.93 h 3.3657 v -7.945 h -3.3657 z"
         id="path20706"
         inkscape:connector-curvature="0" />
    </clipPath>
  </defs>
  <sodipodi:namedview
     id="base"
     pagecolor="#ffffff"
     bordercolor="#666666"
     borderopacity="1.0"
     inkscape:pageopacity="0.0"
     inkscape:pageshadow="2"
     inkscape:zoom="0.49497475"
     inkscape:cx="33.016137"
     inkscape:cy="-251.77631"
     inkscape:document-units="mm"
     inkscape:current-layer="layer1"
     showgrid="false"
     fit-margin-top="0"
     fit-margin-left="0"
     fit-margin-right="0"
     fit-margin-bottom="0"
     inkscape:window-width="959"
     inkscape:window-height="1023"
     inkscape:window-x="0"
     inkscape:window-y="0"
     inkscape:window-maximized="0"
     units="px" />
  <metadata
     id="metadata5">
    <rdf:RDF>
      <cc:Work
         rdf:about="">
        <dc:format>image/svg+xml</dc:format>
        <dc:type
           rdf:resource="http://purl.org/dc/dcmitype/StillImage" />
        <dc:title></dc:title>
      </cc:Work>
    </rdf:RDF>
  </metadata>
  <g
     inkscape:label="Layer 1"
     inkscape:groupmode="layer"
     id="layer1"
     transform="translate(-81.721712,-49.915053)">
    <path
       inkscape:connector-curvature="0"
       id="path58394"
       style="fill:#231f20;fill-opacity:1;fill-rule:nonzero;stroke:none;stroke-width:4.19605064"
       d="m 81.721713,93.692633 c 0,0 1.359516,1.20426 4.41006,-0.55412 3.037923,-1.77495 -0.805245,1.18697 -0.805245,1.18697 0,0 2.647625,-1.30927 4.615604,-3.91493 1.959585,-2.60577 4.565249,-5.24931 5.358394,-5.33314 0,0 -0.554354,5.01429 2.215497,6.88574 2.760927,1.8924 1.472802,5.0562 -0.288899,5.9416 -1.762222,0.8809 0.44507,2.00145 0.163985,3.965247 -0.277176,1.96368 1.682704,5.40868 1.049034,8.40884 l -0.08288,0.99931 c 0,0 2.123107,1.04429 6.172277,0 0,0 -3.00851,-1.34693 -3.20573,-3.72182 -0.20566,-2.36258 0,-4.24646 0,-4.24646 0,0 2.91624,7.33886 2.28695,7.80891 0,0 1.51469,0.59911 5.287,-0.19299 0,0 -2.48411,-1.1627 -2.73163,-2.12329 -0.22579,-0.96497 -1.48126,-5.44219 -0.55767,-7.41439 0.92767,-1.963797 4.53174,-6.491217 4.82123,-7.531847 0,0 2.59734,2.19859 3.51632,2.00571 0.92294,-0.20957 2.20295,1.07864 2.32463,1.95942 0,0 0.59935,-0.8809 0.23881,-1.51884 0,0 3.73027,0.79683 8.33339,0.23917 0,0 1.20848,6.730377 0.68388,9.059097 -0.51989,2.32468 -1.11557,2.44214 -0.55766,5.20325 0,0 1.88403,1.27968 3.80164,1.32171 0,0 -1.03246,-2.56374 -0.79696,-5.52625 0.12622,-1.48534 3.09252,-7.380767 3.3694,-8.496927 0.28049,-1.12363 4.00733,5.400147 4.24654,12.898607 0,0 1.56499,1.00759 5.08964,0.60858 0,0 -2.3623,-2.28254 -2.5637,-4.05334 -0.20566,-1.75814 -0.64221,-11.056527 1.11214,-12.256757 1.77082,-1.20414 2.49244,-0.0829 2.73581,0.15629 0.23882,0.24746 0,-0.80158 0,-0.80158 l 0.60053,0.55767 c 0,0 -0.56607,-0.95313 -0.27717,-0.75185 0.27717,0.193 0.88493,0.56241 0.88493,0.56241 v -0.81342 l 1.12042,0.5707 c 0,0 -0.96461,-1.0443 -0.68862,-0.88919 0.2805,0.17286 1.20425,0.60739 1.20425,0.60739 l -0.32726,-0.80512 c 0,0 0.99919,0.63344 1.04915,0.51622 0.045,-0.1184 -0.51599,-1.1917 -0.51599,-1.1917 0,0 1.67849,0.95668 1.55668,0.92353 -0.12101,-0.0474 -0.8017,-1.0443 -0.8017,-1.0443 l 1.99746,0.51623 -0.59603,-0.7554 c 0,0 2.08127,0 1.96376,0.39546 -0.12172,0.40375 5.97518,-1.28394 7.05768,-1.39725 1.07402,-0.12196 1.64074,0 1.91761,0.43098 0.2805,0.45229 1.40155,-0.071 1.40155,-0.071 0,0 3.08835,-3.93589 0.64552,-3.28966 0,0 -0.64552,-1.2882 -1.20431,-1.76666 -0.56288,-0.48663 -3.04626,-3.570739 -3.53305,-4.25048 -0.48284,-0.671334 -2.08114,-3.994614 -2.76091,-9.180936 -0.12101,-0.91524 -0.84326,-1.200113 -0.99919,-1.355336 0,0 0.55767,-2.521824 1.64919,-3.168057 1.07047,-0.636998 -0.36893,-0.07104 -0.8481,-0.35994 -0.48284,-0.277058 0.045,-1.351074 -0.85154,-1.565261 0,0 -1.4728,-0.07104 -1.989,3.411489 0,0 -0.56607,-0.524517 -2.73151,-0.44874 0,0 -1.23789,-5.085562 -3.71784,-0.235618 0,0 -4.94291,0.445188 -6.1052,0.884456 0,0 -0.11911,-0.884456 -2.51756,-0.201282 0,0 -6.21444,-3.256029 -16.71714,-0.126689 -2.68128,0.805127 -8.6564,-0.999305 -11.493,0.494916 -2.84486,1.468647 -2.21967,0.59911 -3.49108,2.236478 -0.56607,0.725798 -5.400276,3.130287 -6.294086,3.801502 -2.123168,1.607176 -0.360531,4.032503 -2.442081,5.656374 -3.612747,2.802904 -1.409931,2.400224 -2.844988,3.562574 -1.439224,1.16151 -4.128822,2.73577 -4.733058,3.80576 -0.590821,1.07863 0.768304,-0.3185 0.768304,-0.3185 0,0 -2.966668,3.56683 -5.572332,4.08697" />
  </g>
</svg>
