<?xml version="1.0" encoding="UTF-8" standalone="no"?>
<!-- Created with Inkscape (http://www.inkscape.org/) -->

<svg
   xmlns:dc="http://purl.org/dc/elements/1.1/"
   xmlns:cc="http://creativecommons.org/ns#"
   xmlns:rdf="http://www.w3.org/1999/02/22-rdf-syntax-ns#"
   xmlns:svg="http://www.w3.org/2000/svg"
   xmlns="http://www.w3.org/2000/svg"
   xmlns:sodipodi="http://sodipodi.sourceforge.net/DTD/sodipodi-0.dtd"
   xmlns:inkscape="http://www.inkscape.org/namespaces/inkscape"
   width="5.5119324mm"
   height="5.5146232mm"
   viewBox="0 0 5.5119324 5.5146232"
   version="1.1"
   id="svg8"
   inkscape:version="0.92.4 (unknown)"
   sodipodi:docname="animal_pig.svg">
  <defs
     id="defs2">
    <clipPath
       clipPathUnits="userSpaceOnUse"
       id="clipPath6042">
      <path
         d="m 62.3145,619.755 h 5.1694 v -7.357 h -5.1694 z"
         id="path6040"
         inkscape:connector-curvature="0" />
    </clipPath>
    <clipPath
       clipPathUnits="userSpaceOnUse"
       id="clipPath6046">
      <path
         d="m 62.3145,619.755 h 5.1694 v -7.357 h -5.1694 z"
         id="path6044"
         inkscape:connector-curvature="0" />
    </clipPath>
    <clipPath
       clipPathUnits="userSpaceOnUse"
       id="clipPath6050">
      <path
         d="m 62.3208,619.678 h 5.1631 v -7.28 h -5.1631 z"
         id="path6048"
         inkscape:connector-curvature="0" />
    </clipPath>
    <clipPath
       clipPathUnits="userSpaceOnUse"
       id="clipPath6054">
      <path
         d="m 62.3174,619.677 h 5.1597 v -7.26 h -5.1597 z"
         id="path6052"
         inkscape:connector-curvature="0" />
    </clipPath>
    <clipPath
       clipPathUnits="userSpaceOnUse"
       id="clipPath6058">
      <path
         d="m 62.3145,619.73 h 5.1264 v -7.224 h -5.1264 z"
         id="path6056"
         inkscape:connector-curvature="0" />
    </clipPath>
    <clipPath
       clipPathUnits="userSpaceOnUse"
       id="clipPath6062">
      <path
         d="m 62.3394,619.755 h 5.102 v -7.117 h -5.102 z"
         id="path6060"
         inkscape:connector-curvature="0" />
    </clipPath>
    <clipPath
       clipPathUnits="userSpaceOnUse"
       id="clipPath5954">
      <path
         d="m 59.7686,621.806 h 7.0942 v -9.829 h -7.0942 z"
         id="path5952"
         inkscape:connector-curvature="0" />
    </clipPath>
    <clipPath
       clipPathUnits="userSpaceOnUse"
       id="clipPath5958">
      <path
         d="m 59.7686,621.806 h 7.0942 v -9.829 h -7.0942 z"
         id="path5956"
         inkscape:connector-curvature="0" />
    </clipPath>
    <clipPath
       clipPathUnits="userSpaceOnUse"
       id="clipPath5962">
      <path
         d="m 59.8159,621.631 h 7.0469 v -9.654 h -7.0469 z"
         id="path5960"
         inkscape:connector-curvature="0" />
    </clipPath>
    <clipPath
       clipPathUnits="userSpaceOnUse"
       id="clipPath5966">
      <path
         d="m 59.8115,621.629 h 7.0464 v -9.623 h -7.0464 z"
         id="path5964"
         inkscape:connector-curvature="0" />
    </clipPath>
    <clipPath
       clipPathUnits="userSpaceOnUse"
       id="clipPath5970">
      <path
         d="m 59.772,621.737 h 7.0581 v -9.558 H 59.772 Z"
         id="path5968"
         inkscape:connector-curvature="0" />
    </clipPath>
    <clipPath
       clipPathUnits="userSpaceOnUse"
       id="clipPath5974">
      <path
         d="m 59.7686,621.806 h 7.0668 v -9.347 h -7.0668 z"
         id="path5972"
         inkscape:connector-curvature="0" />
    </clipPath>
    <clipPath
       clipPathUnits="userSpaceOnUse"
       id="clipPath5866">
      <path
         d="m 59.0522,622.716 h 7.2862 v -10.767 h -7.2862 z"
         id="path5864"
         inkscape:connector-curvature="0" />
    </clipPath>
    <clipPath
       clipPathUnits="userSpaceOnUse"
       id="clipPath5870">
      <path
         d="m 59.0522,622.716 h 7.2862 v -10.767 h -7.2862 z"
         id="path5868"
         inkscape:connector-curvature="0" />
    </clipPath>
    <clipPath
       clipPathUnits="userSpaceOnUse"
       id="clipPath5874">
      <path
         d="m 59.1006,622.548 h 7.2378 v -10.599 h -7.2378 z"
         id="path5872"
         inkscape:connector-curvature="0" />
    </clipPath>
    <clipPath
       clipPathUnits="userSpaceOnUse"
       id="clipPath5878">
      <path
         d="m 59.0957,622.546 h 7.2368 V 611.98 h -7.2368 z"
         id="path5876"
         inkscape:connector-curvature="0" />
    </clipPath>
    <clipPath
       clipPathUnits="userSpaceOnUse"
       id="clipPath5882">
      <path
         d="m 59.0576,622.658 h 7.2432 v -10.491 h -7.2432 z"
         id="path5880"
         inkscape:connector-curvature="0" />
    </clipPath>
    <clipPath
       clipPathUnits="userSpaceOnUse"
       id="clipPath5886">
      <path
         d="m 59.0522,622.716 h 7.253 v -10.253 h -7.253 z"
         id="path5884"
         inkscape:connector-curvature="0" />
    </clipPath>
    <clipPath
       clipPathUnits="userSpaceOnUse"
       id="clipPath5758">
      <path
         d="m 43.8926,624.127 h 3.1108 V 612.47 h -3.1108 z"
         id="path5756"
         inkscape:connector-curvature="0" />
    </clipPath>
    <clipPath
       clipPathUnits="userSpaceOnUse"
       id="clipPath5762">
      <path
         d="m 43.8926,624.127 h 3.1108 V 612.47 h -3.1108 z"
         id="path5760"
         inkscape:connector-curvature="0" />
    </clipPath>
    <clipPath
       clipPathUnits="userSpaceOnUse"
       id="clipPath5766">
      <path
         d="m 43.9287,624.03 h 3.0747 v -11.56 h -3.0747 z"
         id="path5764"
         inkscape:connector-curvature="0" />
    </clipPath>
    <clipPath
       clipPathUnits="userSpaceOnUse"
       id="clipPath5770">
      <path
         d="M 43.9243,624.031 H 46.999 V 612.483 H 43.9243 Z"
         id="path5768"
         inkscape:connector-curvature="0" />
    </clipPath>
    <clipPath
       clipPathUnits="userSpaceOnUse"
       id="clipPath5774">
      <path
         d="m 43.8926,624.1 h 3.0957 v -11.529 h -3.0957 z"
         id="path5772"
         inkscape:connector-curvature="0" />
    </clipPath>
    <clipPath
       clipPathUnits="userSpaceOnUse"
       id="clipPath5778">
      <path
         d="m 43.8931,624.127 h 3.1074 V 612.72 h -3.1074 z"
         id="path5776"
         inkscape:connector-curvature="0" />
    </clipPath>
    <clipPath
       clipPathUnits="userSpaceOnUse"
       id="clipPath5670">
      <path
         d="m 42.5449,625.007 h 3.105 v -12.968 h -3.105 z"
         id="path5668"
         inkscape:connector-curvature="0" />
    </clipPath>
    <clipPath
       clipPathUnits="userSpaceOnUse"
       id="clipPath5674">
      <path
         d="m 42.5449,625.007 h 3.105 v -12.968 h -3.105 z"
         id="path5672"
         inkscape:connector-curvature="0" />
    </clipPath>
    <clipPath
       clipPathUnits="userSpaceOnUse"
       id="clipPath5678">
      <path
         d="m 42.5796,624.903 h 3.0703 v -12.864 h -3.0703 z"
         id="path5676"
         inkscape:connector-curvature="0" />
    </clipPath>
    <clipPath
       clipPathUnits="userSpaceOnUse"
       id="clipPath5682">
      <path
         d="m 42.5757,624.903 h 3.0698 v -12.85 h -3.0698 z"
         id="path5680"
         inkscape:connector-curvature="0" />
    </clipPath>
    <clipPath
       clipPathUnits="userSpaceOnUse"
       id="clipPath5686">
      <path
         d="m 42.5449,624.976 h 3.086 V 612.15 h -3.086 z"
         id="path5684"
         inkscape:connector-curvature="0" />
    </clipPath>
    <clipPath
       clipPathUnits="userSpaceOnUse"
       id="clipPath5690">
      <path
         d="m 42.5449,625.007 h 3.0972 v -12.692 h -3.0972 z"
         id="path5688"
         inkscape:connector-curvature="0" />
    </clipPath>
    <clipPath
       clipPathUnits="userSpaceOnUse"
       id="clipPath5582">
      <path
         d="m 41.7368,625.379 h 3.0698 v -13.341 h -3.0698 z"
         id="path5580"
         inkscape:connector-curvature="0" />
    </clipPath>
    <clipPath
       clipPathUnits="userSpaceOnUse"
       id="clipPath5586">
      <path
         d="m 41.7368,625.379 h 3.0698 v -13.341 h -3.0698 z"
         id="path5584"
         inkscape:connector-curvature="0" />
    </clipPath>
    <clipPath
       clipPathUnits="userSpaceOnUse"
       id="clipPath5590">
      <path
         d="m 41.772,625.274 h 3.0346 V 612.038 H 41.772 Z"
         id="path5588"
         inkscape:connector-curvature="0" />
    </clipPath>
    <clipPath
       clipPathUnits="userSpaceOnUse"
       id="clipPath5594">
      <path
         d="m 41.7681,625.274 h 3.0341 v -13.222 h -3.0341 z"
         id="path5592"
         inkscape:connector-curvature="0" />
    </clipPath>
    <clipPath
       clipPathUnits="userSpaceOnUse"
       id="clipPath5598">
      <path
         d="m 41.7368,625.348 h 3.0493 v -13.195 h -3.0493 z"
         id="path5596"
         inkscape:connector-curvature="0" />
    </clipPath>
    <clipPath
       clipPathUnits="userSpaceOnUse"
       id="clipPath5602">
      <path
         d="m 41.7368,625.379 h 3.0601 v -13.057 h -3.0601 z"
         id="path5600"
         inkscape:connector-curvature="0" />
    </clipPath>
    <clipPath
       clipPathUnits="userSpaceOnUse"
       id="clipPath21616">
      <path
         d="m 74.2773,261.091 h 3.6387 v -9.258 h -3.6387 z"
         id="path21614"
         inkscape:connector-curvature="0" />
    </clipPath>
    <clipPath
       clipPathUnits="userSpaceOnUse"
       id="clipPath21620">
      <path
         d="m 74.2773,261.091 h 3.6387 v -9.258 h -3.6387 z"
         id="path21618"
         inkscape:connector-curvature="0" />
    </clipPath>
    <clipPath
       clipPathUnits="userSpaceOnUse"
       id="clipPath21312">
      <path
         d="m 74.957,255.9 h 2.8501 v -3.843 H 74.957 Z"
         id="path21310"
         inkscape:connector-curvature="0" />
    </clipPath>
    <clipPath
       clipPathUnits="userSpaceOnUse"
       id="clipPath21316">
      <path
         d="m 74.957,255.9 h 2.8501 v -3.843 H 74.957 Z"
         id="path21314"
         inkscape:connector-curvature="0" />
    </clipPath>
    <clipPath
       clipPathUnits="userSpaceOnUse"
       id="clipPath21008">
      <path
         d="m 77.3525,257.184 h 3.1573 v -5.51 h -3.1573 z"
         id="path21006"
         inkscape:connector-curvature="0" />
    </clipPath>
    <clipPath
       clipPathUnits="userSpaceOnUse"
       id="clipPath21012">
      <path
         d="m 77.3525,257.184 h 3.1573 v -5.51 h -3.1573 z"
         id="path21010"
         inkscape:connector-curvature="0" />
    </clipPath>
    <clipPath
       clipPathUnits="userSpaceOnUse"
       id="clipPath20704">
      <path
         d="m 76.9756,259.93 h 3.3657 v -7.945 h -3.3657 z"
         id="path20702"
         inkscape:connector-curvature="0" />
    </clipPath>
    <clipPath
       clipPathUnits="userSpaceOnUse"
       id="clipPath20708">
      <path
         d="m 76.9756,259.93 h 3.3657 v -7.945 h -3.3657 z"
         id="path20706"
         inkscape:connector-curvature="0" />
    </clipPath>
  </defs>
  <sodipodi:namedview
     id="base"
     pagecolor="#ffffff"
     bordercolor="#666666"
     borderopacity="1.0"
     inkscape:pageopacity="0.0"
     inkscape:pageshadow="2"
     inkscape:zoom="5.6"
     inkscape:cx="-2.8741012"
     inkscape:cy="-6.7911783"
     inkscape:document-units="mm"
     inkscape:current-layer="layer1"
     showgrid="false"
     fit-margin-top="0"
     fit-margin-left="0"
     fit-margin-right="0"
     fit-margin-bottom="0"
     inkscape:window-width="959"
     inkscape:window-height="1023"
     inkscape:window-x="0"
     inkscape:window-y="0"
     inkscape:window-maximized="0" />
  <metadata
     id="metadata5">
    <rdf:RDF>
      <cc:Work
         rdf:about="">
        <dc:format>image/svg+xml</dc:format>
        <dc:type
           rdf:resource="http://purl.org/dc/dcmitype/StillImage" />
        <dc:title></dc:title>
      </cc:Work>
    </rdf:RDF>
  </metadata>
  <g
     inkscape:label="Layer 1"
     inkscape:groupmode="layer"
     id="layer1"
     transform="translate(-81.721712,-123.77543)">
    <path
       inkscape:connector-curvature="0"
       id="path58394"
       style="fill:#231f20;fill-opacity:1;fill-rule:nonzero;stroke:none;stroke-width:0.35439301"
       d="m 80.77937,126.75352 c 0,0 0.114823,0.10171 0.372468,-0.0468 0.256579,-0.14991 -0.06801,0.10025 -0.06801,0.10025 0,0 0.223615,-0.11058 0.389828,-0.33065 0.165504,-0.22008 0.385575,-0.44335 0.452563,-0.45043 0,0 -0.04682,0.4235 0.187118,0.58156 0.233184,0.15983 0.124391,0.42704 -0.0244,0.50182 -0.148835,0.0744 0.03759,0.16904 0.01385,0.3349 -0.02341,0.16585 0.142119,0.45681 0.0886,0.7102 l -0.007,0.0844 c 0,0 0.179315,0.0882 0.521303,0 0,0 -0.254095,-0.11376 -0.270752,-0.31434 -0.01737,-0.19954 0,-0.35865 0,-0.35865 0,0 0.246302,0.61983 0.193153,0.65953 0,0 0.127929,0.0506 0.446533,-0.0163 0,0 -0.209805,-0.0982 -0.23071,-0.17933 -0.01907,-0.0815 -0.125105,-0.45964 -0.0471,-0.62621 0.07835,-0.16586 0.382745,-0.54824 0.407195,-0.63613 0,0 0.219368,0.18569 0.296984,0.1694 0.07795,-0.0177 0.186058,0.0911 0.196335,0.16549 0,0 0.05062,-0.0744 0.02017,-0.12828 0,0 0.315053,0.0673 0.703827,0.0202 0,0 0.102067,0.56844 0.05776,0.76512 -0.04391,0.19634 -0.09422,0.20626 -0.0471,0.43946 0,0 0.159123,0.10808 0.321082,0.11163 0,0 -0.0872,-0.21653 -0.06731,-0.46674 0.01066,-0.12545 0.26119,-0.62337 0.284575,-0.71764 0.02369,-0.0949 0.338454,0.45609 0.358657,1.0894 0,0 0.132177,0.0851 0.429865,0.0514 0,0 -0.199517,-0.19278 -0.216527,-0.34234 -0.01737,-0.14849 -0.05424,-0.93382 0.09393,-1.03519 0.149561,-0.1017 0.210508,-0.007 0.231063,0.0132 0.02017,0.0209 0,-0.0677 0,-0.0677 l 0.05072,0.0471 c 0,0 -0.04781,-0.0805 -0.02341,-0.0635 0.02341,0.0163 0.07474,0.0475 0.07474,0.0475 v -0.0687 l 0.09463,0.0482 c 0,0 -0.08147,-0.0882 -0.05816,-0.0751 0.02369,0.0146 0.101709,0.0513 0.101709,0.0513 l -0.02764,-0.068 c 0,0 0.08439,0.0535 0.08861,0.0436 0.0038,-0.01 -0.04358,-0.10065 -0.04358,-0.10065 0,0 0.141763,0.0808 0.131475,0.078 -0.01022,-0.004 -0.06771,-0.0882 -0.06771,-0.0882 l 0.168703,0.0436 -0.05034,-0.0638 c 0,0 0.175781,0 0.165856,0.0334 -0.01028,0.0341 0.504656,-0.10844 0.596083,-0.11801 0.09071,-0.0103 0.138575,0 0.161959,0.0364 0.02369,0.0382 0.118373,-0.006 0.118373,-0.006 0,0 0.260838,-0.33242 0.05452,-0.27784 0,0 -0.05452,-0.1088 -0.101715,-0.14921 -0.04754,-0.0411 -0.257283,-0.30158 -0.298397,-0.35899 -0.04078,-0.0567 -0.17577,-0.33738 -0.233183,-0.77541 -0.01022,-0.0773 -0.07122,-0.10136 -0.08439,-0.11447 0,0 0.0471,-0.21299 0.139289,-0.26757 0.09041,-0.0538 -0.03116,-0.006 -0.07163,-0.0304 -0.04078,-0.0234 0.0038,-0.11411 -0.07192,-0.1322 0,0 -0.124391,-0.006 -0.167988,0.28813 0,0 -0.04781,-0.0443 -0.2307,-0.0379 0,0 -0.104551,-0.42952 -0.314004,-0.0199 0,0 -0.417472,0.0376 -0.515637,0.0747 0,0 -0.01006,-0.0747 -0.21263,-0.017 0,0 -0.524864,-0.275 -1.411908,-0.0107 -0.226458,0.068 -0.731109,-0.0844 -0.970684,0.0418 -0.240273,0.12404 -0.187471,0.0506 -0.294852,0.18889 -0.04781,0.0613 -0.456101,0.26438 -0.531591,0.32107 -0.17932,0.13574 -0.03045,0.34058 -0.206255,0.47773 -0.305128,0.23673 -0.119081,0.20272 -0.240284,0.30089 -0.121555,0.0981 -0.348715,0.23106 -0.399748,0.32143 -0.0499,0.0911 0.06489,-0.0269 0.06489,-0.0269 0,0 -0.250561,0.30125 -0.470632,0.34518" />
  </g>
</svg>
