<?xml version="1.0" encoding="UTF-8" standalone="no"?>
<!-- Created with Inkscape (http://www.inkscape.org/) -->

<svg
   xmlns:dc="http://purl.org/dc/elements/1.1/"
   xmlns:cc="http://creativecommons.org/ns#"
   xmlns:rdf="http://www.w3.org/1999/02/22-rdf-syntax-ns#"
   xmlns:svg="http://www.w3.org/2000/svg"
   xmlns="http://www.w3.org/2000/svg"
   xmlns:sodipodi="http://sodipodi.sourceforge.net/DTD/sodipodi-0.dtd"
   xmlns:inkscape="http://www.inkscape.org/namespaces/inkscape"
   width="22.197962mm"
   height="19.744402mm"
   viewBox="0 0 22.197961 19.744402"
   version="1.1"
   id="svg8"
   inkscape:version="0.92.4 (unknown)"
   sodipodi:docname="goat.svg">
  <defs
     id="defs2" />
  <sodipodi:namedview
     id="base"
     pagecolor="#ffffff"
     bordercolor="#666666"
     borderopacity="1.0"
     inkscape:pageopacity="0.0"
     inkscape:pageshadow="2"
     inkscape:zoom="2.8"
     inkscape:cx="145.8923"
     inkscape:cy="91.21302"
     inkscape:document-units="mm"
     inkscape:current-layer="layer1"
     showgrid="false"
     fit-margin-top="0"
     fit-margin-left="0"
     fit-margin-right="0"
     fit-margin-bottom="0"
     inkscape:window-width="1920"
     inkscape:window-height="1023"
     inkscape:window-x="0"
     inkscape:window-y="0"
     inkscape:window-maximized="1" />
  <metadata
     id="metadata5">
    <rdf:RDF>
      <cc:Work
         rdf:about="">
        <dc:format>image/svg+xml</dc:format>
        <dc:type
           rdf:resource="http://purl.org/dc/dcmitype/StillImage" />
        <dc:title></dc:title>
      </cc:Work>
    </rdf:RDF>
  </metadata>
  <g
     inkscape:label="Layer 1"
     inkscape:groupmode="layer"
     id="layer1"
     transform="translate(-50.811428,-174.37727)">
    <g
       id="g62856"
       transform="matrix(1.5257222,0,0,-1.5257222,52.193495,186.87258)">
      <path
         d="m 0,0 c 0,0 0.538,-0.127 0.922,0.908 0,0 0.242,0.229 0.412,-0.119 0.17,-0.35 0.29,-0.762 0.119,-1.045 -0.17,-0.285 0.066,-0.197 -0.814,-0.9 0,0 -0.454,-0.258 -0.376,-0.42 0.078,-0.164 0.112,-0.981 0.07,-1.188 L 0.289,-2.969 h 0.044 l -0.029,-0.127 0.05,-0.037 c 0,0 0.085,-0.035 0.028,-0.375 L 0.341,-3.672 c 0,0 0,-0.058 0.112,-0.072 0.113,-0.014 -0.014,-0.192 0.688,-0.211 0,0 -0.12,0.305 -0.219,0.391 0,0 -0.156,0.814 -0.092,1.242 0.063,0.427 0.291,0.623 0.383,0.681 0.093,0.057 0.861,0.676 0.931,0.725 0.072,0.051 0.239,0.213 0.285,0.178 0.041,-0.035 0.218,0.185 0.254,0.234 0,0 0.021,-0.846 -0.235,-1.264 l 0.036,-0.226 c 0,0 0.298,-0.086 0.418,-0.385 0,0 0.512,-0.385 0.556,-0.709 0,0 0.298,-0.066 0.355,-0.336 0,0 0.142,0.037 0.17,-0.043 0.029,-0.078 0.092,0.17 0.243,-0.197 0,0 0.19,-0.113 0.751,0.027 0,0 -0.199,0.256 -0.389,0.334 0,0 -0.229,0.242 -0.328,0.242 -0.1,0 -0.696,0.723 -0.781,0.831 -0.084,0.105 -0.406,0.363 0.108,1.966 0,0 0.994,0.145 1.128,0.03 0,0 0.043,0.086 0.183,0.107 0.143,0.022 0.803,0.121 1.073,0.219 0,0 0.277,-0.176 0.349,-0.518 0.072,-0.34 0.526,-1.008 0.391,-1.308 C 6.577,-2.031 5.773,-2.342 5.701,-2.363 5.63,-2.387 5.766,-2.592 5.347,-2.648 c -0.42,-0.059 0.071,-0.62 0.092,-0.709 0,0 0.161,-0.131 0.482,0.375 0.1,0.156 0.165,0.119 0.35,0.334 0.186,0.21 0.56,0.531 0.73,0.568 0.172,0.035 0.25,0.312 0.25,0.312 0,0 -0.036,-1.066 -0.07,-1.158 -0.037,-0.092 0.31,-0.158 0.17,-0.371 -0.058,-0.084 -0.042,-0.334 0.588,-0.254 0.056,0.006 0.05,0.264 -0.235,0.674 -0.127,0.186 -0.085,1.096 0.023,1.391 0.165,0.449 -0.347,1.066 -0.072,1.55 0.029,0.051 0.1,0.057 0.093,-0.007 -0.007,-0.063 0.418,0.636 0.611,0.795 0.107,0.085 0.327,0.25 0.291,0.527 -0.036,0.275 0.356,0.234 0.589,0.525 0.236,0.291 0.668,0.655 0.746,0.655 0,0 0.201,-0.045 0.428,-0.278 0.226,-0.236 0.368,-0.072 0.624,-0.334 l -0.05,-0.058 c 0,0 0.186,0.007 0.318,0.101 0,0 0.186,0.006 0.165,0.186 0,0 0.108,0.097 10e-4,0.316 -0.109,0.223 -0.255,0.506 -0.255,0.875 0,0 -0.066,0.256 -0.029,0.391 0.036,0.135 -0.208,0.392 -0.208,0.392 0,0 0.116,0.618 -0.588,1.079 0,0 0.227,-0.413 0.205,-0.534 0,0 -0.064,0.078 -0.199,0.051 0,0 -0.114,-0.07 -0.114,-0.463 0,0 -0.361,-0.162 -0.697,-0.41 C 9.252,3.623 8.75,3.313 8.658,3.281 8.564,3.254 8.404,3.365 7.877,3.055 7.755,2.984 7.784,3.098 7.592,3.154 7.399,3.211 6.676,3.309 5.099,3.291 4.474,3.281 4.055,3.547 2.961,3.262 1.867,2.979 1.914,2.896 1.292,2.252 0.893,1.84 1.214,1.697 0.687,1.35 0.439,1.187 0.361,0.846 0.233,0.76 0.104,0.676 0,0.592 0,0.592 c 0,0 0.041,-0.115 -0.052,-0.28 -0.092,-0.164 0.156,0 0.156,0 L -0.072,0.18 c 0,0 -0.03,-0.145 0.072,-0.18"
         style="fill:#231f20;fill-opacity:1;fill-rule:nonzero;stroke:none"
         id="path62858"
         inkscape:connector-curvature="0" />
    </g>
  </g>
</svg>
