<?xml version="1.0" encoding="UTF-8" standalone="no"?>
<!-- Created with Inkscape (http://www.inkscape.org/) -->

<svg
   xmlns:dc="http://purl.org/dc/elements/1.1/"
   xmlns:cc="http://creativecommons.org/ns#"
   xmlns:rdf="http://www.w3.org/1999/02/22-rdf-syntax-ns#"
   xmlns:svg="http://www.w3.org/2000/svg"
   xmlns="http://www.w3.org/2000/svg"
   xmlns:sodipodi="http://sodipodi.sourceforge.net/DTD/sodipodi-0.dtd"
   xmlns:inkscape="http://www.inkscape.org/namespaces/inkscape"
   width="24.791988mm"
   height="24.791988mm"
   viewBox="0 0 24.791988 24.791988"
   version="1.1"
   id="svg3615"
   inkscape:version="0.92.4 (unknown)"
   sodipodi:docname="archaeology.svg">
  <defs
     id="defs3609" />
  <sodipodi:namedview
     id="base"
     pagecolor="#ffffff"
     bordercolor="#666666"
     borderopacity="1.0"
     inkscape:pageopacity="0.0"
     inkscape:pageshadow="2"
     inkscape:zoom="0.35"
     inkscape:cx="143.99385"
     inkscape:cy="-224.57757"
     inkscape:document-units="mm"
     inkscape:current-layer="layer1"
     showgrid="false"
     fit-margin-top="0"
     fit-margin-left="0"
     fit-margin-right="0"
     fit-margin-bottom="0"
     inkscape:window-width="959"
     inkscape:window-height="1023"
     inkscape:window-x="960"
     inkscape:window-y="0"
     inkscape:window-maximized="0" />
  <metadata
     id="metadata3612">
    <rdf:RDF>
      <cc:Work
         rdf:about="">
        <dc:format>image/svg+xml</dc:format>
        <dc:type
           rdf:resource="http://purl.org/dc/dcmitype/StillImage" />
        <dc:title></dc:title>
      </cc:Work>
    </rdf:RDF>
  </metadata>
  <g
     inkscape:label="Layer 1"
     inkscape:groupmode="layer"
     id="layer1"
     transform="translate(70.604326,-64.621863)">
    <g
       id="Archéo"
       transform="matrix(0.26458333,0,0,0.26458333,-179.49069,-38.67755)">
      <circle
         stroke-miterlimit="10"
         cx="458.39001"
         cy="437.27399"
         r="44.851002"
         id="circle4950"
         style="fill:#f3f3f2;stroke:#fafafa;stroke-width:4;stroke-miterlimit:10" />
      <path
         d="m 421.195,430.506 2.344,0.866 c 0,0 0.795,-0.419 1.004,-0.459 0.208,-0.041 4.34,-2.613 11.638,0.7 7.3,3.313 25.692,14.35 27.479,15.375 1.902,1.093 5.969,3.786 18.223,9.345 3.968,1.799 5.255,4.612 5.418,4.864 0.165,0.253 0.999,0.733 1.369,0.627 0.37,-0.106 1.402,-2.226 2.467,-2.252 1.065,-0.026 1.764,0.693 2.069,-0.808 0.304,-1.5 0.536,-1.923 1.521,-2.395 0.986,-0.471 -0.003,-1.757 1.04,-1.317 1.046,0.44 0.902,-2.647 -0.027,-3.285 -1.418,-0.973 -3.918,-0.814 -5.584,-0.814 -1.668,0.002 -2.697,0.289 -9.89,-2.885 -7.192,-3.172 -11.511,-5.651 -12.452,-6.271 -0.941,-0.621 -14.159,-9.326 -14.902,-9.753 -0.742,-0.426 -5.539,-3.579 -6.098,-3.898 -0.557,-0.319 -2.234,-2.238 -4.126,-3.245 -1.892,-1.008 -9.101,-4.905 -9.759,-6.877 -0.657,-1.975 -2.647,-1.521 -2.844,-1.715 -0.198,-0.192 -1.717,-0.667 -2.373,0.153 -0.218,0.272 -1.156,-0.026 -1.484,-0.533 -0.326,-0.506 -1.182,-0.199 -1.551,0.228 -0.369,0.426 -1.225,-0.534 -1.865,1.959 -0.25,0.973 -1.39,1.991 -1.307,2.6 0.084,0.605 0.074,1.159 -0.131,1.519 -0.207,0.359 -1.098,0.406 -0.893,2.199 0.205,1.793 0.752,2.026 0.638,2.761 -0.11,0.733 -1.248,2.391 0.076,3.311 z"
         id="path4952"
         inkscape:connector-curvature="0"
         style="fill:#d0cecc" />
      <path
         d="m 486.036,419.244 c -1.393,-2.624 -3.974,-2.247 -5.228,-1.687 -4.481,2.002 -15.885,10.884 -16.101,11.236 -0.255,0.416 -0.062,0.907 -0.062,0.907 -0.93,0.729 -1.188,1.913 -1.188,1.913 l -0.598,10.075 -9.896,-1.08 -24.436,19.278 43.498,-9.639 -6.932,-7.952 c 0.141,-2.795 0.418,-8.253 0.453,-8.808 0.08,-1.272 0.642,-1.072 0.642,-1.072 0,0 0.442,0.271 0.538,0.252 0.625,-0.124 18.433,-5.898 18.98,-6.169 2.011,-0.987 1.722,-4.631 0.33,-7.254 z"
         id="path4954"
         inkscape:connector-curvature="0"
         style="fill:#8f8c87" />
    </g>
  </g>
</svg>
