<?xml version="1.0" encoding="UTF-8" standalone="no"?>
<!-- Created with Inkscape (http://www.inkscape.org/) -->

<svg
   xmlns:dc="http://purl.org/dc/elements/1.1/"
   xmlns:cc="http://creativecommons.org/ns#"
   xmlns:rdf="http://www.w3.org/1999/02/22-rdf-syntax-ns#"
   xmlns:svg="http://www.w3.org/2000/svg"
   xmlns="http://www.w3.org/2000/svg"
   xmlns:sodipodi="http://sodipodi.sourceforge.net/DTD/sodipodi-0.dtd"
   xmlns:inkscape="http://www.inkscape.org/namespaces/inkscape"
   width="24.791988mm"
   height="24.791988mm"
   viewBox="0 0 24.791988 24.791988"
   version="1.1"
   id="svg3615"
   inkscape:version="0.92.4 (unknown)"
   sodipodi:docname="bone_flute_archaeology.svg">
  <defs
     id="defs3609" />
  <sodipodi:namedview
     id="base"
     pagecolor="#ffffff"
     bordercolor="#666666"
     borderopacity="1.0"
     inkscape:pageopacity="0.0"
     inkscape:pageshadow="2"
     inkscape:zoom="1.979899"
     inkscape:cx="9.4108388"
     inkscape:cy="0.27453792"
     inkscape:document-units="mm"
     inkscape:current-layer="layer1"
     showgrid="false"
     fit-margin-top="0"
     fit-margin-left="0"
     fit-margin-right="0"
     fit-margin-bottom="0"
     inkscape:window-width="959"
     inkscape:window-height="1023"
     inkscape:window-x="960"
     inkscape:window-y="0"
     inkscape:window-maximized="0" />
  <metadata
     id="metadata3612">
    <rdf:RDF>
      <cc:Work
         rdf:about="">
        <dc:format>image/svg+xml</dc:format>
        <dc:type
           rdf:resource="http://purl.org/dc/dcmitype/StillImage" />
        <dc:title></dc:title>
      </cc:Work>
    </rdf:RDF>
  </metadata>
  <g
     inkscape:label="Layer 1"
     inkscape:groupmode="layer"
     id="layer1"
     transform="translate(70.604326,-64.621863)">
    <g
       id="Archéomusico"
       transform="matrix(0.26458333,0,0,0.26458333,-86.921709,1.5301128)">
      <circle
         stroke-miterlimit="10"
         cx="108.523"
         cy="285.30801"
         r="44.851002"
         id="circle4957"
         style="fill:#f3f3f2;stroke:#fafafa;stroke-width:4;stroke-miterlimit:10" />
      <path
         d="m 125.641,274.114 c 0,0 12.886,-4.999 17.433,6.717 3.243,8.359 -2.181,14.326 -8.341,16.716 0,0 -3.427,-8.513 -8.017,-6.856 l -0.168,-0.433 -5.683,1.705 -0.168,-0.432 -41.434,15.576 1.381,-4.148 38.499,-15.436 -0.144,-0.371 5.364,-2.525 -0.125,-0.325 c -0.001,0 4.721,-1.957 1.403,-10.188 z"
         id="path4959"
         inkscape:connector-curvature="0"
         style="fill:#d0cecc" />
      <path
         d="m 82.803,257.543 c 1.957,-2.49 4.593,-1.609 5.804,-0.783 4.325,2.947 14.614,14.421 14.774,14.832 0.189,0.482 -0.106,0.962 -0.106,0.962 0.838,0.941 0.884,2.232 0.884,2.232 l -1.275,10.687 10.59,0.735 22.002,24.843 -43.827,-18.328 8.776,-7.035 c 0.379,-2.96 1.12,-8.739 1.188,-9.329 0.157,-1.35 -0.472,-1.245 -0.472,-1.245 0,0 -0.515,0.201 -0.611,0.163 -0.633,-0.249 -18.23,-9.671 -18.753,-10.058 -1.921,-1.419 -0.93,-5.187 1.026,-7.676 z"
         id="path4961"
         inkscape:connector-curvature="0"
         style="fill:#d0cecc" />
      <g
         id="g4963">
        <path
           d="m 130.866,261.137 c -1.034,2.3 -3.155,4.419 -3.487,5.098 -0.331,0.681 -3.656,6.56 -4.099,7.466 -0.442,0.906 -9.625,17.108 -10.279,18.262 -0.653,1.154 -3.226,6.42 -6.387,15.112 -3.161,8.694 -2.743,9.881 -2.612,11.839 0.131,1.957 0.514,4.88 -0.518,6.62 -0.675,1.142 -4.29,1.553 -3.855,0.29 0.434,-1.26 -0.998,0.004 -1.629,-1.117 -0.629,-1.121 -1.146,-1.359 -2.93,-1.599 -1.785,-0.242 -0.996,-1.119 -1.11,-2.366 -0.115,-1.249 -2.684,-2.295 -2.838,-2.72 -0.155,-0.427 0.344,-1.443 0.628,-1.656 0.283,-0.212 3.485,-1.944 5.287,-6.745 5.563,-14.821 8.407,-19.808 9.541,-22.129 1.064,-2.177 12.58,-24.639 15.896,-33.469 0.829,-2.208 1.242,-4.154 1.394,-5.835 0,0 5.391,2.005 8.687,3.406 0.001,0 -1.875,6.135 -1.689,9.543 z"
           id="path4965"
           inkscape:connector-curvature="0"
           style="fill:#8f8c87" />
        <path
           d="m 122.421,256.101 4.91,1.84 c 0,-10e-4 -6.487,6.438 -4.91,-1.84 z"
           id="path4967"
           inkscape:connector-curvature="0"
           style="fill:#ffffff" />
        <ellipse
           transform="matrix(0.9277,0.3734,-0.3734,0.9277,113.0463,-21.7866)"
           cx="112.757"
           cy="280.892"
           rx="1.329"
           ry="1.508"
           id="ellipse4969"
           style="fill:#ffffff" />
        <ellipse
           transform="matrix(0.9278,0.373,-0.373,0.9278,114.8563,-20.3792)"
           cx="110.094"
           cy="286.63501"
           rx="1.475"
           ry="1.696"
           id="ellipse4971"
           style="fill:#ffffff" />
        <ellipse
           transform="matrix(0.9277,0.3732,-0.3732,0.9277,116.8736,-18.8568)"
           cx="107.137"
           cy="292.41199"
           rx="1.4299999"
           ry="1.61"
           id="ellipse4973"
           style="fill:#ffffff" />
        <ellipse
           transform="matrix(0.9276,0.3737,-0.3737,0.9276,119.3918,-17.1006)"
           cx="103.804"
           cy="299.40302"
           rx="1.0779999"
           ry="1.24"
           id="ellipse4975"
           style="fill:#ffffff" />
        <ellipse
           transform="matrix(0.9277,0.3734,-0.3734,0.9277,121.3221,-15.9506)"
           cx="101.834"
           cy="305.19"
           rx="1.679"
           ry="1.932"
           id="ellipse4977"
           style="fill:#ffffff" />
        <ellipse
           transform="matrix(0.9276,0.3736,-0.3736,0.9276,123.4864,-14.6858)"
           cx="99.634003"
           cy="311.26001"
           rx="1.476"
           ry="1.696"
           id="ellipse4979"
           style="fill:#ffffff" />
      </g>
    </g>
  </g>
</svg>
