<?xml version="1.0" encoding="UTF-8" standalone="no"?>
<!-- Created with Inkscape (http://www.inkscape.org/) -->

<svg
   xmlns:dc="http://purl.org/dc/elements/1.1/"
   xmlns:cc="http://creativecommons.org/ns#"
   xmlns:rdf="http://www.w3.org/1999/02/22-rdf-syntax-ns#"
   xmlns:svg="http://www.w3.org/2000/svg"
   xmlns="http://www.w3.org/2000/svg"
   xmlns:sodipodi="http://sodipodi.sourceforge.net/DTD/sodipodi-0.dtd"
   xmlns:inkscape="http://www.inkscape.org/namespaces/inkscape"
   width="24.791988mm"
   height="24.791988mm"
   viewBox="0 0 24.791988 24.791988"
   version="1.1"
   id="svg3615"
   inkscape:version="0.92.4 (unknown)"
   sodipodi:docname="bone_flute_handcrafting.svg">
  <defs
     id="defs3609" />
  <sodipodi:namedview
     id="base"
     pagecolor="#ffffff"
     bordercolor="#666666"
     borderopacity="1.0"
     inkscape:pageopacity="0.0"
     inkscape:pageshadow="2"
     inkscape:zoom="1.979899"
     inkscape:cx="9.4108388"
     inkscape:cy="0.27453792"
     inkscape:document-units="mm"
     inkscape:current-layer="layer1"
     showgrid="false"
     fit-margin-top="0"
     fit-margin-left="0"
     fit-margin-right="0"
     fit-margin-bottom="0"
     inkscape:window-width="959"
     inkscape:window-height="1023"
     inkscape:window-x="960"
     inkscape:window-y="0"
     inkscape:window-maximized="0" />
  <metadata
     id="metadata3612">
    <rdf:RDF>
      <cc:Work
         rdf:about="">
        <dc:format>image/svg+xml</dc:format>
        <dc:type
           rdf:resource="http://purl.org/dc/dcmitype/StillImage" />
        <dc:title></dc:title>
      </cc:Work>
    </rdf:RDF>
  </metadata>
  <g
     inkscape:label="Layer 1"
     inkscape:groupmode="layer"
     id="layer1"
     transform="translate(70.604326,-64.621863)">
    <g
       id="Artisanat"
       transform="matrix(0.26458333,0,0,0.26458333,-151.53666,-78.86988)">
      <circle
         stroke-miterlimit="10"
         cx="352.737"
         cy="589.18201"
         r="44.851002"
         id="circle5137"
         style="fill:#f3f3f2;stroke:#fafafa;stroke-width:4;stroke-miterlimit:10" />
      <path
         d="m 369.855,577.99 c 0,0 12.885,-5 17.432,6.716 3.242,8.36 -2.181,14.326 -8.341,16.716 0,0 -3.427,-8.513 -8.018,-6.855 l -0.169,-0.434 -5.682,1.707 -0.168,-0.434 -41.435,15.576 1.381,-4.147 38.499,-15.437 -0.145,-0.371 5.365,-2.525 -0.127,-0.325 c 0.002,0 4.725,-1.957 1.408,-10.187 z"
         id="path5139"
         inkscape:connector-curvature="0"
         style="fill:#d0cecc" />
      <path
         d="m 342.152,581.204 0.896,-0.245 37.581,35.463 c -14.592,9.375 -43.369,-29.674 -43.369,-29.674 l 0.489,-1.142 c 0,0 -6.358,-7.664 -7.907,-9.213 -1.549,-1.548 -1.911,-1.259 -2.789,-0.67 l -6.912,-6.748 c 0,0 4.646,-2.526 12.799,4.321 8.153,6.847 9.212,7.908 9.212,7.908 z"
         id="path5141"
         inkscape:connector-curvature="0"
         style="fill:#d0cecc" />
      <g
         id="g5143">
        <path
           d="m 375.08,565.011 c -1.035,2.3 -3.156,4.419 -3.487,5.099 -0.331,0.682 -3.655,6.56 -4.099,7.465 -0.443,0.907 -9.626,17.108 -10.279,18.263 -0.654,1.154 -3.227,6.419 -6.387,15.112 -3.16,8.694 -2.744,9.882 -2.612,11.838 0.132,1.957 0.515,4.881 -0.517,6.621 -0.676,1.142 -4.291,1.552 -3.855,0.29 0.434,-1.259 -0.998,0.002 -1.629,-1.117 -0.631,-1.12 -1.146,-1.359 -2.931,-1.6 -1.784,-0.241 -0.995,-1.118 -1.11,-2.366 -0.114,-1.249 -2.684,-2.294 -2.838,-2.719 -0.154,-0.426 0.345,-1.444 0.629,-1.657 0.283,-0.212 3.484,-1.944 5.287,-6.744 5.563,-14.822 8.407,-19.809 9.541,-22.129 1.063,-2.177 12.58,-24.639 15.896,-33.469 0.829,-2.208 1.241,-4.154 1.393,-5.835 0,0 5.391,2.005 8.688,3.407 0,0 -1.876,6.134 -1.69,9.541 z"
           id="path5145"
           inkscape:connector-curvature="0"
           style="fill:#8f8c87" />
        <path
           d="m 366.635,559.977 4.91,1.838 c 0,-0.001 -6.486,6.439 -4.91,-1.838 z"
           id="path5147"
           inkscape:connector-curvature="0"
           style="fill:#ffffff" />
        <ellipse
           transform="matrix(0.9278,0.3731,-0.3731,0.9278,243.9539,-90.9606)"
           cx="356.97101"
           cy="584.76703"
           rx="1.3279999"
           ry="1.508"
           id="ellipse5149"
           style="fill:#ffffff" />
        <ellipse
           transform="matrix(0.9277,0.3733,-0.3733,0.9277,246.0716,-89.5793)"
           cx="354.30801"
           cy="590.50897"
           rx="1.475"
           ry="1.699"
           id="ellipse5151"
           style="fill:#ffffff" />
        <ellipse
           transform="matrix(0.9279,0.3729,-0.3729,0.9279,247.713,-88.0116)"
           cx="351.35001"
           cy="596.28601"
           rx="1.4299999"
           ry="1.612"
           id="ellipse5153"
           style="fill:#ffffff" />
        <ellipse
           transform="matrix(0.9277,0.3733,-0.3733,0.9277,250.3349,-86.3007)"
           cx="348.01801"
           cy="603.27698"
           rx="1.0779999"
           ry="1.24"
           id="ellipse5155"
           style="fill:#ffffff" />
        <ellipse
           transform="matrix(0.9277,0.3733,-0.3733,0.9277,252.3756,-85.15)"
           cx="346.047"
           cy="609.065"
           rx="1.6799999"
           ry="1.932"
           id="ellipse5157"
           style="fill:#ffffff" />
        <ellipse
           transform="matrix(0.9277,0.3733,-0.3733,0.9277,254.5093,-83.8933)"
           cx="343.84698"
           cy="615.13599"
           rx="1.475"
           ry="1.696"
           id="ellipse5159"
           style="fill:#ffffff" />
      </g>
    </g>
  </g>
</svg>
