<?xml version="1.0" encoding="UTF-8" standalone="no"?>
<!-- Created with Inkscape (http://www.inkscape.org/) -->

<svg
   xmlns:dc="http://purl.org/dc/elements/1.1/"
   xmlns:cc="http://creativecommons.org/ns#"
   xmlns:rdf="http://www.w3.org/1999/02/22-rdf-syntax-ns#"
   xmlns:svg="http://www.w3.org/2000/svg"
   xmlns="http://www.w3.org/2000/svg"
   xmlns:sodipodi="http://sodipodi.sourceforge.net/DTD/sodipodi-0.dtd"
   xmlns:inkscape="http://www.inkscape.org/namespaces/inkscape"
   width="24.791988mm"
   height="24.791988mm"
   viewBox="0 0 24.791988 24.791988"
   version="1.1"
   id="svg3615"
   inkscape:version="0.92.4 (unknown)"
   sodipodi:docname="compas_measures.svg">
  <defs
     id="defs3609" />
  <sodipodi:namedview
     id="base"
     pagecolor="#ffffff"
     bordercolor="#666666"
     borderopacity="1.0"
     inkscape:pageopacity="0.0"
     inkscape:pageshadow="2"
     inkscape:zoom="1.4"
     inkscape:cx="79.786754"
     inkscape:cy="-128.92763"
     inkscape:document-units="mm"
     inkscape:current-layer="layer1"
     showgrid="false"
     fit-margin-top="0"
     fit-margin-left="0"
     fit-margin-right="0"
     fit-margin-bottom="0"
     inkscape:window-width="959"
     inkscape:window-height="1023"
     inkscape:window-x="960"
     inkscape:window-y="0"
     inkscape:window-maximized="0" />
  <metadata
     id="metadata3612">
    <rdf:RDF>
      <cc:Work
         rdf:about="">
        <dc:format>image/svg+xml</dc:format>
        <dc:type
           rdf:resource="http://purl.org/dc/dcmitype/StillImage" />
        <dc:title></dc:title>
      </cc:Work>
    </rdf:RDF>
  </metadata>
  <g
     inkscape:label="Layer 1"
     inkscape:groupmode="layer"
     id="layer1"
     transform="translate(70.604326,-64.621863)">
    <g
       id="Mesures"
       transform="matrix(0.26458333,0,0,0.26458333,-84.424571,-79.427097)">
      <circle
         stroke-miterlimit="10"
         cx="99.084999"
         cy="591.28802"
         r="44.851002"
         id="circle4819"
         style="fill:#f3f3f2;stroke:#fafafa;stroke-width:4;stroke-miterlimit:10" />
      <g
         id="Mesures_1_">
        <path
           d="m 107.654,585.189 c 2.394,-0.878 4.764,-2.175 6.733,-4.085 3.696,-3.584 5.377,-8.748 5,-15.349 -0.037,-0.646 -0.366,-0.802 -0.474,-0.853 -0.334,-0.157 -0.8,-0.119 -1.086,0.093 -0.173,0.128 -0.233,0.284 -0.201,0.522 0.203,1.468 0.949,9.07 -4.177,14.603 -1.63,1.761 -3.674,3.106 -6.11,4.047 0.149,0.32 0.257,0.663 0.315,1.022 z"
           id="path4822"
           inkscape:connector-curvature="0"
           style="fill:none" />
        <path
           d="m 101.003,583.147 c 0.127,-0.135 0.264,-0.261 0.41,-0.376 l -1.421,-5.886 c -0.284,0.049 -0.575,0.079 -0.873,0.079 -0.14,0 -0.277,-0.01 -0.414,-0.021 l -1.273,6.382 c 1.254,0.005 2.444,-0.055 3.571,-0.178 z"
           id="path4824"
           inkscape:connector-curvature="0"
           style="fill:none" />
        <path
           d="m 99.938,585.814 c 0,-0.04 0.005,-0.081 0.006,-0.121 -0.963,0.063 -1.964,0.088 -3,0.072 l -0.241,1.215 c 0.861,0.004 2.025,-0.025 3.374,-0.15 -0.088,-0.324 -0.139,-0.663 -0.139,-1.016 z"
           id="path4826"
           inkscape:connector-curvature="0"
           style="fill:none" />
        <path
           d="m 107.041,587.994 c 3.135,-0.963 6.373,-2.542 9.038,-5.123 4.237,-4.102 6.171,-9.907 5.75,-17.256 -0.076,-1.335 -0.76,-2.4 -1.874,-2.925 -1.136,-0.535 -2.574,-0.401 -3.577,0.335 -0.902,0.663 -1.33,1.693 -1.174,2.827 0.107,0.782 0.921,7.782 -3.55,12.607 -1.598,1.726 -3.696,2.99 -6.267,3.799 -0.153,-0.067 -0.311,-0.124 -0.474,-0.171 l -1.53,-7.457 c 0.508,-0.79 0.806,-1.726 0.806,-2.734 0,-1.746 -0.883,-3.286 -2.228,-4.198 l -0.178,-0.868 -0.551,-3.406 h -0.625 v -0.525 h 0.625 v -9.696 l -0.684,-0.698 h -2.973 l -0.699,0.698 v 9.696 h 0.699 v 0.525 h -0.699 l -0.551,3.406 -0.152,0.948 c -1.283,0.92 -2.122,2.42 -2.122,4.118 0,1.119 0.367,2.149 0.981,2.987 l -8.819,48.792 0.503,6.397 9.5,-40.646 c 0.238,0.006 0.502,0.01 0.793,0.01 1.218,0 2.886,-0.068 4.78,-0.318 0.388,0.239 0.819,0.416 1.282,0.506 l 11.599,40.448 0.143,-6.808 -8.518,-34.449 c 0.284,-0.237 0.537,-0.513 0.746,-0.821 z m 6.407,-7.873 c 5.126,-5.532 4.38,-13.135 4.177,-14.603 -0.033,-0.238 0.027,-0.395 0.201,-0.522 0.286,-0.212 0.752,-0.25 1.086,-0.093 0.108,0.051 0.437,0.206 0.474,0.853 0.377,6.601 -1.304,11.765 -5,15.349 -1.969,1.91 -4.339,3.207 -6.733,4.085 -0.058,-0.359 -0.166,-0.702 -0.315,-1.021 2.436,-0.941 4.48,-2.287 6.11,-4.048 z m -14.329,-3.156 c 0.298,0 0.589,-0.03 0.873,-0.079 l 1.421,5.886 c -0.146,0.115 -0.282,0.241 -0.41,0.376 -1.127,0.122 -2.318,0.183 -3.572,0.179 l 1.273,-6.382 c 0.137,0.01 0.275,0.02 0.415,0.02 z m -2.416,10.015 0.241,-1.215 c 1.036,0.016 2.037,-0.009 3,-0.072 -0.001,0.04 -0.006,0.081 -0.006,0.121 0,0.353 0.051,0.691 0.139,1.016 -1.349,0.125 -2.513,0.154 -3.374,0.15 z"
           id="path4828"
           inkscape:connector-curvature="0"
           style="fill:#8f8c87" />
      </g>
    </g>
  </g>
</svg>
