<?xml version="1.0" encoding="UTF-8" standalone="no"?>
<!-- Created with Inkscape (http://www.inkscape.org/) -->

<svg
   xmlns:dc="http://purl.org/dc/elements/1.1/"
   xmlns:cc="http://creativecommons.org/ns#"
   xmlns:rdf="http://www.w3.org/1999/02/22-rdf-syntax-ns#"
   xmlns:svg="http://www.w3.org/2000/svg"
   xmlns="http://www.w3.org/2000/svg"
   xmlns:sodipodi="http://sodipodi.sourceforge.net/DTD/sodipodi-0.dtd"
   xmlns:inkscape="http://www.inkscape.org/namespaces/inkscape"
   width="79.375mm"
   height="79.375mm"
   viewBox="0 0 79.374999 79.374999"
   version="1.1"
   id="svg3615"
   inkscape:version="0.92.4 (unknown)"
   sodipodi:docname="database.svg">
  <defs
     id="defs3609" />
  <sodipodi:namedview
     id="base"
     pagecolor="#ffffff"
     bordercolor="#666666"
     borderopacity="1.0"
     inkscape:pageopacity="0.0"
     inkscape:pageshadow="2"
     inkscape:zoom="0.35"
     inkscape:cx="252.56525"
     inkscape:cy="-224.57757"
     inkscape:document-units="mm"
     inkscape:current-layer="layer1"
     showgrid="false"
     fit-margin-top="0"
     fit-margin-left="0"
     fit-margin-right="0"
     fit-margin-bottom="0"
     inkscape:window-width="959"
     inkscape:window-height="1023"
     inkscape:window-x="959"
     inkscape:window-y="0"
     inkscape:window-maximized="0" />
  <metadata
     id="metadata3612">
    <rdf:RDF>
      <cc:Work
         rdf:about="">
        <dc:format>image/svg+xml</dc:format>
        <dc:type
           rdf:resource="http://purl.org/dc/dcmitype/StillImage" />
        <dc:title></dc:title>
      </cc:Work>
    </rdf:RDF>
  </metadata>
  <g
     inkscape:label="Layer 1"
     inkscape:groupmode="layer"
     id="layer1"
     transform="translate(70.604318,-10.038851)">
    <g
       id="g5485"
       transform="matrix(0.84710035,0,0,0.84710035,-237.11545,-60.182373)">
      <circle
         stroke-miterlimit="10"
         cx="243.41701"
         cy="129.74699"
         r="44.851002"
         id="circle5487"
         style="fill:#f3f3f2;stroke:#fafafa;stroke-width:4;stroke-miterlimit:10" />
      <g
         id="g5489">
        <ellipse
           stroke-miterlimit="10"
           cx="244.354"
           cy="108.374"
           rx="23.146"
           ry="7.375"
           id="ellipse5491"
           style="fill:#8f8c87;stroke:#f3f3f2;stroke-width:3;stroke-miterlimit:10" />
        <g
           id="g5493">
          <path
             stroke-miterlimit="10"
             d="m 244.354,125.868 c 11.139,0 20.498,-2.429 23.146,-5.714 v -11.78 c 0,3.838 -10.363,6.951 -23.146,6.951 -12.783,0 -23.146,-3.112 -23.146,-6.951 v 11.78 c 2.647,3.285 12.007,5.714 23.146,5.714 z"
             id="path5495"
             inkscape:connector-curvature="0"
             style="fill:#8f8c87;stroke:#f3f3f2;stroke-width:3;stroke-miterlimit:10" />
          <path
             stroke-miterlimit="10"
             d="m 244.354,136.868 c 11.139,0 20.498,-2.429 23.146,-5.714 v -11 c -2.648,3.286 -12.008,5.714 -23.146,5.714 -11.138,0 -20.498,-2.429 -23.146,-5.714 v 11 c 2.647,3.285 12.007,5.714 23.146,5.714 z"
             id="path5497"
             inkscape:connector-curvature="0"
             style="fill:#8f8c87;stroke:#f3f3f2;stroke-width:3;stroke-miterlimit:10" />
          <path
             stroke-miterlimit="10"
             d="m 244.354,147.868 c -11.139,0 -20.498,-2.429 -23.146,-5.714 v 8.03 h 0.047 c 0.73,3.863 10.791,6.925 23.1,6.925 12.309,0 22.37,-3.062 23.1,-6.925 h 0.047 v -8.03 c -2.65,3.285 -12.01,5.714 -23.148,5.714 z"
             id="path5499"
             inkscape:connector-curvature="0"
             style="fill:#8f8c87;stroke:#f3f3f2;stroke-width:3;stroke-miterlimit:10" />
          <path
             stroke-miterlimit="10"
             d="m 244.354,136.868 c -11.139,0 -20.498,-2.429 -23.146,-5.714 v 11 c 2.648,3.286 12.008,5.714 23.146,5.714 11.138,0 20.498,-2.429 23.146,-5.714 v -11 c -2.648,3.285 -12.008,5.714 -23.146,5.714 z"
             id="path5501"
             inkscape:connector-curvature="0"
             style="fill:#8f8c87;stroke:#f3f3f2;stroke-width:3;stroke-miterlimit:10" />
        </g>
      </g>
    </g>
  </g>
</svg>
