<?xml version="1.0" encoding="UTF-8" standalone="no"?>
<!-- Created with Inkscape (http://www.inkscape.org/) -->

<svg
   xmlns:dc="http://purl.org/dc/elements/1.1/"
   xmlns:cc="http://creativecommons.org/ns#"
   xmlns:rdf="http://www.w3.org/1999/02/22-rdf-syntax-ns#"
   xmlns:svg="http://www.w3.org/2000/svg"
   xmlns="http://www.w3.org/2000/svg"
   xmlns:sodipodi="http://sodipodi.sourceforge.net/DTD/sodipodi-0.dtd"
   xmlns:inkscape="http://www.inkscape.org/namespaces/inkscape"
   width="24.791988mm"
   height="24.791988mm"
   viewBox="0 0 24.791988 24.791988"
   version="1.1"
   id="svg3615"
   inkscape:version="0.92.4 (unknown)"
   sodipodi:docname="handcrafting.svg">
  <defs
     id="defs3609" />
  <sodipodi:namedview
     id="base"
     pagecolor="#ffffff"
     bordercolor="#666666"
     borderopacity="1.0"
     inkscape:pageopacity="0.0"
     inkscape:pageshadow="2"
     inkscape:zoom="1.4"
     inkscape:cx="79.786754"
     inkscape:cy="-128.92763"
     inkscape:document-units="mm"
     inkscape:current-layer="layer1"
     showgrid="false"
     fit-margin-top="0"
     fit-margin-left="0"
     fit-margin-right="0"
     fit-margin-bottom="0"
     inkscape:window-width="959"
     inkscape:window-height="1023"
     inkscape:window-x="960"
     inkscape:window-y="0"
     inkscape:window-maximized="0" />
  <metadata
     id="metadata3612">
    <rdf:RDF>
      <cc:Work
         rdf:about="">
        <dc:format>image/svg+xml</dc:format>
        <dc:type
           rdf:resource="http://purl.org/dc/dcmitype/StillImage" />
        <dc:title></dc:title>
      </cc:Work>
    </rdf:RDF>
  </metadata>
  <g
     inkscape:label="Layer 1"
     inkscape:groupmode="layer"
     id="layer1"
     transform="translate(70.604326,-64.621863)">
    <g
       id="Artisanat_1_"
       transform="matrix(0.26458333,0,0,0.26458333,-106.82949,-55.513788)">
      <circle
         stroke-miterlimit="10"
         cx="183.765"
         cy="500.90701"
         r="44.851002"
         id="circle5332"
         style="fill:#f3f3f2;stroke:#fafafa;stroke-width:4;stroke-miterlimit:10" />
      <path
         d="m 200.883,489.716 c 0,0 12.885,-5 17.432,6.716 3.242,8.36 -2.181,14.326 -8.341,16.716 0,0 -3.427,-8.513 -8.018,-6.855 l -0.169,-0.434 -5.682,1.707 -0.168,-0.434 -41.435,15.576 1.381,-4.147 38.499,-15.437 -0.145,-0.371 5.365,-2.525 -0.127,-0.325 c 0.002,-0.001 4.724,-1.958 1.408,-10.187 z"
         id="path5334"
         inkscape:connector-curvature="0"
         style="fill:#8f8c87" />
      <path
         d="m 173.18,492.93 0.896,-0.245 37.581,35.463 c -14.592,9.375 -43.369,-29.674 -43.369,-29.674 l 0.489,-1.142 c 0,0 -6.358,-7.664 -7.907,-9.213 -1.549,-1.548 -1.911,-1.259 -2.789,-0.67 l -6.912,-6.748 c 0,0 4.646,-2.526 12.799,4.321 8.153,6.847 9.212,7.908 9.212,7.908 z"
         id="path5336"
         inkscape:connector-curvature="0"
         style="fill:#8f8c87" />
    </g>
  </g>
</svg>
