<?xml version="1.0" encoding="UTF-8" standalone="no"?>
<!-- Created with Inkscape (http://www.inkscape.org/) -->

<svg
   xmlns:dc="http://purl.org/dc/elements/1.1/"
   xmlns:cc="http://creativecommons.org/ns#"
   xmlns:rdf="http://www.w3.org/1999/02/22-rdf-syntax-ns#"
   xmlns:svg="http://www.w3.org/2000/svg"
   xmlns="http://www.w3.org/2000/svg"
   xmlns:sodipodi="http://sodipodi.sourceforge.net/DTD/sodipodi-0.dtd"
   xmlns:inkscape="http://www.inkscape.org/namespaces/inkscape"
   width="79.375mm"
   height="79.375mm"
   viewBox="0 0 79.374999 79.374999"
   version="1.1"
   id="svg3615"
   inkscape:version="0.92.4 (unknown)"
   sodipodi:docname="paper_email.svg">
  <defs
     id="defs3609" />
  <sodipodi:namedview
     id="base"
     pagecolor="#ffffff"
     bordercolor="#666666"
     borderopacity="1.0"
     inkscape:pageopacity="0.0"
     inkscape:pageshadow="2"
     inkscape:zoom="0.9899495"
     inkscape:cx="66.953683"
     inkscape:cy="-45.557524"
     inkscape:document-units="mm"
     inkscape:current-layer="layer1"
     showgrid="false"
     fit-margin-top="0"
     fit-margin-left="0"
     fit-margin-right="0"
     fit-margin-bottom="0"
     inkscape:window-width="959"
     inkscape:window-height="1023"
     inkscape:window-x="959"
     inkscape:window-y="0"
     inkscape:window-maximized="0" />
  <metadata
     id="metadata3612">
    <rdf:RDF>
      <cc:Work
         rdf:about="">
        <dc:format>image/svg+xml</dc:format>
        <dc:type
           rdf:resource="http://purl.org/dc/dcmitype/StillImage" />
        <dc:title></dc:title>
      </cc:Work>
    </rdf:RDF>
  </metadata>
  <g
     inkscape:label="Layer 1"
     inkscape:groupmode="layer"
     id="layer1"
     transform="translate(70.604332,-10.038845)">
    <g
       id="Stages_1_"
       transform="matrix(0.84710035,0,0,0.84710035,-375.10132,-539.7174)">
      <g
         id="g5162">
        <circle
           stroke-miterlimit="10"
           cx="406.30899"
           cy="695.83698"
           r="44.851002"
           id="circle5164"
           style="fill:#f3f3f2;stroke:#fafafa;stroke-width:4;stroke-miterlimit:10" />
        <g
           id="g5166">
          <path
             d="M 382.158,724.114"
             id="path5168"
             inkscape:connector-curvature="0"
             style="fill:#8f8c87" />
          <polygon
             points="390.703,721.19 406.206,666.888 428.97,673.386 437.422,687.764 425.077,731.003 "
             id="polygon5170"
             style="fill:#ffffff" />
          <path
             d="m 425.666,732.061 -36.02,-10.281 15.972,-55.949 23.916,6.827 8.811,14.988 z m -33.904,-11.457 32.729,9.342 12.008,-42.064 -8.092,-13.767 -21.612,-6.169 z"
             id="path5172"
             inkscape:connector-curvature="0"
             style="fill:#e4e2e0" />
          <g
             id="g5174">
            <polygon
               points="437.657,686.941 437.187,688.586 424.755,685.036 428.147,673.15 429.793,673.62 426.869,683.86 "
               id="polygon5176"
               style="fill:#e4e2e0" />
          </g>
          <line
             stroke-miterlimit="10"
             x1="413.534"
             y1="676.88702"
             x2="426.061"
             y2="680.46301"
             id="line5178"
             style="fill:none;stroke:#e4e2e0;stroke-width:1.5;stroke-miterlimit:10" />
          <line
             stroke-miterlimit="10"
             x1="406.00699"
             y1="681.26398"
             x2="433.159"
             y2="689.01501"
             id="line5180"
             style="fill:none;stroke:#e4e2e0;stroke-width:1.5;stroke-miterlimit:10" />
          <line
             stroke-miterlimit="10"
             x1="404.284"
             y1="687.29797"
             x2="431.43701"
             y2="695.04797"
             id="line5182"
             style="fill:none;stroke:#e4e2e0;stroke-width:1.5;stroke-miterlimit:10" />
          <line
             stroke-miterlimit="10"
             x1="402.56299"
             y1="693.33099"
             x2="429.715"
             y2="701.08099"
             id="line5184"
             style="fill:none;stroke:#e4e2e0;stroke-width:1.5;stroke-miterlimit:10" />
          <line
             stroke-miterlimit="10"
             x1="400.841"
             y1="699.36401"
             x2="427.991"
             y2="707.11499"
             id="line5186"
             style="fill:none;stroke:#e4e2e0;stroke-width:1.5;stroke-miterlimit:10" />
          <line
             stroke-miterlimit="10"
             x1="399.11801"
             y1="705.39801"
             x2="426.271"
             y2="713.14899"
             id="line5188"
             style="fill:none;stroke:#e4e2e0;stroke-width:1.5;stroke-miterlimit:10" />
          <line
             stroke-miterlimit="10"
             x1="397.396"
             y1="711.43298"
             x2="424.548"
             y2="719.18402"
             id="line5190"
             style="fill:none;stroke:#e4e2e0;stroke-width:1.5;stroke-miterlimit:10" />
          <line
             stroke-miterlimit="10"
             x1="395.673"
             y1="717.466"
             x2="422.82501"
             y2="725.21698"
             id="line5192"
             style="fill:none;stroke:#e4e2e0;stroke-width:1.5;stroke-miterlimit:10" />
        </g>
        <g
           id="g5194">
          <path
             d="M 375.391,726.223"
             id="path5196"
             inkscape:connector-curvature="0"
             style="fill:#8f8c87" />
          <polygon
             points="382.806,721.065 382.806,664.592 406.479,664.592 418.554,676.097 418.554,721.065 "
             id="polygon5198"
             style="fill:#ffffff" />
          <path
             d="m 419.409,721.921 h -37.458 v -58.185 h 24.871 l 12.587,11.995 z m -35.747,-1.711 h 34.036 v -43.746 l -11.561,-11.017 h -22.476 v 54.763 z"
             id="path5200"
             inkscape:connector-curvature="0"
             style="fill:#d0cecc" />
          <g
             id="g5202">
            <polygon
               points="418.554,675.241 418.554,676.952 405.624,676.952 405.624,664.592 407.335,664.592 407.335,675.241 "
               id="polygon5204"
               style="fill:#d0cecc" />
          </g>
          <line
             stroke-miterlimit="10"
             x1="392.60001"
             y1="672.19397"
             x2="405.62399"
             y2="672.19397"
             id="line5206"
             style="fill:none;stroke:#e4e2e0;stroke-width:1.5;stroke-miterlimit:10" />
          <line
             stroke-miterlimit="10"
             x1="386.56299"
             y1="678.46997"
             x2="414.79901"
             y2="678.46997"
             id="line5208"
             style="fill:none;stroke:#e4e2e0;stroke-width:1.5;stroke-miterlimit:10" />
          <line
             stroke-miterlimit="10"
             x1="386.56299"
             y1="684.74402"
             x2="414.79901"
             y2="684.74402"
             id="line5210"
             style="fill:none;stroke:#e4e2e0;stroke-width:1.5;stroke-miterlimit:10" />
          <line
             stroke-miterlimit="10"
             x1="386.56299"
             y1="691.02002"
             x2="414.79901"
             y2="691.02002"
             id="line5212"
             style="fill:none;stroke:#e4e2e0;stroke-width:1.5;stroke-miterlimit:10" />
          <line
             stroke-miterlimit="10"
             x1="386.56299"
             y1="697.29401"
             x2="414.79901"
             y2="697.29401"
             id="line5214"
             style="fill:none;stroke:#e4e2e0;stroke-width:1.5;stroke-miterlimit:10" />
          <line
             stroke-miterlimit="10"
             x1="386.56299"
             y1="703.56897"
             x2="414.79901"
             y2="703.56897"
             id="line5216"
             style="fill:none;stroke:#e4e2e0;stroke-width:1.5;stroke-miterlimit:10" />
          <line
             stroke-miterlimit="10"
             x1="386.56299"
             y1="709.84399"
             x2="414.79901"
             y2="709.84399"
             id="line5218"
             style="fill:none;stroke:#e4e2e0;stroke-width:1.5;stroke-miterlimit:10" />
          <line
             stroke-miterlimit="10"
             x1="386.56299"
             y1="716.11798"
             x2="414.79901"
             y2="716.11798"
             id="line5220"
             style="fill:none;stroke:#e4e2e0;stroke-width:1.5;stroke-miterlimit:10" />
        </g>
      </g>
      <g
         id="g5222">
        <path
           d="m 415.032,716.396 c -3.136,1.653 -6.328,2.28 -10.147,2.28 -9.35,0 -17.273,-6.841 -17.273,-17.786 0,-11.743 8.152,-21.891 20.808,-21.891 9.919,0 16.589,6.955 16.589,16.475 0,8.552 -4.788,13.568 -10.147,13.568 -2.28,0 -4.389,-1.539 -4.218,-5.017 h -0.229 c -1.995,3.363 -4.617,5.017 -8.038,5.017 -3.307,0 -6.156,-2.68 -6.156,-7.184 0,-7.068 5.586,-13.51 13.511,-13.51 2.451,0 4.617,0.513 6.1,1.196 l -1.938,10.318 c -0.855,4.333 -0.171,6.328 1.71,6.385 2.907,0.058 6.157,-3.819 6.157,-10.432 0,-8.267 -4.96,-14.195 -13.796,-14.195 -9.292,0 -17.103,7.354 -17.103,18.927 0,9.52 6.214,15.392 14.651,15.392 3.249,0 6.271,-0.685 8.608,-1.995 z m -3.136,-24.627 c -0.57,-0.171 -1.539,-0.399 -2.851,-0.399 -5.017,0 -9.064,4.731 -9.064,10.262 0,2.508 1.255,4.332 3.763,4.332 3.307,0 6.328,-4.218 6.955,-7.753 z"
           id="path5224"
           inkscape:connector-curvature="0"
           style="fill:#8f8c87" />
      </g>
    </g>
  </g>
</svg>
