<?xml version="1.0" encoding="UTF-8" standalone="no"?>
<!-- Created with Inkscape (http://www.inkscape.org/) -->

<svg
   xmlns:dc="http://purl.org/dc/elements/1.1/"
   xmlns:cc="http://creativecommons.org/ns#"
   xmlns:rdf="http://www.w3.org/1999/02/22-rdf-syntax-ns#"
   xmlns:svg="http://www.w3.org/2000/svg"
   xmlns="http://www.w3.org/2000/svg"
   xmlns:sodipodi="http://sodipodi.sourceforge.net/DTD/sodipodi-0.dtd"
   xmlns:inkscape="http://www.inkscape.org/namespaces/inkscape"
   width="24.791988mm"
   height="24.791988mm"
   viewBox="0 0 24.791988 24.791988"
   version="1.1"
   id="svg3615"
   inkscape:version="0.92.4 (unknown)"
   sodipodi:docname="watering.svg">
  <defs
     id="defs3609" />
  <sodipodi:namedview
     id="base"
     pagecolor="#ffffff"
     bordercolor="#666666"
     borderopacity="1.0"
     inkscape:pageopacity="0.0"
     inkscape:pageshadow="2"
     inkscape:zoom="1.979899"
     inkscape:cx="9.4108388"
     inkscape:cy="0.27453792"
     inkscape:document-units="mm"
     inkscape:current-layer="layer1"
     showgrid="false"
     fit-margin-top="0"
     fit-margin-left="0"
     fit-margin-right="0"
     fit-margin-bottom="0"
     inkscape:window-width="959"
     inkscape:window-height="1023"
     inkscape:window-x="960"
     inkscape:window-y="0"
     inkscape:window-maximized="0" />
  <metadata
     id="metadata3612">
    <rdf:RDF>
      <cc:Work
         rdf:about="">
        <dc:format>image/svg+xml</dc:format>
        <dc:type
           rdf:resource="http://purl.org/dc/dcmitype/StillImage" />
        <dc:title></dc:title>
      </cc:Work>
    </rdf:RDF>
  </metadata>
  <g
     inkscape:label="Layer 1"
     inkscape:groupmode="layer"
     id="layer1"
     transform="translate(70.604326,-64.621863)">
    <g
       transform="matrix(0.26458333,0,0,0.26458333,-119.73454,-83.579326)"
       id="g4830">
      <circle
         style="fill:#f3f3f2;stroke:#fafafa;stroke-width:4;stroke-miterlimit:10"
         id="circle4832"
         r="44.849998"
         cy="616.46198"
         cx="232.53999"
         stroke-miterlimit="10" />
      <path
         style="fill:#8f8c87"
         inkscape:connector-curvature="0"
         id="path4834"
         d="m 241.107,646.924 c -0.191,-0.115 -0.483,-0.177 -0.612,-0.379 -0.396,-0.618 1.214,-0.257 1.458,-0.229 0.297,0.034 0.625,-0.029 0.908,0.074 0.275,0.101 0.541,0.238 0.839,0.254 0.288,0.013 0.686,-0.187 0.603,-0.542 -0.071,-0.306 -0.45,-0.345 -0.678,-0.4 -0.604,-0.145 -1.177,-0.396 -1.767,-0.596 -0.465,-0.159 -0.928,-0.479 -1.209,-0.922 -0.164,-0.257 -0.215,-0.52 -0.422,-0.749 -0.194,-0.218 -0.445,-0.389 -0.668,-0.573 -0.443,-0.364 -0.914,-0.639 -1.329,-1.04 -0.171,-0.166 -0.333,-0.329 -0.5,-0.498 -0.312,-0.322 -0.208,-0.349 -0.11,-0.75 0.163,-0.679 -0.149,-1.338 -0.425,-1.926 -0.613,-1.306 -1.011,-2.736 -1.346,-4.164 -0.211,-0.898 -0.441,-1.758 -0.441,-2.687 -10e-4,-0.967 -0.078,-1.937 -0.077,-2.919 0,-0.751 0.03,-1.501 0.063,-2.251 0.017,-0.377 0.034,-0.754 0.049,-1.13 0.042,-1.073 0.108,-2.665 1.241,-3.203 0.522,-0.249 1.255,-0.016 1.811,-10e-4 0.53,0.014 1.095,0.175 1.609,-0.011 0.393,-0.141 0.692,-0.399 1.131,-0.38 1.038,0.045 1.791,0.665 2.759,-0.087 0.492,-0.382 0.479,-1.106 0.941,-1.505 0.243,-0.21 0.56,-0.388 0.768,-0.624 0.48,-0.55 0.143,-0.823 -0.07,-1.313 -0.114,-0.261 -0.124,-0.696 -0.092,-0.982 0.032,-0.285 0.189,-0.465 0.42,-0.623 0.242,-0.164 0.595,-0.459 0.877,-0.518 0.239,-0.048 0.567,0.157 0.762,0.3 0.403,0.294 0.771,0.613 1.274,0.763 0.371,0.109 0.724,0.219 1.052,-0.013 0.233,-0.166 0.408,-0.309 0.705,-0.335 0.258,-0.021 0.47,0.102 0.716,0.107 0.55,0.012 0.998,-0.664 1.265,-1.079 0.448,-0.694 0.296,-1.007 -0.232,-1.531 -0.692,-0.687 0.017,-1.192 0.461,-1.77 0.252,-0.326 0.387,-0.513 0.384,-0.924 -0.003,-0.344 -0.018,-0.519 0.226,-0.766 0.35,-0.354 1.038,-0.848 1.14,-1.324 0.056,-0.266 -0.062,-0.478 -0.06,-0.752 0.002,-0.386 -0.081,-0.759 -0.081,-1.134 0,-0.43 0.128,-0.79 0.023,-1.229 -0.149,-0.618 -0.303,-1.154 -0.322,-1.8 -0.011,-0.374 0.04,-0.788 -0.079,-1.148 -0.129,-0.39 -0.447,-0.622 -0.783,-0.832 -0.527,-0.329 -0.861,-0.635 -1.118,-1.21 -0.403,-0.904 -0.992,-1.588 -1.634,-2.328 -0.288,-0.331 -0.633,-0.589 -0.917,-0.917 -0.333,-0.386 -0.678,-0.749 -1.003,-1.136 -0.573,-0.683 -0.988,-1.417 -1.86,-1.765 -0.566,-0.225 -1.162,0.167 -1.707,-0.022 -0.222,-0.078 -0.4,-0.271 -0.568,-0.464 -0.102,-0.119 -0.199,-0.236 -0.3,-0.331 -0.253,-0.235 -0.532,-0.382 -0.842,-0.527 -1.116,-0.524 -2.332,-0.767 -3.443,-1.286 -0.393,-0.183 -1.122,-0.376 -1.534,-0.18 -0.261,0.124 -0.36,0.45 -0.654,0.514 -0.556,0.117 -1.307,-0.511 -1.853,-0.617 -1.403,-0.274 -2.512,0.64 -3.56,1.441 -0.465,0.356 -1.005,0.81 -1.633,0.745 -0.551,-0.058 -1.211,-0.354 -1.695,-0.613 -0.687,-0.37 -1.33,-0.84 -2.146,-0.82 -0.759,0.018 -1.471,0.606 -2.235,0.347 -0.538,-0.182 -0.893,-0.619 -1.507,-0.406 -0.43,0.149 -0.725,0.502 -1.21,0.584 -0.674,0.114 -1.458,-0.281 -2.092,-0.141 -0.873,0.195 -1.591,1.203 -1.991,1.938 -0.323,0.589 -0.775,1.059 -1.014,1.682 -0.192,0.502 -0.386,1.004 -0.602,1.493 -0.146,0.331 -0.324,0.652 -0.387,1.014 -0.083,0.488 -0.13,0.601 -0.479,1.027 -0.429,0.526 -0.975,0.938 -1.399,1.478 -0.422,0.537 -0.791,1.113 -1.223,1.643 -0.69,0.847 -1.205,1.765 -1.846,2.652 -0.657,0.908 -0.317,1.376 0.233,2.238 0.326,0.512 0.505,0.762 0.489,1.379 -0.018,0.705 -0.277,1.364 -0.351,2.057 -0.064,0.61 0.304,0.925 0.614,1.374 0.288,0.418 0.542,0.915 0.746,1.386 0.215,0.5 0.349,1.069 0.691,1.5 0.303,0.381 0.768,0.622 1.18,0.894 0.402,0.264 0.793,0.505 1.179,0.804 0.343,0.266 0.655,0.7 1.018,0.928 0.34,0.212 0.959,0.195 1.376,0.145 0.535,-0.065 0.84,-0.118 1.382,0 0.575,0.126 1.049,0.288 1.5,0.69 0.523,0.468 1.062,0.891 1.591,1.343 0.342,0.293 0.649,0.426 1.092,0.513 0.574,0.116 0.931,0.087 1.462,-0.167 0.373,-0.178 0.651,-0.129 0.978,-0.385 0.259,-0.202 0.533,-0.516 0.881,-0.543 0.07,-0.006 0.143,10e-4 0.218,0.021 0.808,0.22 0.878,1.371 1.037,2.01 0.252,1.011 0.505,2.022 0.672,3.052 0.205,1.261 -0.123,2.457 -0.144,3.698 -0.028,1.612 -0.157,3.223 -0.286,4.83 -0.059,0.746 -0.227,1.574 -0.129,2.314 0.085,0.644 0.22,1.286 0.268,1.945 0.005,0.076 0.008,0.152 0.007,0.229 -0.003,0.53 -0.157,1.047 -0.408,1.513 -0.117,0.216 -0.308,0.417 -0.394,0.643 -0.083,0.214 -0.315,0.313 -0.401,0.523 -0.06,0.143 -0.137,0.287 -0.187,0.433 -0.064,0.185 -0.141,0.476 -0.305,0.606 -0.083,0.064 -0.21,0.112 -0.309,0.147 -0.483,0.175 -0.984,0.293 -1.486,0.403 -0.124,0.027 -0.247,0.055 -0.371,0.081 -0.087,0.02 -0.18,0.013 -0.266,0.037 -0.205,0.058 -0.433,0.183 -0.595,0.319 -0.097,0.082 -0.208,0.145 -0.292,0.238 -0.084,0.093 -0.133,0.21 -0.222,0.298 -0.072,0.071 -0.15,0.095 -0.237,0.136 -0.207,0.096 -0.368,0.363 -0.395,0.586 -0.021,0.183 -0.179,0.408 -0.315,0.534 -0.181,0.168 -0.47,0.238 -0.681,0.366 -0.263,0.158 -0.453,0.472 -0.561,0.751 -0.052,0.134 -0.125,0.213 -0.201,0.33 -0.097,0.148 -0.16,0.331 -0.233,0.492 -0.1,0.219 -0.251,0.421 -0.347,0.646 -0.083,0.19 -0.224,0.632 0.035,0.76 0.043,0.021 0.102,0.018 0.148,0.027 0.094,0.021 0.186,0.05 0.281,0.071 0.183,0.041 0.371,0.06 0.559,0.031 0.12,-0.02 0.398,-0.043 0.472,-0.13 0,0 0.026,-0.077 0.027,-0.079 0.064,-0.137 0.157,-0.274 0.244,-0.396 0.05,-0.068 0.099,-0.128 0.174,-0.164 0.235,-0.115 0.553,-0.118 0.642,-0.405 0.059,-0.187 0.163,-0.358 0.272,-0.521 0.086,-0.128 0.189,-0.364 0.353,-0.375 0.178,-0.011 0.294,-0.17 0.44,-0.267 0.156,-0.103 0.329,-0.188 0.516,-0.214 0.168,-0.022 0.304,-0.067 0.459,-0.125 0.163,-0.06 0.348,-0.149 0.525,-0.125 0.237,0.032 0.362,0.275 0.437,0.48 0.037,0.101 0.071,0.207 0.105,0.308 0.031,0.095 0,0.196 0.109,0.211 0.102,0.015 0.235,-0.068 0.342,-0.077 0.069,-0.006 0.133,0.008 0.192,0.018 0.008,-0.118 0.016,-0.233 0.008,-0.349 -0.007,-0.097 -0.006,-0.24 0.019,-0.336 0.019,-0.07 0.077,-0.103 0.128,-0.143 0.025,-0.02 0.064,-0.07 0.095,-0.076 0.055,-0.013 0.015,0.014 0.06,0.023 0.079,0.016 0.101,-0.003 0.17,-0.01 0.083,-0.01 0.195,0.028 0.275,0.05 0.071,0.019 0.159,0.056 0.235,0.046 0.097,-0.013 0.09,-0.098 0.152,-0.122 0.201,-0.08 0.372,0.482 0.436,0.603 0.083,0.156 0.067,0.316 0.081,0.489 0.013,0.157 0.077,0.354 -0.068,0.469 -0.222,0.176 -0.561,0.28 -0.6,0.606 -0.028,0.241 0.005,0.499 0.06,0.719 0.033,0.136 0.029,0.237 -10e-4,0.375 -0.026,0.117 -0.038,0.303 0.144,0.291 0.194,-0.013 0.201,-0.215 0.224,-0.363 0.017,-0.121 0.065,-0.229 0.137,-0.326 0.084,-0.117 0.061,-0.117 0.071,-0.248 0.013,-0.141 0.155,-0.395 0.289,-0.455 0.184,-0.085 0.502,-0.043 0.651,-0.188 0.072,-0.069 0.069,-0.191 0.09,-0.288 0.02,-0.094 0.024,-0.351 0.111,-0.411 0.084,-0.059 0.145,0.036 0.214,0.089 0.083,0.061 0.217,0.18 0.318,0.122 0.206,-0.116 -0.077,-0.392 -0.071,-0.522 0.005,-0.129 0.143,-0.128 0.236,-0.105 0.176,0.045 0.189,0.099 0.345,-0.021 0.062,-0.048 0.138,-0.138 0.208,-0.173 0.232,-0.116 0.378,0.217 0.448,0.37 0.133,0.286 0.256,0.577 0.426,0.843 0.411,0.64 0.926,0.582 1.529,0.936 0.312,0.182 0.649,0.73 0.605,1.111 -0.05,0.446 -0.649,0.522 -0.797,0.917 -0.127,0.338 0.005,0.628 0.288,0.86 -0.119,-0.1 0.365,-0.43 0.421,-0.468 0.319,-0.22 0.497,-0.201 0.886,-0.198 0.901,0.006 1.069,0.715 1.748,1.132 0.362,0.219 1.672,1.107 1.481,0.146 -0.184,-0.924 -0.818,-1.372 -1.343,-2.071 -0.447,-0.598 -1.103,-2.032 0.203,-1.69 0.503,0.131 1.008,0.446 1.516,0.506 0.484,0.059 0.525,0.343 0.75,0.716 0.122,0.205 0.237,0.431 0.457,0.539 0.221,0.109 0.279,0.223 0.363,0.453 0.055,0.15 0.093,0.278 0.277,0.275 0.249,-0.004 0.375,-0.24 0.398,-0.457 0.013,-0.128 -0.018,-0.271 -0.035,-0.396 -0.009,-0.063 -0.006,-0.163 -0.038,-0.221 -0.042,-0.075 -0.085,-0.06 -0.149,-0.125 -0.135,-0.14 -0.132,-0.405 -0.127,-0.588 0.015,-0.545 -0.106,-0.952 -0.613,-1.21 -0.102,-0.052 -0.225,-0.046 -0.309,-0.114 -0.13,-0.104 -0.058,-0.247 0.069,-0.329 0.187,-0.12 0.538,-0.259 0.73,-0.131 0.151,0.104 0.233,0.195 0.416,0.25 0.118,0.036 0.225,0.067 0.329,0.135 0.181,0.119 0.292,0.324 0.461,0.44 0.18,0.125 0.403,-0.012 0.597,0.067 0.079,0.033 0.13,0.104 0.221,0.125 0.105,0.023 0.19,-0.026 0.311,-0.055 0.131,-0.032 -0.157,-0.293 -0.168,-0.306 -0.102,-0.113 -0.15,-0.268 -0.226,-0.402 -0.184,-0.32 -0.383,-0.633 -0.702,-0.825 z m -16.606,-35.083 c -0.369,-0.304 -0.781,-0.627 -1.256,-0.719 -0.276,-0.056 -0.531,0.008 -0.799,-0.095 -0.322,-0.122 -0.528,-0.418 -0.876,-0.511 0.327,0.008 0.644,0.084 0.967,0.121 0.362,0.041 0.788,0.169 1.141,0.092 -0.015,-0.128 0.014,-0.36 0.159,-0.423 0.231,-0.099 0.362,0.188 0.398,0.37 0.035,0.167 0.052,0.191 0.191,0.309 0.098,0.085 0.184,0.113 0.305,0.146 0.126,0.036 0.31,0.171 0.377,0.281 0.096,0.156 0.52,0.935 0.246,1.069 -0.162,0.08 -0.679,-0.496 -0.782,-0.581 -0.024,-0.019 -0.048,-0.039 -0.071,-0.059 z m 15.584,4.825 c -0.124,0.072 -0.247,0.146 -0.364,0.229 -0.269,0.189 -0.599,0.262 -0.859,0.446 -0.259,0.186 -0.322,0.559 -0.657,0.621 -0.146,-0.462 -0.225,-1.098 0.306,-1.323 0.283,-0.12 0.588,0.079 0.806,-0.181 0.113,-0.136 0.081,-0.472 0.121,-0.641 0.135,-0.575 0.288,-0.5 0.833,-0.511 0.103,-0.001 1.339,0.063 1.318,0.098 -0.195,0.315 -0.584,0.661 -0.878,0.877 -0.195,0.144 -0.412,0.262 -0.626,0.385 z m 9.374,-9.585 c -0.109,0.598 -0.599,0.384 -1.034,0.479 -0.265,0.058 -0.508,0.19 -0.716,0.361 -0.064,0.052 -0.136,0.095 -0.204,0.139 -0.059,0.038 -0.117,0.076 -0.167,0.124 -0.115,0.111 -0.193,0.268 -0.357,0.311 -0.125,0.033 -0.203,-0.008 -0.318,0.064 -0.111,0.068 -0.214,0.249 -0.37,0.197 -0.061,-0.021 0.099,-0.772 0.129,-0.868 0.05,-0.156 0.124,-0.34 0.239,-0.455 0.131,-0.13 0.331,-0.164 0.499,-0.226 0.23,-0.084 0.439,-0.174 0.638,-0.318 0.282,-0.206 0.559,-0.478 0.897,-0.587 0.244,-0.078 0.303,0.033 0.467,0.187 0.174,0.164 0.347,0.324 0.297,0.592 z" />
      <path
         style="fill:#d0cecc"
         inkscape:connector-curvature="0"
         id="path4836"
         d="m 223.178,594.963 c 0,1.674 -1.358,3.032 -3.033,3.032 -1.675,0 -3.034,-1.358 -3.034,-3.032 0,-1.676 1.422,-3.886 3.034,-6.729 1.043,2.085 3.033,5.053 3.033,6.729 z" />
      <path
         style="fill:#d0cecc"
         inkscape:connector-curvature="0"
         id="path4838"
         d="m 237.656,584.337 c 0,2.249 -1.824,4.073 -4.074,4.073 -2.25,0 -4.074,-1.824 -4.074,-4.073 0,-2.25 1.91,-5.221 4.074,-9.04 1.4,2.801 4.074,6.79 4.074,9.04 z" />
      <path
         style="fill:#d0cecc"
         inkscape:connector-curvature="0"
         id="path4840"
         d="m 250.138,589.753 c 0,1.967 -1.594,3.561 -3.56,3.561 -1.966,0 -3.561,-1.594 -3.561,-3.561 0,-1.967 1.669,-4.561 3.561,-7.899 1.223,2.447 3.56,5.932 3.56,7.899 z" />
      <path
         style="fill:#d0cecc"
         inkscape:connector-curvature="0"
         id="path4842"
         d="m 227.604,572.688 c 0,1.441 -1.168,2.609 -2.608,2.609 -1.441,0 -2.609,-1.168 -2.609,-2.609 0,-1.441 1.223,-3.342 2.609,-5.788 0.896,1.793 2.608,4.346 2.608,5.788 z" />
      <path
         style="fill:#d0cecc"
         inkscape:connector-curvature="0"
         id="path4844"
         d="m 242.603,559.277 c 0,2.146 -1.742,3.888 -3.889,3.888 -2.147,0 -3.888,-1.741 -3.888,-3.888 0,-2.147 1.823,-4.981 3.888,-8.626 1.337,2.672 3.889,6.479 3.889,8.626 z" />
    </g>
  </g>
</svg>
