<?xml version="1.0" encoding="UTF-8" standalone="no"?>
<!-- Created with Inkscape (http://www.inkscape.org/) -->

<svg
   xmlns:dc="http://purl.org/dc/elements/1.1/"
   xmlns:cc="http://creativecommons.org/ns#"
   xmlns:rdf="http://www.w3.org/1999/02/22-rdf-syntax-ns#"
   xmlns:svg="http://www.w3.org/2000/svg"
   xmlns="http://www.w3.org/2000/svg"
   xmlns:sodipodi="http://sodipodi.sourceforge.net/DTD/sodipodi-0.dtd"
   xmlns:inkscape="http://www.inkscape.org/namespaces/inkscape"
   width="13.123898mm"
   height="24.573875mm"
   viewBox="0 0 46.501999 87.072787"
   id="svg6298"
   version="1.1"
   inkscape:version="0.92.4 (unknown)"
   sodipodi:docname="coffee_cup.svg">
  <defs
     id="defs6300" />
  <sodipodi:namedview
     id="base"
     pagecolor="#ffffff"
     bordercolor="#666666"
     borderopacity="1.0"
     inkscape:pageopacity="0.0"
     inkscape:pageshadow="2"
     inkscape:zoom="2.8"
     inkscape:cx="-28.182672"
     inkscape:cy="1.0719249"
     inkscape:document-units="px"
     inkscape:current-layer="g8954"
     showgrid="false"
     fit-margin-top="0"
     fit-margin-left="0"
     fit-margin-right="0"
     fit-margin-bottom="0"
     inkscape:window-width="1920"
     inkscape:window-height="1023"
     inkscape:window-x="0"
     inkscape:window-y="0"
     inkscape:window-maximized="1" />
  <metadata
     id="metadata6303">
    <rdf:RDF>
      <cc:Work
         rdf:about="">
        <dc:format>image/svg+xml</dc:format>
        <dc:type
           rdf:resource="http://purl.org/dc/dcmitype/StillImage" />
        <dc:title></dc:title>
      </cc:Work>
    </rdf:RDF>
  </metadata>
  <g
     inkscape:label="Layer 1"
     inkscape:groupmode="layer"
     id="layer1"
     transform="translate(623.251,-491.68295)">
    <g
       id="g8954"
       transform="translate(1924.1572,801.10144)">
      <path
         sodipodi:nodetypes="ssscssscsssscsscssssscsc"
         inkscape:connector-curvature="0"
         id="rect8914"
         d="m -2539.8574,-251.00781 c -5.3302,0 -6.8008,0.0159 -6.8008,8 l 0,2.75195 c 0,7.27286 4.5182,13.25382 7.8144,14.26172 0.3225,0.0985 -1.3492,2.89844 -1.0136,2.89844 l 22.5097,0 c 0.3132,0 -1.3798,-2.79291 -1.0781,-2.87891 1.7506,-0.49902 4.0771,-2.27518 5.6254,-4.89694 l 4.1617,-0.26517 c 2.1738,-0.13851 6.9825,-4.21922 6.9825,-7.52734 l 0,-0.47461 c 0,-4.16689 -1.7535,-6.51172 -3.9317,-6.51172 l -5.0976,0 c -0.6335,-5.34556 -0.3041,-5.35742 -6.6622,-5.35742 z m 29.3105,8.43164 3.5332,0 c 1.2553,0 2.2657,1.35247 2.2657,3.7539 l 0,0.27344 c 0,1.90651 -2.7682,4.33789 -4.0235,4.33789 l -2.123,0 c -0.093,0 -0.1817,-0.0271 -0.2715,-0.0449 0.3937,-1.82656 0.6191,-3.85393 0.6191,-6 z"
         style="color:#000000;clip-rule:nonzero;display:inline;overflow:visible;visibility:visible;opacity:1;isolation:auto;mix-blend-mode:normal;color-interpolation:sRGB;color-interpolation-filters:linearRGB;solid-color:#000000;solid-opacity:1;fill:#000000;fill-opacity:1;fill-rule:nonzero;stroke:#ffffff;stroke-width:1.5;stroke-linecap:square;stroke-linejoin:miter;stroke-miterlimit:4;stroke-dasharray:none;stroke-dashoffset:0;stroke-opacity:1;color-rendering:auto;image-rendering:auto;shape-rendering:auto;text-rendering:auto;enable-background:accumulate" />
      <g
         id="g8973"
         style="fill:#000000">
        <path
           style="fill:#000000;fill-rule:evenodd;stroke:none;stroke-width:1px;stroke-linecap:butt;stroke-linejoin:miter;stroke-opacity:1"
           d="m -2529.0254,-254.69357 c -16.0451,-15.24666 0.2797,-30.99571 -6.4249,-43.73538 0,0 10.6357,14.95983 6.2628,24.27055 -4.6064,9.80758 -0.4094,15.42384 0.1621,19.46483 z"
           id="path8937"
           inkscape:connector-curvature="0"
           sodipodi:nodetypes="ccsc" />
        <path
           style="fill:#000000;fill-rule:evenodd;stroke:none;stroke-width:1px;stroke-linecap:butt;stroke-linejoin:miter;stroke-opacity:1"
           d="m -2528.8049,-265.94181 c 16.5819,-14.6611 0.8327,-30.9858 7.9901,-43.47668 0,0 -8.6413,10.18072 -4.6054,19.64236 4.2515,9.96656 1.3295,16.80348 -3.3847,23.83432 z"
           id="path8937-7"
           inkscape:connector-curvature="0"
           sodipodi:nodetypes="ccsc" />
      </g>
    </g>
  </g>
</svg>
