<?xml version="1.0" encoding="UTF-8" standalone="no"?>
<!-- Created with Inkscape (http://www.inkscape.org/) -->

<svg
   xmlns:dc="http://purl.org/dc/elements/1.1/"
   xmlns:cc="http://creativecommons.org/ns#"
   xmlns:rdf="http://www.w3.org/1999/02/22-rdf-syntax-ns#"
   xmlns:svg="http://www.w3.org/2000/svg"
   xmlns="http://www.w3.org/2000/svg"
   xmlns:sodipodi="http://sodipodi.sourceforge.net/DTD/sodipodi-0.dtd"
   xmlns:inkscape="http://www.inkscape.org/namespaces/inkscape"
   width="300"
   height="300"
   viewBox="0 0 281.25001 281.25"
   id="svg6298"
   version="1.1"
   inkscape:version="0.92.4 (unknown)"
   sodipodi:docname="coffee_cup.svg">
  <defs
     id="defs6300" />
  <sodipodi:namedview
     id="base"
     pagecolor="#ffffff"
     bordercolor="#666666"
     borderopacity="1.0"
     inkscape:pageopacity="0.0"
     inkscape:pageshadow="2"
     inkscape:zoom="2.8"
     inkscape:cx="78.960185"
     inkscape:cy="97.143353"
     inkscape:document-units="px"
     inkscape:current-layer="layer1"
     showgrid="false"
     fit-margin-top="0"
     fit-margin-left="0"
     fit-margin-right="0"
     fit-margin-bottom="0"
     inkscape:window-width="1920"
     inkscape:window-height="1023"
     inkscape:window-x="0"
     inkscape:window-y="0"
     inkscape:window-maximized="1"
     units="px" />
  <metadata
     id="metadata6303">
    <rdf:RDF>
      <cc:Work
         rdf:about="">
        <dc:format>image/svg+xml</dc:format>
        <dc:type
           rdf:resource="http://purl.org/dc/dcmitype/StillImage" />
        <dc:title></dc:title>
      </cc:Work>
    </rdf:RDF>
  </metadata>
  <g
     inkscape:label="Layer 1"
     inkscape:groupmode="layer"
     id="layer1"
     transform="translate(623.251,-297.50573)">
    <g
       id="g8954"
       transform="matrix(1.0086883,0,0,1.0086883,1945.0681,805.47684)">
      <path
         sodipodi:nodetypes="ssscssscsssscsscssssscsc"
         inkscape:connector-curvature="0"
         id="rect8914"
         d="m -2457.4957,-314.92593 c -17.2169,0 -21.967,0.0514 -21.967,25.84045 v 8.88895 c 0,23.49175 14.594,42.81058 25.2409,46.06616 1.0417,0.31816 -4.3579,9.36212 -3.2739,9.36212 h 72.7076 c 1.0116,0 -4.4569,-9.02126 -3.4824,-9.29904 5.6546,-1.61186 13.1693,-7.34896 18.1704,-15.81739 l 13.4425,-0.85652 c 7.0215,-0.44739 22.5539,-13.62831 22.5539,-24.31373 v -1.53301 c 0,-13.45929 -5.6639,-21.03323 -12.6996,-21.03323 h -16.4656 c -2.0462,-17.26645 -0.9822,-17.30476 -21.5192,-17.30476 z m 94.6745,27.23467 h 11.4125 c 4.0546,0 7.3183,4.36855 7.3183,12.12531 v 0.88322 c 0,6.15814 -8.9414,14.01163 -12.9961,14.01163 h -6.8574 c -0.3004,0 -0.5869,-0.0875 -0.877,-0.14503 1.2717,-5.89989 1.9997,-12.44841 1.9997,-19.38034 z"
         style="color:#000000;clip-rule:nonzero;display:inline;overflow:visible;visibility:visible;opacity:1;isolation:auto;mix-blend-mode:normal;color-interpolation:sRGB;color-interpolation-filters:linearRGB;solid-color:#000000;solid-opacity:1;fill:#000000;fill-opacity:1;fill-rule:nonzero;stroke:none;stroke-width:4.84508419;stroke-linecap:square;stroke-linejoin:miter;stroke-miterlimit:4;stroke-dasharray:none;stroke-dashoffset:0;stroke-opacity:1;color-rendering:auto;image-rendering:auto;shape-rendering:auto;text-rendering:auto;enable-background:accumulate" />
      <g
         id="g8973"
         style="fill:#000000;stroke:none"
         transform="matrix(3.2300562,0,0,3.2300562,5746.3864,495.8434)">
        <path
           style="fill:#000000;fill-rule:evenodd;stroke:none;stroke-width:1px;stroke-linecap:butt;stroke-linejoin:miter;stroke-opacity:1"
           d="m -2529.0254,-254.69357 c -16.0451,-15.24666 0.2797,-30.99571 -6.4249,-43.73538 0,0 10.6357,14.95983 6.2628,24.27055 -4.6064,9.80758 -0.4094,15.42384 0.1621,19.46483 z"
           id="path8937"
           inkscape:connector-curvature="0"
           sodipodi:nodetypes="ccsc" />
        <path
           style="fill:#000000;fill-rule:evenodd;stroke:none;stroke-width:1px;stroke-linecap:butt;stroke-linejoin:miter;stroke-opacity:1"
           d="m -2528.8049,-265.94181 c 16.5819,-14.6611 0.8327,-30.9858 7.9901,-43.47668 0,0 -8.6413,10.18072 -4.6054,19.64236 4.2515,9.96656 1.3295,16.80348 -3.3847,23.83432 z"
           id="path8937-7"
           inkscape:connector-curvature="0"
           sodipodi:nodetypes="ccsc" />
      </g>
    </g>
  </g>
</svg>
