<?xml version="1.0" encoding="UTF-8" standalone="no"?>
<!-- Created with Inkscape (http://www.inkscape.org/) -->

<svg
   xmlns:dc="http://purl.org/dc/elements/1.1/"
   xmlns:cc="http://creativecommons.org/ns#"
   xmlns:rdf="http://www.w3.org/1999/02/22-rdf-syntax-ns#"
   xmlns:svg="http://www.w3.org/2000/svg"
   xmlns="http://www.w3.org/2000/svg"
   xmlns:sodipodi="http://sodipodi.sourceforge.net/DTD/sodipodi-0.dtd"
   xmlns:inkscape="http://www.inkscape.org/namespaces/inkscape"
   width="300"
   height="300"
   viewBox="0 0 281.25 281.25001"
   id="svg10220"
   version="1.1"
   inkscape:version="0.92.4 (unknown)"
   sodipodi:docname="document_edit.svg">
  <defs
     id="defs10222" />
  <sodipodi:namedview
     id="base"
     pagecolor="#ffffff"
     bordercolor="#666666"
     borderopacity="1.0"
     inkscape:pageopacity="0.0"
     inkscape:pageshadow="2"
     inkscape:zoom="1.979899"
     inkscape:cx="129.59723"
     inkscape:cy="158.59825"
     inkscape:document-units="px"
     inkscape:current-layer="layer1"
     showgrid="false"
     fit-margin-top="0"
     fit-margin-left="0"
     fit-margin-right="0"
     fit-margin-bottom="0"
     inkscape:window-width="1920"
     inkscape:window-height="1023"
     inkscape:window-x="0"
     inkscape:window-y="0"
     inkscape:window-maximized="1"
     units="px" />
  <metadata
     id="metadata10225">
    <rdf:RDF>
      <cc:Work
         rdf:about="">
        <dc:format>image/svg+xml</dc:format>
        <dc:type
           rdf:resource="http://purl.org/dc/dcmitype/StillImage" />
        <dc:title></dc:title>
      </cc:Work>
    </rdf:RDF>
  </metadata>
  <g
     inkscape:label="Layer 1"
     inkscape:groupmode="layer"
     id="layer1"
     transform="translate(-473.13556,138.75876)">
    <path
       style="color:#000000;clip-rule:nonzero;display:inline;overflow:visible;visibility:visible;opacity:1;isolation:auto;mix-blend-mode:normal;color-interpolation:sRGB;color-interpolation-filters:linearRGB;solid-color:#000000;solid-opacity:1;fill:#ffffff;fill-opacity:1;fill-rule:nonzero;stroke:none;stroke-width:1.875;stroke-linecap:round;stroke-linejoin:round;stroke-miterlimit:4;stroke-dasharray:none;stroke-dashoffset:0;stroke-opacity:1;color-rendering:auto;image-rendering:auto;shape-rendering:auto;text-rendering:auto;enable-background:accumulate"
       d="m 484.51892,-131.39685 h 128.3018 l 45.94953,45.183241 V 134.71524 H 484.51892 Z"
       id="rect866"
       inkscape:connector-curvature="0"
       sodipodi:nodetypes="cccccc" />
    <path
       style="color:#000000;clip-rule:nonzero;display:inline;overflow:visible;visibility:visible;opacity:1;isolation:auto;mix-blend-mode:normal;color-interpolation:sRGB;color-interpolation-filters:linearRGB;solid-color:#000000;solid-opacity:1;fill:none;fill-opacity:1;fill-rule:nonzero;stroke:#000000;stroke-width:14.72382259;stroke-linecap:round;stroke-linejoin:round;stroke-miterlimit:4;stroke-dasharray:none;stroke-dashoffset:0;stroke-opacity:1;color-rendering:auto;image-rendering:auto;shape-rendering:auto;text-rendering:auto;enable-background:accumulate"
       d="m 484.51891,-131.39685 h 128.0725 v 48.17793 h 48.24812 v 216.98465 c 0,0.75546 -0.60796,1.36362 -1.36348,1.36362 H 484.51891 c -0.75539,0 -1.36349,-0.60797 -1.36349,-1.36362 v -263.79916 c 0,-0.75532 0.60797,-1.36342 1.36349,-1.36342 z"
       id="rect5836"
       inkscape:connector-curvature="0"
       sodipodi:nodetypes="scccssssss" />
    <path
       style="fill:none;fill-rule:evenodd;stroke:#000000;stroke-width:14.72382259;stroke-linecap:round;stroke-linejoin:miter;stroke-miterlimit:4;stroke-dasharray:none;stroke-opacity:1"
       d="M 659.74865,-84.566617 613.6849,-130.38881"
       id="path5848"
       inkscape:connector-curvature="0"
       sodipodi:nodetypes="cc" />
    <path
       style="fill:#ffffff;fill-rule:evenodd;stroke:none;stroke-width:3.82704115px;stroke-linecap:butt;stroke-linejoin:miter;stroke-opacity:1"
       d="M 597.31313,18.643112 717.4778,-112.86322 c 0,0 31.16369,3.95868 34.24976,32.989992 L 634.92475,52.007663 c 0,0 -36.43581,22.105286 -45.38821,25.142495 -8.95239,3.037666 -15.72623,-4.512108 -12.32287,-13.617212 5.76039,-15.41064 20.09946,-44.889834 20.09946,-44.889834 z"
       id="path5944"
       inkscape:connector-curvature="0"
       sodipodi:nodetypes="cccczsc" />
    <path
       id="rect5850"
       d="m 695.25197,-74.859354 c -0.83595,-0.07371 -1.31201,0.02609 -1.74255,0.114156 -0.86119,0.18265 -1.48031,0.44684 -2.14724,0.776067 -1.33387,0.659106 -2.73277,1.617105 -4.04231,3.069434 l -83.48013,92.584389 a 4.7842801,4.7842801 0 0 0 -0.0326,0.03262 c -2.07601,2.350053 -3.45678,5.277738 -5.43677,9.306867 -1.97999,4.029129 -4.15268,8.837848 -6.1876,13.479964 -4.07003,9.284362 -7.57652,17.913011 -7.57652,17.913011 a 4.7842801,4.7842801 0 0 0 6.66771,6.037757 c 0,0 8.12551,-4.302452 16.89467,-9.271054 4.38471,-2.484432 8.93537,-5.127378 12.75954,-7.528183 3.8241,-2.400608 6.69106,-4.194753 8.81939,-6.455504 a 4.7842801,4.7842801 0 0 0 0.0685,-0.07502 l 83.48763,-92.583606 c 1.30889,-1.451546 2.11594,-2.9376 2.63369,-4.331937 0.25897,-0.697136 0.45532,-1.345152 0.54795,-2.217763 0.0457,-0.436403 0.0946,-0.920752 -0.0652,-1.736741 -0.15591,-0.815924 -0.58188,-2.475169 -2.58666,-3.514708 l 0.002,-0.01305 c -7.50151,-3.891098 -8.80765,-3.913799 -14.79929,-13.314013 -1.22056,-1.914955 -2.94973,-2.197998 -3.78562,-2.271971 z m -1.34809,10.950717 c 3.79925,5.036705 7.58722,8.386507 11.66508,10.731081 L 624.6032,36.618419 612.82742,26.002865 Z m -85.07088,95.656171 10.48424,9.448813 c -1.0642,0.745603 -2.13883,1.505884 -3.4725,2.343139 -3.61628,2.270274 -8.07098,4.871733 -12.38224,7.314547 -2.41039,1.365765 -2.50622,1.369027 -4.66208,2.556578 0.99068,-2.333485 0.99571,-2.444966 2.1436,-5.06345 2.00269,-4.568404 4.14322,-9.286645 6.0174,-13.100313 0.65904,-1.341108 1.26505,-2.410654 1.87158,-3.499314 z"
       style="color:#000000;font-style:normal;font-variant:normal;font-weight:normal;font-stretch:normal;font-size:medium;line-height:normal;font-family:sans-serif;text-indent:0;text-align:start;text-decoration:none;text-decoration-line:none;text-decoration-style:solid;text-decoration-color:#000000;letter-spacing:normal;word-spacing:normal;text-transform:none;writing-mode:lr-tb;direction:ltr;baseline-shift:baseline;text-anchor:start;white-space:normal;clip-rule:nonzero;display:inline;overflow:visible;visibility:visible;opacity:1;isolation:auto;mix-blend-mode:normal;color-interpolation:sRGB;color-interpolation-filters:linearRGB;solid-color:#000000;solid-opacity:1;fill:#000000;fill-opacity:1;fill-rule:nonzero;stroke:none;stroke-width:15.82920074;stroke-linecap:round;stroke-linejoin:round;stroke-miterlimit:4;stroke-dasharray:none;stroke-dashoffset:0;stroke-opacity:1;color-rendering:auto;image-rendering:auto;shape-rendering:auto;text-rendering:auto;enable-background:accumulate"
       inkscape:connector-curvature="0" />
    <path
       style="fill:none;fill-rule:evenodd;stroke:#000000;stroke-width:5.74056196;stroke-linecap:round;stroke-linejoin:miter;stroke-miterlimit:4;stroke-dasharray:none;stroke-opacity:1"
       d="m 702.53749,-80.734358 c 7.17227,14.726355 19.95654,17.994877 19.95654,17.994877"
       id="path5854"
       inkscape:connector-curvature="0" />
    <path
       style="fill:none;fill-rule:evenodd;stroke:#000000;stroke-width:5.74056196;stroke-linecap:round;stroke-linejoin:miter;stroke-miterlimit:4;stroke-dasharray:none;stroke-opacity:1"
       d="m 708.7337,-87.605978 c 7.17227,14.726289 19.95653,17.994877 19.95653,17.994877"
       id="path5854-3"
       inkscape:connector-curvature="0" />
    <path
       style="fill:none;fill-rule:evenodd;stroke:#000000;stroke-width:5.74056196;stroke-linecap:round;stroke-linejoin:miter;stroke-miterlimit:4;stroke-dasharray:none;stroke-opacity:1"
       d="m 714.9299,-94.477599 c 7.17221,14.72629 19.95648,17.994877 19.95648,17.994877"
       id="path5854-3-6"
       inkscape:connector-curvature="0" />
    <path
       id="path5854-3-6-7"
       d="m 722.59605,-105.6869 a 2.8713364,2.8713364 0 0 0 -2.78065,1.7359 2.8713364,2.8713364 0 0 0 -0.007,0.007 2.8705679,2.8705679 0 0 0 -1.2567,3.85359 c 7.68696,15.783115 21.82439,19.519417 21.82439,19.519417 a 2.8706597,2.8706597 0 0 0 3.37251,-1.715084 2.8706494,2.8706494 0 0 0 1.35559,-3.526646 c 0,0 -2.91647,-7.699351 -11.32887,-14.085579 -2.8042,-2.128788 -6.21734,-4.107408 -10.34028,-5.612118 a 2.8713364,2.8713364 0 0 0 -0.83777,-0.17613 z m 3.92828,7.875938 c 5.56809,3.072304 8.96727,6.942006 10.92162,9.843532 -3.08769,-1.643654 -7.29125,-4.623394 -10.92162,-9.843532 z"
       style="color:#000000;font-style:normal;font-variant:normal;font-weight:normal;font-stretch:normal;font-size:medium;line-height:normal;font-family:sans-serif;text-indent:0;text-align:start;text-decoration:none;text-decoration-line:none;text-decoration-style:solid;text-decoration-color:#000000;letter-spacing:normal;word-spacing:normal;text-transform:none;writing-mode:lr-tb;direction:ltr;baseline-shift:baseline;text-anchor:start;white-space:normal;clip-rule:nonzero;display:inline;overflow:visible;visibility:visible;opacity:1;isolation:auto;mix-blend-mode:normal;color-interpolation:sRGB;color-interpolation-filters:linearRGB;solid-color:#000000;solid-opacity:1;fill:#000000;fill-opacity:1;fill-rule:evenodd;stroke:none;stroke-width:9.49752045;stroke-linecap:round;stroke-linejoin:miter;stroke-miterlimit:4;stroke-dasharray:none;stroke-dashoffset:0;stroke-opacity:1;color-rendering:auto;image-rendering:auto;shape-rendering:auto;text-rendering:auto;enable-background:accumulate"
       inkscape:connector-curvature="0" />
  </g>
</svg>
