<?xml version="1.0" encoding="UTF-8" standalone="no"?>
<!-- Created with Inkscape (http://www.inkscape.org/) -->

<svg
   xmlns:dc="http://purl.org/dc/elements/1.1/"
   xmlns:cc="http://creativecommons.org/ns#"
   xmlns:rdf="http://www.w3.org/1999/02/22-rdf-syntax-ns#"
   xmlns:svg="http://www.w3.org/2000/svg"
   xmlns="http://www.w3.org/2000/svg"
   xmlns:sodipodi="http://sodipodi.sourceforge.net/DTD/sodipodi-0.dtd"
   xmlns:inkscape="http://www.inkscape.org/namespaces/inkscape"
   width="100"
   height="100"
   viewBox="0 0 100 100"
   id="svg5245"
   version="1.1"
   inkscape:version="0.91 r13725"
   sodipodi:docname="ecrire.svg">
  <defs
     id="defs5247">
    <inkscape:path-effect
       effect="skeletal"
       id="path-effect5822"
       is_visible="true"
       pattern="m 0,957.36216 c 0,-2.76 2.24,-5 5,-5 2.76,0 5,2.24 5,5 0,2.76 -2.24,5 -5,5 -2.76,0 -5,-2.24 -5,-5 z"
       copytype="single_stretched"
       prop_scale="1"
       scale_y_rel="false"
       spacing="0"
       normal_offset="0"
       tang_offset="0"
       prop_units="false"
       vertical_pattern="false"
       fuse_tolerance="0" />
    <inkscape:path-effect
       effect="skeletal"
       id="path-effect5818"
       is_visible="true"
       pattern="m 0,957.36216 c 0,-2.76 2.24,-5 5,-5 2.76,0 5,2.24 5,5 0,2.76 -2.24,5 -5,5 -2.76,0 -5,-2.24 -5,-5 z"
       copytype="single_stretched"
       prop_scale="1"
       scale_y_rel="false"
       spacing="0"
       normal_offset="0"
       tang_offset="0"
       prop_units="false"
       vertical_pattern="false"
       fuse_tolerance="0" />
  </defs>
  <sodipodi:namedview
     id="base"
     pagecolor="#ffffff"
     bordercolor="#666666"
     borderopacity="1.0"
     inkscape:pageopacity="0.0"
     inkscape:pageshadow="2"
     inkscape:zoom="11.2"
     inkscape:cx="54.118891"
     inkscape:cy="55.003435"
     inkscape:document-units="px"
     inkscape:current-layer="layer1"
     showgrid="false"
     units="px"
     inkscape:window-width="1920"
     inkscape:window-height="1025"
     inkscape:window-x="0"
     inkscape:window-y="0"
     inkscape:window-maximized="1" />
  <metadata
     id="metadata5250">
    <rdf:RDF>
      <cc:Work
         rdf:about="">
        <dc:format>image/svg+xml</dc:format>
        <dc:type
           rdf:resource="http://purl.org/dc/dcmitype/StillImage" />
        <dc:title />
      </cc:Work>
    </rdf:RDF>
  </metadata>
  <g
     inkscape:label="Layer 1"
     inkscape:groupmode="layer"
     id="layer1"
     transform="translate(0,-952.36216)">
    <path
       style="color:#000000;clip-rule:nonzero;display:inline;overflow:visible;visibility:visible;opacity:1;isolation:auto;mix-blend-mode:normal;color-interpolation:sRGB;color-interpolation-filters:linearRGB;solid-color:#000000;solid-opacity:1;fill:#ffffff;fill-opacity:1;fill-rule:nonzero;stroke:#000000;stroke-width:4;stroke-linecap:round;stroke-linejoin:round;stroke-miterlimit:4;stroke-dasharray:none;stroke-dashoffset:0;stroke-opacity:1;color-rendering:auto;image-rendering:auto;shape-rendering:auto;text-rendering:auto;enable-background:accumulate"
       d="m 16.267528,967.67162 33.465162,0 0,12.58882 12.607143,0 0,56.69776 c 0,0.1974 -0.158893,0.3563 -0.356264,0.3563 l -45.716041,0 c -0.197371,0 -0.356264,-0.1589 -0.356264,-0.3563 l 0,-68.93032 c 0,-0.19737 0.158893,-0.35626 0.356264,-0.35626 z"
       id="rect5836"
       inkscape:connector-curvature="0"
       sodipodi:nodetypes="scccssssss" />
    <path
       style="fill:none;fill-rule:evenodd;stroke:#000000;stroke-width:4;stroke-linecap:round;stroke-linejoin:miter;stroke-miterlimit:4;stroke-dasharray:none;stroke-opacity:1"
       d="M 62.054801,979.90828 50.018407,967.93501"
       id="path5848"
       inkscape:connector-curvature="0"
       sodipodi:nodetypes="cc" />
    <g
       id="g5946"
       transform="matrix(0.99384928,0.11074114,-0.11074114,0.99384928,50.154345,10.621348)">
      <path
         sodipodi:nodetypes="cccczsc"
         inkscape:connector-curvature="0"
         id="path5944"
         d="m 105.93975,990.61659 27.40039,-37.62819 c 0,0 8.20749,0.12627 9.84898,7.57615 l -26.5165,37.62818 c 0,0 -8.82242,6.79487 -11.05938,7.84267 -2.23696,1.0479 -4.21454,-0.7167 -3.59418,-3.1797 1.04999,-4.16869 3.92069,-12.23911 3.92069,-12.23911 z"
         style="fill:#ffffff;fill-rule:evenodd;stroke:none;stroke-width:1px;stroke-linecap:butt;stroke-linejoin:miter;stroke-opacity:1" />
      <g
         style="stroke:#000000;stroke-opacity:1"
         transform="matrix(0.49094976,0.35256332,-0.35256332,0.49094976,484.43748,506.29956)"
         id="g5921">
        <path
           id="rect5850"
           transform="matrix(1.3438434,-0.96504762,0.96504762,1.3438434,-220.53647,1066.9435)"
           d="m 128.66797,11.138672 c -0.21922,0.005 -0.34004,0.04394 -0.44922,0.08008 -0.21836,0.07227 -0.3715,0.158794 -0.53516,0.263672 -0.32732,0.209761 -0.66288,0.499018 -0.96093,0.914062 l -19,26.458985 a 1.250125,1.250125 0 0 0 -0.008,0.0098 c -0.47112,0.670348 -0.74497,1.470596 -1.14257,2.574219 -0.3976,1.103624 -0.82268,2.415292 -1.2168,3.679688 -0.78829,2.528839 -1.44922,4.871093 -1.44922,4.871093 a 1.250125,1.250125 0 0 0 1.90625,1.375 c 0,0 1.98563,-1.352432 4.11914,-2.896484 1.06677,-0.77205 2.17207,-1.590096 3.0957,-2.324219 0.92361,-0.734074 1.61623,-1.282948 2.10352,-1.93164 a 1.250125,1.250125 0 0 0 0.0156,-0.02148 l 19.00196,-26.458984 c 0.2979,-0.414828 0.46448,-0.824096 0.55859,-1.201172 0.0471,-0.18854 0.0793,-0.362498 0.0781,-0.591797 -6e-4,-0.114654 -0.002,-0.241851 -0.0664,-0.449219 -0.0641,-0.207367 -0.22281,-0.625922 -0.77344,-0.83789 l 0,-0.0039 c -2.06068,-0.793429 -2.40052,-0.761526 -4.22851,-3.029297 -0.37238,-0.461988 -0.82962,-0.485447 -1.04883,-0.480469 z m -0.0332,2.882812 c 1.13238,1.198053 2.213,1.958363 3.33984,2.449219 l -18.42773,25.662109 -3.36524,-2.416015 18.45313,-25.695313 z m -19.32422,27.302735 2.99609,2.15039 c -0.2548,0.224419 -0.51186,0.452957 -0.83398,0.708985 -0.87343,0.694204 -1.95499,1.498691 -3.00391,2.257812 -0.58644,0.424424 -0.61123,0.428046 -1.13672,0.798828 0.18975,-0.634658 0.18783,-0.663744 0.41016,-1.376953 0.38788,-1.244324 0.80724,-2.531551 1.18359,-3.576172 0.13234,-0.367334 0.25877,-0.662632 0.38477,-0.96289 z"
           style="color:#000000;font-style:normal;font-variant:normal;font-weight:normal;font-stretch:normal;font-size:medium;line-height:normal;font-family:sans-serif;text-indent:0;text-align:start;text-decoration:none;text-decoration-line:none;text-decoration-style:solid;text-decoration-color:#000000;letter-spacing:normal;word-spacing:normal;text-transform:none;direction:ltr;block-progression:tb;writing-mode:lr-tb;baseline-shift:baseline;text-anchor:start;white-space:normal;clip-rule:nonzero;display:inline;overflow:visible;visibility:visible;opacity:1;isolation:auto;mix-blend-mode:normal;color-interpolation:sRGB;color-interpolation-filters:linearRGB;solid-color:#000000;solid-opacity:1;fill:#000000;fill-opacity:1;fill-rule:nonzero;stroke:none;stroke-width:4.13614559;stroke-linecap:round;stroke-linejoin:round;stroke-miterlimit:4;stroke-dasharray:none;stroke-dashoffset:0;stroke-opacity:1;color-rendering:auto;image-rendering:auto;shape-rendering:auto;text-rendering:auto;enable-background:accumulate"
           inkscape:connector-curvature="0" />
        <path
           style="fill:none;fill-rule:evenodd;stroke:#000000;stroke-width:2.48168731;stroke-linecap:round;stroke-linejoin:miter;stroke-miterlimit:4;stroke-dasharray:none;stroke-opacity:1"
           d="m -36.239223,953.74602 c 6.565992,2.65165 11.616755,0 11.616755,0"
           id="path5854"
           inkscape:connector-curvature="0" />
        <path
           style="fill:none;fill-rule:evenodd;stroke:#000000;stroke-width:2.48168731;stroke-linecap:round;stroke-linejoin:miter;stroke-miterlimit:4;stroke-dasharray:none;stroke-opacity:1"
           d="m -36.239223,949.74602 c 6.565992,2.65165 11.616755,0 11.616755,0"
           id="path5854-3"
           inkscape:connector-curvature="0" />
        <path
           style="fill:none;fill-rule:evenodd;stroke:#000000;stroke-width:2.48168731;stroke-linecap:round;stroke-linejoin:miter;stroke-miterlimit:4;stroke-dasharray:none;stroke-opacity:1"
           d="m -36.239223,945.74602 c 6.565992,2.65165 11.616755,0 11.616755,0"
           id="path5854-3-6"
           inkscape:connector-curvature="0" />
        <path
           id="path5854-3-6-7"
           transform="matrix(1.3438434,-0.96504762,0.96504762,1.3438434,-220.53647,1066.9435)"
           d="m 134.87695,2.3417969 a 0.75027576,0.75027576 0 0 0 -0.67187,0.53125 0.75027576,0.75027576 0 0 0 -0.002,0.00195 0.75007496,0.75007496 0 0 0 -0.21484,1.0371094 c 2.45294,3.8763104 6.23242,4.4375 6.23242,4.4375 a 0.75009896,0.75009896 0 0 0 0.82618,-0.5429688 0.75009626,0.75009626 0 0 0 0.25,-0.9550781 c 0,0 -0.98018,-1.9150487 -3.34961,-3.3300781 -0.78982,-0.471675 -1.73344,-0.8867492 -2.84766,-1.1582032 a 0.75027576,0.75027576 0 0 0 -0.22266,-0.021484 z m 1.24805,1.9316406 c 1.53488,0.6367226 2.52959,1.5432911 3.12109,2.2402344 -0.84941,-0.3374856 -2.02727,-0.9896635 -3.12109,-2.2402344 z"
           style="color:#000000;font-style:normal;font-variant:normal;font-weight:normal;font-stretch:normal;font-size:medium;line-height:normal;font-family:sans-serif;text-indent:0;text-align:start;text-decoration:none;text-decoration-line:none;text-decoration-style:solid;text-decoration-color:#000000;letter-spacing:normal;word-spacing:normal;text-transform:none;direction:ltr;block-progression:tb;writing-mode:lr-tb;baseline-shift:baseline;text-anchor:start;white-space:normal;clip-rule:nonzero;display:inline;overflow:visible;visibility:visible;opacity:1;isolation:auto;mix-blend-mode:normal;color-interpolation:sRGB;color-interpolation-filters:linearRGB;solid-color:#000000;solid-opacity:1;fill:#000000;fill-opacity:1;fill-rule:evenodd;stroke:none;stroke-width:2.48168731;stroke-linecap:round;stroke-linejoin:miter;stroke-miterlimit:4;stroke-dasharray:none;stroke-dashoffset:0;stroke-opacity:1;color-rendering:auto;image-rendering:auto;shape-rendering:auto;text-rendering:auto;enable-background:accumulate"
           inkscape:connector-curvature="0" />
      </g>
    </g>
  </g>
</svg>
