<?xml version="1.0" encoding="UTF-8" standalone="no"?>
<!-- Created with Inkscape (http://www.inkscape.org/) -->

<svg
   xmlns:dc="http://purl.org/dc/elements/1.1/"
   xmlns:cc="http://creativecommons.org/ns#"
   xmlns:rdf="http://www.w3.org/1999/02/22-rdf-syntax-ns#"
   xmlns:svg="http://www.w3.org/2000/svg"
   xmlns="http://www.w3.org/2000/svg"
   xmlns:sodipodi="http://sodipodi.sourceforge.net/DTD/sodipodi-0.dtd"
   xmlns:inkscape="http://www.inkscape.org/namespaces/inkscape"
   width="6.4750247mm"
   height="3.8788624mm"
   viewBox="0 0 22.943001 13.744001"
   id="svg10329"
   version="1.1"
   inkscape:version="0.91 r13725"
   sodipodi:docname="icone_email.svg">
  <defs
     id="defs10331" />
  <sodipodi:namedview
     id="base"
     pagecolor="#ffffff"
     bordercolor="#666666"
     borderopacity="1.0"
     inkscape:pageopacity="0.0"
     inkscape:pageshadow="2"
     inkscape:zoom="0.35"
     inkscape:cx="-363.5285"
     inkscape:cy="-53.127996"
     inkscape:document-units="px"
     inkscape:current-layer="layer1"
     showgrid="false"
     fit-margin-top="0"
     fit-margin-left="0"
     fit-margin-right="0"
     fit-margin-bottom="0"
     inkscape:window-width="1920"
     inkscape:window-height="1020"
     inkscape:window-x="0"
     inkscape:window-y="0"
     inkscape:window-maximized="1" />
  <metadata
     id="metadata10334">
    <rdf:RDF>
      <cc:Work
         rdf:about="">
        <dc:format>image/svg+xml</dc:format>
        <dc:type
           rdf:resource="http://purl.org/dc/dcmitype/StillImage" />
        <dc:title></dc:title>
      </cc:Work>
    </rdf:RDF>
  </metadata>
  <g
     inkscape:label="Layer 1"
     inkscape:groupmode="layer"
     id="layer1"
     transform="translate(-5.6713573,-465.49021)">
    <g
       transform="translate(-371.99063,395.40321)"
       id="g5383">
      <rect
         x="378.16199"
         y="70.586998"
         stroke-miterlimit="10"
         width="21.943001"
         height="12.744"
         id="rect5385"
         style="fill:#ffffff;stroke:#23221f;stroke-miterlimit:10" />
      <polyline
         stroke-miterlimit="10"
         points="378.162,70.587 389.134,76.959 400.105,70.587   "
         id="polyline5387"
         style="fill:none;stroke:#23221f;stroke-miterlimit:10" />
      <g
         id="g5389">
        <circle
           cx="388.74799"
           cy="76.959"
           r="5.625"
           id="circle5391"
           style="fill:#ffffff" />
        <g
           id="g5393">
          <path
             d="m 392.738,75.737 c 0,0.244 -0.016,0.492 -0.046,0.747 -0.03,0.255 -0.079,0.501 -0.147,0.741 -0.068,0.24 -0.157,0.466 -0.269,0.68 -0.111,0.213 -0.247,0.4 -0.408,0.561 -0.161,0.161 -0.349,0.288 -0.562,0.378 -0.213,0.092 -0.457,0.137 -0.732,0.137 -0.147,0 -0.283,-0.017 -0.408,-0.051 -0.126,-0.034 -0.236,-0.083 -0.334,-0.147 -0.096,-0.064 -0.178,-0.147 -0.244,-0.25 -0.066,-0.102 -0.111,-0.219 -0.137,-0.352 -0.144,0.143 -0.282,0.266 -0.416,0.368 -0.135,0.102 -0.266,0.185 -0.395,0.25 -0.129,0.065 -0.256,0.111 -0.379,0.14 -0.124,0.029 -0.244,0.043 -0.363,0.043 -0.153,0 -0.289,-0.015 -0.408,-0.045 -0.117,-0.031 -0.223,-0.075 -0.313,-0.135 -0.092,-0.059 -0.169,-0.131 -0.233,-0.217 -0.064,-0.086 -0.119,-0.183 -0.162,-0.29 -0.043,-0.107 -0.073,-0.226 -0.091,-0.354 -0.018,-0.128 -0.026,-0.269 -0.026,-0.419 0,-0.154 0.012,-0.331 0.037,-0.529 0.025,-0.199 0.066,-0.404 0.123,-0.615 0.058,-0.211 0.137,-0.418 0.236,-0.62 0.101,-0.203 0.226,-0.383 0.374,-0.543 0.148,-0.159 0.325,-0.288 0.528,-0.387 0.205,-0.098 0.442,-0.147 0.715,-0.147 0.114,0 0.225,0.014 0.33,0.04 0.105,0.027 0.207,0.069 0.304,0.126 0.097,0.057 0.189,0.129 0.279,0.215 0.09,0.086 0.181,0.188 0.274,0.306 l 0.091,-0.473 c 0.015,-0.05 0.047,-0.088 0.097,-0.113 0.05,-0.025 0.144,-0.038 0.279,-0.038 0.064,0 0.119,0.003 0.164,0.011 0.045,0.008 0.079,0.017 0.104,0.029 0.025,0.013 0.042,0.028 0.051,0.046 0.009,0.018 0.01,0.04 0.003,0.064 l -0.479,2.471 c -0.057,0.312 -0.043,0.542 0.043,0.69 0.086,0.148 0.249,0.223 0.489,0.223 0.146,0 0.279,-0.037 0.397,-0.11 0.118,-0.073 0.222,-0.172 0.312,-0.298 0.09,-0.126 0.165,-0.271 0.226,-0.438 0.061,-0.167 0.111,-0.342 0.15,-0.526 0.039,-0.185 0.068,-0.374 0.086,-0.567 0.018,-0.193 0.027,-0.379 0.027,-0.559 0,-0.312 -0.043,-0.608 -0.127,-0.889 -0.084,-0.281 -0.229,-0.528 -0.432,-0.741 -0.205,-0.213 -0.478,-0.383 -0.819,-0.51 -0.342,-0.127 -0.771,-0.191 -1.286,-0.191 -0.423,0 -0.799,0.046 -1.129,0.14 -0.329,0.093 -0.619,0.219 -0.869,0.378 -0.251,0.16 -0.466,0.343 -0.645,0.551 -0.18,0.208 -0.331,0.429 -0.454,0.663 -0.124,0.235 -0.224,0.475 -0.298,0.72 -0.076,0.246 -0.133,0.482 -0.172,0.709 -0.04,0.228 -0.065,0.441 -0.078,0.642 -0.013,0.201 -0.02,0.371 -0.02,0.51 0,0.397 0.046,0.761 0.138,1.09 0.091,0.33 0.249,0.614 0.476,0.854 0.225,0.24 0.527,0.426 0.907,0.559 0.38,0.133 0.857,0.199 1.435,0.199 0.261,0 0.497,-0.015 0.709,-0.045 0.211,-0.031 0.395,-0.063 0.55,-0.097 0.156,-0.034 0.282,-0.066 0.379,-0.097 0.097,-0.031 0.163,-0.046 0.198,-0.046 0.021,0 0.041,0.006 0.057,0.019 0.017,0.013 0.029,0.032 0.038,0.06 0.009,0.026 0.015,0.061 0.019,0.102 0.004,0.042 0.006,0.092 0.006,0.153 0,0.05 -10e-4,0.091 -0.003,0.124 -0.002,0.033 -0.007,0.062 -0.014,0.088 -0.007,0.027 -0.017,0.051 -0.029,0.073 -0.012,0.022 -0.03,0.041 -0.052,0.059 -0.022,0.018 -0.083,0.045 -0.185,0.081 -0.103,0.036 -0.24,0.072 -0.414,0.107 -0.174,0.035 -0.377,0.066 -0.609,0.091 -0.232,0.025 -0.489,0.038 -0.769,0.038 -0.669,0 -1.235,-0.079 -1.699,-0.236 -0.464,-0.157 -0.842,-0.383 -1.134,-0.677 -0.292,-0.294 -0.502,-0.646 -0.631,-1.058 -0.129,-0.412 -0.193,-0.872 -0.193,-1.38 0,-0.186 0.01,-0.4 0.029,-0.642 0.02,-0.241 0.058,-0.499 0.113,-0.773 0.056,-0.273 0.133,-0.553 0.233,-0.838 0.101,-0.284 0.23,-0.563 0.39,-0.835 0.16,-0.272 0.353,-0.529 0.58,-0.771 0.228,-0.242 0.496,-0.453 0.806,-0.634 0.31,-0.181 0.664,-0.323 1.063,-0.427 0.399,-0.104 0.851,-0.156 1.356,-0.156 0.587,0 1.095,0.071 1.522,0.212 0.428,0.142 0.781,0.341 1.061,0.599 0.28,0.258 0.487,0.572 0.623,0.943 0.138,0.368 0.206,0.781 0.206,1.236 z m -3.115,0.349 c -0.136,-0.229 -0.275,-0.405 -0.419,-0.526 -0.144,-0.121 -0.306,-0.183 -0.489,-0.183 -0.15,0 -0.286,0.037 -0.408,0.11 -0.121,0.073 -0.227,0.168 -0.316,0.284 -0.09,0.117 -0.166,0.248 -0.229,0.395 -0.063,0.147 -0.113,0.297 -0.152,0.451 -0.04,0.154 -0.067,0.303 -0.084,0.449 -0.016,0.145 -0.023,0.273 -0.023,0.384 0,0.265 0.047,0.469 0.142,0.612 0.095,0.143 0.255,0.215 0.481,0.215 0.086,0 0.173,-0.015 0.263,-0.046 0.09,-0.03 0.185,-0.077 0.284,-0.14 0.101,-0.063 0.207,-0.145 0.32,-0.247 0.112,-0.102 0.237,-0.223 0.373,-0.362 l 0.257,-1.396 z"
             id="path5395"
             inkscape:connector-curvature="0"
             style="fill:#23221f" />
        </g>
      </g>
    </g>
  </g>
</svg>
