<?xml version="1.0" encoding="UTF-8" standalone="no"?>
<!-- Created with Inkscape (http://www.inkscape.org/) -->

<svg
   xmlns:dc="http://purl.org/dc/elements/1.1/"
   xmlns:cc="http://creativecommons.org/ns#"
   xmlns:rdf="http://www.w3.org/1999/02/22-rdf-syntax-ns#"
   xmlns:svg="http://www.w3.org/2000/svg"
   xmlns="http://www.w3.org/2000/svg"
   xmlns:sodipodi="http://sodipodi.sourceforge.net/DTD/sodipodi-0.dtd"
   xmlns:inkscape="http://www.inkscape.org/namespaces/inkscape"
   width="22.197962mm"
   height="19.744402mm"
   viewBox="0 0 22.197961 19.744402"
   version="1.1"
   id="svg8"
   inkscape:version="0.92.4 (unknown)"
   sodipodi:docname="hand.svg">
  <defs
     id="defs2" />
  <sodipodi:namedview
     id="base"
     pagecolor="#ffffff"
     bordercolor="#666666"
     borderopacity="1.0"
     inkscape:pageopacity="0.0"
     inkscape:pageshadow="2"
     inkscape:zoom="2.8"
     inkscape:cx="136.57794"
     inkscape:cy="7.7918353"
     inkscape:document-units="mm"
     inkscape:current-layer="layer1"
     showgrid="false"
     fit-margin-top="0"
     fit-margin-left="0"
     fit-margin-right="0"
     fit-margin-bottom="0"
     inkscape:window-width="1920"
     inkscape:window-height="1023"
     inkscape:window-x="0"
     inkscape:window-y="0"
     inkscape:window-maximized="1" />
  <metadata
     id="metadata5">
    <rdf:RDF>
      <cc:Work
         rdf:about="">
        <dc:format>image/svg+xml</dc:format>
        <dc:type
           rdf:resource="http://purl.org/dc/dcmitype/StillImage" />
        <dc:title></dc:title>
      </cc:Work>
    </rdf:RDF>
  </metadata>
  <g
     inkscape:label="Layer 1"
     inkscape:groupmode="layer"
     id="layer1"
     transform="translate(-50.811428,-174.37727)">
    <path
       style="fill:#000000;stroke-width:0.26458332"
       d="m 54.382248,191.68272 -2.879017,-2.88797 1.099859,-1.31366 c 0.625999,-0.74769 1.099859,-1.58985 1.099859,-1.95471 0,-0.35258 0.249695,-1.58622 0.554878,-2.74141 0.414928,-1.57061 0.525863,-2.62098 0.439837,-4.16456 -0.101648,-1.82391 -0.05663,-2.09546 0.386682,-2.33271 1.451091,-0.77661 3.113703,0.7734 3.11553,2.90452 l 9.89e-4,1.15344 1.616325,-2.47636 c 2.514356,-3.85221 3.073109,-4.26921 4.204508,-3.13781 0.861433,0.86144 0.70316,1.64103 -0.858065,4.22654 -0.379654,0.62873 0.02149,0.30749 1.230497,-0.98539 1.515027,-1.62014 1.927468,-1.91823 2.654043,-1.91823 0.983822,0 1.736025,0.67673 1.736025,1.56183 0,0.35962 -0.600486,1.23165 -1.521354,2.20933 l -1.521354,1.61521 1.564426,-1.10569 c 1.784196,-1.26101 2.818237,-1.41626 3.447654,-0.51764 0.640974,0.91512 0.511609,1.27574 -0.949857,2.64783 -1.118781,1.05037 -1.230424,1.22854 -0.625745,0.99864 1.356337,-0.51568 2.508264,0.78202 1.648336,1.85692 -0.547297,0.68412 -2.620967,2.24052 -4.409232,3.30936 -0.938116,0.56071 -2.351739,1.54571 -3.141383,2.18888 -1.018844,0.82986 -1.752772,1.2085 -2.527666,1.30403 -0.829928,0.10232 -1.379276,0.41213 -2.289354,1.2911 l -1.197404,1.15648 z m 5.628849,-0.28248 c 1.005156,0 2.076379,-0.50125 2.814668,-1.31705 0.287436,-0.31761 1.596842,-1.23783 2.909792,-2.04492 3.889893,-2.39119 5.349124,-3.78178 3.968452,-3.78178 -0.204531,0 -1.272923,0.54704 -2.374205,1.21565 -1.990707,1.20858 -2.905476,1.3566 -2.729263,0.4416 0.04883,-0.25357 1.278022,-1.38562 2.731534,-2.51568 1.910676,-1.4855 2.66594,-2.23752 2.726468,-2.71478 0.139565,-1.10045 -0.683224,-0.80468 -3.355627,1.20624 -2.355608,1.77254 -3.166499,2.10296 -3.404758,1.38735 -0.05826,-0.175 0.978524,-1.47011 2.303971,-2.87804 1.325447,-1.40793 2.368195,-2.685 2.317218,-2.83793 -0.05098,-0.15293 -0.29296,-0.40439 -0.53774,-0.55879 -0.370102,-0.23346 -0.880672,0.15325 -3.031694,2.2962 -1.422652,1.41731 -2.737075,2.57693 -2.92094,2.57693 -0.753502,0 -0.528062,-0.82786 0.869473,-3.19288 1.530086,-2.58934 1.684004,-3.24037 0.794508,-3.36052 -0.410833,-0.0555 -0.97551,0.61911 -2.570961,3.07145 -2.955229,4.54245 -3.409876,4.75194 -3.309109,1.52476 0.06436,-2.06132 -0.243562,-2.80531 -1.161082,-2.80531 -0.442968,0 -0.49711,0.22208 -0.499911,2.05052 -0.0017,1.12779 -0.178907,2.70537 -0.393734,3.50573 -0.214827,0.80037 -0.392008,1.98649 -0.393735,2.63582 -0.0027,1.02697 -0.146473,1.32666 -1.104503,2.30282 l -1.101363,1.12221 2.358134,2.23961 2.358133,2.23962 0.937198,-0.90441 c 0.676254,-0.6526 1.177169,-0.90442 1.799076,-0.90442 z"
       id="path1014"
       inkscape:connector-curvature="0" />
  </g>
</svg>
