<?xml version="1.0" encoding="UTF-8" standalone="no"?>
<!-- Created with Inkscape (http://www.inkscape.org/) -->

<svg
   xmlns:dc="http://purl.org/dc/elements/1.1/"
   xmlns:cc="http://creativecommons.org/ns#"
   xmlns:rdf="http://www.w3.org/1999/02/22-rdf-syntax-ns#"
   xmlns:svg="http://www.w3.org/2000/svg"
   xmlns="http://www.w3.org/2000/svg"
   xmlns:sodipodi="http://sodipodi.sourceforge.net/DTD/sodipodi-0.dtd"
   xmlns:inkscape="http://www.inkscape.org/namespaces/inkscape"
   width="79.375mm"
   height="79.375mm"
   viewBox="0 0 281.25 281.24999"
   id="svg6293"
   version="1.1"
   inkscape:version="0.92.4 (unknown)"
   sodipodi:docname="phone.svg">
  <defs
     id="defs6295" />
  <sodipodi:namedview
     id="base"
     pagecolor="#ffffff"
     bordercolor="#666666"
     borderopacity="1.0"
     inkscape:pageopacity="0.0"
     inkscape:pageshadow="2"
     inkscape:zoom="1.4"
     inkscape:cx="-65.982113"
     inkscape:cy="85.792753"
     inkscape:document-units="px"
     inkscape:current-layer="g6558-4-8-0-09-3-6"
     showgrid="false"
     fit-margin-top="0"
     fit-margin-left="0"
     fit-margin-right="0"
     fit-margin-bottom="0"
     inkscape:window-width="1920"
     inkscape:window-height="1023"
     inkscape:window-x="0"
     inkscape:window-y="0"
     inkscape:window-maximized="1" />
  <metadata
     id="metadata6298">
    <rdf:RDF>
      <cc:Work
         rdf:about="">
        <dc:format>image/svg+xml</dc:format>
        <dc:type
           rdf:resource="http://purl.org/dc/dcmitype/StillImage" />
        <dc:title></dc:title>
      </cc:Work>
    </rdf:RDF>
  </metadata>
  <g
     inkscape:label="Layer 1"
     inkscape:groupmode="layer"
     id="layer1"
     transform="translate(800.65575,-320.33926)">
    <g
       transform="matrix(14.666931,0,0,14.666939,-3728.0222,-13317.858)"
       id="g6558-4-8-0-09-3-6"
       style="fill:#000000">
      <path
         style="color:#000000;clip-rule:nonzero;display:inline;overflow:visible;visibility:visible;opacity:1;isolation:auto;mix-blend-mode:normal;color-interpolation:sRGB;color-interpolation-filters:linearRGB;solid-color:#000000;solid-opacity:1;fill:#000000;fill-opacity:1;fill-rule:nonzero;stroke:none;stroke-width:0.09992684;stroke-linecap:round;stroke-linejoin:round;stroke-miterlimit:4;stroke-dasharray:none;stroke-dashoffset:0;stroke-opacity:1;color-rendering:auto;image-rendering:auto;shape-rendering:auto;text-rendering:auto;enable-background:accumulate"
         d="m 203.84366,943.41143 c 3.49116,4.82113 8.77371,6.95359 11.79889,4.76294 0.78896,-0.57502 1.3696,-1.41451 1.70394,-2.45907 0.13009,-0.39049 0.009,-0.49975 -0.33133,-0.71471 l -4.3824,-2.46889 c -0.12007,-0.0528 -0.21481,10e-4 -0.31883,0.0814 -0.6253,0.49551 -0.9879,1.2958 -1.01885,2.25668 -1.79063,-0.26071 -3.63443,-1.48546 -4.93556,-3.27849 -1.29711,-1.79636 -1.88602,-3.93015 -1.5747,-5.71291 0.91117,0.2667 1.7746,0.17762 2.43749,-0.24793 0.18116,-0.10778 0.21294,-0.20449 0.18691,-0.36264 l -0.99693,-5.02792 c -0.0728,-0.28881 -0.20886,-0.35606 -0.44395,-0.37849 -1.13758,-0.026 -2.15188,0.26492 -2.96778,0.85424 -3.0252,2.19063 -2.64745,7.8748 0.84373,12.69593 z"
         id="path815"
         inkscape:connector-curvature="0"
         sodipodi:nodetypes="ccccccccccccccc" />
    </g>
  </g>
</svg>
