<?xml version="1.0" encoding="UTF-8" standalone="no"?>
<!-- Created with Inkscape (http://www.inkscape.org/) -->

<svg
   xmlns:dc="http://purl.org/dc/elements/1.1/"
   xmlns:cc="http://creativecommons.org/ns#"
   xmlns:rdf="http://www.w3.org/1999/02/22-rdf-syntax-ns#"
   xmlns:svg="http://www.w3.org/2000/svg"
   xmlns="http://www.w3.org/2000/svg"
   xmlns:sodipodi="http://sodipodi.sourceforge.net/DTD/sodipodi-0.dtd"
   xmlns:inkscape="http://www.inkscape.org/namespaces/inkscape"
   width="5.2081819mm"
   height="5.208179mm"
   viewBox="0 0 18.454188 18.454177"
   id="svg6293"
   version="1.1"
   inkscape:version="0.91 r13725"
   sodipodi:docname="icone_telephone_cercle.svg">
  <defs
     id="defs6295" />
  <sodipodi:namedview
     id="base"
     pagecolor="#ffffff"
     bordercolor="#666666"
     borderopacity="1.0"
     inkscape:pageopacity="0.0"
     inkscape:pageshadow="2"
     inkscape:zoom="0.98994949"
     inkscape:cx="-104.34477"
     inkscape:cy="-318.72709"
     inkscape:document-units="px"
     inkscape:current-layer="layer1"
     showgrid="false"
     fit-margin-top="0"
     fit-margin-left="0"
     fit-margin-right="0"
     fit-margin-bottom="0"
     inkscape:window-width="1920"
     inkscape:window-height="1020"
     inkscape:window-x="0"
     inkscape:window-y="0"
     inkscape:window-maximized="1" />
  <metadata
     id="metadata6298">
    <rdf:RDF>
      <cc:Work
         rdf:about="">
        <dc:format>image/svg+xml</dc:format>
        <dc:type
           rdf:resource="http://purl.org/dc/dcmitype/StillImage" />
        <dc:title></dc:title>
      </cc:Work>
    </rdf:RDF>
  </metadata>
  <g
     inkscape:label="Layer 1"
     inkscape:groupmode="layer"
     id="layer1"
     transform="translate(800.65566,-583.13512)">
    <g
       transform="matrix(0.96236911,0,0,0.96236911,-992.7345,-311.73325)"
       id="g6558-4-8-0-09-3-6"
       style="fill:#000000">
      <path
         style="color:#000000;font-style:normal;font-variant:normal;font-weight:normal;font-stretch:normal;font-size:medium;line-height:normal;font-family:sans-serif;text-indent:0;text-align:start;text-decoration:none;text-decoration-line:none;text-decoration-style:solid;text-decoration-color:#000000;letter-spacing:normal;word-spacing:normal;text-transform:none;direction:ltr;block-progression:tb;writing-mode:lr-tb;baseline-shift:baseline;text-anchor:start;white-space:normal;clip-rule:nonzero;display:inline;overflow:visible;visibility:visible;opacity:1;isolation:auto;mix-blend-mode:normal;color-interpolation:sRGB;color-interpolation-filters:linearRGB;solid-color:#000000;solid-opacity:1;fill:#000000;fill-opacity:1;fill-rule:nonzero;stroke:none;stroke-width:1.5;stroke-linecap:square;stroke-linejoin:bevel;stroke-miterlimit:4;stroke-dasharray:none;stroke-dashoffset:0;stroke-opacity:1;color-rendering:auto;image-rendering:auto;shape-rendering:auto;text-rendering:auto;enable-background:accumulate"
         d="m 209.17747,929.85982 c -5.28657,0 -9.58789,4.30133 -9.5879,9.58789 1e-5,5.28656 4.30133,9.58789 9.5879,9.58789 5.28656,0 9.58789,-4.30133 9.58789,-9.58789 0,-5.28656 -4.30133,-9.58789 -9.58789,-9.58789 z m 0,1.5 c 4.4759,0 8.08789,3.61199 8.08789,8.08789 0,4.4759 -3.61199,8.08789 -8.08789,8.08789 -4.4759,0 -8.08789,-3.61199 -8.0879,-8.08789 1e-5,-4.4759 3.612,-8.08789 8.0879,-8.08789 z"
         id="path6262-3-2-8-8-5-7"
         inkscape:connector-curvature="0" />
      <path
         style="color:#000000;font-style:normal;font-variant:normal;font-weight:normal;font-stretch:normal;font-size:medium;line-height:normal;font-family:sans-serif;text-indent:0;text-align:start;text-decoration:none;text-decoration-line:none;text-decoration-style:solid;text-decoration-color:#000000;letter-spacing:normal;word-spacing:normal;text-transform:none;direction:ltr;block-progression:tb;writing-mode:lr-tb;baseline-shift:baseline;text-anchor:start;white-space:normal;clip-rule:nonzero;display:inline;overflow:visible;visibility:visible;opacity:1;isolation:auto;mix-blend-mode:normal;color-interpolation:sRGB;color-interpolation-filters:linearRGB;solid-color:#000000;solid-opacity:1;fill:#000000;fill-opacity:1;fill-rule:nonzero;stroke:none;stroke-width:1.27673864;stroke-linecap:square;stroke-linejoin:bevel;stroke-miterlimit:4;stroke-dasharray:none;stroke-dashoffset:0;stroke-opacity:1;color-rendering:auto;image-rendering:auto;shape-rendering:auto;text-rendering:auto;enable-background:accumulate"
         d="m 211.85715,932.95748 c -0.66939,0.0225 -1.38248,0.22733 -2.07812,0.55859 -1.39128,0.66252 -2.81489,1.8539 -4.01953,3.42188 -1.20465,1.56797 -1.96858,3.225 -2.22657,4.71484 -0.25798,1.48984 -0.004,2.90853 1.03321,3.70508 0.86107,0.66153 2.02047,0.67486 3.15234,0.30469 l 0.41797,-0.76954 c -0.0813,-0.30667 -0.10379,-0.66887 -0.0566,-1.02929 0.0267,-0.20029 0.0736,-0.39739 0.13867,-0.58008 l -0.0195,-0.47852 c -0.0721,-0.1585 -0.095,-0.15244 -0.11719,-0.17773 -0.0222,-0.0253 -0.0379,-0.0416 -0.0547,-0.0586 -0.0336,-0.0339 -0.0659,-0.0651 -0.0957,-0.0937 -0.029,-0.0278 -0.0555,-0.0514 -0.0684,-0.0644 0.008,0.008 0.0236,-0.0155 0.0918,0.15625 l 0.004,0.008 c -0.11859,-0.30858 -0.39374,-0.49329 -0.58985,-0.57227 -0.13779,-0.0555 -0.23064,-0.0669 -0.32812,-0.0859 0.0555,-0.32488 0.17792,-0.81569 0.4414,-1.38476 0.31331,-0.67669 0.7202,-1.36317 1.00391,-1.73242 0.29162,-0.37955 0.80697,-0.90854 1.33984,-1.34375 0.45027,-0.36775 0.87045,-0.58508 1.17383,-0.70899 0.0147,0.0242 0.0177,0.0238 0.0332,0.0508 0.076,0.13266 0.15984,0.2926 0.28907,0.46094 0.12922,0.16834 0.33652,0.41387 0.73242,0.44336 l -0.0547,-0.008 c 0.0528,0.009 0.1102,0.0193 0.17383,0.0312 l 0.44922,-0.082 c 0.12218,-0.0742 0.25196,-0.13906 0.38672,-0.19531 0.36964,-0.15236 0.76289,-0.22293 1.10156,-0.20899 l 0.66211,-0.58203 c 0.1111,-1.2681 -0.18934,-2.46186 -1.0957,-3.1582 -0.52482,-0.40321 -1.15092,-0.56351 -1.82032,-0.54102 z m -0.002,1.27929 c 0.43444,-0.02 0.78887,0.0767 1.04492,0.27344 0.36955,0.28392 0.54561,0.85113 0.56641,1.58203 -0.31711,0.0488 -0.63854,0.0482 -0.94336,0.17383 l -0.002,0.002 c -0.0841,0.035 -0.16082,0.0828 -0.24219,0.12305 -0.0404,-0.0631 -0.0797,-0.12558 -0.13867,-0.22852 -0.0822,-0.14344 -0.16994,-0.30601 -0.32813,-0.47851 -0.15819,-0.17251 -0.51633,-0.40367 -0.90234,-0.3086 -0.66455,0.16367 -1.28333,0.59581 -1.89063,1.0918 -0.60729,0.49599 -1.16546,1.05886 -1.54492,1.55273 -0.38127,0.49625 -0.80164,1.22137 -1.15039,1.97462 -0.34875,0.75324 -0.63719,1.48194 -0.64453,2.16992 -0.003,0.31927 0.24357,0.6731 0.46094,0.79687 0.21736,0.12377 0.38457,0.14421 0.51367,0.16992 0.10908,0.0217 0.16842,0.0374 0.20117,0.0469 0.009,0.008 0.03,0.0523 0.0371,0.0606 0.0107,0.0125 0.0167,0.0199 0.0254,0.0293 -0.0348,0.14342 -0.084,0.28245 -0.10352,0.42969 -0.0365,0.27903 0.027,0.54751 0.0469,0.82227 -0.63949,0.12198 -1.17369,0.0869 -1.51563,-0.17579 -0.52494,-0.4033 -0.76652,-1.2493 -0.55468,-2.47265 0.21183,-1.22335 0.88402,-2.72716 1.98047,-4.1543 1.09644,-1.42714 2.40172,-2.49691 3.55664,-3.04687 0.57746,-0.27498 1.0929,-0.41358 1.52734,-0.4336 z"
         id="path6241-5-6-1-09-7-0"
         inkscape:connector-curvature="0" />
    </g>
  </g>
</svg>
