<?xml version="1.0" encoding="UTF-8" standalone="no"?>
<!-- Created with Inkscape (http://www.inkscape.org/) -->

<svg
   xmlns:dc="http://purl.org/dc/elements/1.1/"
   xmlns:cc="http://creativecommons.org/ns#"
   xmlns:rdf="http://www.w3.org/1999/02/22-rdf-syntax-ns#"
   xmlns:svg="http://www.w3.org/2000/svg"
   xmlns="http://www.w3.org/2000/svg"
   xmlns:sodipodi="http://sodipodi.sourceforge.net/DTD/sodipodi-0.dtd"
   xmlns:inkscape="http://www.inkscape.org/namespaces/inkscape"
   width="300"
   height="300"
   viewBox="0 0 300 300"
   id="svg2"
   version="1.1"
   inkscape:version="0.92.4 (unknown)"
   sodipodi:docname="user_group.svg">
  <defs
     id="defs4" />
  <sodipodi:namedview
     id="base"
     pagecolor="#ffffff"
     bordercolor="#666666"
     borderopacity="1.0"
     inkscape:pageopacity="0.0"
     inkscape:pageshadow="2"
     inkscape:zoom="4.4073815"
     inkscape:cx="-1.3582058"
     inkscape:cy="39.292614"
     inkscape:document-units="px"
     inkscape:current-layer="layer1"
     showgrid="false"
     units="px"
     inkscape:window-width="1920"
     inkscape:window-height="1023"
     inkscape:window-x="0"
     inkscape:window-y="0"
     inkscape:window-maximized="1" />
  <metadata
     id="metadata7">
    <rdf:RDF>
      <cc:Work
         rdf:about="">
        <dc:format>image/svg+xml</dc:format>
        <dc:type
           rdf:resource="http://purl.org/dc/dcmitype/StillImage" />
        <dc:title></dc:title>
      </cc:Work>
    </rdf:RDF>
  </metadata>
  <g
     inkscape:label="Layer 1"
     inkscape:groupmode="layer"
     id="layer1"
     transform="translate(0,-752.36216)">
    <g
       id="g824"
       transform="matrix(3.5968527,0,0,3.5968527,-19.656236,-2699.0256)">
      <path
         sodipodi:nodetypes="scccccccscccs"
         inkscape:connector-curvature="0"
         id="rect4192-5"
         d="m 13.916016,989.94224 c -3.747978,0 -6.958206,2.44501 -8.4511722,5.98633 0.8792061,3.7325 1.5349163,7.86093 1.9199222,12.08793 0.1290718,1.473 0.2244073,2.9481 0.285156,4.4121 h 18.908203 c -0.293728,-1.5545 -0.612681,-3.0716 -0.955078,-4.543 1.494794,-3.5457 4.359887,-6.5562 7.485282,-8.25794 0.260035,-1.48251 0.592789,-2.32056 0.915109,-3.703 -1.493578,-3.53964 -4.702407,-5.98242 -8.449219,-5.98242 h -1.091797 c -1.448478,0.80687 -3.078286,1.2323 -4.736328,1.23633 -1.664661,-7.2e-4 -3.301599,-0.42625 -4.75586,-1.23633 z"
         style="color:#000000;clip-rule:nonzero;display:inline;overflow:visible;visibility:visible;opacity:1;isolation:auto;mix-blend-mode:normal;color-interpolation:sRGB;color-interpolation-filters:linearRGB;solid-color:#000000;solid-opacity:1;fill:#000000;fill-opacity:1;fill-rule:nonzero;stroke:none;stroke-width:2;stroke-linecap:round;stroke-linejoin:miter;stroke-miterlimit:4;stroke-dasharray:none;stroke-dashoffset:0;stroke-opacity:1;color-rendering:auto;image-rendering:auto;shape-rendering:auto;text-rendering:auto;enable-background:accumulate" />
      <circle
         r="7.8664517"
         cy="981.61035"
         cx="19.744665"
         id="path4136-6"
         style="color:#000000;clip-rule:nonzero;display:inline;overflow:visible;visibility:visible;opacity:1;isolation:auto;mix-blend-mode:normal;color-interpolation:sRGB;color-interpolation-filters:linearRGB;solid-color:#000000;solid-opacity:1;fill:#000000;fill-opacity:1;fill-rule:nonzero;stroke:none;stroke-width:1.85063958;stroke-linecap:round;stroke-linejoin:miter;stroke-miterlimit:4;stroke-dasharray:none;stroke-dashoffset:0;stroke-opacity:1;color-rendering:auto;image-rendering:auto;shape-rendering:auto;text-rendering:auto;enable-background:accumulate" />
      <path
         sodipodi:nodetypes="scccsccccscccs"
         inkscape:connector-curvature="0"
         id="rect4192-5-9"
         d="m 68.763672,985.28794 c -1.291724,0 -3.399526,0.73754 -4.515216,1.26347 1.16362,4.09646 -0.327706,9.03751 -2.986737,11.44747 l 0.517578,1.34372 h 0.541015 c 5.308535,0 9.857244,3.4408 12.007813,8.4336 h 12.337891 c 0.06138,-1.4648 0.157372,-2.9405 0.287109,-4.414 0.38428,-4.22716 1.039323,-8.35621 1.917969,-12.08988 -1.493577,-3.53964 -4.702407,-5.98438 -8.449219,-5.98438 h -1.091797 c -1.448297,0.80755 -3.078115,1.23365 -4.736328,1.23828 -1.664832,-10e-4 -3.301781,-0.42753 -4.755859,-1.23828 z"
         style="color:#000000;clip-rule:nonzero;display:inline;overflow:visible;visibility:visible;opacity:1;isolation:auto;mix-blend-mode:normal;color-interpolation:sRGB;color-interpolation-filters:linearRGB;solid-color:#000000;solid-opacity:1;fill:#000000;fill-opacity:1;fill-rule:nonzero;stroke:none;stroke-width:2;stroke-linecap:round;stroke-linejoin:miter;stroke-miterlimit:4;stroke-dasharray:none;stroke-dashoffset:0;stroke-opacity:1;color-rendering:auto;image-rendering:auto;shape-rendering:auto;text-rendering:auto;enable-background:accumulate" />
      <circle
         r="7.8664517"
         cy="976.95764"
         cx="74.592255"
         id="path4136-6-1"
         style="color:#000000;clip-rule:nonzero;display:inline;overflow:visible;visibility:visible;opacity:1;isolation:auto;mix-blend-mode:normal;color-interpolation:sRGB;color-interpolation-filters:linearRGB;solid-color:#000000;solid-opacity:1;fill:#000000;fill-opacity:1;fill-rule:nonzero;stroke:none;stroke-width:1.85063958;stroke-linecap:round;stroke-linejoin:miter;stroke-miterlimit:4;stroke-dasharray:none;stroke-dashoffset:0;stroke-opacity:1;color-rendering:auto;image-rendering:auto;shape-rendering:auto;text-rendering:auto;enable-background:accumulate" />
      <path
         inkscape:connector-curvature="0"
         id="rect4192"
         d="m 41.682617,1001.3426 c -5.348185,0 -9.928203,3.4897 -12.058594,8.543 a 40.97945,12.121767 85.208109 0 1 2.738281,17.248 40.97945,12.121767 85.208109 0 1 0.408204,6.2969 h 34.458984 a 12.121767,40.97945 4.791891 0 1 0.408204,-6.2969 12.121767,40.97945 4.791891 0 1 2.738281,-17.2519 c -2.131263,-5.0509 -6.710122,-8.5391 -12.056641,-8.5391 h -1.558594 a 13.958014,13.958014 0 0 1 -6.759766,1.7657 13.958014,13.958014 0 0 1 -6.785156,-1.7657 z"
         style="color:#000000;clip-rule:nonzero;display:inline;overflow:visible;visibility:visible;opacity:1;isolation:auto;mix-blend-mode:normal;color-interpolation:sRGB;color-interpolation-filters:linearRGB;solid-color:#000000;solid-opacity:1;fill:#000000;fill-opacity:1;fill-rule:nonzero;stroke:none;stroke-width:2;stroke-linecap:round;stroke-linejoin:miter;stroke-miterlimit:4;stroke-dasharray:none;stroke-dashoffset:0;stroke-opacity:1;color-rendering:auto;image-rendering:auto;shape-rendering:auto;text-rendering:auto;enable-background:accumulate" />
      <circle
         r="11.225047"
         cy="989.45453"
         cx="50"
         id="path4136"
         style="color:#000000;clip-rule:nonzero;display:inline;overflow:visible;visibility:visible;opacity:1;isolation:auto;mix-blend-mode:normal;color-interpolation:sRGB;color-interpolation-filters:linearRGB;solid-color:#000000;solid-opacity:1;fill:#000000;fill-opacity:1;fill-rule:nonzero;stroke:none;stroke-width:1.85063958;stroke-linecap:round;stroke-linejoin:miter;stroke-miterlimit:4;stroke-dasharray:none;stroke-dashoffset:0;stroke-opacity:1;color-rendering:auto;image-rendering:auto;shape-rendering:auto;text-rendering:auto;enable-background:accumulate" />
    </g>
  </g>
</svg>
