<?xml version="1.0" encoding="UTF-8" standalone="no"?>
<!-- Created with Inkscape (http://www.inkscape.org/) -->

<svg
   xmlns:dc="http://purl.org/dc/elements/1.1/"
   xmlns:cc="http://creativecommons.org/ns#"
   xmlns:rdf="http://www.w3.org/1999/02/22-rdf-syntax-ns#"
   xmlns:svg="http://www.w3.org/2000/svg"
   xmlns="http://www.w3.org/2000/svg"
   xmlns:sodipodi="http://sodipodi.sourceforge.net/DTD/sodipodi-0.dtd"
   xmlns:inkscape="http://www.inkscape.org/namespaces/inkscape"
   width="13.798644mm"
   height="15.571326mm"
   viewBox="0 0 48.892833 55.17399"
   id="svg9622"
   version="1.1"
   inkscape:version="0.91 r13725"
   sodipodi:docname="icone_rouages.svg">
  <defs
     id="defs9624" />
  <sodipodi:namedview
     id="base"
     pagecolor="#ffffff"
     bordercolor="#666666"
     borderopacity="1.0"
     inkscape:pageopacity="0.0"
     inkscape:pageshadow="2"
     inkscape:zoom="0.35"
     inkscape:cx="-270.55358"
     inkscape:cy="-52.413004"
     inkscape:document-units="px"
     inkscape:current-layer="layer1"
     showgrid="false"
     fit-margin-top="0"
     fit-margin-left="0"
     fit-margin-right="0"
     fit-margin-bottom="0"
     inkscape:window-width="1920"
     inkscape:window-height="1020"
     inkscape:window-x="0"
     inkscape:window-y="0"
     inkscape:window-maximized="1" />
  <metadata
     id="metadata9627">
    <rdf:RDF>
      <cc:Work
         rdf:about="">
        <dc:format>image/svg+xml</dc:format>
        <dc:type
           rdf:resource="http://purl.org/dc/dcmitype/StillImage" />
        <dc:title></dc:title>
      </cc:Work>
    </rdf:RDF>
  </metadata>
  <g
     inkscape:label="Layer 1"
     inkscape:groupmode="layer"
     id="layer1"
     transform="translate(87.303564,-424.77521)">
    <g
       id="g5889"
       transform="matrix(0.9028567,0,0,0.9028567,-798.43156,31.560638)">
      <path
         inkscape:connector-curvature="0"
         id="path5744"
         d="m 804.97415,465.03324 c -0.22364,-0.0538 -0.44771,0.0869 -0.50266,0.31533 l -1.0124,4.20927 a 11.194862,11.194862 0 0 0 -2.06666,0.36009 l -2.27926,-3.72286 c -0.1227,-0.20042 -0.37909,-0.26553 -0.57517,-0.14582 l -4.55542,2.78803 c -0.19618,0.1201 -0.25504,0.37918 -0.13195,0.57967 l 2.26659,3.70219 a 11.194862,11.194862 0 0 0 -1.27783,1.69035 l -4.17925,-1.00518 c -0.22847,-0.055 -0.45562,0.0806 -0.50942,0.3043 l -1.24873,5.19185 c -0.0538,0.22363 0.0866,0.44882 0.31507,0.50376 l 3.94695,0.94931 a 11.194862,11.194862 0 0 0 0.2584,2.35262 l -3.35886,2.0564 c -0.20039,0.12268 -0.26551,0.37908 -0.14581,0.57517 l 2.78941,4.55457 c 0.1201,0.19618 0.3778,0.25589 0.57815,0.13345 l 3.08447,-1.88841 a 11.194862,11.194862 0 0 0 2.11665,1.69548 l -0.8135,3.3823 c -0.0549,0.22848 0.0806,0.45563 0.3043,0.50942 l 5.19294,1.24899 c 0.22365,0.0538 0.44771,-0.0869 0.50266,-0.31533 l 0.76298,-3.17223 a 11.194862,11.194862 0 0 0 2.91771,-0.41291 l 1.67737,2.73975 c 0.12269,0.20042 0.37936,0.26442 0.5756,0.14405 l 4.5543,-2.78828 c 0.19618,-0.12012 0.25589,-0.37781 0.13345,-0.57815 l -1.67905,-2.74251 a 11.194862,11.194862 0 0 0 1.6673,-2.41504 l 3.20224,0.77019 c 0.22847,0.055 0.4559,-0.0818 0.50968,-0.3054 l 1.24873,-5.19185 c 0.0538,-0.22364 -0.0869,-0.44771 -0.31533,-0.50265 l -3.4379,-0.82688 a 11.194862,11.194862 0 0 0 -0.5303,-2.62024 l 3.12169,-1.91121 c 0.20042,-0.12269 0.26469,-0.38046 0.14432,-0.57671 l -2.78828,-4.5543 c -0.12011,-0.19618 -0.37808,-0.25478 -0.57858,-0.13168 l -3.40849,2.08678 a 11.194862,11.194862 0 0 0 -1.93967,-1.28252 l 0.9608,-3.99476 c 0.055,-0.22846 -0.0806,-0.45562 -0.3043,-0.50941 l -5.19294,-1.24899 z m 0.099,11.00819 a 4.2803884,4.2803884 0 0 1 3.16058,5.16237 4.2803884,4.2803884 0 0 1 -5.16265,3.16169 4.2803884,4.2803884 0 0 1 -3.16031,-5.16349 4.2803884,4.2803884 0 0 1 5.16238,-3.16057 z"
         style="color:#000000;clip-rule:nonzero;display:inline;overflow:visible;visibility:visible;opacity:1;isolation:auto;mix-blend-mode:normal;color-interpolation:sRGB;color-interpolation-filters:linearRGB;solid-color:#000000;solid-opacity:1;fill:#ffffff;fill-opacity:1;fill-rule:nonzero;stroke:#000000;stroke-width:2.5;stroke-linecap:round;stroke-linejoin:round;stroke-miterlimit:4;stroke-dasharray:none;stroke-dashoffset:0;stroke-opacity:1;color-rendering:auto;image-rendering:auto;shape-rendering:auto;text-rendering:auto;enable-background:accumulate" />
      <path
         inkscape:connector-curvature="0"
         id="path5744-2"
         d="m 825.12427,464.4542 c -0.13825,0.0549 -0.20427,0.21276 -0.14816,0.354 l 1.03355,2.60207 a 7.2398707,7.2398707 0 0 0 -0.95813,0.96049 l -2.59207,-1.1183 c -0.13954,-0.0603 -0.29934,9.1e-4 -0.3583,0.13743 l -1.36874,3.17123 c -0.0589,0.1366 0.006,0.29547 0.14615,0.35563 l 2.57767,1.11207 a 7.2398707,7.2398707 0 0 0 -0.0454,1.36964 l -2.58351,1.02619 c -0.14123,0.0561 -0.21076,0.21241 -0.15585,0.35067 l 1.27482,3.20948 c 0.0549,0.13824 0.21303,0.20494 0.35426,0.14884 l 2.43992,-0.96914 a 7.2398707,7.2398707 0 0 0 1.01331,1.14718 l -1.00896,2.33862 c -0.0602,0.13952 9.1e-4,0.29931 0.13743,0.35828 l 3.17165,1.36777 c 0.13659,0.0589 0.29504,-0.005 0.35527,-0.14502 l 0.92653,-2.14758 a 7.2398707,7.2398707 0 0 0 1.7506,0.10733 l 0.83049,2.09086 c 0.0561,0.14124 0.21243,0.21076 0.35069,0.15585 l 3.21014,-1.27508 c 0.13826,-0.0549 0.20427,-0.21276 0.14817,-0.354 l -0.77892,-1.96099 a 7.2398707,7.2398707 0 0 0 1.38827,-1.30557 l 1.90757,0.82297 c 0.13953,0.0602 0.29906,-0.002 0.35796,-0.13826 l 1.36805,-3.17097 c 0.0589,-0.13659 -0.005,-0.29505 -0.14502,-0.35526 l -1.9095,-0.82382 a 7.2398707,7.2398707 0 0 0 -0.0187,-1.8978 l 1.97956,-0.78629 c 0.14122,-0.0561 0.21049,-0.21311 0.15558,-0.35135 l -1.27482,-3.20947 c -0.0549,-0.13825 -0.21277,-0.20427 -0.354,-0.14818 l -2.12523,0.84415 a 7.2398707,7.2398707 0 0 0 -1.25675,-1.18728 l 0.93772,-2.17351 c 0.0602,-0.13954 -0.002,-0.29973 -0.13855,-0.35864 l -3.17097,-1.36805 c -0.13658,-0.0589 -0.29477,0.006 -0.35492,0.14588 l -1.02387,2.37318 a 7.2398707,7.2398707 0 0 0 -1.50316,0.045 l -0.98088,-2.46945 c -0.0561,-0.14125 -0.21242,-0.21078 -0.35068,-0.15585 l -3.21014,1.27508 z m 4.15471,5.78141 a 2.7681858,2.7681858 0 0 1 3.59435,1.55071 2.7681858,2.7681858 0 0 1 -1.55044,3.59503 2.7681858,2.7681858 0 0 1 -3.59463,-1.55139 2.7681858,2.7681858 0 0 1 1.55072,-3.59435 z"
         style="color:#000000;clip-rule:nonzero;display:inline;overflow:visible;visibility:visible;opacity:1;isolation:auto;mix-blend-mode:normal;color-interpolation:sRGB;color-interpolation-filters:linearRGB;solid-color:#000000;solid-opacity:1;fill:#ffffff;fill-opacity:1;fill-rule:nonzero;stroke:#000000;stroke-width:2.5;stroke-linecap:round;stroke-linejoin:round;stroke-miterlimit:4;stroke-dasharray:none;stroke-dashoffset:0;stroke-opacity:1;color-rendering:auto;image-rendering:auto;shape-rendering:auto;text-rendering:auto;enable-background:accumulate" />
      <path
         inkscape:connector-curvature="0"
         id="path5744-2-0"
         d="m 824.58504,437.42369 c -0.18028,0.0279 -0.30229,0.19859 -0.27378,0.38275 l 0.52529,3.39296 a 8.8781436,8.8781436 0 0 0 -1.40767,0.88673 l -2.79356,-2.04456 c -0.15037,-0.11013 -0.35806,-0.0808 -0.46588,0.0665 l -2.50204,3.4176 c -0.10774,0.14722 -0.0727,0.35506 0.0776,0.46505 l 2.77805,2.03319 a 8.8781436,8.8781436 0 0 0 -0.42821,1.625 l -3.36876,0.52155 c -0.18417,0.0285 -0.30996,0.1964 -0.28206,0.3767 l 0.64792,4.18496 c 0.0279,0.18028 0.19873,0.30317 0.38289,0.27467 l 3.18151,-0.49255 a 8.8781436,8.8781436 0 0 0 0.89827,1.64808 l -1.84465,2.52041 c -0.11005,0.15039 -0.0808,0.35803 0.0665,0.46586 l 3.41836,2.50102 c 0.14721,0.10774 0.35415,0.0743 0.46433,-0.0764 l 1.69393,-2.31452 a 8.8781436,8.8781436 0 0 0 2.06357,0.6062 l 0.42208,2.72637 c 0.0285,0.18418 0.19642,0.30997 0.3767,0.28206 l 4.18586,-0.64805 c 0.18028,-0.0279 0.30228,-0.19858 0.27376,-0.38275 l -0.39587,-2.55704 a 8.8781436,8.8781436 0 0 0 2.01611,-1.18184 l 2.05586,1.50462 c 0.15038,0.11005 0.35792,0.0799 0.46569,-0.0675 l 2.50115,-3.41748 c 0.10774,-0.14721 0.0743,-0.35415 -0.0764,-0.4643 l -2.05794,-1.50615 a 8.8781436,8.8781436 0 0 0 0.49566,-2.27397 l 2.58124,-0.39961 c 0.18416,-0.0285 0.30981,-0.19733 0.28191,-0.37759 l -0.64792,-4.18497 c -0.0279,-0.18028 -0.19859,-0.3023 -0.38275,-0.27379 l -2.77118,0.42903 a 8.8781436,8.8781436 0 0 0 -1.17835,-1.76249 l 1.71441,-2.34248 c 0.11005,-0.15038 0.0801,-0.35873 -0.0677,-0.46658 l -3.4175,-2.50115 c -0.14719,-0.10774 -0.35421,-0.0725 -0.46412,0.0775 l -1.87192,2.55767 a 8.8781436,8.8781436 0 0 0 -1.80932,-0.35656 l -0.49852,-3.22002 c -0.0285,-0.18419 -0.19641,-0.30998 -0.37669,-0.28206 l -4.18585,0.64804 z m 3.38873,8.04594 a 3.3945842,3.3945842 0 0 1 3.87377,2.83511 3.3945842,3.3945842 0 0 1 -2.83498,3.87465 3.3945842,3.3945842 0 0 1 -3.87391,-2.836 3.3945842,3.3945842 0 0 1 2.83512,-3.87376 z"
         style="color:#000000;clip-rule:nonzero;display:inline;overflow:visible;visibility:visible;opacity:1;isolation:auto;mix-blend-mode:normal;color-interpolation:sRGB;color-interpolation-filters:linearRGB;solid-color:#000000;solid-opacity:1;fill:#ffffff;fill-opacity:1;fill-rule:nonzero;stroke:#000000;stroke-width:2.5;stroke-linecap:round;stroke-linejoin:round;stroke-miterlimit:4;stroke-dasharray:none;stroke-dashoffset:0;stroke-opacity:1;color-rendering:auto;image-rendering:auto;shape-rendering:auto;text-rendering:auto;enable-background:accumulate" />
    </g>
  </g>
</svg>
