<?xml version="1.0" encoding="UTF-8" standalone="no"?>
<!-- Created with Inkscape (http://www.inkscape.org/) -->

<svg
   xmlns:dc="http://purl.org/dc/elements/1.1/"
   xmlns:cc="http://creativecommons.org/ns#"
   xmlns:rdf="http://www.w3.org/1999/02/22-rdf-syntax-ns#"
   xmlns:svg="http://www.w3.org/2000/svg"
   xmlns="http://www.w3.org/2000/svg"
   xmlns:sodipodi="http://sodipodi.sourceforge.net/DTD/sodipodi-0.dtd"
   xmlns:inkscape="http://www.inkscape.org/namespaces/inkscape"
   width="103.91765"
   height="103.91765"
   viewBox="0 0 103.91765 103.91765"
   id="svg2"
   version="1.1"
   inkscape:version="0.91 r13725"
   sodipodi:docname="twitter.svg">
  <defs
     id="defs4" />
  <sodipodi:namedview
     id="base"
     pagecolor="#ffffff"
     bordercolor="#666666"
     borderopacity="1.0"
     inkscape:pageopacity="0.0"
     inkscape:pageshadow="2"
     inkscape:zoom="2"
     inkscape:cx="-96.895194"
     inkscape:cy="-34.125387"
     inkscape:document-units="px"
     inkscape:current-layer="layer1"
     showgrid="false"
     inkscape:window-width="1920"
     inkscape:window-height="1025"
     inkscape:window-x="0"
     inkscape:window-y="0"
     inkscape:window-maximized="1"
     units="px"
     fit-margin-top="0"
     fit-margin-left="0"
     fit-margin-right="0"
     fit-margin-bottom="0" />
  <metadata
     id="metadata7">
    <rdf:RDF>
      <cc:Work
         rdf:about="">
        <dc:format>image/svg+xml</dc:format>
        <dc:type
           rdf:resource="http://purl.org/dc/dcmitype/StillImage" />
        <dc:title />
      </cc:Work>
    </rdf:RDF>
  </metadata>
  <g
     inkscape:label="Layer 1"
     inkscape:groupmode="layer"
     id="layer1"
     transform="translate(1.9588242,-950.40342)">
    <circle
       style="color:#000000;clip-rule:nonzero;display:inline;overflow:visible;visibility:visible;opacity:1;isolation:auto;mix-blend-mode:normal;color-interpolation:sRGB;color-interpolation-filters:linearRGB;solid-color:#000000;solid-opacity:1;fill:#ffffff;fill-opacity:1;fill-rule:nonzero;stroke:#000000;stroke-width:6;stroke-linecap:round;stroke-linejoin:miter;stroke-miterlimit:4;stroke-dasharray:none;stroke-dashoffset:0;stroke-opacity:1;color-rendering:auto;image-rendering:auto;shape-rendering:auto;text-rendering:auto;enable-background:accumulate"
       id="path4155"
       cx="50"
       cy="1002.3622"
       r="48.958824" />
    <g
       id="g4285"
       transform="matrix(0.20142218,0,0,0.20142218,18.862251,971.14181)"
       style="fill:#ffffff;stroke:#000000;stroke-width:39.71757126;stroke-miterlimit:4;stroke-dasharray:none;stroke-opacity:1">
      <g
         id="XMLID_826_"
         style="fill:#ffffff;stroke:#000000;stroke-width:39.71757126;stroke-miterlimit:4;stroke-dasharray:none;stroke-opacity:1">
        <path
           d="m 301.474,39.121 c -26.0757,7.022691 -31.76268,5.594989 -42.191,7.959 -12.381,-12.098 -29.197,-18.983 -46.581,-18.983 -36.695,0 -66.549,29.853 -66.549,66.547 0,2.89 0.183,5.764 0.545,8.598 C 101.163,99.244 58.83,76.863 29.76,41.204 c -1.036,-1.271 -2.632,-1.956 -4.266,-1.825 -1.635,0.128 -3.104,1.05 -3.93,2.467 -5.896,10.117 -9.013,21.688 -9.013,33.461 0,16.035 5.725,31.249 15.838,43.137 -3.075,-1.065 -6.059,-2.396 -8.907,-3.977 -1.529,-0.851 -3.395,-0.838 -4.914,0.033 -1.52,0.871 -2.473,2.473 -2.513,4.224 -0.007,0.295 -0.007,0.59 -0.007,0.889 0,23.935 12.882,45.484 32.577,57.229 -1.692,-0.169 -3.383,-0.414 -5.063,-0.735 -1.732,-0.331 -3.513,0.276 -4.681,1.597 -1.17,1.32 -1.557,3.16 -1.018,4.84 7.29,22.76 26.059,39.501 48.749,44.605 -18.819,11.787 -40.34,17.961 -62.932,17.961 -4.714,0 -9.455,-0.277 -14.095,-0.826 -2.305,-0.274 -4.509,1.087 -5.294,3.279 -0.785,2.193 0.047,4.638 2.008,5.895 29.023,18.609 62.582,28.445 97.047,28.445 67.754,0 110.139,-31.95 133.764,-58.753 29.46,-33.421 46.356,-77.658 46.356,-121.367 0,-1.826 -0.028,-3.67 -0.084,-5.508 11.623,-8.757 21.63,-19.355 29.773,-31.536 -14.26332,-12.892182 -17.08815,5.239086 -7.681,-25.618 z"
           id="XMLID_827_"
           inkscape:connector-curvature="0"
           style="fill:#ffffff;stroke:#000000;stroke-width:39.71757126;stroke-linecap:round;stroke-linejoin:round;stroke-miterlimit:4;stroke-dasharray:none;stroke-opacity:1"
           sodipodi:nodetypes="ccssccccsccccscccccscccscsccc" />
      </g>
      <g
         id="g4249"
         style="fill:#ffffff;stroke:#000000;stroke-width:39.71757126;stroke-miterlimit:4;stroke-dasharray:none;stroke-opacity:1" />
      <g
         id="g4251"
         style="fill:#ffffff;stroke:#000000;stroke-width:39.71757126;stroke-miterlimit:4;stroke-dasharray:none;stroke-opacity:1" />
      <g
         id="g4253"
         style="fill:#ffffff;stroke:#000000;stroke-width:39.71757126;stroke-miterlimit:4;stroke-dasharray:none;stroke-opacity:1" />
      <g
         id="g4255"
         style="fill:#ffffff;stroke:#000000;stroke-width:39.71757126;stroke-miterlimit:4;stroke-dasharray:none;stroke-opacity:1" />
      <g
         id="g4257"
         style="fill:#ffffff;stroke:#000000;stroke-width:39.71757126;stroke-miterlimit:4;stroke-dasharray:none;stroke-opacity:1" />
      <g
         id="g4259"
         style="fill:#ffffff;stroke:#000000;stroke-width:39.71757126;stroke-miterlimit:4;stroke-dasharray:none;stroke-opacity:1" />
      <g
         id="g4261"
         style="fill:#ffffff;stroke:#000000;stroke-width:39.71757126;stroke-miterlimit:4;stroke-dasharray:none;stroke-opacity:1" />
      <g
         id="g4263"
         style="fill:#ffffff;stroke:#000000;stroke-width:39.71757126;stroke-miterlimit:4;stroke-dasharray:none;stroke-opacity:1" />
      <g
         id="g4265"
         style="fill:#ffffff;stroke:#000000;stroke-width:39.71757126;stroke-miterlimit:4;stroke-dasharray:none;stroke-opacity:1" />
      <g
         id="g4267"
         style="fill:#ffffff;stroke:#000000;stroke-width:39.71757126;stroke-miterlimit:4;stroke-dasharray:none;stroke-opacity:1" />
      <g
         id="g4269"
         style="fill:#ffffff;stroke:#000000;stroke-width:39.71757126;stroke-miterlimit:4;stroke-dasharray:none;stroke-opacity:1" />
      <g
         id="g4271"
         style="fill:#ffffff;stroke:#000000;stroke-width:39.71757126;stroke-miterlimit:4;stroke-dasharray:none;stroke-opacity:1" />
      <g
         id="g4273"
         style="fill:#ffffff;stroke:#000000;stroke-width:39.71757126;stroke-miterlimit:4;stroke-dasharray:none;stroke-opacity:1" />
      <g
         id="g4275"
         style="fill:#ffffff;stroke:#000000;stroke-width:39.71757126;stroke-miterlimit:4;stroke-dasharray:none;stroke-opacity:1" />
      <g
         id="g4277"
         style="fill:#ffffff;stroke:#000000;stroke-width:39.71757126;stroke-miterlimit:4;stroke-dasharray:none;stroke-opacity:1" />
    </g>
  </g>
</svg>
